<svg width="80" height="80" viewBox="0 0 80 80" fill="none" xmlns="http://www.w3.org/2000/svg">
<g clip-path="url(#clip0_1779_49863)">
<path d="M79.3763 25.7623C79.1888 24.8623 78.7263 24.0748 78.0888 23.4747C77.4513 22.8747 76.6263 22.4747 75.7263 22.3497C72.6949 21.92 66.2967 21.5708 60.121 24.5209C59.8079 23.3296 59.0126 22.3069 57.8853 21.7179L50.3262 17.7732C54.7755 13.6328 60.3625 12.2365 63.0761 11.7995C63.6011 11.6995 64.1135 11.9495 64.3761 12.4246C65.0761 13.6995 66.0636 15.7371 66.7636 18.2496C66.9886 19.0622 67.8261 19.5372 68.6636 19.3122C69.4762 19.0871 69.9512 18.2371 69.7262 17.4121C68.9387 14.6246 67.8512 12.3621 67.0761 10.937C66.1886 9.33697 64.3886 8.46194 62.576 8.74949C59.3776 9.27478 52.6045 10.9691 47.4467 16.2704L32.1732 8.29989C30.8871 7.62674 29.3484 7.62827 28.0592 8.29837L2.38461 21.7179C0.913563 22.4858 0 23.9944 0 25.6547V54.3089C0 55.9677 0.912037 57.4733 2.3801 58.2457L28.0547 71.6998C28.7007 72.0363 29.4085 72.2046 30.1147 72.2046C30.8224 72.2046 31.5301 72.0363 32.1762 71.6998L57.8884 58.2457C59.009 57.6589 59.8028 56.6412 60.1182 55.4559C64.5448 54.79 69.6544 52.9327 73.8387 48.4502C81.4014 40.35 80.2263 29.8873 79.3763 25.7623ZM3.80904 55.52C3.35676 55.2826 3.07729 54.8198 3.07729 54.3089V25.6547C3.07729 25.1453 3.35829 24.6825 3.80904 24.4466L29.4821 11.0271C29.6804 10.9234 29.8983 10.8723 30.1162 10.8723C30.3341 10.8723 30.5504 10.9234 30.7473 11.0271L55.4241 23.9055L30.1253 37.1332L8.62479 25.8906C7.87649 25.4924 6.94195 25.7869 6.54971 26.5413C6.15602 27.294 6.44603 28.2227 7.20036 28.6163L28.5866 39.7991V68.502L3.80904 55.52ZM56.464 55.5169L31.6639 68.4923V39.7991L57.1942 26.4506V54.3089C57.1942 54.8198 56.9147 55.2826 56.464 55.5169ZM71.5887 46.3501C68.166 50.0142 64.0025 51.6457 60.2715 52.303V44.785L66.2511 38.3875C66.5386 38.0875 66.6761 37.7 66.6761 37.3125C66.6636 36.9124 66.5011 36.5124 66.1886 36.2124C65.5636 35.6375 64.5886 35.6749 64.0011 36.2874L60.2715 40.2739V27.9036C64.1864 25.6903 68.372 25.1373 71.5637 25.1373C73.0762 25.1373 74.3637 25.2622 75.3013 25.3873C75.8262 25.4623 76.2513 25.8623 76.3638 26.3873C77.1138 30.0373 78.1763 39.3 71.5887 46.3501ZM10.9896 48.8812C10.9896 49.731 10.3007 50.4199 9.45092 50.4199C8.60116 50.4199 7.91229 49.731 7.91229 48.8812C7.91229 48.0315 8.60116 47.3426 9.45092 47.3426C10.3007 47.3426 10.9896 48.0315 10.9896 48.8812ZM34.0156 29.1173C34.0156 29.9671 33.3267 30.656 32.4769 30.656C31.6272 30.656 30.9383 29.9671 30.9383 29.1173C30.9383 28.2676 31.6272 27.5787 32.4769 27.5787C33.3267 27.5787 34.0156 28.2676 34.0156 29.1173ZM46.2106 53.7291C46.2106 54.5788 45.5217 55.2677 44.6719 55.2677C43.8221 55.2677 43.1333 54.5788 43.1333 53.7291C43.1333 52.8793 43.8221 52.1904 44.6719 52.1904C45.5217 52.1904 46.2106 52.8793 46.2106 53.7291ZM53.7037 43.7531C53.7037 44.6028 53.0148 45.2917 52.1651 45.2917C51.3153 45.2917 50.6264 44.6028 50.6264 43.7531C50.6264 42.9033 51.3153 42.2144 52.1651 42.2144C53.0148 42.2144 53.7037 42.9033 53.7037 43.7531ZM25.753 19.3203C25.753 20.1701 25.0641 20.8589 24.2144 20.8589C23.3646 20.8589 22.6758 20.1701 22.6758 19.3203C22.6758 18.4705 23.3646 17.7817 24.2144 17.7817C25.0641 17.7817 25.753 18.4705 25.753 19.3203Z" fill="#3C3C3B"/>
</g>
<defs>
<clipPath id="clip0_1779_49863">
<rect width="80" height="80" fill="white"/>
</clipPath>
</defs>
</svg>
