<svg width="80" height="80" viewBox="0 0 80 80" fill="none" xmlns="http://www.w3.org/2000/svg">
<g clip-path="url(#clip0_1779_50212)">
<g clip-path="url(#clip1_1779_50212)">
<path d="M32.079 63.9762C31.343 63.9762 30.7461 64.5731 30.7461 65.3096V66.6425C30.7364 68.8663 32.1137 70.86 34.196 71.6387C36.2788 72.4174 38.6265 71.8163 40.0783 70.1325C41.5301 71.8163 43.8772 72.4174 45.96 71.6387C48.0428 70.86 49.4196 68.8663 49.4098 66.6425V65.3096C49.4098 64.5731 48.813 63.9762 48.077 63.9762C47.3404 63.9762 46.7436 64.5731 46.7436 65.3096V66.6425C46.7436 68.115 45.5499 69.3087 44.0773 69.3087C42.6048 69.3087 41.4111 68.115 41.4111 66.6425V62.3926C41.8804 62.2199 42.3045 61.9422 42.6511 61.5815L44.6467 59.4481C45.4022 58.6743 45.617 57.5215 45.1898 56.5274C44.6186 55.3367 43.3963 54.5971 42.0763 54.6441H38.0797C36.7597 54.5971 35.5379 55.3367 34.9667 56.5274C34.5401 57.5209 34.7537 58.6736 35.5086 59.4481L37.5066 61.5815C37.8527 61.9422 38.2762 62.2199 38.7449 62.3926V66.6425C38.7449 68.115 37.5512 69.3087 36.0786 69.3087C34.6061 69.3087 33.4124 68.115 33.4124 66.6425V65.3096C33.4124 64.5731 32.8155 63.9762 32.079 63.9762ZM37.4102 57.5941C37.4261 57.5318 37.6256 57.3103 38.0797 57.3103H42.0763C42.5309 57.3103 42.7299 57.5318 42.7 57.6258L40.7044 59.7587C40.3309 60.0284 39.8269 60.0284 39.4534 59.7587L37.4102 57.5941Z" fill="#3C3C3B"/>
<path d="M23.2341 50.0953C25.6068 49.1677 27.4949 49.0578 28.8503 49.7743C29.7956 50.3186 30.4889 51.2139 30.7781 52.266C30.946 52.9727 31.6484 53.4151 32.3581 53.2607C33.0678 53.1069 33.5237 52.4124 33.3834 51.7003C32.9281 49.8975 31.757 48.3585 30.1404 47.4406C28.0661 46.3245 25.417 46.3818 22.2625 47.6115C21.5766 47.88 21.2379 48.6532 21.5058 49.3392C21.7743 50.0251 22.5475 50.3638 23.2341 50.0953Z" fill="#3C3C3B"/>
<path d="M46.4656 53.282C46.811 53.3552 47.1722 53.2887 47.4688 53.0965C47.7654 52.9036 47.9735 52.6009 48.0474 52.2555C48.3323 51.215 49.0152 50.3289 49.9477 49.7876C51.3031 49.0571 53.2016 49.1621 55.5902 50.094C56.2761 50.3625 57.0499 50.0238 57.3179 49.3379C57.5864 48.6519 57.2477 47.8781 56.5617 47.6102C53.4085 46.3799 50.7588 46.3226 48.6839 47.4387C47.0673 48.3572 45.8956 49.8963 45.4409 51.699C45.3665 52.0444 45.433 52.4057 45.6246 52.7029C45.8168 52.9994 46.1195 53.2082 46.4656 53.282Z" fill="#3C3C3B"/>
<path d="M5.41747 51.9778C6.63067 51.9791 7.84326 52.0553 9.04731 52.2055C8.42057 54.2944 8.09591 56.4627 8.08371 58.6437V58.6553C6.8821 59.0099 5.73603 59.5305 4.67783 60.2005C4.27689 60.4629 4.04743 60.92 4.07672 61.3985C4.10601 61.8769 4.38979 62.3023 4.82002 62.5134C5.25026 62.7246 5.76044 62.6886 6.15711 62.4194C6.82718 61.991 7.54667 61.6444 8.29974 61.3869C8.53347 63.0059 8.99727 64.5834 9.67771 66.0712C7.2092 67.6897 5.63472 70.3644 5.41747 73.3083C5.41747 77.4197 9.50379 79.9736 16.0824 79.9736C19.0495 80.1561 21.9971 79.3792 24.4888 77.7584C29.5442 79.2804 34.8004 80.0273 40.0792 79.9736C45.3579 80.0273 50.6141 79.2804 55.6689 77.7584C58.1606 79.3792 61.1082 80.1561 64.0753 79.9736C70.6539 79.9736 74.7402 77.4197 74.7402 73.3083C74.5236 70.3644 72.9485 67.6897 70.48 66.0712C71.1604 64.5834 71.6242 63.0059 71.858 61.3869C72.611 61.6444 73.3305 61.991 74.0012 62.4194C74.3973 62.6886 74.9075 62.7246 75.3377 62.5134C75.7679 62.3023 76.0517 61.8769 76.0816 61.3985C76.1109 60.92 75.8814 60.4629 75.4799 60.2005C74.4217 59.5305 73.2756 59.0099 72.074 58.6553V58.6437C72.0624 56.4627 71.7378 54.2944 71.1104 52.2055C72.3145 52.0553 73.527 51.9797 74.7402 51.9778C75.4768 51.9778 76.0737 51.381 76.0737 50.645C76.0737 49.9084 75.4768 49.3116 74.7402 49.3116C73.2189 49.3122 71.6993 49.4196 70.1926 49.6326C69.6323 48.2589 68.969 46.9291 68.2092 45.6549C69.0862 42.808 72.5219 30.8304 69.5603 26.7459C68.9312 25.8348 67.8888 25.2984 66.7818 25.3155C64.7966 25.4668 62.8664 26.0392 61.1198 26.9949C57.709 22.1738 51.6949 18.7869 44.8398 17.6988C44.8172 15.8826 44.589 14.075 44.16 12.3096C43.861 10.8303 44.4096 9.30706 45.5831 8.35749C47.2461 7.23705 49.9618 8.97081 51.0511 9.7672C52.2045 10.6234 53.7277 10.7955 55.0428 10.2182C56.3579 9.64149 57.2629 8.40326 57.4131 6.97464C57.5638 5.54662 56.9364 4.14729 55.7708 3.30879C48.4538 -2.04626 43.0939 0.40028 41.1203 1.70624C37.1633 4.5281 35.2984 9.45841 36.3974 14.1928C36.6623 15.2742 36.8161 16.3794 36.8551 17.4919C29.363 18.2865 22.6977 21.8101 19.041 26.9858C17.3054 26.0374 15.3879 25.468 13.4162 25.3155C12.3073 25.2984 11.2626 25.836 10.6316 26.7478C7.68154 30.8152 11.1002 42.758 11.9747 45.6006C11.2034 46.8913 10.5309 48.2388 9.96331 49.6314C8.45719 49.419 6.93824 49.3122 5.41747 49.3116C4.68088 49.3116 4.08404 49.9084 4.08404 50.645C4.08404 51.381 4.68088 51.9778 5.41747 51.9778ZM8.08371 73.3083C8.08371 70.3077 11.7746 66.6424 16.0824 66.6424C20.3903 66.6424 24.0811 70.3077 24.0811 73.3083C24.0811 75.249 22.2882 76.3633 19.9625 76.9016C20.0387 76.5983 20.079 76.287 20.0821 75.9746V73.3083C20.0821 72.5718 19.4852 71.9749 18.7487 71.9749C18.0127 71.9749 17.4158 72.5718 17.4158 73.3083V75.9746C17.4158 76.7106 16.819 77.3074 16.0824 77.3074C15.3464 77.3074 14.749 76.7106 14.749 75.9746V73.3083C14.749 72.5718 14.1522 71.9749 13.4162 71.9749C12.6796 71.9749 12.0828 72.5718 12.0828 73.3083V75.9746C12.0858 76.287 12.1261 76.5983 12.2024 76.9016C9.87666 76.3633 8.08371 75.249 8.08371 73.3083ZM72.074 73.3083C72.074 75.249 70.2811 76.3633 67.956 76.9016C68.0316 76.5983 68.0719 76.287 68.075 75.9746V73.3083C68.075 72.5718 67.4781 71.9749 66.7415 71.9749C66.0056 71.9749 65.4087 72.5718 65.4087 73.3083V75.9746C65.4087 76.7106 64.8119 77.3074 64.0753 77.3074C63.3393 77.3074 62.7425 76.7106 62.7425 75.9746V73.3083C62.7425 72.5718 62.1456 71.9749 61.4091 71.9749C60.6731 71.9749 60.0762 72.5718 60.0762 73.3083V75.9746C60.0793 76.287 60.119 76.5983 60.1952 76.9016C57.8695 76.3633 56.0766 75.249 56.0766 73.3083C56.0766 70.3077 59.7675 66.6424 64.0753 66.6424C68.3831 66.6424 72.074 70.3089 72.074 73.3083ZM38.9868 13.5582C38.1306 9.91122 39.5574 6.10746 42.6008 3.92394C44.4639 2.69182 48.4446 1.25099 54.197 5.46119C54.5814 5.74252 54.7871 6.20693 54.7358 6.6811C54.6852 7.15467 54.3849 7.56476 53.9492 7.75761C53.5141 7.95045 53.0082 7.89552 52.6237 7.6148C49.313 5.19389 46.2849 4.67212 44.099 6.14224C41.996 7.71611 41.0068 10.3744 41.5694 12.94C41.9276 14.4003 42.1309 15.8942 42.1772 17.3967C41.4822 17.3491 40.784 17.3161 40.0792 17.3161C39.89 17.3161 39.7032 17.329 39.5147 17.3326C39.4665 16.0596 39.2895 14.7952 38.9868 13.5582ZM40.0792 19.9824C47.8509 19.9824 54.9982 23.1918 58.7447 28.2545C56.9578 29.2657 54.986 30.518 52.8025 32.0485C44.7178 28.4223 35.4705 28.418 27.3826 32.0369C25.1881 30.5058 23.2091 29.2535 21.4192 28.2435C25.1558 23.1875 32.3001 19.9824 40.0792 19.9824ZM14.6959 45.3656C12.2524 37.8832 11.3968 30.2348 12.7894 28.3137C12.9206 28.0946 13.1617 27.9671 13.4162 27.9817C15.3184 28.1929 17.1498 28.8245 18.7773 29.8302C18.7889 29.8375 18.7944 29.8491 18.806 29.8564C18.8493 29.8778 18.8939 29.8967 18.9391 29.9132C21.5498 31.329 24.0653 32.9132 26.4697 34.6555C26.8621 34.9338 27.3735 34.979 27.808 34.7733C35.5766 31.0629 44.6073 31.0672 52.3723 34.7849C52.8086 34.993 53.3237 34.9485 53.7173 34.6671C59.6881 30.4185 64.4506 27.9817 66.7818 27.9817C67.0332 27.9677 67.2719 28.0946 67.4012 28.3106C68.8012 30.2415 67.9419 37.9156 65.4874 45.4175C65.3642 45.7934 65.4142 46.2041 65.6241 46.5392C66.3406 47.6883 66.9704 48.8887 67.5099 50.13C64.5708 50.7439 61.7758 51.9144 59.2762 53.5779C58.7019 54.0234 58.5909 54.8467 59.026 55.4289C59.4611 56.0111 60.2825 56.1374 60.872 55.7127C63.188 54.2267 65.7627 53.1898 68.4619 52.6558C69.0007 54.3817 69.3095 56.1716 69.3803 57.9786C67.1907 57.5654 64.9699 57.3421 62.7425 57.3103C62.0059 57.3103 61.4091 57.9072 61.4091 58.6437C61.4091 59.3797 62.0059 59.9766 62.7425 59.9766C64.9382 60.0156 67.1266 60.2493 69.2808 60.6747C69.1045 62.0911 68.7218 63.474 68.1451 64.7799C66.8532 64.2514 65.471 63.9787 64.0753 63.9762C58.0685 63.9762 53.4103 68.9926 53.4103 73.3083C53.4055 74.0718 53.5623 74.8279 53.8699 75.5273C49.3765 76.7508 44.7361 77.3501 40.0792 77.3074C35.4222 77.3501 30.7818 76.7508 26.2878 75.5273C26.5954 74.8279 26.7522 74.0718 26.7474 73.3083C26.7474 68.9926 22.0892 63.9762 16.0824 63.9762C14.6867 63.9787 13.3045 64.2514 12.0126 64.7799C11.4359 63.474 11.0532 62.0911 10.8769 60.6747C13.0317 60.2493 15.2195 60.0156 17.4158 59.9766C18.1518 59.9766 18.7487 59.3797 18.7487 58.6437C18.7487 57.9072 18.1518 57.3103 17.4158 57.3103C15.1878 57.3421 12.9664 57.5654 10.7774 57.9786C10.8476 56.1722 11.1564 54.3823 11.6952 52.6565C14.3944 53.1898 16.9691 54.2267 19.2851 55.7127C19.8746 56.1368 20.696 56.0111 21.1311 55.4289C21.5668 54.8473 21.4558 54.0234 20.8815 53.5779C18.3813 51.9138 15.5863 50.7433 12.646 50.1294C13.1922 48.8692 13.8318 47.6511 14.5598 46.4867C14.7691 46.1517 14.8192 45.741 14.6959 45.3656Z" fill="#3C3C3B"/>
</g>
</g>
<defs>
<clipPath id="clip0_1779_50212">
<rect width="80" height="80" fill="white"/>
</clipPath>
<clipPath id="clip1_1779_50212">
<rect width="80" height="80" fill="white"/>
</clipPath>
</defs>
</svg>
