<svg width="80" height="80" viewBox="0 0 80 80" fill="none" xmlns="http://www.w3.org/2000/svg">
<g clip-path="url(#clip0_1779_50227)">
<path d="M32.6719 46.6719C32.6719 47.4063 33.2656 48 34 48C34.7344 48 35.3281 47.4063 35.3281 46.6719C35.3281 43 32.3438 40 28.6562 40C24.9687 40 21.9844 42.9844 21.9844 46.6719C21.9844 47.4063 22.5781 48 23.3125 48C24.0469 48 24.6406 47.4063 24.6406 46.6719C24.6406 44.4688 26.4375 42.6719 28.6406 42.6719C30.875 42.6719 32.6719 44.4688 32.6719 46.6719Z" fill="#3C3C3B"/>
<path d="M48.6719 40C45 40 42 42.9844 42 46.6719C42 47.4063 42.5938 48 43.3281 48C44.0625 48 44.6562 47.4063 44.6562 46.6719C44.6562 44.4688 46.4531 42.6719 48.6563 42.6719C50.8594 42.6719 52.6563 44.4688 52.6563 46.6719C52.6563 47.4063 53.25 48 53.9844 48C54.7188 48 55.3125 47.4063 55.3125 46.6719C55.3281 42.9844 52.3438 40 48.6719 40Z" fill="#3C3C3B"/>
<path d="M15.3281 62C12.75 62 10.6562 59.9062 10.6562 57.3281C10.6562 56.5938 10.0625 56 9.32812 56C8.59375 56 8 56.5938 8 57.3281C8 59.9062 5.90625 62 3.32812 62C2.59375 62 2 62.5937 2 63.3281C2 64.0625 2.59375 64.6562 3.32812 64.6562C5.90625 64.6562 8 66.75 8 69.3281C8 70.0625 8.59375 70.6563 9.32812 70.6563C10.0625 70.6563 10.6562 70.0625 10.6562 69.3281C10.6562 66.75 12.75 64.6562 15.3281 64.6562C16.0625 64.6562 16.6562 64.0625 16.6562 63.3281C16.6562 62.5937 16.0781 62 15.3281 62ZM9.32812 65.125C8.84375 64.4375 8.23438 63.8281 7.54688 63.3438C8.23438 62.8594 8.84375 62.25 9.32812 61.5625C9.8125 62.25 10.4219 62.8594 11.1094 63.3438C10.4219 63.8281 9.82813 64.4219 9.32812 65.125Z" fill="#3C3C3B"/>
<path d="M46.3904 61.7188C43.8123 64.3125 41.1248 65.5625 38.406 65.4688C34.1404 65.3125 31.0623 61.8438 31.0154 61.7813C30.531 61.2188 29.6873 61.1563 29.1404 61.6407C28.5779 62.125 28.5154 62.9688 28.9998 63.5157C29.156 63.6875 32.8279 67.9063 38.281 68.125C38.4217 68.125 38.5623 68.1407 38.7029 68.1407C42.0467 68.1407 45.2654 66.6094 48.281 63.6094C48.7967 63.0938 48.7967 62.25 48.281 61.7188C47.7654 61.1875 46.906 61.2032 46.3904 61.7188Z" fill="#3C3C3B"/>
<path d="M75.375 61.5L73.5312 63.9688C72.0469 58.625 67.1562 54.6719 61.3281 54.6719C61.2188 54.6719 61.125 54.6875 61.0156 54.6875C61.1094 54.2656 61.2187 53.8594 61.2969 53.4375C61.3906 53.4375 61.4844 53.4531 61.5781 53.4531C65.9688 53.4531 69.5469 49.875 69.5469 45.4688C69.5469 43.2969 68.6875 41.2656 67.1719 39.7969C67.3437 39.1094 67.4844 38.4219 67.6094 37.7344C68.6562 38.5938 69.3281 39.875 69.3281 41.3281C69.3281 42.0625 69.9219 42.6562 70.6562 42.6562C71.3906 42.6562 71.9844 42.0625 71.9844 41.3281C71.9844 38.75 74.0781 36.6562 76.6562 36.6562C77.3906 36.6562 77.9844 36.0625 77.9844 35.3281C77.9844 34.5938 77.3906 34 76.6562 34C74.0781 34 71.9844 31.9062 71.9844 29.3281C71.9844 28.5938 71.3906 28 70.6562 28C69.9219 28 69.3281 28.5938 69.3281 29.3281C69.3281 30.5156 68.875 31.5938 68.1406 32.4062C68.1406 32.1719 68.1562 31.9531 68.1562 31.7188C68.1562 30.1719 68.0469 28.6406 67.8438 27.1406C73.625 25.7344 77.8281 20.5 77.8281 14.4375C77.8281 7.21875 71.9687 1.35938 64.75 1.35938C62.125 1.35938 59.5938 2.125 57.4375 3.59375C56.625 4.14062 55.9062 4.8125 55.2344 5.53125C50.4688 2.04688 44.7031 0 38.5 0C22.1406 0 8.84375 14.2344 8.84375 31.7344C8.84375 34.8281 9.26562 37.8437 10.0781 40.75C9.0625 42.1094 8.46875 43.75 8.46875 45.4688C8.46875 49.7969 11.9375 53.3281 16.2344 53.4375C19.1562 68.3438 28.2969 78.6719 38.75 78.6719C42.9219 78.6719 46.9688 77.0469 50.5469 73.9531C52.7812 77.5781 56.7656 80 61.3281 80C65.1719 80 68.7656 78.2812 71.1875 75.2969C71.6562 74.7188 71.5625 73.8906 70.9844 73.4219C70.4062 72.9531 69.5781 73.0469 69.1094 73.625C67.2031 75.9844 64.3594 77.3438 61.3281 77.3438C55.8125 77.3438 51.3281 72.8594 51.3281 67.3438C51.3281 61.8281 55.8125 57.3438 61.3281 57.3438C66.0625 57.3438 70.0312 60.6406 71.0625 65.0469L68.2188 63.625C67.5625 63.2969 66.7656 63.5625 66.4219 64.2188C66.0938 64.875 66.3594 65.6719 67.0156 66.0156L72.0469 68.5312C72.1406 68.5781 72.5156 68.7344 72.9844 68.625C73.4062 68.5156 73.6406 68.2344 73.7188 68.1406L77.5 63.1094C77.9375 62.5156 77.8281 61.6875 77.2344 61.25C76.6562 60.7812 75.8125 60.9062 75.375 61.5ZM70.6719 33.5469C71.1562 34.2344 71.7656 34.8438 72.4531 35.3281C71.7656 35.8125 71.1562 36.4219 70.6719 37.1094C70.1875 36.4219 69.5781 35.8125 68.8906 35.3281C69.5781 34.8438 70.1719 34.2344 70.6719 33.5469ZM64.9375 41.25C66.2188 42.25 66.875 43.8281 66.875 45.4531C66.875 48.3281 64.5938 50.6719 61.75 50.7656C62.0156 49.3594 62.2344 47.7344 62.3281 45.9219C62.4375 43.7656 62.3437 41.8438 62.1562 40.2031C62.5469 40.1875 63.3281 40.2188 64.1094 40.7031C64.4375 40.9062 64.75 41.0625 64.9375 41.25ZM64.75 4.04688C70.5 4.04688 75.1562 8.71875 75.1562 14.4531C75.1562 17.9375 73.4062 21.0781 70.6875 22.9844C69.2969 13.2656 64.1406 7.625 60.6875 4.89062C61.9687 4.35938 63.3437 4.04688 64.75 4.04688ZM58.25 6.375C61.375 8.625 67.0312 14.0469 68.1875 24.2812C67.9219 24.375 67.6562 24.4531 67.3906 24.5156C65.8906 17.6094 62.2812 11.5625 57.3281 7.21875C57.6094 6.92188 57.9219 6.64062 58.25 6.375ZM11.1406 45.4688C11.1406 45 11.2031 44.5312 11.3281 44.0938C11.3906 43.875 11.6719 42.8906 12.5312 41.9219C12.7969 41.6094 13.3125 41.0625 14.1562 40.6562C14.6406 40.4375 15.0625 40.3281 15.375 40.2812V40.4219V40.5625C15.3125 41.4844 15.2813 42.4531 15.2813 43.4688C15.2813 44.5625 15.3281 45.6562 15.3906 46.75C15.4062 46.9375 15.4062 47.1094 15.4219 47.2969C15.5 48.3594 15.6094 49.4219 15.75 50.4844C15.7656 50.5625 15.7656 50.6406 15.7812 50.7188C13.1562 50.4062 11.1406 48.1719 11.1406 45.4688ZM15.9531 35.1406C15.8906 35.4844 15.8594 35.8438 15.8125 36.1875C15.75 36.6406 15.6719 37.0781 15.625 37.5312C15.1719 37.5469 14.5469 37.625 13.8437 37.875C13.1719 38.1094 12.6563 38.4219 12.3125 38.6719C12.1563 38 12.0313 37.3281 11.9219 36.6562C12.0781 36.8438 12.2656 37.0156 12.5 37.1094C12.6406 37.1562 12.7969 37.1875 12.9531 37.1875C13.4844 37.1875 14 36.8594 14.2031 36.3438C14.2188 36.2969 14.5937 35.4688 16.0312 34.6562C16 34.8125 15.9687 34.9844 15.9531 35.1406ZM58.9062 51.75C58.7187 52.8594 58.4844 53.9688 58.2188 55.0625C52.7344 56.4531 48.6719 61.4219 48.6719 67.3281C48.6719 68.7656 48.9219 70.1406 49.3594 71.4219C46.1406 74.4062 42.5 76 38.7656 76C29.3594 76 21.0781 66.0469 18.625 51.7812C18.625 51.75 18.6094 51.7188 18.6094 51.6719C18.375 50.2656 18.2031 48.8438 18.0938 47.4375C17.9844 46.125 17.9375 44.7969 17.9375 43.4844C17.9375 42.4844 17.9844 41.5156 18.0312 40.5625C18.0625 40.0312 18.0937 39.4844 18.1562 38.9844C18.2031 38.3438 18.2969 37.7031 18.375 37.0781C18.5312 35.8906 18.7031 34.7188 18.9375 33.5938C19.0156 33.5781 22.1875 33.0938 24 33.0938C24.3281 33.0938 25.7812 33.0625 25.8281 33.0625C27.5938 33.0156 29.5469 32.8906 31.5938 32.6562C40.0312 31.7344 50.1875 29.2031 55.2344 23.6562C57.4688 28.1562 58.8906 33.4531 59.3906 39.0625C59.625 40.8438 59.7812 42.9687 59.7031 45.3594C59.5938 47.8125 59.2812 49.9688 58.9062 51.75ZM24 30.4062C21.8906 30.4062 20.0156 30.6094 18.3906 30.9844C18.0625 31.0625 17.7344 31.125 17.4375 31.2188C17.4375 31.2188 17.4375 31.2188 17.4219 31.2188C13.125 32.4531 11.9531 34.7656 11.7188 35.3438C11.5781 34.1562 11.5156 32.9531 11.5156 31.7344C11.5156 15.7031 23.625 2.65625 38.5156 2.65625C51.6719 2.65625 62.6406 12.8281 65.0312 26.25V26.2656C65.3438 28.0313 65.5156 29.8594 65.5156 31.7188C65.5156 32.4531 65.4844 33.1875 65.4219 33.9062C65.1719 33.9375 64.9375 33.9844 64.6719 33.9844C63.9375 33.9844 63.3437 34.5781 63.3437 35.3125C63.3437 36.0469 63.9375 36.6406 64.6719 36.6406C64.8125 36.6406 64.9531 36.6719 65.0938 36.6875C65.0156 37.1875 64.9219 37.6719 64.8125 38.1719C64.4062 38.0156 63.9375 37.8594 63.4062 37.7344C62.8594 37.6094 62.3594 37.5312 61.9062 37.4844C61.5781 35.1562 61.0469 32.5 60.2031 29.6094C59.25 26.3438 58.0938 23.5312 56.9688 21.2031C57.2969 20.8125 58.25 18.7344 58.4844 16.6562C58.5625 15.9219 58.0312 15.2656 57.3125 15.1875C56.875 15.1406 56.4844 15.2969 56.2031 15.5781C55.9219 15.875 55.8594 16.2344 55.8437 16.3594C55.7969 16.625 55.375 19.1094 54.4844 20.5781C53.8125 21.6875 51.3125 23.5625 51.3125 23.5625C50.9531 23.8438 48.1094 25.5469 47.9375 25.625C47.4688 25.8594 44.1875 27.1875 44.0469 27.25C43.5 27.4375 42.9375 27.625 42.375 27.7969C42.25 27.8281 40.7969 28.25 40.1875 28.4062C40.0781 28.4375 37.7969 28.9531 37.7031 28.9688C37.0469 29.1094 33.4062 29.7031 33.3438 29.7188C32.0625 29.8906 30.5781 30.0625 28.9219 30.1875L24 30.4062Z" fill="#3C3C3B"/>
<path d="M60.6719 62.6719C59.9375 62.6719 59.3438 63.2656 59.3438 64V69.3281C59.3438 70.0625 59.9375 70.6563 60.6719 70.6563H66C66.7344 70.6563 67.3281 70.0625 67.3281 69.3281C67.3281 68.5938 66.7344 68 66 68H62V64C62 63.2656 61.4062 62.6719 60.6719 62.6719Z" fill="#3C3C3B"/>
</g>
<defs>
<clipPath id="clip0_1779_50227">
<rect width="80" height="80" fill="white"/>
</clipPath>
</defs>
</svg>
