<svg width="80" height="80" viewBox="0 0 80 80" fill="none" xmlns="http://www.w3.org/2000/svg">
<g clip-path="url(#clip0_1779_49752)">
<path d="M39.9998 27.9375C38.8777 27.9375 37.7884 28.1587 36.7616 28.595C36.166 28.8481 35.8884 29.5361 36.1415 30.1319C36.3946 30.7275 37.0832 31.0056 37.6784 30.752C38.4134 30.4397 39.1945 30.2812 39.9996 30.2812C43.2702 30.2812 45.9309 32.9419 45.9309 36.2125C45.9309 39.4822 43.2702 42.1422 39.9996 42.1422C36.729 42.1422 34.0684 39.4822 34.0684 36.2125C34.0684 35.4466 34.2124 34.6997 34.4963 33.9933C34.7377 33.3928 34.4466 32.7103 33.846 32.4689C33.2455 32.2277 32.563 32.5184 32.3216 33.1192C31.9255 34.1048 31.7246 35.1456 31.7246 36.2125C31.7246 40.7745 35.4368 44.4859 39.9996 44.4859C44.5624 44.4859 48.2746 40.7745 48.2746 36.2125C48.2748 31.6497 44.5626 27.9375 39.9998 27.9375Z" fill="#3C3C3B"/>
<path d="M77.5943 43.1166C77.174 42.3886 76.5651 41.8122 75.8352 41.4362C76.0844 39.7141 76.2121 37.9614 76.2121 36.2123C76.2121 34.4622 76.0844 32.7091 75.8352 30.9864C77.6016 30.0723 78.5623 28.0205 78.0268 26.0223C77.4918 24.0263 75.6377 22.7297 73.6529 22.8187C72.3582 19.565 70.6026 16.5294 68.4205 13.7714C68.8657 13.0805 69.1052 12.2761 69.1052 11.4345C69.1052 10.2784 68.6549 9.19141 67.8374 8.37375C67.8373 8.37375 67.8376 8.37391 67.8374 8.37375C66.3738 6.91031 64.1148 6.71703 62.4399 7.79156C56.0715 2.76094 48.1421 0 39.9996 0C31.8571 0 23.9279 2.76094 17.5593 7.79172C15.8844 6.71719 13.6255 6.91063 12.1619 8.37406C12.1618 8.37406 12.1621 8.37406 12.1619 8.37406C11.3444 9.19156 10.894 10.2786 10.894 11.4348C10.894 12.2764 11.1335 13.0808 11.5787 13.7717C9.39663 16.5297 7.64101 19.5653 6.34632 22.8191C4.36242 22.7303 2.50757 24.0266 1.97257 26.0225C1.43726 28.0206 2.39788 30.0725 4.16413 30.9866C3.91491 32.7091 3.78726 34.4623 3.78726 36.2125C3.78726 37.9616 3.91491 39.7141 4.16413 41.4364C3.43413 41.8123 2.82538 42.3886 2.40507 43.1167C1.82695 44.118 1.67335 45.2845 1.97257 46.4012C2.49023 48.333 4.24367 49.61 6.15492 49.61C6.21851 49.61 6.28241 49.6067 6.34632 49.6037C8.8671 55.943 13.0904 61.3936 18.6249 65.4436V66.2016C18.6249 73.81 24.8148 80 32.4234 80H47.5765C50.8213 80 53.973 78.8519 56.4512 76.7672C56.9465 76.3506 57.0101 75.6114 56.5935 75.1161C56.1768 74.6206 55.4374 74.5572 54.9424 74.9737C52.8857 76.7034 50.2698 77.6562 47.5762 77.6562H42.8288L50.9299 69.5552C51.3876 69.0973 51.3876 68.3555 50.9299 67.8978C50.4721 67.4403 49.7302 67.4403 49.2726 67.8978L41.1715 75.9989V71.2516C41.1715 64.9355 46.3101 59.7969 52.6262 59.7969H59.0308V66.2016C59.0308 67.8898 58.6726 69.5136 57.966 71.0278C57.6923 71.6144 57.9459 72.3117 58.5323 72.5853C59.1188 72.8595 59.8162 72.6056 60.0898 72.0191C60.9424 70.1922 61.3748 68.2348 61.3748 66.2017V65.4437C66.9093 61.3937 71.1324 55.9431 73.6534 49.6039C73.7173 49.6067 73.7812 49.6102 73.8448 49.6102C75.7557 49.6102 77.5094 48.333 78.0271 46.4014C78.326 45.2844 78.1726 44.1178 77.5943 43.1166ZM75.763 26.6292C76.0462 27.6864 75.4165 28.7769 74.3595 29.0603C73.8479 29.1973 73.3126 29.127 72.8532 28.8619C72.3941 28.5967 72.0657 28.1686 71.9284 27.6566C71.7912 27.1445 71.8616 26.6097 72.1268 26.1503C72.3919 25.6912 72.8201 25.3628 73.3321 25.2255C73.5035 25.1795 73.6755 25.1577 73.8452 25.1577C74.7215 25.1578 75.5255 25.7434 75.763 26.6292ZM64.7766 9.45094C65.2849 9.45094 65.7932 9.64437 66.1799 10.0314H66.1801C66.5549 10.4062 66.7615 10.9047 66.7615 11.4347C66.7615 11.965 66.5551 12.4633 66.1799 12.8381C65.4062 13.612 64.1465 13.612 63.373 12.8381C62.5991 12.0644 62.5991 10.805 63.373 10.0312C63.7599 9.64453 64.2682 9.45094 64.7766 9.45094ZM13.819 10.0314C14.206 9.64437 14.7141 9.45094 15.2224 9.45094C15.7309 9.45094 16.2391 9.64437 16.6259 10.0314C17.3998 10.8052 17.3998 12.0645 16.6259 12.8383C15.8523 13.6122 14.5927 13.6122 13.8188 12.8383C12.874 11.8933 13.2351 10.6153 13.819 10.0314ZM4.23617 26.6292C4.51976 25.572 5.61023 24.9422 6.66726 25.2256C7.58507 25.4717 8.39023 26.4645 8.07085 27.6567C7.72507 28.9477 6.43695 29.2741 5.63976 29.0603C4.58273 28.7769 3.95304 27.6863 4.23617 26.6292ZM4.23617 45.7945C3.97898 44.8353 4.4857 43.6731 5.63976 43.3636C6.59741 43.1067 7.7646 43.6242 8.07085 44.7672C8.32788 45.7266 7.82132 46.8887 6.66726 47.1981C5.61007 47.4816 4.5196 46.8517 4.23617 45.7945ZM61.3746 62.4834V58.625C61.3746 57.9777 60.8501 57.4531 60.2027 57.4531H52.6262C46.9973 57.4531 42.1455 60.8416 40.0016 65.6855C39.4068 64.3363 38.5935 63.0802 37.5813 61.968C35.2818 59.4411 32.1509 57.8627 28.7649 57.5231C28.1227 57.4606 27.5465 57.9284 27.4819 58.5723C27.4174 59.2163 27.8873 59.7908 28.5312 59.8553C31.3402 60.1369 33.9385 61.4473 35.8477 63.5455C37.7694 65.6573 38.8277 68.3939 38.8277 71.2516V75.9989L30.7266 67.8978C30.2688 67.4403 29.5269 67.4403 29.0693 67.8978C28.6116 68.3556 28.6116 69.0975 29.0693 69.5552L37.1704 77.6562H32.423C26.1069 77.6562 20.9684 72.5177 20.9684 66.2016V59.7969H23.1652C23.8126 59.7969 24.3371 59.2723 24.3371 58.625C24.3371 57.9777 23.8126 57.4531 23.1652 57.4531H19.7965C19.1491 57.4531 18.6246 57.9777 18.6246 58.625V62.4834C14.1618 58.8567 10.723 54.2022 8.57648 48.8694C9.11476 48.5066 9.56804 48.0239 9.90226 47.4452C10.4804 46.4439 10.634 45.2773 10.3348 44.1606C10.0355 43.0439 9.31929 42.1103 8.31788 41.5323C7.74101 41.1994 7.10945 41.0081 6.46429 40.9622C6.24429 39.3956 6.13101 37.8028 6.13101 36.2125C6.13101 34.6216 6.24413 33.0284 6.46413 31.462C7.10945 31.4161 7.74132 31.2247 8.31804 30.8917C9.31929 30.3136 10.0355 29.3802 10.3348 28.2634C10.634 27.1467 10.4805 25.9802 9.90226 24.9788C9.5682 24.4002 9.11507 23.9177 8.57695 23.5548C9.76585 20.6028 11.3618 17.8441 13.3355 15.3297C13.9296 15.6169 14.5759 15.7616 15.2226 15.7616C16.3312 15.7616 17.4394 15.3397 18.2835 14.4958C19.6194 13.1597 19.8968 11.1609 19.1177 9.54844C25.0555 4.89609 32.4287 2.34375 39.9996 2.34375C47.5705 2.34375 54.9437 4.89609 60.8816 9.54844C60.1026 11.1609 60.3799 13.1597 61.7157 14.4958C62.5596 15.3397 63.6679 15.7617 64.7766 15.7616C65.4232 15.7616 66.0694 15.6167 66.6637 15.3295C68.6374 17.8439 70.2334 20.6027 71.4223 23.5547C70.8841 23.9175 70.431 24.4 70.0969 24.9786C69.5188 25.98 69.3652 27.1466 69.6644 28.2633C69.9637 29.38 70.6799 30.3134 71.6812 30.8916C72.258 31.2247 72.8896 31.4161 73.5351 31.4619C73.7551 33.0284 73.8682 34.6216 73.8682 36.2123C73.8682 37.8025 73.7549 39.3955 73.5349 40.962C72.8896 41.0078 72.258 41.1991 71.6813 41.5322C70.6799 42.1102 69.9637 43.0438 69.6644 44.1605C69.3652 45.2772 69.5187 46.4438 70.0969 47.445C70.4312 48.0238 70.8844 48.5064 71.4227 48.8692C69.2762 54.2022 65.8374 58.8567 61.3746 62.4834ZM75.763 45.7945C75.4798 46.8517 74.389 47.4817 73.3319 47.1981C72.8199 47.0608 72.3918 46.7325 72.1266 46.2733C71.8616 45.8142 71.7912 45.2794 71.9282 44.7672C72.0655 44.255 72.3938 43.8269 72.853 43.5619C73.159 43.3853 73.4984 43.2952 73.8423 43.2952C74.0148 43.2952 74.1884 43.3178 74.3593 43.3636C74.8713 43.5009 75.2994 43.8292 75.5646 44.2884C75.8296 44.7477 75.9002 45.2825 75.763 45.7945Z" fill="#3C3C3B"/>
<path d="M60.1411 31.9455C59.212 27.5433 56.8418 23.5369 53.3986 20.5827C49.6734 17.3866 44.915 15.6265 39.9995 15.6265C35.9773 15.6265 32.1181 16.7757 28.777 18.9549C27.0879 17.7546 24.7242 17.9099 23.2109 19.4232C22.3932 20.2407 21.9429 21.3277 21.9429 22.484C21.9429 23.3949 22.2234 24.2622 22.7418 24.9893C21.3648 27.1062 20.3814 29.4796 19.86 31.9452C17.8175 32.2915 16.2568 34.0724 16.2568 36.2118C16.2568 38.3505 17.8165 40.131 19.8581 40.478C20.7871 44.8802 23.1573 48.8868 26.6004 51.8413C30.3256 55.0379 35.0842 56.7983 39.9995 56.7983C44.0221 56.7983 47.8817 55.6491 51.2229 53.4694C51.97 54.0001 52.8484 54.2663 53.7275 54.2663C54.8359 54.2663 55.9443 53.8444 56.7882 53.0005C57.6057 52.1829 58.0561 51.0958 58.0561 49.9396C58.0561 49.0285 57.7754 48.1612 57.257 47.434C58.6343 45.316 59.6176 42.9427 60.139 40.4783C62.1815 40.1321 63.7423 38.3512 63.7423 36.2118C63.7421 34.073 62.1825 32.2926 60.1411 31.9455ZM24.8682 21.0805C25.2551 20.6935 25.7634 20.5001 26.2715 20.5001C26.78 20.5001 27.2882 20.6935 27.675 21.0805C28.4489 21.8543 28.4489 23.1137 27.675 23.8876C27.3001 24.2624 26.8017 24.469 26.2717 24.469C25.7414 24.469 25.2431 24.2626 24.8681 23.8874C24.4932 23.5126 24.2867 23.0141 24.2867 22.484C24.2867 21.9538 24.4932 21.4554 24.8682 21.0805ZM18.6006 36.2118C18.6006 35.1172 19.4909 34.2269 20.5854 34.2269C21.68 34.2269 22.5703 35.1172 22.5703 36.2118C22.5703 37.3063 21.68 38.1966 20.5854 38.1966C19.4909 38.1966 18.6006 37.3063 18.6006 36.2118ZM28.1268 50.0627C25.1354 47.4958 23.0614 44.0332 22.2053 40.2247C23.7917 39.5821 24.9142 38.026 24.9142 36.2118C24.9142 34.3963 23.7903 32.8394 22.2021 32.1976C22.6581 30.1743 23.4654 28.2252 24.5757 26.4682C25.1051 26.6937 25.6792 26.8127 26.272 26.8127C27.4281 26.8127 28.5151 26.3624 29.3328 25.5449C30.6153 24.2622 30.9221 22.3687 30.2553 20.7926C33.1689 18.9449 36.5147 17.9702 39.9998 17.9702C44.3557 17.9702 48.5722 19.5296 51.8726 22.3615C54.864 24.928 56.9381 28.3905 57.7942 32.1988C56.2076 32.8415 55.0853 34.3977 55.0853 36.2119C55.0853 38.0272 56.2092 39.5843 57.7973 40.2262C57.3412 42.2493 56.5332 44.199 55.4218 45.9577C53.8453 45.2893 51.9503 45.5957 50.6667 46.879C49.3839 48.1619 49.0773 50.056 49.7446 51.6324C46.8307 53.4799 43.485 54.4546 39.9995 54.4546C35.6437 54.4546 31.4273 52.8947 28.1268 50.0627ZM55.1307 51.3432C54.357 52.1172 53.0973 52.1169 52.3239 51.3432V51.3433C51.5501 50.5693 51.55 49.3099 52.3239 48.5361C53.0975 47.7622 54.357 47.7622 55.1309 48.5361C55.5057 48.911 55.7123 49.4094 55.7123 49.9396C55.7123 50.4697 55.5057 50.9682 55.1307 51.3432ZM59.4136 38.1966C58.319 38.1966 57.4287 37.3063 57.4287 36.2118C57.4287 35.1172 58.319 34.2269 59.4136 34.2269C60.5081 34.2269 61.3984 35.1172 61.3984 36.2118C61.3984 37.3063 60.5081 38.1966 59.4136 38.1966Z" fill="#3C3C3B"/>
</g>
<defs>
<clipPath id="clip0_1779_49752">
<rect width="80" height="80" fill="white"/>
</clipPath>
</defs>
</svg>
