<svg width="80" height="80" viewBox="0 0 80 80" fill="none" xmlns="http://www.w3.org/2000/svg">
<g clip-path="url(#clip0_1491_33307)">
<g clip-path="url(#clip1_1491_33307)">
<path fill-rule="evenodd" clip-rule="evenodd" d="M40.0564 53.217C39.9642 53.217 39.8736 53.2154 39.783 53.2139C32.6658 53.0764 26.0845 47.692 22.1767 38.8092C22.1705 38.7967 22.1658 38.7842 22.1611 38.7701C19.8939 32.9279 15.7924 29.2029 9.97361 27.6982C5.5658 26.5592 1.7658 27.181 1.72674 27.1873C1.21736 27.2748 0.73455 26.931 0.64705 26.4217C0.561113 25.9123 0.901738 25.4279 1.41111 25.3404C1.57986 25.3123 5.58768 24.6467 10.3705 25.867C14.8189 26.9998 20.7736 30.0389 23.8986 38.0732C27.5064 46.2592 33.4564 51.2185 39.8189 51.3404C45.8455 51.4592 51.4564 47.1107 55.2283 39.4139C55.4064 38.7529 56.4674 35.2264 59.5392 31.7498C62.6111 28.2732 68.3533 24.2045 78.2596 24.5529C78.7767 24.5701 79.1814 25.0045 79.1627 25.5217C79.1439 26.0389 78.7158 26.4435 78.1939 26.4248C70.8299 26.1654 65.022 28.3732 60.9424 32.9904C57.9111 36.4217 57.0283 39.9279 57.0205 39.9639C57.0033 40.0279 56.9814 40.0904 56.9517 40.1514C52.9033 48.4701 46.7564 53.2154 40.0564 53.217Z" fill="#3C3C3B"/>
<path fill-rule="evenodd" clip-rule="evenodd" d="M4.25623 52.7952C2.70467 52.7952 1.70935 52.6452 1.62654 52.6327C1.1156 52.553 0.765605 52.0749 0.845292 51.5639C0.92498 51.053 1.4031 50.7014 1.91404 50.7811C1.99373 50.7936 5.78592 51.3421 10.15 50.1405C15.9453 48.5452 19.9875 44.7546 22.1609 38.878C22.1656 38.8655 22.1719 38.8514 22.1765 38.8389C25.9437 29.8952 32.439 24.4077 39.5531 24.1577C46.3547 23.9186 52.689 28.5811 56.9265 36.9483C56.9562 37.0077 56.9797 37.0702 56.9969 37.1343C57.0062 37.1671 57.975 40.7249 61.0875 44.1077C65.2359 48.6155 71.0547 50.7124 78.3812 50.3374C78.8984 50.3124 79.339 50.7077 79.3656 51.2249C79.3922 51.7421 78.9937 52.1811 78.4781 52.2077C77.9 52.2374 77.3359 52.2514 76.7859 52.2514C67.9078 52.253 62.589 48.5343 59.6453 45.3077C56.5187 41.8796 55.4031 38.3702 55.214 37.7124C51.3203 30.0749 45.6422 25.8171 39.6187 26.0296C33.2594 26.253 27.3875 31.3061 23.9109 39.5483C20.9125 47.6311 15.0062 50.7624 10.5765 51.9655C8.13436 52.6296 5.88748 52.7952 4.25623 52.7952Z" fill="#3C3C3B"/>
<path fill-rule="evenodd" clip-rule="evenodd" d="M9.38031 52.2076C8.86625 52.2076 8.44906 51.7935 8.44438 51.2779L8.24906 26.5623C8.24438 26.0451 8.66156 25.6216 9.17875 25.617C9.6975 25.6138 10.1178 26.0295 10.1225 26.5466L10.3178 51.2638C10.3209 51.781 9.90531 52.2045 9.38813 52.2076C9.38656 52.2076 9.38344 52.2076 9.38031 52.2076Z" fill="#3C3C3B"/>
<path fill-rule="evenodd" clip-rule="evenodd" d="M15.178 49.9358C14.6639 49.9358 14.2452 49.5202 14.2405 49.0062L14.0811 28.7421C14.0764 28.2249 14.492 27.803 15.0108 27.7983H15.017C15.5311 27.7983 15.9498 28.2124 15.9545 28.728L16.1139 48.9921C16.1186 49.5093 15.7014 49.9312 15.1842 49.9358C15.1827 49.9358 15.1795 49.9358 15.178 49.9358Z" fill="#3C3C3B"/>
<path fill-rule="evenodd" clip-rule="evenodd" d="M71.4141 51.7169C70.9 51.7169 70.4813 51.3029 70.4766 50.7888L70.2813 26.0779C70.2781 25.5607 70.6938 25.1373 71.211 25.1326H71.2188C71.7328 25.1326 72.1516 25.5482 72.1547 26.0623L72.35 50.7732C72.3547 51.2904 71.9391 51.7138 71.4219 51.7185C71.4188 51.7169 71.4156 51.7169 71.4141 51.7169Z" fill="#3C3C3B"/>
<path fill-rule="evenodd" clip-rule="evenodd" d="M65.5819 49.6606C65.0694 49.6606 64.6506 49.2466 64.6459 48.731L64.4834 28.2216C64.4803 27.7044 64.8959 27.281 65.4131 27.2778H65.4209C65.935 27.2778 66.3537 27.6919 66.3569 28.2075L66.5194 48.7169C66.524 49.2341 66.1069 49.6575 65.5897 49.6606C65.5881 49.6606 65.585 49.6606 65.5819 49.6606Z" fill="#3C3C3B"/>
<path fill-rule="evenodd" clip-rule="evenodd" d="M30.0592 49.2388C29.5452 49.2388 29.1264 48.8247 29.1217 48.3107L28.9717 29.2294C28.967 28.7122 29.3827 28.2904 29.9014 28.2857C30.417 28.2732 30.8405 28.6982 30.8452 29.2154L30.9952 48.295C30.9998 48.8122 30.5842 49.2357 30.0655 49.2388C30.0639 49.2388 30.0608 49.2388 30.0592 49.2388Z" fill="#3C3C3B"/>
<path fill-rule="evenodd" clip-rule="evenodd" d="M37.0116 52.8654C36.4975 52.8654 36.0788 52.4514 36.0756 51.9373L35.8663 25.4936C35.8616 24.9764 36.2788 24.5529 36.7959 24.5498H36.8038C37.3178 24.5498 37.735 24.9639 37.7397 25.4779L37.9491 51.9217C37.9522 52.4389 37.5366 52.8623 37.0194 52.8654C37.0163 52.8654 37.0147 52.8654 37.0116 52.8654Z" fill="#3C3C3B"/>
<path fill-rule="evenodd" clip-rule="evenodd" d="M50.0904 49.0421C49.5764 49.0421 49.1576 48.628 49.1529 48.114L49.0029 29.1093C48.9998 28.5921 49.4154 28.1702 49.9326 28.1655H49.9404C50.4545 28.1655 50.8733 28.5812 50.8764 29.0952L51.0264 48.0983C51.0311 48.6155 50.6139 49.039 50.0983 49.0437C50.0951 49.0421 50.092 49.0421 50.0904 49.0421Z" fill="#3C3C3B"/>
<path fill-rule="evenodd" clip-rule="evenodd" d="M43.1952 52.839C42.6811 52.839 42.2639 52.4249 42.2592 51.9093L42.0498 25.4233C42.0452 24.9062 42.4623 24.4827 42.9795 24.478H42.9873C43.5014 24.478 43.9202 24.8937 43.9233 25.4077L44.1327 51.8952C44.1358 52.4124 43.7202 52.8343 43.203 52.839C43.2014 52.839 43.1983 52.839 43.1952 52.839Z" fill="#3C3C3B"/>
<path fill-rule="evenodd" clip-rule="evenodd" d="M55.7441 9.48887C53.1379 9.48887 51.0176 7.36855 51.0176 4.7623C51.0176 2.15449 53.1379 0.0341797 55.7441 0.0341797C58.3504 0.0341797 60.4723 2.15449 60.4723 4.7623C60.4723 7.36855 58.3504 9.48887 55.7441 9.48887ZM55.7441 1.90762C54.1707 1.90762 52.891 3.18887 52.891 4.7623C52.891 6.33574 54.1707 7.61543 55.7441 7.61543C57.3176 7.61543 58.5988 6.33574 58.5988 4.7623C58.5988 3.1873 57.3176 1.90762 55.7441 1.90762Z" fill="#3C3C3B"/>
<path fill-rule="evenodd" clip-rule="evenodd" d="M43.2607 18.7374C40.6545 18.7374 38.5342 16.6171 38.5342 14.0108C38.5342 11.4046 40.6545 9.28271 43.2607 9.28271C45.867 9.28271 47.9873 11.4046 47.9873 14.0108C47.9873 16.6171 45.867 18.7374 43.2607 18.7374ZM43.2607 11.1562C41.6873 11.1562 40.4076 12.4374 40.4076 14.0108C40.4076 15.5843 41.6873 16.864 43.2607 16.864C44.8342 16.864 46.1139 15.5843 46.1139 14.0108C46.1139 12.4374 44.8342 11.1562 43.2607 11.1562Z" fill="#3C3C3B"/>
<path fill-rule="evenodd" clip-rule="evenodd" d="M68.2266 21.8202C65.6203 21.8202 63.5 19.6999 63.5 17.0936C63.5 14.4874 65.6203 12.3655 68.2266 12.3655C70.8344 12.3655 72.9547 14.4874 72.9547 17.0936C72.9547 19.6999 70.8344 21.8202 68.2266 21.8202ZM68.2266 14.2389C66.6531 14.2389 65.3734 15.5202 65.3734 17.0936C65.3734 18.667 66.6531 19.9467 68.2266 19.9467C69.8016 19.9467 71.0813 18.667 71.0813 17.0936C71.0813 15.5202 69.8016 14.2389 68.2266 14.2389Z" fill="#3C3C3B"/>
<path fill-rule="evenodd" clip-rule="evenodd" d="M46.0733 12.4061C45.7764 12.4061 45.4858 12.2655 45.303 12.003C45.0077 11.578 45.1139 10.9936 45.5389 10.6998L52.0936 6.15141C52.5186 5.8561 53.1014 5.96078 53.3967 6.38578C53.6921 6.81078 53.5874 7.39516 53.1608 7.68891L46.6061 12.2389C46.4436 12.3514 46.2577 12.4061 46.0733 12.4061Z" fill="#3C3C3B"/>
<path fill-rule="evenodd" clip-rule="evenodd" d="M65.6388 15.2607C65.3872 15.2607 65.1388 15.1623 64.9544 14.9638L58.1122 7.64977C57.7591 7.27164 57.7778 6.67946 58.156 6.32633C58.5341 5.97321 59.1263 5.99196 59.4794 6.37008L66.3216 13.6841C66.6763 14.0623 66.656 14.656 66.2778 15.0091C66.0966 15.1779 65.8669 15.2607 65.6388 15.2607Z" fill="#3C3C3B"/>
<path fill-rule="evenodd" clip-rule="evenodd" d="M31.6842 71.3421C31.5232 71.3421 31.3607 71.3 31.217 71.2171L26.2373 68.3421C25.9482 68.175 25.7686 67.8656 25.7686 67.5312V61.7828C25.7686 61.4484 25.9482 61.139 26.2373 60.9718L31.217 58.0968C31.5061 57.9296 31.8639 57.9296 32.1529 58.0968L37.1311 60.9718C37.4217 61.139 37.5998 61.4484 37.5998 61.7828V67.5312C37.5998 67.8656 37.4217 68.175 37.1311 68.3421L32.1529 71.2171C32.0076 71.3 31.8467 71.3421 31.6842 71.3421ZM27.642 66.9906L31.6842 69.3234L35.7264 66.9906V62.3234L31.6842 59.989L27.642 62.3234V66.9906Z" fill="#3C3C3B"/>
<path fill-rule="evenodd" clip-rule="evenodd" d="M36.6621 79.9654C36.5012 79.9654 36.3402 79.9232 36.1949 79.8389L31.2168 76.9654C30.9262 76.7982 30.748 76.4889 30.748 76.1545V70.4045C30.748 70.0701 30.9262 69.7607 31.2168 69.5936L36.1949 66.7201C36.484 66.5529 36.8418 66.5529 37.1309 66.7201L42.109 69.5936C42.3996 69.7607 42.5777 70.0701 42.5777 70.4045V76.1545C42.5777 76.4889 42.3996 76.7982 42.109 76.9654L37.1309 79.8389C36.9855 79.9232 36.8246 79.9654 36.6621 79.9654ZM32.6215 75.6139L36.6621 77.9467L40.7043 75.6139V70.9451L36.6621 68.6123L32.6215 70.9451V75.6139Z" fill="#3C3C3B"/>
<path fill-rule="evenodd" clip-rule="evenodd" d="M26.7063 62.7186C26.4656 62.7186 26.2266 62.628 26.0437 62.4452L19.1844 55.5858C18.8187 55.2202 18.8187 54.6264 19.1844 54.2608C19.5516 53.8952 20.1437 53.8952 20.5094 54.2608L27.3688 61.1202C27.7344 61.4858 27.7344 62.0795 27.3688 62.4452C27.1859 62.628 26.9453 62.7186 26.7063 62.7186Z" fill="#3C3C3B"/>
<path fill-rule="evenodd" clip-rule="evenodd" d="M41.6405 71.3419C41.228 71.3419 40.8499 71.0654 40.7374 70.6482C40.603 70.1482 40.8999 69.6341 41.3999 69.4998L49.3874 67.3607C49.8858 67.2263 50.3999 67.5232 50.5343 68.0232C50.6671 68.5216 50.3718 69.0357 49.8718 69.1701L41.8843 71.3107C41.803 71.331 41.7218 71.3419 41.6405 71.3419Z" fill="#3C3C3B"/>
<path fill-rule="evenodd" clip-rule="evenodd" d="M26.7066 79.9654C26.5441 79.9654 26.3832 79.9232 26.2379 79.8389L21.2598 76.9654C20.9691 76.7982 20.791 76.4889 20.791 76.1545V70.4045C20.791 70.0701 20.9691 69.7607 21.2598 69.5936L26.2379 66.7201C26.5285 66.5529 26.8848 66.5529 27.1754 66.7201L32.1535 69.5936C32.4426 69.7607 32.6223 70.0701 32.6223 70.4045V76.1545C32.6223 76.4889 32.4426 76.7982 32.1535 76.9654L27.1754 79.8389C27.0301 79.9232 26.8676 79.9654 26.7066 79.9654ZM22.6645 75.6139L26.7066 77.9467L30.7488 75.6139V70.9451L26.7066 68.6123L22.6645 70.9451V75.6139Z" fill="#3C3C3B"/>
</g>
</g>
<defs>
<clipPath id="clip0_1491_33307">
<rect width="80" height="80" fill="white"/>
</clipPath>
<clipPath id="clip1_1491_33307">
<rect width="80" height="80" fill="white"/>
</clipPath>
</defs>
</svg>
