<svg width="80" height="80" viewBox="0 0 80 80" fill="none" xmlns="http://www.w3.org/2000/svg">
<g clip-path="url(#clip0_1779_50513)">
<g clip-path="url(#clip1_1779_50513)">
<path d="M70.4002 44.8C68.3489 44.8 66.541 45.7888 65.3666 47.2928L50.525 40.9312C50.9219 39.6161 51.2002 38.2464 51.2002 36.8C51.2002 33.4048 49.9714 30.3264 48.0002 27.8623L54.7971 21.0687C56.0611 21.9072 57.5714 22.4 59.2002 22.4C63.6097 22.4 67.2002 18.8128 67.2002 14.4C67.2002 9.98719 63.6097 6.4 59.2002 6.4C54.7907 6.4 51.2002 9.98719 51.2002 14.4C51.2002 16.0288 51.693 17.5392 52.5346 18.8064L45.7377 25.6C43.2736 23.6287 40.1954 22.4 36.8 22.4C33.7344 22.4 30.8993 23.3823 28.56 25.0208L20.2307 15.6031C21.565 13.9519 22.4002 11.8816 22.4002 9.6C22.4002 4.30719 18.093 0 12.8002 0C7.50738 0 3.2002 4.30719 3.2002 9.6C3.2002 14.8928 7.50738 19.2 12.8002 19.2C14.6561 19.2 16.3746 18.6464 17.8433 17.7313L26.1793 27.1584C23.8561 29.7153 22.4 33.0784 22.4 36.8C22.4 37.8272 22.5185 38.8288 22.7232 39.7984L18.16 41.328C17.0177 39.568 15.0464 38.4 12.8 38.4C9.27051 38.4 6.40004 41.2705 6.40004 44.8C6.40004 48.3295 9.27051 51.2 12.8 51.2C16.3296 51.2 19.2 48.3295 19.2 44.8C19.2 44.6495 19.1649 44.512 19.1552 44.3648L23.7632 42.8225C26.0511 47.7537 31.0144 51.2002 36.8 51.2002C37.1393 51.2002 37.456 51.1233 37.7888 51.1009L40.2208 64.5889C37.2832 65.773 35.2 68.6402 35.2 72.0002C35.2 76.413 38.7905 80.0002 43.2 80.0002C47.6096 80.0002 51.2 76.413 51.2 72.0002C51.2 67.6481 47.7024 64.1122 43.3728 64.0194L40.9377 50.5217C44.4993 49.4433 47.4561 47.0497 49.2641 43.8753L64.0993 50.2305C64.048 50.5505 64 50.8673 64 51.2C64 54.7295 66.8705 57.6 70.4 57.6C73.9296 57.6 76.8 54.7295 76.8 51.2C76.8 47.6705 73.9297 44.8 70.4002 44.8ZM59.2002 9.6C61.8466 9.6 64.0002 11.7536 64.0002 14.4C64.0002 17.0464 61.8466 19.2 59.2002 19.2C57.8946 19.2 56.7169 18.6752 55.8497 17.8272C55.8369 17.8113 55.8338 17.7952 55.8177 17.7823C55.8049 17.7695 55.7889 17.7631 55.7729 17.7503C54.928 16.8831 54.4 15.7023 54.4 14.3998C54.4002 11.7536 56.5538 9.6 59.2002 9.6ZM12.8002 16C9.27066 16 6.4002 13.1295 6.4002 9.6C6.4002 6.07047 9.27066 3.2 12.8002 3.2C16.3297 3.2 19.2002 6.07047 19.2002 9.6C19.2002 13.1295 16.3297 16 12.8002 16ZM12.8002 48C11.0371 48 9.60019 46.5664 9.60019 44.8C9.60019 43.0336 11.0369 41.6 12.8002 41.6C14.1954 41.6 15.3538 42.5088 15.7889 43.76C15.7954 43.7759 15.7921 43.792 15.7954 43.8048C15.7985 43.8081 15.8018 43.8081 15.8018 43.8112C15.9041 44.1281 16.0002 44.4513 16.0002 44.8C16.0002 46.5664 14.5633 48 12.8002 48ZM43.2002 67.2C45.8466 67.2 48.0002 69.3536 48.0002 72C48.0002 74.6464 45.8466 76.8 43.2002 76.8C40.5538 76.8 38.4002 74.6464 38.4002 72C38.4002 69.3536 40.5538 67.2 43.2002 67.2ZM47.133 41.1072C47.1171 41.1392 47.0882 41.1584 47.0722 41.1936C47.0658 41.2159 47.0658 41.2416 47.0594 41.2672C45.3282 45.2223 41.3858 48 36.8002 48C30.6243 48 25.6002 42.9759 25.6002 36.8C25.6002 30.6241 30.6243 25.6 36.8002 25.6C42.9761 25.6 48.0002 30.6241 48.0002 36.8C48.0002 38.3264 47.6897 39.7823 47.133 41.1072ZM70.4002 54.4C68.6371 54.4 67.2002 52.9664 67.2002 51.2C67.2002 50.7712 67.2897 50.3648 67.4433 49.9936C67.4529 49.9713 67.4753 49.9648 67.4849 49.9423C67.4944 49.9264 67.4913 49.9072 67.4977 49.888C68 48.7808 69.1072 48 70.4 48C72.1632 48 73.6 49.4336 73.6 51.2C73.6 52.9664 72.1633 54.4 70.4002 54.4Z" fill="#3C3C3B"/>
</g>
</g>
<defs>
<clipPath id="clip0_1779_50513">
<rect width="80" height="80" fill="white"/>
</clipPath>
<clipPath id="clip1_1779_50513">
<rect width="80" height="80" fill="white"/>
</clipPath>
</defs>
</svg>
