<svg width="80" height="80" viewBox="0 0 80 80" fill="none" xmlns="http://www.w3.org/2000/svg">
<g clip-path="url(#clip0_1965_107984)">
<g clip-path="url(#clip1_1965_107984)">
<path d="M36.5947 33.69C37.6079 27.6794 41.4836 23.2105 46.0863 23.2348C51.4311 23.2631 55.7321 29.3403 55.6925 36.8086C55.6583 43.2852 52.3711 48.6809 48.013 49.9814" stroke="#3C3C3B" stroke-width="2" stroke-miterlimit="10" stroke-linecap="round" stroke-linejoin="round"/>
<path d="M44.5732 39.3812C44.9643 38.4659 45.4462 37.5867 46.0142 36.7573C47.7361 34.2436 48.665 31.2715 48.6811 28.2247L48.7029 24.0922" stroke="#3C3C3B" stroke-width="2" stroke-miterlimit="10" stroke-linecap="round" stroke-linejoin="round"/>
<path d="M45.5923 54.5858C49.3819 50.8166 48.1844 43.4684 42.9176 38.1733C37.6509 32.8782 30.3093 31.6412 26.5198 35.4104C22.7302 39.1797 23.9277 46.5278 29.1945 51.8229C34.4612 57.118 41.8028 58.355 45.5923 54.5858Z" stroke="#3C3C3B" stroke-width="2" stroke-miterlimit="10" stroke-linecap="round" stroke-linejoin="round"/>
<path d="M43.1396 55.834L40.2252 52.9041C38.0764 50.744 36.6244 47.9894 36.0566 44.9958C35.4888 42.0024 34.0368 39.2477 31.888 37.0876L28.9736 34.1577" stroke="#3C3C3B" stroke-width="2" stroke-miterlimit="10" stroke-linecap="round" stroke-linejoin="round"/>
<path d="M57.1317 5.14594C51.9645 2.60125 46.1492 1.17188 40 1.17188C18.5558 1.17188 1.17188 18.5558 1.17188 40C1.17188 61.4442 18.5558 78.8281 40 78.8281C61.4442 78.8281 78.8281 61.4442 78.8281 40C78.8281 26.392 71.828 14.4192 61.2322 7.48594M24.3598 68.9053C14.1025 63.3583 7.15656 52.5117 7.15656 39.9998C7.15656 34.0187 8.75625 28.4119 11.5502 23.5822C13.0164 21.0475 16.4828 20.5847 18.5534 22.6553L26.0209 30.1228M50.5555 54.6572L57.3447 61.4464C59.4153 63.517 58.9523 66.9834 56.4178 68.4497C51.588 71.2436 45.9811 72.8433 40.0002 72.8433C35.9005 72.8433 31.9795 72.0975 28.3653 70.7339M33.8128 29.7111L26.4691 22.3673L22.6552 18.5534C20.5845 16.4828 21.0475 13.0164 23.582 11.5502C28.4119 8.75625 34.0188 7.15656 39.9997 7.15656C58.1792 7.15656 72.8433 21.8206 72.8431 40C72.8431 45.9811 71.2434 51.588 68.4495 56.4177C66.9833 58.9523 63.5169 59.4152 61.4463 57.3445L54.3814 50.2797" stroke="#3C3C3B" stroke-width="2" stroke-miterlimit="10" stroke-linecap="round" stroke-linejoin="round"/>
</g>
</g>
<defs>
<clipPath id="clip0_1965_107984">
<rect width="80" height="80" fill="white"/>
</clipPath>
<clipPath id="clip1_1965_107984">
<rect width="80" height="80" fill="white"/>
</clipPath>
</defs>
</svg>
