<svg width="80" height="80" viewBox="0 0 80 80" fill="none" xmlns="http://www.w3.org/2000/svg">
<g clip-path="url(#clip0_1961_102953)">
<g clip-path="url(#clip1_1961_102953)">
<path d="M79.7411 34.0366C78.8842 30.6478 76.0041 28.0308 71.6314 26.6675C67.4587 25.3666 62.3703 25.3556 57.3034 26.637C52.2367 27.9185 47.765 30.3469 44.7125 33.475C41.5136 36.7531 40.2238 40.4247 41.0808 43.8135C41.4136 45.1297 42.0598 46.3425 43.0013 47.4181C43.4264 47.9039 44.1648 47.9531 44.6506 47.5278C45.1364 47.1025 45.1856 46.3641 44.7603 45.8785C44.0641 45.083 43.5887 44.1955 43.3472 43.2402C42.6972 40.6699 43.7761 37.7817 46.3855 35.1077C49.1411 32.2839 53.222 30.0805 57.8764 28.9034C62.5306 27.7264 67.1686 27.725 70.9353 28.8994C74.5022 30.0114 76.8244 32.0394 77.4744 34.6097C78.1244 37.18 77.0455 40.0681 74.4361 42.742C71.6805 45.5658 67.5995 47.7692 62.9452 48.9463C57.8484 50.2352 52.705 50.1019 48.8333 48.5808C48.2328 48.3449 47.5539 48.6403 47.318 49.2413C47.0819 49.8422 47.3777 50.5206 47.9786 50.7567C50.3531 51.6897 53.135 52.1597 56.0837 52.1595C58.4947 52.1595 61.0177 51.8452 63.5184 51.2127C68.5852 49.9313 73.0569 47.503 76.1094 44.3747C79.3081 41.0969 80.598 37.4253 79.7411 34.0366Z" fill="#3C3C3B"/>
<path d="M50.5871 39.6512C51.1919 39.4256 51.4994 38.7523 51.2738 38.1474C51.048 37.5426 50.3749 37.2352 49.77 37.4607C48.8502 37.8038 48.126 38.6823 47.925 39.6987C47.6982 40.8465 47.6332 43.6176 51.9166 44.5595C52.8285 44.7599 53.8944 44.8573 55.055 44.8573C57.7 44.8573 60.8363 44.3518 63.7578 43.4093C66.0164 42.6807 71.3617 40.6056 72.2158 37.0796C72.3627 36.4737 72.3778 35.9162 72.2627 35.3751C72.0647 34.4471 71.4808 33.6998 70.6607 33.3245C69.8608 32.9585 68.9513 32.9962 68.1655 33.4277C67.5996 33.7385 67.3928 34.4491 67.7038 35.0151C68.0144 35.581 68.7253 35.7876 69.291 35.4768C69.4621 35.3829 69.6011 35.4104 69.688 35.4502C69.8313 35.5157 69.9336 35.6623 69.9764 35.8626C70.0175 36.0559 70.0072 36.2677 69.9439 36.5292C69.5563 38.1293 66.8464 39.9565 63.0403 41.1843C59.2025 42.4223 55.0335 42.851 52.4188 42.276C49.908 41.724 50.1257 40.6224 50.2186 40.152C50.2688 39.8971 50.446 39.7037 50.5871 39.6512Z" fill="#3C3C3B"/>
<path d="M36.4679 50.8221C33.1698 47.7988 28.504 45.6782 23.3298 44.8508C18.1556 44.0233 13.0609 44.5833 8.98466 46.4275C4.74482 48.3455 2.08685 51.4221 1.50045 55.0904C0.914039 58.7586 2.47998 62.5104 5.91029 65.6549C9.20841 68.6782 13.8742 70.7988 19.0484 71.6261C20.6089 71.8757 22.1617 71.999 23.6819 71.999C27.2025 71.999 30.5465 71.3374 33.3936 70.0493C37.6333 68.1313 40.2912 65.0547 40.8778 61.3865C41.4642 57.7185 39.8981 53.9666 36.4679 50.8221ZM38.569 61.0175C38.1106 63.8846 35.9303 66.3357 32.4298 67.9194C28.7656 69.5769 24.1444 70.0735 19.4175 69.3179C14.6901 68.5621 10.4544 66.6491 7.48982 63.9318C4.65779 61.3355 3.35045 58.3268 3.80888 55.4597C4.26716 52.5927 6.44748 50.1415 9.9481 48.5579C12.4942 47.406 15.5017 46.8149 18.6867 46.8149C20.0851 46.8149 21.5181 46.929 22.9604 47.1596C27.6878 47.9155 31.9237 49.8283 34.8881 52.5457C37.7201 55.1418 39.0275 58.1505 38.569 61.0175Z" fill="#3C3C3B"/>
<path d="M29.838 57.8331C29.1944 57.8854 28.7153 58.4495 28.7675 59.0929C28.8199 59.7365 29.3875 60.2167 30.0274 60.1632C30.1409 60.1545 30.2059 60.1988 30.2405 60.2381C30.3024 60.3087 30.3206 60.4204 30.2922 60.5534C30.2603 60.7023 30.1839 60.8509 30.052 61.0213C29.1925 62.131 26.4036 62.6035 22.9475 62.2246C19.4377 61.8399 15.9567 60.6927 14.0794 59.302C12.3684 58.0343 12.8853 57.3045 13.1061 56.9931C13.2097 56.8467 13.3744 56.7751 13.4608 56.7813C14.0995 56.8226 14.6609 56.3345 14.7025 55.6901C14.7441 55.0459 14.2555 54.4899 13.6113 54.4484C12.6884 54.3884 11.7625 54.8459 11.1986 55.6415C9.90829 57.4631 10.465 59.5337 12.688 61.1806C15.3956 63.1866 20.7003 64.692 25.1639 64.692C28.0992 64.692 30.6708 64.0409 31.9003 62.4529C32.2502 62.0015 32.4719 61.5402 32.5783 61.0431C32.763 60.1821 32.5513 59.3267 31.9977 58.6959C31.4569 58.0801 30.6706 57.766 29.838 57.8331Z" fill="#3C3C3B"/>
<path d="M8.13948 33.041C10.3985 33.7974 12.9395 34.1774 15.61 34.1774C17.8315 34.1774 20.1429 33.9144 22.4562 33.3863C26.0221 32.5724 29.3667 31.1697 32.1279 29.3302C32.6653 28.9722 32.8106 28.2466 32.4528 27.7093C32.0948 27.1721 31.3692 27.0266 30.8318 27.3846C28.3043 29.0685 25.2282 30.3557 21.936 31.1071C17.2545 32.1757 12.6185 32.0752 8.88183 30.8241C5.34589 29.6401 3.07573 27.574 2.48948 25.0063C1.90355 22.4386 3.05214 19.5921 5.72417 16.991C8.54761 14.2424 12.6809 12.1401 17.3621 11.0715C22.0435 10.0027 26.6798 10.1033 30.4164 11.3544C33.9524 12.5385 36.2225 14.6046 36.8087 17.1722C37.4373 19.9266 35.9904 22.4101 34.6659 24.0085C34.254 24.5055 34.3231 25.2426 34.8203 25.6543C35.3171 26.066 36.054 25.9972 36.4662 25.5001C38.8128 22.6682 39.7439 19.5258 39.0878 16.6519C38.3134 13.259 35.4975 10.5904 31.1587 9.13756C27.0209 7.75193 21.9367 7.62928 16.842 8.79209C11.7478 9.9549 7.22026 12.2718 4.09323 15.3158C0.814952 18.5074 -0.56411 22.1336 0.210421 25.5266C0.984796 28.9194 3.80089 31.5882 8.13948 33.041Z" fill="#3C3C3B"/>
<path d="M10.888 21.9629C11.4921 21.7352 11.7972 21.061 11.5697 20.4569C11.3421 19.8526 10.6678 19.548 10.0636 19.7751C9.19675 20.1018 8.54284 20.8991 8.35706 21.8562C7.93159 24.0476 9.29206 25.7049 11.996 26.2898C12.7967 26.463 13.725 26.5459 14.7302 26.5459C20.5783 26.5459 29.0235 23.736 30.0264 19.5343C30.1589 18.979 30.1711 18.4674 30.0633 17.9702C29.8767 17.1098 29.3314 16.4176 28.5669 16.0709C27.8207 15.7323 26.9739 15.7702 26.2439 16.1743C25.6791 16.4869 25.4749 17.1984 25.7875 17.7632C26.1002 18.3279 26.8113 18.5323 27.3764 18.2196C27.4766 18.1641 27.5542 18.1785 27.6014 18.1999C27.6869 18.2387 27.75 18.333 27.7786 18.4655C27.8111 18.6144 27.8027 18.7813 27.7525 18.9912C27.4266 20.3565 25.08 21.9357 21.7747 23.0144C18.4178 24.1099 14.7735 24.4984 12.4902 24.0046C10.4088 23.5544 10.5792 22.6765 10.6521 22.3015C10.6863 22.1257 10.811 21.9919 10.888 21.9629Z" fill="#3C3C3B"/>
</g>
</g>
<defs>
<clipPath id="clip0_1961_102953">
<rect width="80" height="80" fill="white"/>
</clipPath>
<clipPath id="clip1_1961_102953">
<rect width="80" height="80" fill="white"/>
</clipPath>
</defs>
</svg>
