<svg width="80" height="80" viewBox="0 0 80 80" fill="none" xmlns="http://www.w3.org/2000/svg">
<g clip-path="url(#clip0_1491_33712)">
<g clip-path="url(#clip1_1491_33712)">
<path d="M10.533 35.2C10.3514 36.7992 9.6979 38.3081 8.6557 39.5346C4.46637 44.0533 3.27037 45.6093 3.41703 47.22C3.64504 48.3398 4.35672 49.3014 5.36103 49.8466C5.80085 50.1511 6.2651 50.4187 6.74903 50.6466C7.32237 50.94 8.28237 51.432 8.34903 51.784C8.43641 52.2352 8.38528 52.7023 8.20237 53.124C8.0037 53.5413 7.80237 53.9013 7.6237 54.216C7.10503 55.136 6.3197 56.528 7.55037 57.5653C7.83703 57.82 8.33037 58.208 8.7797 58.552C8.44602 59.1383 8.29643 59.8115 8.35037 60.484C8.42151 61.0054 8.7047 61.4743 9.13303 61.78C9.4317 61.992 9.74903 62.18 10.0664 62.356C10.8477 62.804 11.153 63.012 11.2584 63.4226C11.3588 63.927 11.32 64.4492 11.1464 64.9333C10.7031 66.4997 10.7779 68.1675 11.3597 69.688C12.0485 72.2188 14.5972 73.7682 17.161 73.2146C20.9577 72.2967 24.7019 71.1737 28.377 69.8506C30.217 70.948 31.965 73.6146 33.2277 77.2826C33.7823 78.9042 35.3045 79.9955 37.0184 80H63.9064C65.2907 79.999 66.5761 79.2823 67.3047 78.1053C68.0333 76.9282 68.1015 75.4581 67.485 74.2186C65.8199 70.5147 64.7835 66.5592 64.4184 62.5146C63.9453 58.5268 64.5436 54.485 66.1517 50.8053C67.1106 48.815 68.2929 46.9403 69.6757 45.2173C72.313 41.652 75.3037 37.6173 75.3997 30.7426C75.4794 26.9205 75.0111 23.1066 74.009 19.4173C72.666 14.8367 69.8763 10.814 66.057 7.95063C55.5517 -0.316041 46.4997 -1.83204 30.1904 1.93063C25.7637 2.95196 20.7504 4.51063 17.1384 8.33063C14.7859 10.8453 12.9712 13.8133 11.805 17.0533C11.3119 18.4798 10.9111 19.9366 10.605 21.4146L10.4984 21.876C10.2028 22.9517 9.80864 23.9979 9.32103 25.0013C8.61054 26.2152 8.23208 27.5948 8.2237 29.0013C8.49387 30.1918 9.18224 31.2459 10.1637 31.972C10.817 32.5706 11.245 32.992 11.249 33.3746C11.1922 33.5915 11.106 33.7996 10.993 33.9933C10.7779 34.3691 10.6227 34.7763 10.533 35.2ZM51.733 38.6373C51.6294 38.2989 51.3955 38.0157 51.0829 37.8499C50.7703 37.6841 50.4046 37.6493 50.0664 37.7533C49.3181 37.9825 48.5459 38.1248 47.765 38.1773C46.2605 38.2974 44.7485 38.0693 43.3464 37.5106C42.8181 37.3253 42.2303 37.4715 41.8504 37.8826C39.9061 40.1005 36.5923 40.4719 34.2053 38.7394C31.8184 37.0069 31.1443 33.7412 32.6504 31.2053C33.0292 30.5738 32.8245 29.7548 32.193 29.376C31.5616 28.9971 30.7426 29.2018 30.3637 29.8333C30.0454 30.3741 29.7895 30.9494 29.601 31.548C28.5523 31.4904 27.7245 30.6354 27.701 29.5853V29.552C27.7003 29.2001 27.5591 28.8632 27.3087 28.616C27.0583 28.3689 26.7195 28.232 26.3677 28.236C25.6281 28.2433 25.0329 28.8457 25.0344 29.5853C25.0388 31.9478 26.8191 33.9291 29.1677 34.1853C29.1725 34.6323 29.2131 35.0781 29.289 35.5186C26.3124 36.1607 23.2261 35.09 21.2866 32.7425C19.3472 30.3949 18.8781 27.1619 20.0704 24.36C20.3694 24.6615 20.7028 24.9268 21.0637 25.1506C21.4719 25.3962 21.9802 25.4053 22.3969 25.1745C22.8137 24.9438 23.0757 24.5082 23.0843 24.0319C23.0928 23.5556 22.8466 23.1109 22.4384 22.8653C21.8727 22.5238 21.445 21.9942 21.2304 21.3693C21.1271 21.0749 21.0744 20.7652 21.0744 20.4533C21.0736 18.904 22.3251 17.6454 23.8744 17.6373C24.7591 17.6349 25.5918 18.055 26.1157 18.768C26.5553 19.3589 27.3908 19.4816 27.9817 19.042C28.5726 18.6023 28.6953 17.7669 28.2557 17.176C27.3501 15.9654 25.9775 15.1913 24.473 15.0426C24.8706 13.1753 26.5172 11.8385 28.4264 11.8333C28.5891 11.8415 28.7512 11.8597 28.9117 11.888C28.8117 12.1626 28.7064 12.436 28.633 12.72C28.4802 13.4201 28.9083 14.1159 29.6021 14.2952C30.296 14.4745 31.0075 14.0732 31.213 13.3866C31.3639 12.8067 31.594 12.2503 31.897 11.7333C33.079 9.74994 35.2135 8.53064 37.5224 8.51996C38.7778 8.52555 40.0045 8.89615 41.053 9.58663C40.8538 10.1478 40.7484 10.7379 40.741 11.3333C40.741 11.8096 40.9952 12.2498 41.4077 12.488C41.8202 12.7262 42.3285 12.7262 42.741 12.488C43.1536 12.2498 43.4077 11.8096 43.4077 11.3333C43.4077 10.3313 43.9423 9.40539 44.81 8.90438C45.6778 8.40337 46.7469 8.40337 47.6147 8.90438C48.4825 9.40539 49.017 10.3313 49.017 11.3333C49.017 12.0697 49.614 12.6666 50.3504 12.6666C51.0868 12.6666 51.6837 12.0697 51.6837 11.3333C51.6837 11.2293 51.6584 11.1333 51.653 11.0306C55.4707 11.2666 58.6808 13.9802 59.549 17.7053C58.9272 17.8867 58.3429 18.1779 57.8237 18.5653C57.2346 19.0071 57.1152 19.8429 57.557 20.432C57.9989 21.0211 58.8346 21.1405 59.4237 20.6986C60.4894 19.9099 61.9612 19.9727 62.9558 20.8494C63.9505 21.726 64.1976 23.1783 63.549 24.3346C63.257 24.8442 62.8152 25.2515 62.2837 25.5013C61.6169 25.8143 61.3301 26.6085 61.643 27.2753C61.956 27.9421 62.7502 28.2289 63.417 27.916C63.7708 27.7447 64.1052 27.536 64.4144 27.2933C65.105 29.2565 64.6694 31.44 63.2784 32.988L63.2544 33.0133C61.5154 34.8976 58.7406 35.4062 56.4464 34.2613C56.2217 34.1433 56.0056 34.0097 55.7997 33.8613C56.7817 32.4857 56.9189 30.6787 56.1557 29.1706C55.943 28.7443 55.519 28.4638 55.0435 28.4348C54.5679 28.4059 54.113 28.6328 53.8501 29.0302C53.5873 29.4275 53.5563 29.935 53.769 30.3613C54.2101 31.2427 53.9362 32.3142 53.1264 32.876C52.6526 33.1922 52.0668 33.2925 51.5148 33.1519C50.9628 33.0113 50.4965 32.643 50.2317 32.1386C50.031 31.6916 49.6012 31.3907 49.1125 31.355C48.6238 31.3192 48.1548 31.5545 47.8913 31.9676C47.6277 32.3807 47.612 32.9051 47.8504 33.3333C48.907 35.4898 51.4472 36.4675 53.677 35.576C54.1539 35.9921 54.6785 36.3501 55.2397 36.6426C57.1409 37.6264 59.3507 37.8302 61.3997 37.2106C60.0822 39.0102 58.1102 40.2198 55.909 40.5786C55.2204 40.6863 54.7309 41.3061 54.7858 42.0009C54.8406 42.6958 55.4214 43.2311 56.1184 43.2293C56.1898 43.2294 56.2612 43.2236 56.3317 43.212C57.1431 43.0712 57.9361 42.8395 58.6957 42.5213C59.1061 43.2479 59.4391 44.0157 59.689 44.812C59.7355 44.9503 59.7589 45.0954 59.7584 45.2413C59.7583 45.8172 59.4147 46.3376 58.885 46.564C58.2716 46.8031 57.5739 46.6151 57.1637 46.1C56.1299 44.8881 54.7776 43.9898 53.2597 43.5066C50.3784 42.5426 49.2664 41.68 48.7944 40.7413C49.4863 40.6552 50.17 40.512 50.8384 40.3133C51.1779 40.2097 51.4622 39.975 51.6281 39.6612C51.7941 39.3473 51.828 38.9802 51.7224 38.6413L51.733 38.6373ZM53.1717 54.7706C53.2704 54.2066 53.3904 53.6346 53.5117 53.0586C54.0318 51.0432 54.236 48.9593 54.117 46.8813C54.4955 47.1485 54.8391 47.4621 55.1397 47.8146C55.7517 48.5386 56.5871 49.0386 57.5144 49.236C57.3885 50.3361 57.2019 51.4284 56.9557 52.508C56.8224 53.116 56.7037 53.7186 56.5984 54.3106C55.1317 62.488 57.3504 70.4 59.825 77.3333H56.6064C54.125 70.5133 51.7544 62.6733 53.161 54.7786L53.1717 54.7706ZM11.9597 30C11.4264 29.5066 10.9144 29.04 10.857 28.6293C11.019 27.7403 11.3195 26.8823 11.7477 26.0866C12.3077 24.9282 12.7564 23.7192 13.0877 22.476L13.1944 22.0106C13.4796 20.642 13.8506 19.2927 14.305 17.9706C15.3491 15.0699 16.9733 12.4123 19.0784 10.16C22.193 6.86129 26.545 5.50263 30.789 4.52396C48.1837 0.515959 55.7584 3.23996 64.4144 10.048C67.8 12.5528 70.27 16.0997 71.445 20.144C72.3772 23.5843 72.8118 27.1404 72.7357 30.704C72.6517 36.716 70.1664 40.0746 67.5357 43.6373C66.0319 45.5215 64.7489 47.5717 63.7117 49.748C61.9123 53.8623 61.2426 58.382 61.7717 62.8413C62.17 67.1939 63.2968 71.4487 65.105 75.428C65.3008 75.8401 65.2722 76.3238 65.0292 76.71C64.7862 77.0962 64.3626 77.3313 63.9064 77.3333H62.6664C60.185 70.5146 57.8144 62.6746 59.221 54.7773C59.3197 54.2106 59.441 53.6373 59.5624 53.0573C59.8819 51.6799 60.0972 50.2804 60.2064 48.8706C61.5703 48.1708 62.4291 46.7676 62.4317 45.2346C62.4327 44.806 62.3643 44.38 62.229 43.9733C61.9307 43.0309 61.5362 42.1216 61.0517 41.26C63.3179 39.6299 64.8968 37.2151 65.481 34.4853C67.7547 31.7792 68.0518 27.9252 66.2197 24.9026C66.797 23.4122 66.6912 21.7435 65.9303 20.3379C65.1693 18.9323 63.83 17.9314 62.2664 17.6C61.2684 12.2561 56.6198 8.37148 51.1837 8.33863C51.0504 8.33863 50.9317 8.35596 50.8037 8.35996C49.9343 6.99426 48.5004 6.08829 46.8937 5.88965C45.287 5.69101 43.6755 6.22045 42.4997 7.33329C41.0181 6.37011 39.2895 5.85611 37.5224 5.85329C34.6743 5.86435 31.99 7.18634 30.245 9.43729C28.3069 8.87223 26.217 9.2192 24.5655 10.3802C22.914 11.5413 21.88 13.3903 21.7557 15.4053C19.3081 16.401 17.9434 19.0243 18.533 21.6C17.3702 23.3537 16.748 25.4104 16.7437 27.5146C16.7275 30.8457 18.2467 33.9984 20.8621 36.0614C23.4775 38.1244 26.8974 38.8675 30.133 38.076C31.347 40.3792 33.5655 41.9847 36.1327 42.4179C38.7 42.8511 41.3225 42.0626 43.225 40.2853C44.1301 40.5687 45.0638 40.7507 46.009 40.828C46.5837 42.9613 48.1104 44.3573 51.1184 45.5506C51.6651 47.8521 51.5864 50.2579 50.8904 52.5186C50.7637 53.124 50.6384 53.7186 50.5344 54.3133C49.0797 62.4866 51.2984 70.4 53.7717 77.3333H37.0184C36.4418 77.3279 35.9321 76.9574 35.749 76.4106C34.8811 73.5799 33.3847 70.9819 31.3717 68.8106L32.3677 68.4613C33.353 68.1146 34.101 67.8533 34.469 67.736C40.1717 65.9413 43.025 63.344 42.9464 60.0133C42.9475 59.657 42.8023 59.3159 42.5446 59.0699C42.287 58.8238 41.9395 58.6944 41.5837 58.712C41.23 58.72 40.8941 58.8683 40.6498 59.1241C40.4055 59.3799 40.2728 59.7223 40.281 60.076C40.313 61.4506 39.1917 63.4546 33.6664 65.1933C33.2757 65.316 32.505 65.5866 31.4837 65.9453C30.5277 66.2813 29.3504 66.6973 28.0504 67.1453H28.0424C24.2995 68.5037 20.4859 69.6587 16.6184 70.6053C15.3734 70.8395 14.1653 70.0502 13.8797 68.816C13.4628 67.7744 13.4157 66.6214 13.7464 65.5493C14.0219 64.6523 14.0569 63.6987 13.8477 62.784C13.4665 61.5603 12.5706 60.5637 11.3944 60.0546L11.1104 59.8906C11.2526 59.5983 11.4237 59.3209 11.621 59.0626C11.8424 58.7794 11.9401 58.4189 11.8919 58.0627C11.8437 57.7065 11.6537 57.3848 11.365 57.1706C11.045 56.9333 10.285 56.3613 9.73837 55.924C9.80637 55.7986 9.8837 55.6573 9.95303 55.536C10.157 55.1746 10.3917 54.7573 10.6197 54.28C11.0459 53.348 11.1712 52.3064 10.9784 51.3C10.669 49.664 9.1117 48.8666 7.97037 48.284C7.6212 48.1198 7.28471 47.93 6.9637 47.716C6.65177 47.4981 6.35712 47.2565 6.08237 46.9933C6.10503 46.2226 9.03837 43.0586 10.6157 41.3586C12.0174 39.7536 12.9063 37.7655 13.1677 35.6506C13.2243 35.497 13.292 35.3477 13.3704 35.204C13.7042 34.6405 13.8917 34.0024 13.9157 33.348C13.7812 32.0008 13.0672 30.7787 11.9597 30Z" fill="#3C3C3B"/>
<path d="M51.3839 23.4372C51.4832 22.9654 51.32 22.4768 50.9572 22.1593C50.5943 21.8418 50.0883 21.7449 49.6339 21.9059C49.1794 22.0669 48.8473 22.4608 48.7653 22.9359C48.5033 24.3109 47.7099 25.5272 46.5573 26.3212C44.3402 27.8158 41.3661 27.4796 39.5386 25.5279C39.0448 24.9815 38.2016 24.9388 37.6553 25.4326C37.1089 25.9263 37.0662 26.7695 37.5599 27.3159C38.689 28.5636 40.1815 29.425 41.8266 29.7786C41.0815 30.8314 39.871 31.456 38.5813 31.4532C37.8449 31.4532 37.2479 32.0502 37.2479 32.7866C37.2479 33.5229 37.8449 34.1199 38.5813 34.1199C41.3438 34.1333 43.8236 32.4282 44.7999 29.8439C48.116 29.2953 50.7416 26.7431 51.3839 23.4439V23.4372Z" fill="#3C3C3B"/>
<path d="M39.1395 17.8534C39.1395 17.117 38.5426 16.52 37.8062 16.52C34.4207 16.5244 31.6773 19.2678 31.6729 22.6534C31.6729 23.3897 32.2698 23.9867 33.0062 23.9867C33.7426 23.9867 34.3395 23.3897 34.3395 22.6534C34.3395 20.7388 35.8916 19.1867 37.8062 19.1867C38.5426 19.1867 39.1395 18.5897 39.1395 17.8534Z" fill="#3C3C3B"/>
</g>
</g>
<defs>
<clipPath id="clip0_1491_33712">
<rect width="80" height="80" fill="white"/>
</clipPath>
<clipPath id="clip1_1491_33712">
<rect width="80" height="80" fill="white"/>
</clipPath>
</defs>
</svg>
