<svg width="80" height="80" viewBox="0 0 80 80" fill="none" xmlns="http://www.w3.org/2000/svg">
<g clip-path="url(#clip0_1491_33676)">
<path d="M29.6236 30.4676C28.0017 30.9021 26.76 32.2508 26.4598 33.9036C26.3503 34.5072 25.824 34.9304 25.2314 34.9304C25.1573 34.9304 25.0821 34.9238 25.0067 34.9101C24.3275 34.7868 23.8768 34.1362 24.0003 33.4568C24.4723 30.8574 26.4256 28.7362 28.9767 28.0526C31.2981 27.4308 33.7268 28.0468 35.4737 29.701C35.975 30.1757 35.9965 30.9669 35.5218 31.4682C35.047 31.9697 34.2557 31.991 33.7546 31.5163C32.6432 30.464 31.0984 30.0718 29.6236 30.4676ZM70.2942 22.1241C67.1982 16.8882 62.7748 12.5188 57.5023 9.48834C56.9036 9.14428 56.1396 9.35053 55.7957 9.94912C55.4517 10.5476 55.6579 11.3118 56.2565 11.6557C66.3806 17.4749 72.6698 28.3358 72.6698 40.0001C72.6698 58.014 58.0143 72.6694 40.0004 72.6694C38.7671 72.6694 37.5296 72.598 36.3021 72.4594L38.8131 70.8868C39.3982 70.5202 39.5754 69.749 39.209 69.164C38.8428 68.5791 38.0712 68.4018 37.4862 68.768L32.184 72.0887C31.8584 72.2927 31.6446 72.6351 31.6043 73.0171C31.564 73.3993 31.7018 73.7786 31.9781 74.046L36.4726 78.3979C36.7153 78.633 37.0289 78.7499 37.3418 78.7499C37.6686 78.7499 37.9948 78.6227 38.24 78.3693C38.7201 77.8733 38.7075 77.0821 38.2114 76.6018L36.5564 74.9993C37.7012 75.111 38.8525 75.1693 40.0004 75.1693C49.3945 75.1693 58.2264 71.511 64.8689 64.8683C71.5114 58.2257 75.1698 49.394 75.1698 39.9999C75.1698 33.6997 73.4839 27.5183 70.2942 22.1241ZM23.744 68.3443C13.6201 62.5255 7.33105 51.6646 7.33105 40.0001C7.33105 21.9862 21.9865 7.33068 40.0004 7.33068C41.2364 7.33068 42.4743 7.40084 43.7009 7.53896L41.1876 9.11287C40.6026 9.47943 40.4253 10.2507 40.7917 10.8357C41.029 11.2146 41.4359 11.4224 41.8523 11.4224C42.0789 11.4224 42.3082 11.3607 42.5145 11.2316L47.8168 7.91099C48.1425 7.70693 48.3562 7.36459 48.3965 6.98256C48.4368 6.60037 48.299 6.22084 48.0228 5.95365L43.5281 1.60178C43.032 1.12146 42.2406 1.13428 41.7606 1.63037C41.2804 2.12631 41.2931 2.91756 41.7892 3.39787L43.4439 4.9999C42.3006 4.88865 41.1496 4.83068 40.0004 4.83068C30.6064 4.83068 21.7745 8.48896 15.132 15.1316C8.48949 21.7743 4.83105 30.606 4.83105 40.0001C4.83105 46.3004 6.51699 52.4818 9.70652 57.8758C12.8025 63.1119 17.2257 67.4815 22.4982 70.5116C22.6945 70.6246 22.9087 70.678 23.12 70.678C23.5529 70.678 23.9737 70.453 24.2048 70.0507C24.5489 69.4524 24.3426 68.6882 23.744 68.3443ZM35.5712 66.2499C32.8481 66.2499 30.4328 64.6693 29.3292 62.2416C27.0636 61.8277 25.1365 60.2752 24.2359 58.1633C22.5868 58.278 20.9475 57.7926 19.6001 56.7638C18.1862 55.6843 17.2632 54.1321 16.987 52.4116C14.3806 51.4061 12.5693 48.843 12.5693 46.004C12.5693 43.5099 13.8314 41.306 15.7484 39.9999C13.8314 38.6938 12.5693 36.4901 12.5693 33.9958C12.5693 31.1566 14.3806 28.5935 16.987 27.5882C17.2632 25.8674 18.1862 24.3155 19.6001 23.236C20.9473 22.2072 22.5868 21.721 24.2359 21.8365C25.1365 19.7246 27.0636 18.1722 29.3292 17.7582C30.4329 15.3305 32.8482 13.7499 35.5712 13.7499C37.2257 13.7499 38.7451 14.3387 39.9314 15.3176V14.9999C39.9314 14.3096 40.4911 13.7499 41.1814 13.7499H44.5646C45.0818 13.7499 45.5454 14.0683 45.7312 14.5508L47.0936 18.0901C48.9821 18.5988 50.7925 19.3493 52.4907 20.3277L55.9593 18.7872C56.432 18.5776 56.9848 18.6802 57.3506 19.0457L62.1354 23.8305C62.5011 24.1963 62.6037 24.7493 62.3939 25.2218L60.8539 28.6888C61.8325 30.3871 62.5832 32.198 63.092 34.0877L66.6304 35.4497C67.1129 35.6354 67.4314 36.0991 67.4314 36.6163V43.3832C67.4314 43.9004 67.1129 44.364 66.6304 44.5497L63.0911 45.9121C62.5826 47.8004 61.832 49.6107 60.8534 51.3091L62.394 54.7779C62.6039 55.2504 62.5012 55.8033 62.1356 56.1691L57.3507 60.954C56.985 61.3197 56.4317 61.4224 55.9595 61.2124L52.4923 59.6724C50.7945 60.6508 48.9837 61.4015 47.0936 61.9105L45.7315 65.449C45.5459 65.9315 45.0821 66.2499 44.565 66.2499H41.1815C40.4912 66.2499 39.9315 65.6902 39.9315 64.9999V64.6822C38.7453 65.6611 37.2257 66.2499 35.5712 66.2499ZM39.5121 39.9999C41.2761 41.2426 42.4317 43.2933 42.4317 45.6101V50.4743C47.6621 49.8536 51.7325 45.3946 51.7325 39.9999C51.7325 34.6052 47.662 30.1462 42.4317 29.5255V34.3897C42.4317 36.7065 41.2761 38.7572 39.5121 39.9999ZM42.4315 16.2499L42.4317 27.0101C49.0436 27.6416 54.2325 33.2252 54.2325 39.9999C54.2325 46.7746 49.0436 52.3582 42.4317 52.9897L42.4315 63.7499H43.7067L44.9926 60.409C45.1406 60.0244 45.4687 59.7374 45.8696 59.6421C47.9498 59.1469 49.9292 58.3263 51.7528 57.2032C52.104 56.9869 52.5392 56.9579 52.9156 57.1251L56.1897 58.5794L59.7606 55.0085L58.3057 51.7329C58.1385 51.3561 58.1676 50.9211 58.3837 50.5702C59.5073 48.7454 60.3278 46.7665 60.822 44.6886C60.9175 44.2877 61.2043 43.9594 61.589 43.8115L64.9311 42.5252V37.4751L61.5901 36.1891C61.2054 36.0411 60.9186 35.7129 60.8232 35.3119C60.3282 33.2322 59.5078 31.2529 58.3843 29.429C58.1681 29.0779 58.139 28.6429 58.3062 28.2662L59.7606 24.9921L56.1897 21.4212L52.9142 22.876C52.5376 23.0432 52.1025 23.0143 51.7515 22.798C49.927 21.6746 47.9481 20.8541 45.8696 20.3594C45.4689 20.2641 45.1406 19.9771 44.9926 19.5926L43.7065 16.2499H42.4315ZM19.8036 38.7499H30.2746C29.9867 38.3996 29.73 38.0183 29.5117 37.6079C29.1875 36.9985 29.4187 36.2415 30.0282 35.9174C30.6379 35.593 31.3946 35.8243 31.7187 36.434C32.4786 37.8624 33.9548 38.7499 35.5712 38.7499C37.9756 38.7499 39.9315 36.7938 39.9315 34.3897V20.6102H39.9314V20.6041C39.9282 18.2027 37.9736 16.2499 35.5712 16.2499C33.6631 16.2499 31.9931 17.4701 31.4153 19.2863C30.954 20.7363 31.2914 22.3463 32.2962 23.4887C32.7521 24.0071 32.7017 24.7969 32.1832 25.2529C31.9456 25.4618 31.6514 25.5643 31.3581 25.5643C31.0112 25.5643 30.6661 25.4208 30.419 25.1399C29.2982 23.8657 28.7084 22.2218 28.7167 20.5601C27.5317 21.1166 26.6167 22.1933 26.3059 23.5168C26.2296 23.8416 26.0267 24.1224 25.7421 24.2968C25.4578 24.4712 25.1154 24.5243 24.7914 24.4449C24.4506 24.3615 24.1054 24.3202 23.7626 24.3202C22.8198 24.3202 21.8929 24.6307 21.1173 25.2227C20.07 26.0224 19.4471 27.2277 19.4032 28.5335C19.4451 29.7652 20.0143 30.9279 20.9701 31.728C21.4995 32.1712 21.5693 32.9596 21.1261 33.489C20.8789 33.7843 20.5242 33.9365 20.167 33.9365C19.8839 33.9365 19.5992 33.8408 19.3651 33.6449C18.3028 32.7557 17.5454 31.5782 17.1696 30.2779C15.9028 31.0583 15.0693 32.4626 15.0693 33.9957C15.0693 36.6172 17.1931 38.7499 19.8036 38.7499ZM35.5712 63.7499C37.9736 63.7499 39.9281 61.7971 39.9314 59.3957V59.3896H39.9315V45.6101C39.9315 43.2058 37.9754 41.2499 35.5712 41.2499C33.9546 41.2499 32.4786 42.1374 31.7187 43.5658C31.494 43.9883 31.0614 44.2291 30.6142 44.2291C30.4161 44.2291 30.2153 44.1819 30.0282 44.0824C29.4189 43.7583 29.1875 43.0013 29.5117 42.3919C29.73 41.9815 29.9867 41.6002 30.2746 41.2499H19.8036C17.1931 41.2499 15.0693 43.3826 15.0693 46.004C15.0693 47.5371 15.9026 48.9413 17.1696 49.7218C17.5456 48.4215 18.3028 47.2441 19.3651 46.3547C19.8946 45.9116 20.6829 45.9815 21.1261 46.5107C21.5693 47.0401 21.4995 47.8285 20.9701 48.2716C20.0143 49.0718 19.4451 50.2344 19.4032 51.4661C19.4471 52.7719 20.07 53.9772 21.1173 54.7769C22.175 55.5843 23.514 55.8676 24.7914 55.5549C25.1153 55.4752 25.4576 55.5288 25.7421 55.703C26.0267 55.8774 26.2296 56.1582 26.3059 56.483C26.6167 57.8065 27.5317 58.8832 28.7167 59.4397C28.7084 57.7779 29.2984 56.1341 30.4192 54.8599C30.8751 54.3416 31.665 54.291 32.1834 54.7469C32.7017 55.203 32.7523 55.9929 32.2964 56.5111C31.2914 57.6533 30.9542 59.2633 31.4154 60.7135C31.9931 62.5297 33.6631 63.7499 35.5712 63.7499ZM35.5215 48.5315C35.0468 48.0302 34.2553 48.0088 33.7543 48.4833C32.6434 49.5357 31.0995 49.9283 29.6234 49.5322C28.0017 49.0977 26.76 47.749 26.4598 46.0961C26.3365 45.4171 25.6867 44.9654 25.0065 45.0897C24.3273 45.213 23.8767 45.8637 24.0001 46.543C24.4721 49.1424 26.4254 51.2636 28.9764 51.9472C29.572 52.1068 30.1745 52.1849 30.7707 52.1849C32.4992 52.1849 34.1748 51.5288 35.4736 50.2988C35.9746 49.8236 35.9962 49.0326 35.5215 48.5315Z" fill="#3C3C3B"/>
</g>
<defs>
<clipPath id="clip0_1491_33676">
<rect width="80" height="80" fill="white"/>
</clipPath>
</defs>
</svg>
