<svg width="80" height="80" viewBox="0 0 80 80" fill="none" xmlns="http://www.w3.org/2000/svg">
<g clip-path="url(#clip0_1779_49884)">
<path d="M41.25 50C39.9239 50 38.6521 49.4732 37.7145 48.5355C36.7768 47.5979 36.25 46.3261 36.25 45C36.25 43.6739 36.7768 42.4022 37.7145 41.4645C38.6521 40.5268 39.9239 40 41.25 40C42.3324 39.9966 43.3861 40.3479 44.25 41L45.75 39C44.6357 38.1643 43.3108 37.6554 41.9235 37.5303C40.5363 37.4052 39.1417 37.6689 37.8959 38.2918C36.6501 38.9147 35.6024 39.8722 34.8701 41.057C34.1379 42.2418 33.75 43.6072 33.75 45C33.75 46.3928 34.1379 47.7582 34.8701 48.943C35.6024 50.1278 36.6501 51.0853 37.8959 51.7082C39.1417 52.3311 40.5363 52.5948 41.9235 52.4697C43.3108 52.3446 44.6357 51.8357 45.75 51L44.25 49C43.3861 49.6521 42.3324 50.0034 41.25 50Z" fill="#3C3C3B"/>
<path d="M75.1512 50.8837C73.785 49.5175 71.9321 48.7499 70 48.7499C68.0679 48.7499 66.2149 49.5175 64.8487 50.8837L63.3837 52.3487C62.472 53.2187 61.2602 53.7041 60 53.7041C58.7397 53.7041 57.5279 53.2187 56.6162 52.3487L55.1512 50.8837C54.5307 50.2708 53.8049 49.7746 53.0087 49.4187C53.3601 48.3932 53.5875 47.3294 53.6862 46.2499H78.75V43.7499H53.6862C53.4718 41.4377 52.6758 39.2173 51.3723 37.2955C50.0688 35.3737 48.3002 33.813 46.2312 32.7587L49.5387 24.4724C51.1145 25.0406 52.8202 25.1445 54.4533 24.7718C56.0864 24.3992 57.5783 23.5656 58.7516 22.3701C59.9249 21.1746 60.7304 19.6674 61.0724 18.0276C61.4144 16.3878 61.2785 14.6843 60.6809 13.1194C60.0832 11.5546 59.049 10.1941 57.701 9.19975C56.353 8.20535 54.7479 7.61878 53.0764 7.50971C51.4049 7.40064 49.7372 7.77365 48.2714 8.58445C46.8056 9.39524 45.6034 10.6097 44.8075 12.0837L34.905 8.43615C34.9607 8.12699 34.9925 7.81397 35 7.4999C35.0126 5.97794 34.474 4.50284 33.4837 3.34706C32.4934 2.19127 31.1183 1.4329 29.6124 1.21201C28.1065 0.991116 26.5715 1.32263 25.291 2.14533C24.0105 2.96802 23.0709 4.22631 22.6459 5.68777C22.2209 7.14923 22.3391 8.71513 22.9787 10.0962C23.6182 11.4773 24.736 12.5803 26.1255 13.2015C27.515 13.8227 29.0823 13.92 30.538 13.4756C31.9937 13.0312 33.2394 12.075 34.045 10.7837L43.9437 14.4299C43.5907 16.0744 43.7216 17.7859 44.3205 19.3575C44.9195 20.9292 45.9608 22.2937 47.3187 23.2862L43.9125 31.8249C41.9629 31.242 39.9081 31.1 37.897 31.4091C35.8858 31.7183 33.9685 32.4708 32.284 33.6122C30.5995 34.7537 29.1899 36.2554 28.1573 38.0088C27.1247 39.7621 26.495 41.7232 26.3137 43.7499H1.24996V46.2499H26.3137C26.4124 47.3294 26.6398 48.3932 26.9912 49.4187C26.195 49.7746 25.4693 50.2708 24.8487 50.8837L23.3837 52.3487C22.472 53.2187 21.2602 53.7041 20 53.7041C18.7397 53.7041 17.5279 53.2187 16.6162 52.3487L15.1512 50.8837C13.785 49.5175 11.9321 48.7499 9.99996 48.7499C8.06787 48.7499 6.21491 49.5175 4.84871 50.8837L0.366211 55.3661L2.13371 57.1337L6.61621 52.6511C7.52792 51.7811 8.73973 51.2957 9.99996 51.2957C11.2602 51.2957 12.472 51.7811 13.3837 52.6511L14.8487 54.1161C16.2149 55.4823 18.0679 56.2499 20 56.2499C21.9321 56.2499 23.785 55.4823 25.1512 54.1161L26.6162 52.6511C27.0187 52.254 27.4885 51.9315 28.0037 51.6987C29.1937 53.8362 30.9333 55.617 33.0424 56.8567C35.1515 58.0964 37.5535 58.7501 40 58.7501C42.4464 58.7501 44.8485 58.0964 46.9576 56.8567C49.0667 55.617 50.8062 53.8362 51.9962 51.6987C52.5115 51.9315 52.9813 52.254 53.3837 52.6511L54.8487 54.1161C56.2149 55.4823 58.0679 56.2499 60 56.2499C61.9321 56.2499 63.785 55.4823 65.1512 54.1161L66.6162 52.6511C67.5279 51.7811 68.7397 51.2957 70 51.2957C71.2602 51.2957 72.472 51.7811 73.3837 52.6511L77.8662 57.1337L79.6337 55.3661L75.1512 50.8837ZM28.75 11.2499C28.0083 11.2499 27.2833 11.03 26.6666 10.6179C26.0499 10.2059 25.5692 9.62019 25.2854 8.93497C25.0016 8.24974 24.9273 7.49574 25.072 6.76831C25.2167 6.04089 25.5739 5.3727 26.0983 4.84825C26.6228 4.32381 27.2909 3.96665 28.0184 3.82196C28.7458 3.67726 29.4998 3.75153 30.185 4.03535C30.8702 4.31918 31.4559 4.79983 31.868 5.41651C32.28 6.0332 32.5 6.75822 32.5 7.4999C32.5 8.49446 32.1049 9.44829 31.4016 10.1516C30.6984 10.8548 29.7445 11.2499 28.75 11.2499ZM46.25 16.2499C46.25 15.0138 46.6165 13.8054 47.3033 12.7776C47.99 11.7498 48.9662 10.9487 50.1082 10.4757C51.2502 10.0026 52.5069 9.87884 53.7193 10.12C54.9317 10.3612 56.0453 10.9564 56.9194 11.8305C57.7935 12.7046 58.3887 13.8182 58.6299 15.0306C58.871 16.243 58.7473 17.4996 58.2742 18.6417C57.8012 19.7837 57.0001 20.7598 55.9723 21.4466C54.9445 22.1333 53.7361 22.4999 52.5 22.4999C50.843 22.4979 49.2544 21.8388 48.0827 20.6671C46.9111 19.4955 46.2519 17.9069 46.25 16.2499ZM40 56.2499C37.7749 56.2499 35.5998 55.5901 33.7498 54.3539C31.8997 53.1178 30.4578 51.3608 29.6063 49.3051C28.7548 47.2494 28.532 44.9874 28.9661 42.8051C29.4002 40.6228 30.4717 38.6183 32.045 37.045C33.6184 35.4716 35.6229 34.4002 37.8052 33.9661C39.9875 33.532 42.2495 33.7548 44.3051 34.6063C46.3608 35.4577 48.1178 36.8997 49.354 38.7497C50.5902 40.5998 51.25 42.7749 51.25 44.9999C51.2463 47.9825 50.0599 50.8418 47.9509 52.9508C45.8419 55.0598 42.9825 56.2463 40 56.2499Z" fill="#3C3C3B"/>
<path d="M10 56.25C9.0111 56.25 8.0444 56.5432 7.22215 57.0927C6.39991 57.6421 5.75904 58.423 5.3806 59.3366C5.00217 60.2502 4.90315 61.2555 5.09608 62.2255C5.289 63.1954 5.76521 64.0863 6.46447 64.7855C7.16373 65.4848 8.05465 65.961 9.02455 66.1539C9.99446 66.3469 10.9998 66.2478 11.9134 65.8694C12.8271 65.491 13.6079 64.8501 14.1574 64.0279C14.7068 63.2056 15 62.2389 15 61.25C15 59.9239 14.4732 58.6521 13.5355 57.7145C12.5979 56.7768 11.3261 56.25 10 56.25ZM10 63.75C9.50555 63.75 9.0222 63.6034 8.61108 63.3287C8.19995 63.054 7.87952 62.6635 7.6903 62.2067C7.50108 61.7499 7.45158 61.2472 7.54804 60.7623C7.6445 60.2773 7.8826 59.8319 8.23223 59.4822C8.58187 59.1326 9.02732 58.8945 9.51228 58.798C9.99723 58.7016 10.4999 58.7511 10.9567 58.9403C11.4135 59.1295 11.804 59.45 12.0787 59.8611C12.3534 60.2722 12.5 60.7555 12.5 61.25C12.5 61.913 12.2366 62.5489 11.7678 63.0178C11.2989 63.4866 10.663 63.75 10 63.75Z" fill="#3C3C3B"/>
<path d="M30 56.25C29.0111 56.25 28.0444 56.5432 27.2222 57.0927C26.3999 57.6421 25.759 58.423 25.3806 59.3366C25.0022 60.2502 24.9031 61.2555 25.0961 62.2255C25.289 63.1954 25.7652 64.0863 26.4645 64.7855C27.1637 65.4848 28.0546 65.961 29.0246 66.1539C29.9945 66.3469 30.9998 66.2478 31.9134 65.8694C32.827 65.491 33.6079 64.8501 34.1574 64.0279C34.7068 63.2056 35 62.2389 35 61.25C35 59.9239 34.4732 58.6521 33.5355 57.7145C32.5979 56.7768 31.3261 56.25 30 56.25ZM30 63.75C29.5055 63.75 29.0222 63.6034 28.6111 63.3287C28.2 63.054 27.8795 62.6635 27.6903 62.2067C27.5011 61.7499 27.4516 61.2472 27.548 60.7623C27.6445 60.2773 27.8826 59.8319 28.2322 59.4822C28.5819 59.1326 29.0273 58.8945 29.5123 58.798C29.9972 58.7016 30.4999 58.7511 30.9567 58.9403C31.4135 59.1295 31.804 59.45 32.0787 59.8611C32.3534 60.2722 32.5 60.7555 32.5 61.25C32.5 61.913 32.2366 62.5489 31.7678 63.0178C31.2989 63.4866 30.663 63.75 30 63.75Z" fill="#3C3C3B"/>
<path d="M50 56.25C49.0111 56.25 48.0444 56.5432 47.2221 57.0927C46.3999 57.6421 45.759 58.423 45.3806 59.3366C45.0022 60.2502 44.9031 61.2555 45.0961 62.2255C45.289 63.1954 45.7652 64.0863 46.4645 64.7855C47.1637 65.4848 48.0546 65.961 49.0246 66.1539C49.9945 66.3469 50.9998 66.2478 51.9134 65.8694C52.8271 65.491 53.6079 64.8501 54.1574 64.0279C54.7068 63.2056 55 62.2389 55 61.25C55 59.9239 54.4732 58.6521 53.5355 57.7145C52.5979 56.7768 51.3261 56.25 50 56.25ZM50 63.75C49.5055 63.75 49.0222 63.6034 48.6111 63.3287C48.2 63.054 47.8795 62.6635 47.6903 62.2067C47.5011 61.7499 47.4516 61.2472 47.548 60.7623C47.6445 60.2773 47.8826 59.8319 48.2322 59.4822C48.5819 59.1326 49.0273 58.8945 49.5123 58.798C49.9972 58.7016 50.4999 58.7511 50.9567 58.9403C51.4135 59.1295 51.804 59.45 52.0787 59.8611C52.3534 60.2722 52.5 60.7555 52.5 61.25C52.5 61.913 52.2366 62.5489 51.7678 63.0178C51.2989 63.4866 50.663 63.75 50 63.75Z" fill="#3C3C3B"/>
<path d="M70 56.25C69.0111 56.25 68.0444 56.5432 67.2221 57.0927C66.3999 57.6421 65.759 58.423 65.3806 59.3366C65.0022 60.2502 64.9031 61.2555 65.0961 62.2255C65.289 63.1954 65.7652 64.0863 66.4645 64.7855C67.1637 65.4848 68.0546 65.961 69.0246 66.1539C69.9945 66.3469 70.9998 66.2478 71.9134 65.8694C72.8271 65.491 73.6079 64.8501 74.1574 64.0279C74.7068 63.2056 75 62.2389 75 61.25C75 59.9239 74.4732 58.6521 73.5355 57.7145C72.5979 56.7768 71.3261 56.25 70 56.25ZM70 63.75C69.5055 63.75 69.0222 63.6034 68.6111 63.3287C68.2 63.054 67.8795 62.6635 67.6903 62.2067C67.5011 61.7499 67.4516 61.2472 67.548 60.7623C67.6445 60.2773 67.8826 59.8319 68.2322 59.4822C68.5819 59.1326 69.0273 58.8945 69.5123 58.798C69.9972 58.7016 70.4999 58.7511 70.9567 58.9403C71.4135 59.1295 71.804 59.45 72.0787 59.8611C72.3534 60.2722 72.5 60.7555 72.5 61.25C72.5 61.913 72.2366 62.5489 71.7678 63.0178C71.2989 63.4866 70.663 63.75 70 63.75Z" fill="#3C3C3B"/>
<path d="M20 64.875C19.2583 64.875 18.5333 65.0949 17.9166 65.507C17.2999 65.919 16.8193 66.5047 16.5355 67.1899C16.2516 67.8752 16.1774 68.6292 16.3221 69.3566C16.4668 70.084 16.8239 70.7522 17.3484 71.2766C17.8728 71.8011 18.541 72.1583 19.2684 72.3029C19.9958 72.4476 20.7498 72.3734 21.4351 72.0895C22.1203 71.8057 22.706 71.3251 23.118 70.7084C23.5301 70.0917 23.75 69.3667 23.75 68.625C23.75 67.6304 23.3549 66.6766 22.6517 65.9733C21.9484 65.2701 20.9946 64.875 20 64.875ZM20 69.875C19.7528 69.875 19.5111 69.8017 19.3055 69.6643C19.1 69.527 18.9398 69.3318 18.8452 69.1034C18.7505 68.8749 18.7258 68.6236 18.774 68.3811C18.8223 68.1387 18.9413 67.9159 19.1161 67.7411C19.2909 67.5663 19.5137 67.4472 19.7561 67.399C19.9986 67.3508 20.2499 67.3755 20.4784 67.4701C20.7068 67.5648 20.902 67.725 21.0393 67.9305C21.1767 68.1361 21.25 68.3778 21.25 68.625C21.25 68.9565 21.1183 69.2745 20.8839 69.5089C20.6495 69.7433 20.3315 69.875 20 69.875Z" fill="#3C3C3B"/>
<path d="M40 65C39.2583 65 38.5333 65.2199 37.9166 65.632C37.2999 66.044 36.8193 66.6297 36.5355 67.3149C36.2516 68.0002 36.1774 68.7542 36.3221 69.4816C36.4668 70.209 36.8239 70.8772 37.3484 71.4016C37.8728 71.9261 38.541 72.2833 39.2684 72.4279C39.9958 72.5726 40.7498 72.4984 41.4351 72.2145C42.1203 71.9307 42.706 71.4501 43.118 70.8334C43.5301 70.2167 43.75 69.4917 43.75 68.75C43.75 67.7554 43.3549 66.8016 42.6517 66.0984C41.9484 65.3951 40.9946 65 40 65ZM40 70C39.7528 70 39.5111 69.9267 39.3055 69.7893C39.1 69.652 38.9398 69.4568 38.8452 69.2284C38.7505 68.9999 38.7258 68.7486 38.774 68.5061C38.8223 68.2637 38.9413 68.0409 39.1161 67.8661C39.2909 67.6913 39.5137 67.5722 39.7561 67.524C39.9986 67.4758 40.2499 67.5005 40.4784 67.5952C40.7068 67.6898 40.902 67.85 41.0393 68.0555C41.1767 68.2611 41.25 68.5028 41.25 68.75C41.25 69.0815 41.1183 69.3995 40.8839 69.6339C40.6495 69.8683 40.3315 70 40 70Z" fill="#3C3C3B"/>
<path d="M60 65C59.2583 65 58.5333 65.2199 57.9166 65.632C57.2999 66.044 56.8193 66.6297 56.5355 67.3149C56.2516 68.0002 56.1774 68.7542 56.3221 69.4816C56.4668 70.209 56.8239 70.8772 57.3484 71.4016C57.8728 71.9261 58.541 72.2833 59.2684 72.4279C59.9958 72.5726 60.7498 72.4984 61.4351 72.2145C62.1203 71.9307 62.706 71.4501 63.118 70.8334C63.5301 70.2167 63.75 69.4917 63.75 68.75C63.75 67.7554 63.3549 66.8016 62.6516 66.0984C61.9484 65.3951 60.9946 65 60 65ZM60 70C59.7528 70 59.5111 69.9267 59.3055 69.7893C59.1 69.652 58.9398 69.4568 58.8452 69.2284C58.7505 68.9999 58.7258 68.7486 58.774 68.5061C58.8223 68.2637 58.9413 68.0409 59.1161 67.8661C59.2909 67.6913 59.5137 67.5722 59.7561 67.524C59.9986 67.4758 60.2499 67.5005 60.4784 67.5952C60.7068 67.6898 60.902 67.85 61.0393 68.0555C61.1767 68.2611 61.25 68.5028 61.25 68.75C61.25 69.0815 61.1183 69.3995 60.8839 69.6339C60.6495 69.8683 60.3315 70 60 70Z" fill="#3C3C3B"/>
<path d="M30 78.75C31.3807 78.75 32.5 77.6307 32.5 76.25C32.5 74.8693 31.3807 73.75 30 73.75C28.6193 73.75 27.5 74.8693 27.5 76.25C27.5 77.6307 28.6193 78.75 30 78.75Z" fill="#3C3C3B"/>
<path d="M50 78.75C51.3807 78.75 52.5 77.6307 52.5 76.25C52.5 74.8693 51.3807 73.75 50 73.75C48.6193 73.75 47.5 74.8693 47.5 76.25C47.5 77.6307 48.6193 78.75 50 78.75Z" fill="#3C3C3B"/>
<path d="M70 78.75C71.3807 78.75 72.5 77.6307 72.5 76.25C72.5 74.8693 71.3807 73.75 70 73.75C68.6193 73.75 67.5 74.8693 67.5 76.25C67.5 77.6307 68.6193 78.75 70 78.75Z" fill="#3C3C3B"/>
<path d="M10 78.75C11.3807 78.75 12.5 77.6307 12.5 76.25C12.5 74.8693 11.3807 73.75 10 73.75C8.61929 73.75 7.5 74.8693 7.5 76.25C7.5 77.6307 8.61929 78.75 10 78.75Z" fill="#3C3C3B"/>
</g>
<defs>
<clipPath id="clip0_1779_49884">
<rect width="80" height="80" fill="white"/>
</clipPath>
</defs>
</svg>
