<svg width="80" height="80" viewBox="0 0 80 80" fill="none" xmlns="http://www.w3.org/2000/svg">
<g clip-path="url(#clip0_1779_49949)">
<g clip-path="url(#clip1_1779_49949)">
<path d="M41.3333 10.6667C42.0697 10.6667 42.6667 10.0697 42.6667 9.33333C42.6667 8.59695 42.0697 8 41.3333 8C40.597 8 40 8.59695 40 9.33333C40 10.0697 40.597 10.6667 41.3333 10.6667Z" fill="#3C3C3B"/>
<path d="M49.3333 14.6667C50.0697 14.6667 50.6667 14.0697 50.6667 13.3333C50.6667 12.597 50.0697 12 49.3333 12C48.597 12 48 12.597 48 13.3333C48 14.0697 48.597 14.6667 49.3333 14.6667Z" fill="#3C3C3B"/>
<path d="M32.0003 25.3332C32.7367 25.3332 33.3337 24.7362 33.3337 23.9998C33.3337 23.2635 32.7367 22.6665 32.0003 22.6665C31.2639 22.6665 30.667 23.2635 30.667 23.9998C30.667 24.7362 31.2639 25.3332 32.0003 25.3332Z" fill="#3C3C3B"/>
<path d="M44.0003 22.6667C44.7367 22.6667 45.3337 22.0697 45.3337 21.3333C45.3337 20.597 44.7367 20 44.0003 20C43.2639 20 42.667 20.597 42.667 21.3333C42.667 22.0697 43.2639 22.6667 44.0003 22.6667Z" fill="#3C3C3B"/>
<path d="M67.8667 28H67.2974C67.1197 26.3699 66.4965 24.8204 65.4961 23.5213C63.7672 21.3646 61.4409 19.7655 58.8081 18.924C59.1605 17.9745 59.3411 16.97 59.3414 15.9573C59.3441 4.33595 35.1374 0.189283 34.1067 0.0186163C33.863 -0.0221691 33.6128 0.00618466 33.3844 0.100458C33.156 0.194732 32.9587 0.351149 32.8147 0.55195C32.6687 0.75095 32.5808 0.986571 32.5608 1.23257C32.5408 1.47857 32.5895 1.7253 32.7014 1.94528C33.1201 2.76928 34.0081 5.27862 33.1107 6.93728C32.4974 8.07195 31.0867 8.76928 28.9174 9.01195C24.7694 9.47595 23.3174 11.5933 22.8361 13.2879C22.3851 15.4224 22.689 17.6473 23.6961 19.5826C22.7507 19.836 21.7774 20.0759 20.7627 20.2853C18.7241 20.6853 15.0627 21.7519 13.4601 24.32C12.7794 25.4177 12.5349 26.7307 12.7747 28H12.1334C11.5731 28.0005 11.019 28.1176 10.5064 28.344C9.99379 28.5703 9.53393 28.9009 9.15605 29.3146C8.78575 29.7181 8.50356 30.1943 8.32749 30.7129C8.15141 31.2315 8.08531 31.7811 8.13339 32.3266C8.78099 39.5853 11.9026 46.4012 16.9755 51.6331C22.0485 56.865 28.7648 60.1954 36.0001 61.0666V70.6666H33.3334C31.9189 70.6666 30.5623 71.2285 29.5622 72.2287C28.562 73.2289 28.0001 74.5855 28.0001 76V77.3333C28.0001 78.0405 28.281 78.7188 28.7811 79.2189C29.2812 79.719 29.9595 80 30.6667 80H49.3334C50.0406 80 50.7189 79.719 51.219 79.2189C51.7191 78.7188 52.0001 78.0405 52.0001 77.3333V76C52.0001 74.5855 51.4382 73.2289 50.438 72.2287C49.4378 71.2285 48.0812 70.6666 46.6667 70.6666H44.0001V61.0666C51.2343 60.1957 57.9498 56.8663 63.0226 51.6357C68.0954 46.4051 71.2177 39.5908 71.8667 32.3333C71.9159 31.7883 71.851 31.2391 71.6763 30.7205C71.5017 30.202 71.2209 29.7254 70.8521 29.3213C70.4739 28.9053 70.013 28.5729 69.4989 28.3454C68.9848 28.1179 68.4289 28.0002 67.8667 28ZM15.4521 27.9279C15.3362 27.5636 15.3 27.1785 15.346 26.7989C15.392 26.4194 15.5191 26.0541 15.7187 25.7279C16.5014 24.4746 18.5294 23.4426 21.2881 22.8933C22.9174 22.5599 24.4627 22.1666 25.8987 21.7293C26.1064 21.7158 26.3079 21.6532 26.4867 21.5466C34.0227 19.1013 36.4867 15.7426 36.5881 15.5986C36.7928 15.3102 36.8746 14.9523 36.8155 14.6036C36.7563 14.2549 36.5611 13.944 36.2727 13.7393C35.9843 13.5345 35.6264 13.4527 35.2777 13.5119C34.9291 13.571 34.6181 13.7662 34.4134 14.0546C34.3947 14.0826 32.3934 16.6946 26.2881 18.8013C25.6921 17.6693 24.8601 15.3773 25.4881 13.7573C25.9441 12.5893 27.1961 11.8826 29.2134 11.6573C32.3121 11.3106 34.4134 10.1426 35.4654 8.19062C36.2236 6.59686 36.3803 4.7828 35.9067 3.08262C43.2694 4.65728 56.6787 8.97195 56.6787 15.9626C56.6982 17.0514 56.3998 18.1222 55.8201 19.0439C54.6338 20.6979 52.9429 21.9223 51.0014 22.5333C50.7095 22.644 50.4657 22.8536 50.3125 23.1257C50.1593 23.3977 50.1064 23.7148 50.163 24.0219C50.2197 24.3289 50.3823 24.6063 50.6225 24.8057C50.8626 25.0052 51.1652 25.114 51.4774 25.1133C51.6397 25.1134 51.8006 25.0836 51.9521 25.0253C54.0928 24.2939 56 23.0052 57.4774 21.292C59.7877 21.932 61.8441 23.2698 63.3654 25.1226C64.0104 25.9646 64.4373 26.9531 64.6081 28H15.4854C15.4774 27.9746 15.4667 27.9533 15.4547 27.9279H15.4521ZM11.1241 31.1119C11.2522 30.9717 11.4081 30.8597 11.5818 30.783C11.7556 30.7064 11.9435 30.6667 12.1334 30.6666H67.8667C68.0562 30.6671 68.2435 30.7069 68.4168 30.7836C68.5901 30.8602 68.7456 30.972 68.8734 31.1119C68.9933 31.2411 69.0847 31.394 69.1416 31.5608C69.1986 31.7276 69.2199 31.9044 69.2041 32.0799C68.9889 34.3215 68.5192 36.5313 67.8041 38.6666C64.6494 35.888 61.8894 35.7173 60.0334 36.1453C57.9924 36.6276 56.1309 37.6812 54.6667 39.1826C53.8342 40.0818 53.1052 41.0716 52.4934 42.1333C52.2347 42.5453 51.9761 42.9573 51.7001 43.3586C49.0614 47.204 47.1121 46.852 45.8827 46.2493C44.4654 45.3979 43.256 44.2409 42.3427 42.8626C40.4761 40.492 38.2094 37.8986 34.7534 37.0919C33.2036 36.7707 31.5949 36.8875 30.1077 37.4291C28.6205 37.9708 27.3136 38.9159 26.3334 40.1586L26.0667 40.4573C25.4146 41.3048 24.6261 42.0379 23.7334 42.6266C21.6947 43.7813 19.9254 41.608 19.5894 41.16C19.4934 41.0266 19.3974 40.8933 19.2801 40.7053C19.1627 40.5173 19.0134 40.3053 18.8801 40.084C17.9641 38.6399 16.7107 36.6679 14.3467 36.6679H14.3067C13.4148 36.691 12.5464 36.9585 11.7961 37.4413C11.3008 35.6884 10.9674 33.8938 10.8001 32.0799C10.7834 31.9049 10.8036 31.7283 10.8594 31.5616C10.9152 31.3949 11.0054 31.2417 11.1241 31.1119ZM44.0001 73.3333H46.6667C47.374 73.3333 48.0522 73.6142 48.5523 74.1143C49.0524 74.6144 49.3334 75.2927 49.3334 76V77.3333H30.6667V76C30.6667 75.2927 30.9477 74.6144 31.4478 74.1143C31.9479 73.6142 32.6261 73.3333 33.3334 73.3333H36.0001C36.7073 73.3333 37.3856 73.0523 37.8857 72.5522C38.3858 72.0521 38.6667 71.3739 38.6667 70.6666V61.2706C39.1121 61.2893 39.5507 61.3333 40.0001 61.3333C40.4494 61.3333 40.8881 61.2893 41.3334 61.2706V70.6666C41.3334 71.3739 41.6143 72.0521 42.1144 72.5522C42.6145 73.0523 43.2928 73.3333 44.0001 73.3333ZM40.0001 58.6666C34.105 58.6936 28.3399 56.9346 23.4642 53.6211C18.5884 50.3075 14.8305 45.595 12.6854 40.104C13.1187 39.6519 13.7047 39.3772 14.3294 39.3333H14.3374C15.1734 39.3333 15.8121 40.2373 16.6214 41.512C16.7747 41.752 16.9227 41.9853 17.0387 42.152C17.1721 42.3613 17.3054 42.5693 17.4521 42.7573C19.5241 45.528 22.5041 46.388 25.0361 44.952C26.2006 44.2213 27.23 43.2948 28.0787 42.2133L28.3267 41.9306C28.9981 41.0581 29.8965 40.387 30.9238 39.991C31.951 39.595 33.0674 39.4892 34.1507 39.6853C36.7614 40.2933 38.6654 42.4853 40.2387 44.4946C41.3913 46.2006 42.921 47.6185 44.7094 48.6386C45.5334 49.0539 46.4414 49.2751 47.3641 49.2853C49.2974 49.2853 51.5801 48.2439 53.8974 44.8639C54.1947 44.4346 54.4734 43.9893 54.7534 43.5426C55.2667 42.6475 55.8761 41.811 56.5707 41.048C57.6772 39.9077 59.0862 39.1071 60.6321 38.74C62.5681 38.2933 64.6321 39.1839 66.7654 41.3533C64.4654 46.5252 60.7101 50.9161 55.9575 53.9903C51.2048 57.0646 45.6603 58.6894 40.0001 58.6666Z" fill="#3C3C3B"/>
</g>
</g>
<defs>
<clipPath id="clip0_1779_49949">
<rect width="80" height="80" fill="white"/>
</clipPath>
<clipPath id="clip1_1779_49949">
<rect width="80" height="80" fill="white"/>
</clipPath>
</defs>
</svg>
