<svg width="80" height="80" viewBox="0 0 80 80" fill="none" xmlns="http://www.w3.org/2000/svg">
<g clip-path="url(#clip0_1779_50248)">
<g clip-path="url(#clip1_1779_50248)">
<path d="M24.6582 21.2875H27.0035V23.6328H24.6582V21.2875Z" fill="#3C3C3B"/>
<path d="M29.3496 21.2875H31.6949V23.6328H29.3496V21.2875Z" fill="#3C3C3B"/>
<path d="M66.121 19.1737L68.3827 18.5532C68.1659 17.7625 67.907 16.9737 67.6132 16.2089L65.4238 17.05C65.6899 17.7428 65.9245 18.4571 66.121 19.1737Z" fill="#3C3C3B"/>
<path d="M38.5742 4.88489H40.9195V7.2302H38.5742V4.88489Z" fill="#3C3C3B"/>
<path d="M35.9386 42.5767L33.756 41.7184C32.2788 45.5953 26.6804 45.6704 25.0774 41.8546L22.9229 42.7817C25.3286 48.5065 33.7247 48.3889 35.9386 42.5767Z" fill="#3C3C3B"/>
<path d="M50.3681 44.6935C48.4911 44.6935 46.7988 43.5793 46.0569 41.8547L43.9023 42.7818C46.2658 48.4146 54.4713 48.4129 56.8336 42.7822L54.6794 41.8551C53.9373 43.5793 52.245 44.6935 50.3681 44.6935Z" fill="#3C3C3B"/>
<path d="M57.8986 37.5178L59.5057 35.8098C57.5765 33.9944 55.055 32.9945 52.4059 32.9945H43.5459V35.3398H52.4059C54.4553 35.3398 56.4061 36.1133 57.8986 37.5178Z" fill="#3C3C3B"/>
<path d="M36.4396 35.3398V32.9945H27.4758C24.8268 32.9945 22.3054 33.9944 20.376 35.8098L21.9832 37.5178C23.4758 36.1133 25.4264 35.3398 27.4757 35.3398H36.4396Z" fill="#3C3C3B"/>
<path d="M33.5801 57.7751L32.2334 59.6953C36.4226 63.1048 43.4632 63.1048 47.6525 59.6953L46.3057 57.7751C42.9868 60.3587 36.65 60.3678 33.5801 57.7751Z" fill="#3C3C3B"/>
<path d="M61.7668 58.6083C62.9223 55.8319 63.7057 52.8547 64.14 49.5188C67.3109 47.5492 69.2632 44.0358 69.2632 40.2945V25.3084C69.2204 23.53 69.124 21.9645 68.9251 21.0145L66.6121 21.4031C67.1248 23.6091 66.8551 32.7873 66.9182 35.3595H64.4739C64.4392 19.4591 53.96 8.23172 37.439 9.65938C34.6268 8.07875 34.5973 4.07266 37.3957 2.47203H44.2031C52.8426 2.47203 60.625 7.26937 64.5131 14.992L66.6081 13.9373C62.4897 5.59219 53.5306 0.0407813 44.2029 0.127031C35.0998 -0.00624999 27.1248 -0.430156 19.7057 5.8775L16.4912 0L12.8631 6.63375L6.22949 10.2619L13.0937 14.1553C11.5212 16.7822 10.8387 20.7216 10.612 24.9097V40.2948C10.6121 44.0361 12.5737 47.5495 15.7448 49.5191C16.5639 57.9111 21.3284 66.6237 28.1939 71.8264V80H30.5392V73.4908C33.4443 75.3661 36.5931 76.715 39.9292 77.5191C43.2489 76.7198 46.4342 75.3403 49.3518 73.4586V80H51.6972V71.7925C53.1307 70.6753 54.4784 69.4313 55.7189 68.0741L58.7037 73.5314L62.3318 66.8977L68.9654 63.2695L62.3318 59.6414L61.7668 58.6083ZM66.927 37.705C67.0226 41.0698 67.0454 43.7628 64.5401 46.2981V37.705H66.927ZM11.1171 10.2617L14.5912 8.36172L16.4912 4.88766L18.3912 8.36172L21.8653 10.2617L18.3912 12.1617L16.4912 15.6358L14.5912 12.1617L11.1171 10.2617ZM12.9575 25.1964C12.9575 22.3156 13.4821 19.5384 14.5154 16.9109L16.4914 20.5238L20.1195 13.89L26.7531 10.2619L21.5392 7.41031C25.1131 4.56547 29.4496 2.87047 34.0034 2.535C32.452 4.74797 32.6245 8.02625 34.4073 10.0578C21.9048 12.1208 15.3642 23.223 15.2892 35.3597H12.9575V25.1964ZM12.9575 40.2945V37.705H15.2804V46.3066C13.7112 44.7284 12.9575 42.565 12.9575 40.2945ZM39.9292 75.0998C20.795 69.9188 16.5364 53.0583 17.6289 35.7866L20.9503 32.4652C26.2845 27.2119 30.7045 31.5706 36.7309 26.2537L35.1859 24.4891C28.925 29.7022 25.4239 23.9066 17.8265 32.2719C18.3828 27.3355 20.0317 22.9092 22.5554 19.5763C30.0876 8.83062 51.9881 9.48313 58.3756 21.1439C59.8003 23.4466 60.6962 25.8333 61.2603 28.2928C56.5562 21.7445 49.2581 17.3994 41.1018 16.4816V14.1731H38.7565C38.8568 17.4139 38.7232 20.248 36.6487 22.9173L38.5198 24.3316C39.7612 22.6891 40.5706 20.8136 40.9136 18.8202C50.2106 19.8889 58.292 25.8259 62.0815 34.4308C62.0179 40.9761 62.6587 49.7808 60.2857 55.9003L58.7037 53.0077L55.0756 59.6414L48.442 63.2695L54.1026 66.3655C50.2532 70.6261 45.2771 73.7002 39.9292 75.0998ZM60.6037 65.1697L58.7037 68.6438L56.8037 65.1697L53.3297 63.2697L56.8037 61.3697L58.7037 57.8956L60.6037 61.3697L64.0778 63.2697L60.6037 65.1697Z" fill="#3C3C3B"/>
<path d="M72.7777 51.6991H70.4324V54.0446H68.0869V56.3899H70.4324V58.7353H72.7777V56.3899H75.1232V54.0446H72.7777V51.6991Z" fill="#3C3C3B"/>
<path d="M4.76191 16.6295H2.4166V18.9748H0.0712891V21.3203H2.4166V23.6656H4.76191V21.3203H7.10738V18.9748H4.76191V16.6295Z" fill="#3C3C3B"/>
<path d="M77.583 47.0084H79.9283V49.3537H77.583V47.0084Z" fill="#3C3C3B"/>
<path d="M77.583 61.0757H79.9283V63.421H77.583V61.0757Z" fill="#3C3C3B"/>
</g>
</g>
<defs>
<clipPath id="clip0_1779_50248">
<rect width="80" height="80" fill="white"/>
</clipPath>
<clipPath id="clip1_1779_50248">
<rect width="80" height="80" fill="white"/>
</clipPath>
</defs>
</svg>
