<svg width="80" height="80" viewBox="0 0 80 80" fill="none" xmlns="http://www.w3.org/2000/svg">
<g clip-path="url(#clip0_1769_87149)">
<path d="M72.9082 42.3675H62.3352C61.7704 42.3656 61.2117 42.2508 60.6918 42.0299C60.172 41.809 59.7016 41.4864 59.3082 41.081L52.8217 34.5945C52.7204 34.494 52.64 34.3745 52.5851 34.2427C52.5302 34.111 52.502 33.9697 52.502 33.827C52.502 33.6843 52.5302 33.543 52.5851 33.4112C52.64 33.2795 52.7204 33.1599 52.8217 33.0594C53.0243 32.8581 53.2983 32.745 53.5839 32.745C53.8695 32.745 54.1435 32.8581 54.3461 33.0594L60.8866 39.5999C61.0806 39.799 61.3126 39.9571 61.5689 40.0648C61.8252 40.1726 62.1005 40.2277 62.3785 40.227H72.9515C73.2583 40.2247 73.5616 40.1613 73.8437 40.0407C74.1258 39.9201 74.3811 39.7445 74.5947 39.5243C74.9293 39.1995 75.159 38.7821 75.2543 38.3256C75.3496 37.8692 75.306 37.3947 75.1293 36.9632C74.9525 36.5318 74.6506 36.1631 74.2625 35.9047C73.8743 35.6463 73.4177 35.5101 72.9515 35.5135H64.8434C64.5547 35.5123 64.2692 35.4534 64.0037 35.3401C63.7382 35.2268 63.498 35.0616 63.2974 34.854L56.865 28.5297C56.7169 28.3209 56.6478 28.0664 56.6698 27.8114C56.6918 27.5564 56.8035 27.3175 56.9851 27.1372C57.1668 26.9568 57.4065 26.8468 57.6616 26.8266C57.9168 26.8064 58.1708 26.8774 58.3785 27.027L64.7785 33.3621H72.9082C74.1039 33.3621 75.2505 33.8371 76.0959 34.6825C76.9414 35.5279 77.4163 36.6746 77.4163 37.8702C77.4163 39.0658 76.9414 40.2125 76.0959 41.0579C75.2505 41.9034 74.1039 42.3783 72.9082 42.3783V42.3675Z" fill="#3C3C3B"/>
<path d="M52.3781 77.838C51.104 77.8323 49.8836 77.3236 48.9826 76.4226C48.0817 75.5216 47.573 74.3013 47.5673 73.0272V57.1677C47.5662 57.0002 47.53 56.8348 47.4611 56.6821C47.3922 56.5294 47.2922 56.3929 47.1673 56.2812L36.9727 47.2217C35.3742 45.7937 34.3582 43.8266 34.1188 41.6965C33.8795 39.5665 34.4337 37.4229 35.6754 35.6758L42.1619 26.4109L34.0322 25.7082C33.9494 25.7021 33.8662 25.7133 33.788 25.7412C33.7098 25.7692 33.6383 25.8132 33.5781 25.8704L26.3889 33.1244C26.0123 33.5108 25.5615 33.8171 25.0637 34.0252C24.5659 34.2332 24.0312 34.3387 23.4916 34.3353C22.6807 34.3362 21.8879 34.0959 21.214 33.6449C20.5402 33.1939 20.0157 32.5526 19.7073 31.8026C19.399 31.0527 19.3208 30.2279 19.4826 29.4334C19.6444 28.6388 20.0389 27.9103 20.6159 27.3407L30.27 17.8704C30.6041 17.5293 31.0026 17.2581 31.4425 17.0725C31.8823 16.8869 32.3547 16.7906 32.8322 16.7893H48.4214C49.4885 16.7884 50.5354 17.0801 51.4484 17.6326L56.6159 20.7353C57.2647 21.1201 57.8279 21.6335 58.271 22.2439C58.7141 22.8542 59.0279 23.5488 59.1929 24.2848C59.3579 25.0208 59.3707 25.7827 59.2306 26.5239C59.0905 27.265 58.8004 27.9697 58.3781 28.5947L48.6484 43.0704L56.0754 50.065C56.408 50.3623 56.6757 50.7251 56.8617 51.1306C57.0477 51.5361 57.1481 51.9757 57.1565 52.4217L57.2754 72.9623C57.2928 74.2345 56.8054 75.4619 55.92 76.3756C55.0346 77.2894 53.8232 77.8152 52.5511 77.838H52.3781ZM33.9997 23.5461H34.2376L44.2592 24.4001C44.4499 24.4158 44.633 24.4819 44.7898 24.5915C44.9466 24.7011 45.0715 24.8504 45.1517 25.0241C45.232 25.1978 45.2647 25.3897 45.2465 25.5801C45.2284 25.7706 45.16 25.9528 45.0484 26.1082L37.3943 36.919C36.4494 38.2371 36.0269 39.8588 36.2086 41.4704C36.3903 43.082 37.1634 44.5688 38.3781 45.6434L48.5727 54.7028C48.9175 55.0203 49.1919 55.4066 49.3781 55.8368C49.5643 56.267 49.6582 56.7314 49.6538 57.2001V73.0596C49.662 73.4183 49.7421 73.7718 49.8894 74.099C50.0367 74.4262 50.2481 74.7205 50.5113 74.9645C50.7744 75.2084 51.0838 75.3971 51.4212 75.5193C51.7586 75.6415 52.1171 75.6947 52.4754 75.6758C53.1703 75.656 53.8296 75.3638 54.311 74.8622C54.7923 74.3606 55.0572 73.6899 55.0484 72.9947L54.9295 52.4542C54.9288 52.3028 54.8978 52.1531 54.8384 52.0138C54.779 51.8746 54.6923 51.7486 54.5835 51.6434L46.4862 44.0758C46.3004 43.9013 46.1822 43.6667 46.1525 43.4135C46.1228 43.1603 46.1836 42.9048 46.3241 42.692L56.5727 27.4596C56.8264 27.0782 57 26.6492 57.083 26.1987C57.166 25.7483 57.1567 25.2856 57.0556 24.8388C56.9546 24.3921 56.7638 23.9704 56.495 23.5996C56.2261 23.2287 55.8848 22.9163 55.4916 22.6812L50.3241 19.5785C49.7489 19.2239 49.0862 19.0367 48.4105 19.038H32.8214C32.6211 19.032 32.4218 19.0673 32.2358 19.1417C32.0498 19.2161 31.8811 19.328 31.7403 19.4704L22.1186 28.9515C21.7595 29.3139 21.558 29.8034 21.558 30.3136C21.558 30.8238 21.7595 31.3134 22.1186 31.6758C22.2989 31.8557 22.5131 31.998 22.7488 32.0945C22.9845 32.191 23.237 32.2398 23.4916 32.238C23.751 32.232 24.0065 32.1733 24.2425 32.0655C24.4786 31.9577 24.6902 31.8031 24.8646 31.6109L32.0538 24.3569C32.3049 24.0981 32.6058 23.8928 32.9384 23.7534C33.271 23.6141 33.6283 23.5436 33.9889 23.5461H33.9997Z" fill="#3C3C3B"/>
<path d="M32.8969 60.8217H15.8698C15.2412 60.8521 14.613 60.7545 14.0232 60.5348C13.4335 60.3152 12.8945 59.978 12.4388 59.5439C11.9832 59.1097 11.6205 58.5876 11.3727 58.0091C11.1249 57.4306 10.9971 56.8078 10.9971 56.1785C10.9971 55.5492 11.1249 54.9264 11.3727 54.3479C11.6205 53.7694 11.9832 53.2472 12.4388 52.8131C12.8945 52.3789 13.4335 52.0418 14.0232 51.8222C14.613 51.6025 15.2412 51.5049 15.8698 51.5352H28.1077L34.9401 43.1028C35.1207 42.8792 35.3828 42.7364 35.6687 42.706C35.9545 42.6756 36.2408 42.76 36.4644 42.9407C36.6881 43.1213 36.8308 43.3834 36.8612 43.6692C36.8916 43.9551 36.8072 44.2413 36.6266 44.465L29.405 53.2974C29.3032 53.4228 29.1747 53.5239 29.0287 53.5931C28.8828 53.6623 28.7232 53.698 28.5617 53.6974H15.8698C15.5302 53.675 15.1897 53.7225 14.8692 53.837C14.5487 53.9516 14.2551 54.1307 14.0067 54.3633C13.7582 54.5959 13.5602 54.877 13.4248 55.1892C13.2893 55.5014 13.2195 55.8382 13.2195 56.1785C13.2195 56.5188 13.2893 56.8555 13.4248 57.1678C13.5602 57.48 13.7582 57.7611 14.0067 57.9937C14.2551 58.2263 14.5487 58.4054 14.8692 58.5199C15.1897 58.6345 15.5302 58.682 15.8698 58.6596H32.432L40.3455 48.8325C40.5279 48.6189 40.7863 48.4847 41.0659 48.4583C41.3455 48.4318 41.6245 48.5153 41.8437 48.6909C42.0628 48.8665 42.2051 49.1206 42.2402 49.3993C42.2754 49.6779 42.2007 49.9593 42.032 50.1839L33.7942 60.4217C33.6868 60.5545 33.5495 60.66 33.3936 60.7295C33.2376 60.7991 33.0674 60.8307 32.8969 60.8217Z" fill="#3C3C3B"/>
<path d="M60.8647 18.2811C59.2687 18.2832 57.708 17.8118 56.3801 16.9264C55.0522 16.0411 54.0168 14.7816 53.405 13.3075C52.7933 11.8334 52.6327 10.2109 52.9435 8.64551C53.2543 7.08007 54.0227 5.64206 55.1512 4.51352C56.2798 3.38497 57.7178 2.61665 59.2832 2.30581C60.8486 1.99497 62.4711 2.15559 63.9452 2.76734C65.4193 3.37909 66.6788 4.41446 67.5641 5.74238C68.4495 7.07029 68.9209 8.63104 68.9188 10.227C68.9159 12.3622 68.0665 14.4091 66.5567 15.919C65.0468 17.4288 62.9999 18.2782 60.8647 18.2811ZM60.8647 4.32434C59.6968 4.3222 58.5545 4.66657 57.5824 5.31386C56.6103 5.96116 55.8521 6.88228 55.4036 7.96067C54.9552 9.03906 54.8368 10.2262 55.0633 11.372C55.2899 12.5177 55.8512 13.5705 56.6763 14.397C57.5013 15.2236 58.5531 15.7869 59.6984 16.0155C60.8437 16.2442 62.0311 16.1279 63.1103 15.6815C64.1895 15.235 65.112 14.4785 65.7611 13.5075C66.4102 12.5366 66.7566 11.3949 66.7566 10.227C66.7538 8.66429 66.1325 7.1662 65.0284 6.06016C63.9244 4.95412 62.4275 4.33005 60.8647 4.32434Z" fill="#3C3C3B"/>
<path d="M26.3024 13.5999H15.1348C14.8481 13.5999 14.5731 13.486 14.3704 13.2833C14.1676 13.0805 14.0537 12.8055 14.0537 12.5188C14.0537 12.2321 14.1676 11.9571 14.3704 11.7544C14.5731 11.5516 14.8481 11.4377 15.1348 11.4377H26.3024C26.5891 11.4377 26.8641 11.5516 27.0668 11.7544C27.2695 11.9571 27.3834 12.2321 27.3834 12.5188C27.3834 12.8055 27.2695 13.0805 27.0668 13.2833C26.8641 13.486 26.5891 13.5999 26.3024 13.5999Z" fill="#3C3C3B"/>
<path d="M11.4483 13.5999H10.3672C10.0805 13.5999 9.80552 13.486 9.60277 13.2833C9.40003 13.0805 9.28613 12.8055 9.28613 12.5188C9.28613 12.2321 9.40003 11.9571 9.60277 11.7544C9.80552 11.5516 10.0805 11.4377 10.3672 11.4377H11.4483C11.735 11.4377 12.01 11.5516 12.2127 11.7544C12.4155 11.9571 12.5294 12.2321 12.5294 12.5188C12.5294 12.8055 12.4155 13.0805 12.2127 13.2833C12.01 13.486 11.735 13.5999 11.4483 13.5999Z" fill="#3C3C3B"/>
<path d="M14.4108 20.3243H3.24319C2.95647 20.3243 2.68149 20.2104 2.47875 20.0076C2.27601 19.8049 2.16211 19.5299 2.16211 19.2432C2.16211 18.9565 2.27601 18.6815 2.47875 18.4788C2.68149 18.276 2.95647 18.1621 3.24319 18.1621H14.4108C14.6975 18.1621 14.9725 18.276 15.1752 18.4788C15.3779 18.6815 15.4918 18.9565 15.4918 19.2432C15.4918 19.5299 15.3779 19.8049 15.1752 20.0076C14.9725 20.2104 14.6975 20.3243 14.4108 20.3243Z" fill="#3C3C3B"/>
<path d="M19.1788 20.3243H18.0977C17.811 20.3243 17.536 20.2104 17.3332 20.0076C17.1305 19.8049 17.0166 19.5299 17.0166 19.2432C17.0166 18.9565 17.1305 18.6815 17.3332 18.4788C17.536 18.276 17.811 18.1621 18.0977 18.1621H19.1788C19.4655 18.1621 19.7405 18.276 19.9432 18.4788C20.1459 18.6815 20.2598 18.9565 20.2598 19.2432C20.2598 19.5299 20.1459 19.8049 19.9432 20.0076C19.7405 20.2104 19.4655 20.3243 19.1788 20.3243Z" fill="#3C3C3B"/>
<path d="M22.703 39.1568H11.4922C11.2055 39.1568 10.9305 39.0429 10.7278 38.8401C10.525 38.6374 10.4111 38.3624 10.4111 38.0757C10.4111 37.789 10.525 37.514 10.7278 37.3113C10.9305 37.1085 11.2055 36.9946 11.4922 36.9946H22.703C22.9897 36.9946 23.2647 37.1085 23.4675 37.3113C23.6702 37.514 23.7841 37.789 23.7841 38.0757C23.7841 38.3624 23.6702 38.6374 23.4675 38.8401C23.2647 39.0429 22.9897 39.1568 22.703 39.1568Z" fill="#3C3C3B"/>
<path d="M27.4268 39.1568H26.3457C26.059 39.1568 25.784 39.0429 25.5813 38.8401C25.3785 38.6374 25.2646 38.3624 25.2646 38.0757C25.2646 37.789 25.3785 37.514 25.5813 37.3113C25.784 37.1085 26.059 36.9946 26.3457 36.9946H27.4268C27.7135 36.9946 27.9885 37.1085 28.1912 37.3113C28.394 37.514 28.5079 37.789 28.5079 38.0757C28.5079 38.3624 28.394 38.6374 28.1912 38.8401C27.9885 39.0429 27.7135 39.1568 27.4268 39.1568Z" fill="#3C3C3B"/>
<path d="M19.4599 46.4864H8.24905C7.96233 46.4864 7.68735 46.3725 7.48461 46.1697C7.28187 45.967 7.16797 45.692 7.16797 45.4053C7.16797 45.1186 7.28187 44.8436 7.48461 44.6409C7.68735 44.4381 7.96233 44.3242 8.24905 44.3242H19.4599C19.7466 44.3242 20.0216 44.4381 20.2243 44.6409C20.427 44.8436 20.5409 45.1186 20.5409 45.4053C20.5409 45.692 20.427 45.967 20.2243 46.1697C20.0216 46.3725 19.7466 46.4864 19.4599 46.4864Z" fill="#3C3C3B"/>
<path d="M4.56255 46.4864H3.48147C3.19475 46.4864 2.91977 46.3725 2.71703 46.1697C2.51429 45.967 2.40039 45.692 2.40039 45.4053C2.40039 45.1186 2.51429 44.8436 2.71703 44.6409C2.91977 44.4381 3.19475 44.3242 3.48147 44.3242H4.56255C4.84927 44.3242 5.12425 44.4381 5.32699 44.6409C5.52973 44.8436 5.64363 45.1186 5.64363 45.4053C5.64363 45.692 5.52973 45.967 5.32699 46.1697C5.12425 46.3725 4.84927 46.4864 4.56255 46.4864Z" fill="#3C3C3B"/>
</g>
<defs>
<clipPath id="clip0_1769_87149">
<rect width="80" height="80" fill="white"/>
</clipPath>
</defs>
</svg>
