<svg width="80" height="80" viewBox="0 0 80 80" fill="none" xmlns="http://www.w3.org/2000/svg">
<g clip-path="url(#clip0_1961_102949)">
<g clip-path="url(#clip1_1961_102949)">
<path d="M72.6733 37.2987C71.3219 35.9473 69.822 34.7536 68.2152 33.7508C67.6661 33.4084 66.9433 33.5755 66.6006 34.1246C66.258 34.6736 66.4253 35.3965 66.9744 35.7391C68.4304 36.6478 69.7903 37.7301 71.0159 38.9558C79.7505 47.6902 79.8377 61.9847 71.2103 70.8204C62.7123 79.5236 48.1114 79.7806 39.3274 71.3812C34.901 67.1489 32.4117 61.4511 32.3181 55.337C32.2531 51.095 28.9223 47.7323 24.7351 47.6816C18.7846 47.6096 13.19 45.2522 8.98188 41.0438C3.92049 35.9829 1.53168 28.7291 2.59233 21.6405C2.68796 21.0003 2.2467 20.4037 1.60652 20.3081C0.966038 20.2129 0.369772 20.6536 0.274301 21.2937C-0.29259 25.0827 0.0228874 29.0097 1.18651 32.6501C2.38951 36.4134 4.51192 39.8892 7.32418 42.7014C11.9677 47.3451 18.1409 49.9461 24.7065 50.0255C27.615 50.0608 29.929 52.4097 29.9745 55.3734C30.0778 62.1195 32.8241 68.4063 37.7074 73.0756C42.3159 77.4821 48.4228 79.8931 54.9494 79.893C55.1061 79.893 55.2631 79.8916 55.4203 79.8889C62.1213 79.7702 68.3246 77.1312 72.8872 72.4581C77.5109 67.7228 80.0366 61.468 79.9996 54.8454C79.9624 48.2173 77.3605 41.9859 72.6733 37.2987Z" fill="#3C3C3B"/>
<path d="M2.4347 17.2441C3.03597 17.4843 3.7177 17.1918 3.95771 16.5905C5.06337 13.8226 6.68825 11.3293 8.78722 9.1795C17.2854 0.476142 31.8858 0.219416 40.6701 8.61871C45.0965 12.851 47.5858 18.549 47.6794 24.6627C47.7444 28.905 51.0752 32.2678 55.2624 32.3184C57.7995 32.2929 60.2442 32.9056 62.6518 33.5772C63.1403 33.5772 63.5962 33.2692 63.7617 32.7808C63.9693 32.1678 63.6407 31.5025 63.0276 31.295C60.535 30.4509 57.932 30.0066 55.2908 29.9748C52.3823 29.9396 50.0683 27.5906 50.0229 24.627C49.9196 17.8808 47.1733 11.5941 42.29 6.9246C37.5708 2.41229 31.2869 -0.0087145 24.5772 0.111445C17.8762 0.230198 11.6729 2.86902 7.1103 7.54212C4.79477 9.91359 3.00175 12.6654 1.78125 15.7211C1.54108 16.322 1.83359 17.0039 2.4347 17.2441Z" fill="#3C3C3B"/>
<path d="M37.3245 15.0453C34.3488 12.0697 30.3926 10.4309 26.1844 10.4309C21.9761 10.4309 18.0201 12.0697 15.0444 15.0453C8.90187 21.1879 8.90187 31.1826 15.0444 37.3251C18.0201 40.3008 21.9761 41.9394 26.1844 41.9394C30.3926 41.9394 34.3488 40.3008 37.3245 37.3251C43.4669 31.1826 43.4669 21.1878 37.3245 15.0453ZM26.1844 39.5956C22.6022 39.5956 19.2347 38.2006 16.7018 35.6677C11.473 30.439 11.473 21.9312 16.7018 16.7023C19.2347 14.1694 22.6022 12.7744 26.1844 12.7744C29.7665 12.7744 33.1343 14.1694 35.6671 16.7023C40.8959 21.9311 40.8959 30.439 35.6671 35.6677C33.1341 38.2007 29.7665 39.5956 26.1844 39.5956Z" fill="#3C3C3B"/>
<path d="M24.4956 24.4974C24.3459 24.6471 24.2023 24.8055 24.0687 24.9679C23.6574 25.4676 23.7291 26.2062 24.2288 26.6175C24.7284 27.0287 25.4671 26.9573 25.8784 26.4573C25.9643 26.3529 26.0569 26.251 26.1531 26.1546C27.7692 24.5385 30.3987 24.5388 32.0145 26.1546C33.6305 27.7706 33.6305 30.4001 32.0145 32.0161C30.4717 33.6241 27.696 33.6238 26.1531 32.0161C25.7972 31.6601 25.5125 31.2496 25.3073 30.7962C25.0404 30.2066 24.3466 29.9447 23.7563 30.2118C23.1668 30.4787 22.905 31.1729 23.1719 31.7626C23.4941 32.4743 23.9394 33.1172 24.496 33.6734C26.9111 36.1907 31.257 36.1905 33.6721 33.6734C36.2017 31.1437 36.2017 27.0273 33.6721 24.4974C31.1418 21.9675 27.0256 21.9675 24.4956 24.4974Z" fill="#3C3C3B"/>
<path d="M42.6733 42.6748C36.5308 48.8176 36.5308 58.8123 42.6733 64.9549C43.4288 65.7103 44.2602 66.3895 45.1445 66.9731C45.6846 67.3295 46.4115 67.1809 46.7681 66.6408C47.1247 66.1008 46.9759 65.3739 46.4357 65.0171C45.6831 64.5201 44.9746 63.9415 44.3307 63.2974C39.1019 58.0688 39.1019 49.5609 44.3307 44.3322C49.5594 39.1034 58.0675 39.1036 63.2959 44.332C68.5246 49.5609 68.5246 58.0688 63.2959 63.2974C60.0931 66.5005 55.5293 67.8649 51.0865 66.9467C50.4527 66.8161 49.8327 67.2234 49.7018 67.8572C49.5708 68.491 49.9785 69.111 50.6123 69.2419C51.6829 69.4632 52.7587 69.5713 53.8263 69.5713C57.9617 69.5713 61.9627 67.945 64.9533 64.9546C71.0958 58.812 71.0958 48.8173 64.9533 42.6745C58.8108 36.5324 48.8161 36.5324 42.6733 42.6748Z" fill="#3C3C3B"/>
<path d="M55.5022 55.503C58.032 52.9732 58.032 48.8567 55.5022 46.3268C52.9721 43.797 48.8559 43.7973 46.326 46.3268C43.7963 48.8565 43.7963 52.973 46.326 55.503C48.8561 58.0327 52.9721 58.0327 55.5022 55.503ZM47.9836 53.8456C46.3674 52.2296 46.3674 49.6003 47.9836 47.9843C49.5994 46.3683 52.2288 46.3682 53.8448 47.9843C55.461 49.6003 55.461 52.2296 53.8448 53.8456C52.2288 55.4619 49.5994 55.4615 47.9836 53.8456Z" fill="#3C3C3B"/>
<path d="M12.987 38.8926C12.4256 39.215 12.232 39.9312 12.5542 40.4923L13.362 41.8992C13.6861 42.4654 14.4106 42.6511 14.9617 42.3318C15.5231 42.0095 15.7167 41.2934 15.3945 40.7321L14.5867 39.3254C14.2645 38.7642 13.5481 38.5706 12.987 38.8926Z" fill="#3C3C3B"/>
<path d="M30.5446 44.3573C29.9834 44.6797 29.7896 45.3958 30.1118 45.957L30.9196 47.3639C31.2437 47.9303 31.9682 48.1159 32.5193 47.7967C33.0806 47.4744 33.2743 46.7583 32.9521 46.197L32.1443 44.7902C31.8221 44.2289 31.1059 44.0353 30.5446 44.3573Z" fill="#3C3C3B"/>
<path d="M38.2448 13.0642C38.5689 13.6307 39.2934 13.8162 39.8445 13.4968C40.4059 13.1745 40.5995 12.4584 40.2773 11.897L39.4695 10.4903C39.1472 9.92917 38.4311 9.73542 37.8698 10.0576C37.3084 10.38 37.1148 11.096 37.437 11.6575L38.2448 13.0642Z" fill="#3C3C3B"/>
<path d="M46.2376 36.2092C46.4356 36.2092 46.6362 36.1589 46.8201 36.0533C47.3815 35.7309 47.5751 35.0148 47.2529 34.4534L46.4451 33.0467C46.1229 32.4854 45.4067 32.2919 44.8454 32.614C44.284 32.9364 44.0904 33.6525 44.4126 34.2139L45.2204 35.6206C45.437 35.9979 45.8315 36.2092 46.2376 36.2092Z" fill="#3C3C3B"/>
<path d="M55.7283 72.255C55.115 72.0485 54.4501 72.3788 54.244 72.9922C54.0378 73.6058 54.3678 74.2703 54.9812 74.4764L56.4969 74.9861C57.0937 75.1921 57.7762 74.8682 57.9811 74.2489C58.1873 73.6353 57.8573 72.9708 57.2439 72.7647L55.7283 72.255Z" fill="#3C3C3B"/>
<path d="M28.8391 7.62164C29.4577 7.75133 30.0945 7.34304 30.2195 6.70445C30.3474 6.07008 29.9368 5.45195 29.3024 5.32414L27.7123 5.00351C27.078 4.87492 26.4598 5.28633 26.332 5.9207C26.204 6.55508 26.6146 7.1732 27.249 7.30101L28.8391 7.62164Z" fill="#3C3C3B"/>
<path d="M38.3289 67.2835C38.6894 67.8268 39.4215 67.9663 39.9534 67.6112C40.4925 67.253 40.6392 66.5257 40.2811 65.9866L39.3834 64.6355C39.0251 64.0965 38.2978 63.9499 37.7589 64.3079C37.2198 64.666 37.0731 65.3933 37.4312 65.9324L38.3289 67.2835Z" fill="#3C3C3B"/>
<path d="M5.97008 25.8157C5.33524 25.6869 4.71758 26.0985 4.58977 26.7329C4.4618 27.3674 4.87242 27.9854 5.5068 28.1132L7.09711 28.4338C7.7157 28.5635 8.35242 28.1552 8.47742 27.5166C8.60539 26.8821 8.19477 26.2641 7.56039 26.1363L5.97008 25.8157Z" fill="#3C3C3B"/>
<path d="M12.3298 14.6212C12.8762 14.6212 13.3651 14.2369 13.4773 13.6807C13.6052 13.0463 13.1946 12.4282 12.5602 12.3004L10.9701 11.9797C10.3352 11.8515 9.71758 12.2624 9.58977 12.8969C9.4618 13.5313 9.87242 14.1494 10.5068 14.2772L12.097 14.5979C12.1751 14.6137 12.253 14.6212 12.3298 14.6212Z" fill="#3C3C3B"/>
<path d="M72.8839 50.2658C73.093 50.2658 73.3045 50.21 73.4958 50.0927C74.0474 49.7541 74.2202 49.0325 73.8817 48.4809L73.0331 47.0983C72.6944 46.5466 71.9727 46.3737 71.4214 46.7123C70.8699 47.0509 70.697 47.7725 71.0355 48.3241L71.8841 49.7067C72.1053 50.067 72.4899 50.2658 72.8839 50.2658Z" fill="#3C3C3B"/>
<path d="M66.5808 67.2307C66.4083 67.8544 66.7739 68.5 67.3978 68.6727L68.9009 69.0886C69.5078 69.2616 70.1724 68.9008 70.343 68.2716C70.5155 67.6478 70.1499 67.0022 69.5259 66.8296L68.0228 66.4136C67.3992 66.2416 66.7536 66.6069 66.5808 67.2307Z" fill="#3C3C3B"/>
</g>
<g clip-path="url(#clip2_1961_102949)">
<path fill-rule="evenodd" clip-rule="evenodd" d="M67.9373 -81.0413C66.1467 -81.0413 64.3538 -81.7086 62.979 -83.0834L31.9796 -114.083L0.980347 -83.0834C-5.46968 -76.6334 -15.5693 -86.3681 -8.93622 -93L22.0631 -123.999L-8.93622 -155C-15.4713 -161.535 -5.55235 -171.45 0.980347 -164.918L31.9796 -133.917L62.9801 -164.918C69.4656 -171.453 79.4495 -161.553 72.8967 -155L41.8974 -124L72.8967 -93C77.3329 -88.5649 74.1463 -81.0413 67.9373 -81.0413ZM31.9796 288C-66.6451 288 -146.895 207.75 -146.895 109.125L-146.896 -33.5833C-146.896 -36.1664 -145.437 -38.5829 -143.146 -39.7912L-59.5478 -83.7507C-88.4329 -149.156 -40.4942 -224 31.9796 -224C104.487 -224 152.37 -149.124 123.524 -83.7602L207.147 -39.7498C209.437 -38.5415 210.897 -36.1664 210.897 -33.5419V109.166C210.856 207.75 130.604 288 31.9796 288ZM-53.008 -71.3763L-132.896 -29.3762V109.081C-132.896 199.999 -58.9372 273.958 31.9796 273.958C122.898 273.958 196.856 199.999 196.856 109.081L196.855 -29.3336L116.987 -71.381C111.241 -62.1306 104.028 -53.8829 95.6755 -46.9652C105.325 -42.0057 95.0944 -28.2163 87.5637 -35.7506C86.4688 -36.8455 85.8097 -38.2038 85.5865 -39.6164C71.9341 -30.9116 56.0388 -25.4289 38.9801 -24.2431V130.293C38.9789 139.511 24.9804 139.514 24.9804 130.292V-24.2478C-7.92874 -26.5368 -36.508 -44.8321 -53.008 -71.3763ZM-74.7711 164.959C-80.8608 164.959 -84.1042 157.666 -79.9372 153.167C-73.662 146.391 -63.4006 155.92 -69.6876 162.751C-71.0211 164.208 -72.8955 164.959 -74.7711 164.959ZM-105.271 47.541C-111.483 47.541 -114.663 40.0162 -110.229 35.5823C-103.57 28.9232 -93.7715 39.1989 -100.312 45.5414C-101.687 46.8335 -103.479 47.541 -105.271 47.541ZM-25.2284 -6.62453C-31.4363 -6.62453 -34.6205 -14.1482 -30.1867 -18.5832C-23.6126 -25.1596 -13.7256 -15.0671 -20.2701 -8.62532C-21.6461 -7.29184 -23.4367 -6.62453 -25.2284 -6.62453ZM-29.9375 107.584C-36.0332 107.584 -39.2682 100.288 -35.1036 95.7915C-28.8284 89.0167 -18.5658 98.5459 -24.854 105.375C-26.1875 106.832 -28.0619 107.584 -29.9375 107.584ZM137.23 131.125C131.024 131.125 127.836 123.603 132.272 119.167C138.847 112.592 148.732 122.681 142.189 129.125C140.814 130.458 139.021 131.125 137.23 131.125ZM101.938 47.541C95.7228 47.541 92.5491 40.0126 96.9795 35.5823C103.639 28.9232 113.438 39.2012 106.897 45.5414C105.521 46.8335 103.73 47.541 101.938 47.541ZM171.396 24.0004C165.004 24.0004 162.005 16.1342 166.604 11.8751C173.417 5.56566 182.93 15.937 176.188 22.1248C174.813 23.3744 173.104 24.0004 171.396 24.0004ZM39.5222 172.334C33.0238 172.334 30.0521 164.299 34.897 160.043C41.8372 153.944 51.1195 164.501 44.1474 170.584C42.8127 171.75 41.1462 172.334 39.5222 172.334ZM114.854 191.167C108.641 191.167 105.465 183.64 109.896 179.208C116.45 172.653 126.33 182.645 119.813 189.167C118.48 190.501 116.647 191.167 114.854 191.167ZM-19.3536 231.166C-25.7611 231.166 -28.7162 223.303 -24.1867 219.041C-17.4544 212.708 -7.85904 222.955 -14.6031 229.292C-15.9366 230.543 -17.6457 231.166 -19.3536 231.166ZM-82.9372 -18.4167C-89.027 -18.4167 -92.2703 -25.7112 -88.1034 -30.2088C-81.8388 -36.9707 -71.5726 -27.3966 -77.8526 -20.6254C-79.1872 -19.1667 -81.0616 -18.4167 -82.9372 -18.4167ZM31.9796 -210C-15.437 -210 -54.0202 -171.417 -54.0202 -124C-54.0202 -76.5826 -15.437 -37.9994 31.9796 -37.9994C79.3975 -37.9994 117.981 -76.5826 117.981 -124C117.981 -171.417 79.3963 -210 31.9796 -210Z" fill="black"/>
</g>
</g>
<defs>
<clipPath id="clip0_1961_102949">
<rect width="80" height="80" fill="white"/>
</clipPath>
<clipPath id="clip1_1961_102949">
<rect width="80" height="80" fill="white"/>
</clipPath>
<clipPath id="clip2_1961_102949">
<rect width="512" height="512" fill="white" transform="translate(-224 -224)"/>
</clipPath>
</defs>
</svg>
