<svg width="80" height="80" viewBox="0 0 80 80" fill="none" xmlns="http://www.w3.org/2000/svg">
<g clip-path="url(#clip0_1965_106648)">
<path d="M39.9729 44.4076C30.2226 44.0897 27.8842 35.7416 27.3837 33.0465C26.445 32.829 25.6087 32.2977 25.0129 31.5405C24.3327 30.6032 24.0171 29.4503 24.1253 28.2973C24.048 27.676 24.102 27.0455 24.2838 26.4464C24.4655 25.8473 24.771 25.293 25.1804 24.8194C25.4115 24.5825 25.6773 24.382 25.9685 24.2248C24.1563 21.2991 23.2638 17.8969 23.4064 14.4584C24.535 6.3935 31.0345 5.60863 33.0702 5.56323C34.007 4.47352 35.1782 3.60981 36.4961 3.03674C38.9647 2.04098 41.6932 1.88896 44.2572 2.60431C49.2972 3.91998 52.6583 6.44323 54.2529 10.1048C56.5231 15.3092 54.5318 21.2994 53.388 23.9892C53.8242 24.1309 54.2262 24.3617 54.5685 24.667C55.0343 25.1399 55.3853 25.7134 55.5945 26.3434C55.8037 26.9734 55.8654 27.6429 55.775 28.3005C55.8842 29.4535 55.569 30.6066 54.8885 31.5438C54.2921 32.3008 53.4555 32.832 52.5166 33.0497C52.0161 35.7416 49.6831 44.0897 39.9729 44.4076ZM27.775 25.9535C27.3916 25.9356 27.0165 26.0692 26.7307 26.3254C26.5328 26.6025 26.3919 26.9162 26.316 27.2481C26.2401 27.5801 26.2307 27.9238 26.2885 28.2594C26.2931 28.3316 26.2905 28.404 26.281 28.4757C26.2222 29.0962 26.3825 29.7177 26.7339 30.2324C26.9532 30.4773 27.2191 30.6759 27.5161 30.8166C27.8132 30.9574 28.1353 31.0373 28.4637 31.0519C28.7109 31.0811 28.9404 31.1947 29.1135 31.3735C29.2866 31.5524 29.3928 31.7855 29.4139 32.0335C29.4496 32.4357 30.4085 41.933 39.975 42.2465C49.4885 41.933 50.4518 32.4357 50.4875 32.0313C50.5091 31.7837 50.6154 31.5511 50.7885 31.3727C50.9616 31.1943 51.1909 31.081 51.4377 31.0519C51.7661 31.0375 52.0883 30.9575 52.3853 30.8168C52.6824 30.6761 52.9483 30.4774 53.1675 30.2324C53.5205 29.7151 53.6808 29.0904 53.6204 28.467C53.6114 28.3975 53.6089 28.3273 53.6129 28.2573C53.6713 27.9107 53.6582 27.5558 53.5743 27.2144C53.4905 26.8731 53.3377 26.5525 53.1253 26.2724C52.7876 26.0237 52.3674 25.9138 51.9512 25.9654C51.7512 26.0009 51.5452 25.9793 51.3568 25.903C51.1685 25.8268 51.0054 25.699 50.8863 25.5344C50.7673 25.3697 50.697 25.1749 50.6837 24.9721C50.6703 24.7694 50.7143 24.567 50.8107 24.3881C50.8507 24.3124 54.8107 16.7967 52.2658 10.9557C50.948 7.93728 48.0712 5.83025 43.7134 4.69296C41.6189 4.10022 39.3874 4.21421 37.3642 5.01728C36.2132 5.51319 35.2099 6.29823 34.4518 7.2962C34.3426 7.44466 34.197 7.56246 34.029 7.63821C33.8611 7.71396 33.6764 7.7451 33.4929 7.72863C33.2129 7.70593 26.5934 7.27782 25.5556 14.6778C25.5556 14.6778 25.2561 20.5643 28.6658 24.1319C28.8144 24.2872 28.9133 24.4833 28.9499 24.6951C28.9865 24.907 28.9591 25.1249 28.8712 25.3211C28.7903 25.5223 28.6475 25.6926 28.4635 25.8074C28.2795 25.9222 28.0638 25.9757 27.8475 25.96L27.775 25.9535Z" fill="#3C3C3B"/>
<path d="M51.7629 25.9795C51.4839 25.9797 51.2155 25.8721 51.0141 25.679C50.8126 25.486 50.6935 25.2226 50.6818 24.9438C50.6688 24.6638 50.3337 18.133 45.458 17.5049C43.2279 17.7881 40.9635 17.6115 38.8043 16.986C36.6451 16.3606 34.6368 15.2994 32.9034 13.8681C31.525 14.9049 28.3488 18.0562 28.9596 24.7773C28.9677 25.0524 28.8705 25.3202 28.688 25.5262C28.5054 25.7321 28.2511 25.8607 27.977 25.8856C27.703 25.9106 27.4297 25.83 27.2129 25.6605C26.9961 25.4909 26.8522 25.245 26.8104 24.973C25.9142 15.1124 32.2461 11.6897 32.5153 11.5492C32.7157 11.4446 32.9438 11.4055 33.1676 11.4373C33.3914 11.4691 33.5996 11.5702 33.7629 11.7265C35.3038 13.1221 37.1279 14.1686 39.1106 14.7942C41.0932 15.4198 43.1876 15.6099 45.2504 15.3513C45.3494 15.3353 45.45 15.3317 45.5499 15.3405C51.0461 15.9124 52.725 21.8173 52.844 24.854C52.8551 25.1401 52.7523 25.4189 52.5581 25.6293C52.364 25.8396 52.0943 25.9644 51.8083 25.9762L51.7629 25.9795Z" fill="#3C3C3B"/>
<path d="M70.3668 77.8379H9.63382C9.3471 77.8379 9.07212 77.724 8.86938 77.5212C8.66663 77.3185 8.55273 77.0435 8.55273 76.7568V64.7049C8.56046 60.8958 10.0785 57.2452 12.7738 54.5536C15.4692 51.8621 19.122 50.3493 22.9311 50.347H25.0068C25.2935 50.347 25.5685 50.4609 25.7712 50.6637C25.974 50.8664 26.0879 51.1414 26.0879 51.4281C26.0879 51.7148 25.974 51.9898 25.7712 52.1926C25.5685 52.3953 25.2935 52.5092 25.0068 52.5092H22.9311C19.6953 52.5109 16.5921 53.7957 14.3021 56.0819C12.0121 58.3681 10.7221 61.469 10.7149 64.7049V75.6757H69.2857V64.7049C69.282 61.4715 67.9959 58.3717 65.7096 56.0853C63.4232 53.799 60.3234 52.5129 57.09 52.5092H54.8652C54.5784 52.5092 54.3035 52.3953 54.1007 52.1926C53.898 51.9898 53.7841 51.7148 53.7841 51.4281C53.7841 51.1414 53.898 50.8664 54.1007 50.6637C54.3035 50.4609 54.5784 50.347 54.8652 50.347H57.09C60.8963 50.3525 64.5451 51.8669 67.2366 54.5584C69.928 57.2498 71.4424 60.8986 71.4479 64.7049V76.7568C71.4479 77.0435 71.334 77.3185 71.1312 77.5212C70.9285 77.724 70.6535 77.8379 70.3668 77.8379Z" fill="#3C3C3B"/>
<path d="M43.6125 77.8378C43.4569 77.8379 43.3031 77.8043 43.1617 77.7394C43.0203 77.6746 42.8945 77.5799 42.793 77.462C42.6915 77.3441 42.6166 77.2056 42.5735 77.0561C42.5304 76.9066 42.5201 76.7495 42.5433 76.5957L46.9185 47.6411C46.9416 47.4879 46.9974 47.3415 47.0821 47.2118C47.1668 47.082 47.2784 46.972 47.4093 46.8892C47.5403 46.8064 47.6874 46.7526 47.8409 46.7316C47.9944 46.7107 48.1506 46.7229 48.299 46.7676L55.8493 49.0432C55.9996 49.0886 56.1383 49.1661 56.2556 49.2705C56.373 49.3749 56.4662 49.5036 56.5287 49.6476C56.5913 49.7917 56.6217 49.9476 56.6179 50.1046C56.6141 50.2616 56.5761 50.4159 56.5066 50.5568L53.5055 56.5784L55.246 58.5319C55.4003 58.7063 55.4941 58.9258 55.5136 59.1577C55.5331 59.3897 55.4771 59.6218 55.3541 59.8195L44.5314 77.3254C44.4346 77.482 44.2993 77.6113 44.1385 77.701C43.9777 77.7906 43.7966 77.8377 43.6125 77.8378ZM48.8709 49.1978L45.4709 71.6984L53.0957 59.3741L51.406 57.4768C51.2623 57.3156 51.1701 57.115 51.1414 56.9009C51.1127 56.6868 51.1487 56.4691 51.2449 56.2757L53.9995 50.747L48.8709 49.1978Z" fill="#3C3C3B"/>
<path d="M36.263 77.8378C36.0786 77.8379 35.8974 77.7909 35.7363 77.7012C35.5753 77.6115 35.4399 77.4821 35.343 77.3254L24.517 59.8227C24.394 59.625 24.3381 59.393 24.3575 59.161C24.377 58.929 24.4709 58.7095 24.6251 58.5351L26.3657 56.5816L23.3646 50.56C23.2951 50.4192 23.2571 50.2649 23.2533 50.1079C23.2494 49.9509 23.2798 49.7949 23.3424 49.6509C23.405 49.5068 23.4982 49.3781 23.6155 49.2738C23.7328 49.1694 23.8715 49.0918 24.0219 49.0465L31.5721 46.7708C31.7204 46.7263 31.8765 46.7142 32.0299 46.7353C32.1833 46.7564 32.3303 46.8101 32.4611 46.8929C32.5919 46.9758 32.7034 47.0857 32.788 47.2153C32.8726 47.345 32.9284 47.4912 32.9516 47.6443L37.3289 76.5989C37.3515 76.7523 37.3409 76.9087 37.2978 77.0576C37.2547 77.2065 37.18 77.3443 37.0789 77.4618C36.9778 77.5793 36.8526 77.6737 36.7118 77.7386C36.5711 77.8035 36.418 77.8373 36.263 77.8378ZM26.7797 59.3708L34.4046 71.6951L31.0046 49.1978L25.8759 50.7438L28.6294 56.2724C28.7258 56.4657 28.762 56.6834 28.7335 56.8975C28.705 57.1116 28.613 57.3122 28.4694 57.4735L26.7797 59.3708Z" fill="#3C3C3B"/>
<path d="M40.018 57.681C37.6804 57.6794 35.3451 57.5379 33.0245 57.2573C32.8805 57.2441 32.7407 57.2022 32.6133 57.134C32.4859 57.0659 32.3734 56.9729 32.2825 56.8605C32.1916 56.7482 32.1242 56.6187 32.0842 56.4798C32.0442 56.341 32.0325 56.1955 32.0497 56.052C32.0669 55.9085 32.1127 55.7699 32.1844 55.6444C32.2561 55.519 32.3522 55.4091 32.467 55.3214C32.5819 55.2337 32.7132 55.1699 32.8531 55.1339C32.9931 55.0978 33.1388 55.0901 33.2818 55.1113C37.7001 55.6546 42.1683 55.6546 46.5866 55.1113C46.8684 55.0809 47.1509 55.1623 47.3732 55.338C47.5956 55.5137 47.74 55.7698 47.7754 56.051C47.8109 56.3322 47.7345 56.616 47.5627 56.8415C47.3909 57.0669 47.1374 57.2158 46.8569 57.2562C44.5884 57.5409 42.3043 57.6828 40.018 57.681Z" fill="#3C3C3B"/>
<path d="M47.9902 48.8832C47.8219 48.8826 47.6561 48.8427 47.506 48.7666C47.3558 48.6906 47.2255 48.5806 47.1253 48.4454C45.5189 46.2735 45.228 41.9686 45.201 41.4854C45.1845 41.1992 45.2822 40.9182 45.4728 40.7042C45.6634 40.4901 45.9311 40.3605 46.2172 40.3437C46.5026 40.3303 46.7818 40.4292 46.9952 40.6191C47.2086 40.8091 47.3391 41.075 47.3589 41.3599C47.4248 42.4972 47.8248 45.7567 48.8626 47.1599C48.9813 47.3206 49.0531 47.5109 49.0701 47.7099C49.0871 47.9088 49.0487 48.1086 48.9592 48.2871C48.8696 48.4655 48.7324 48.6157 48.5627 48.7209C48.393 48.8261 48.1974 48.8823 47.9978 48.8832H47.9902Z" fill="#3C3C3B"/>
<path d="M31.8858 48.8833C31.6862 48.8824 31.4906 48.8262 31.3209 48.721C31.1512 48.6158 31.014 48.4656 30.9244 48.2871C30.8349 48.1087 30.7965 47.9089 30.8135 47.71C30.8306 47.511 30.9024 47.3207 31.021 47.16C32.061 45.7546 32.4599 42.4963 32.5258 41.36C32.5341 41.2181 32.5702 41.0791 32.6321 40.9511C32.6941 40.8231 32.7806 40.7085 32.8868 40.614C32.993 40.5194 33.1168 40.4467 33.2511 40.4C33.3854 40.3532 33.5276 40.3334 33.6696 40.3417C33.8116 40.3499 33.9505 40.386 34.0786 40.4479C34.2066 40.5099 34.3211 40.5964 34.4157 40.7026C34.5103 40.8089 34.583 40.9326 34.6297 41.067C34.6764 41.2013 34.6962 41.3435 34.688 41.4854C34.661 41.9687 34.3637 46.2736 32.7637 48.4454C32.6622 48.5825 32.5298 48.6936 32.3773 48.7697C32.2247 48.8458 32.0563 48.8847 31.8858 48.8833Z" fill="#3C3C3B"/>
<path d="M61.7892 62.6854C61.5079 62.6856 61.2375 62.576 61.0357 62.38C60.8338 62.184 60.7163 61.917 60.7082 61.6357C60.506 54.5957 57.8292 52.3806 57.8033 52.359C57.5799 52.1816 57.4351 51.9237 57.3999 51.6406C57.3647 51.3576 57.442 51.0721 57.6152 50.8454C57.7871 50.6206 58.0408 50.4728 58.3212 50.4339C58.6015 50.395 58.8859 50.4683 59.1125 50.6379C59.2552 50.746 62.6336 53.3698 62.8703 61.573C62.8785 61.8594 62.7726 62.1373 62.576 62.3457C62.3794 62.5541 62.1081 62.6759 61.8217 62.6844L61.7892 62.6854Z" fill="#3C3C3B"/>
<path d="M61.7941 69.0681C60.9489 69.0684 60.1225 68.8179 59.4196 68.3485C58.7167 67.879 58.1688 67.2116 57.8451 66.4308C57.5215 65.6499 57.4367 64.7906 57.6015 63.9616C57.7663 63.1325 58.1732 62.371 58.7708 61.7732C59.3685 61.1754 60.1299 60.7683 60.9589 60.6033C61.7879 60.4383 62.6473 60.5229 63.4282 60.8463C64.2091 61.1697 64.8766 61.7175 65.3463 62.4203C65.8159 63.1231 66.0666 63.9494 66.0666 64.7946C66.0654 65.9275 65.615 67.0137 64.814 67.8148C64.013 68.616 62.927 69.0667 61.7941 69.0681ZM61.7941 62.6833C61.3765 62.6831 60.9682 62.8067 60.6208 63.0386C60.2735 63.2705 60.0027 63.6001 59.8427 63.9859C59.6828 64.3717 59.6408 64.7962 59.7221 65.2059C59.8035 65.6155 60.0045 65.9918 60.2997 66.2872C60.5949 66.5826 60.9712 66.7838 61.3807 66.8653C61.7903 66.9469 62.2149 66.9051 62.6008 66.7454C62.9866 66.5856 63.3165 66.315 63.5485 65.9678C63.7805 65.6205 63.9044 65.2123 63.9044 64.7946C63.9038 64.235 63.6813 63.6985 63.2857 63.3027C62.8902 62.9069 62.3537 62.6841 61.7941 62.6833Z" fill="#3C3C3B"/>
<path d="M17.3864 62.6854C17.1125 62.6861 16.8485 62.5828 16.6479 62.3964C16.4472 62.21 16.3248 61.9543 16.3053 61.6811C15.7161 53.3838 20.288 50.7319 20.4826 50.6227C20.7323 50.4818 21.0278 50.4459 21.3041 50.5228C21.5803 50.5997 21.8147 50.7833 21.9556 51.033C22.0965 51.2827 22.1324 51.5782 22.0555 51.8545C21.9786 52.1307 21.795 52.3651 21.5453 52.506C21.381 52.6033 17.9777 54.7038 18.461 61.5287C18.4812 61.8147 18.387 62.097 18.199 62.3135C18.0111 62.5301 17.7448 62.6631 17.4588 62.6833L17.3864 62.6854Z" fill="#3C3C3B"/>
<path d="M15.1994 71.3417C15.0321 71.3424 14.8669 71.3044 14.7168 71.2305C14.5668 71.1565 14.4359 71.0488 14.3345 70.9157C13.8068 70.2227 13.418 69.4342 13.1896 68.5936C12.6878 66.9562 12.8524 65.187 13.6478 63.6703C14.4432 62.1537 15.805 61.0123 17.4372 60.4941C18.2114 60.2764 19.0213 60.2151 19.8194 60.3139C20.6176 60.4126 21.3881 60.6694 22.0859 61.0692C23.3088 61.7758 24.287 62.8388 24.8897 64.1161C25.4924 65.3934 25.691 66.8242 25.4588 68.2174C25.4118 68.5002 25.2544 68.7528 25.0211 68.9195C24.7878 69.0863 24.4979 69.1536 24.2151 69.1065C23.9322 69.0595 23.6796 68.9021 23.5129 68.6688C23.3461 68.4356 23.2788 68.1456 23.3259 67.8628C23.4845 66.9082 23.3498 65.9279 22.9394 65.0515C22.529 64.1752 21.8623 63.444 21.0275 62.9547C20.5773 62.6947 20.0799 62.5271 19.5643 62.4616C19.0486 62.3961 18.5251 62.4339 18.0242 62.573C16.941 62.9353 16.0442 63.7101 15.5286 64.7293C15.0129 65.7485 14.9198 66.93 15.2696 68.0174C15.4261 68.5928 15.6926 69.1325 16.0545 69.6065C16.1763 69.7668 16.2509 69.9578 16.2699 70.1581C16.289 70.3584 16.2518 70.5601 16.1625 70.7404C16.0732 70.9208 15.9353 71.0726 15.7644 71.1788C15.5935 71.285 15.3963 71.3414 15.1951 71.3417H15.1994Z" fill="#3C3C3B"/>
<path d="M24.4065 69.1232C24.3644 69.1232 24.3211 69.1232 24.2779 69.1167L23.0595 68.9729C22.9185 68.9562 22.7821 68.9118 22.6582 68.8423C22.5343 68.7729 22.4253 68.6797 22.3374 68.5681C22.2495 68.4566 22.1845 68.3288 22.146 68.192C22.1075 68.0553 22.0963 67.9123 22.113 67.7713C22.1298 67.6303 22.1741 67.4939 22.2436 67.37C22.313 67.2461 22.4062 67.1371 22.5178 67.0492C22.7432 66.8717 23.0298 66.791 23.3146 66.8248L24.533 66.9697C24.8066 67.0022 25.0575 67.138 25.2344 67.3493C25.4112 67.5606 25.5007 67.8315 25.4846 68.1065C25.4684 68.3816 25.3478 68.6401 25.1475 68.8293C24.9471 69.0185 24.6821 69.1229 24.4065 69.1232Z" fill="#3C3C3B"/>
<path d="M15.1988 71.3514C14.9449 71.3517 14.6991 71.2627 14.5043 71.1C14.3094 70.9373 14.1781 70.7112 14.1332 70.4614C14.0884 70.2115 14.1329 69.9539 14.2589 69.7335C14.3849 69.5132 14.5845 69.3442 14.8226 69.2562L16.1199 68.7773C16.253 68.7276 16.3945 68.7046 16.5365 68.7097C16.6785 68.7147 16.8181 68.7476 16.9473 68.8066C17.0766 68.8656 17.193 68.9494 17.2898 69.0534C17.3866 69.1573 17.4621 69.2793 17.5117 69.4124C17.5614 69.5455 17.5844 69.6871 17.5794 69.8291C17.5744 69.9711 17.5414 70.1107 17.4824 70.2399C17.4235 70.3692 17.3396 70.4855 17.2357 70.5824C17.1317 70.6792 17.0097 70.7547 16.8766 70.8043L15.5793 71.2843C15.4575 71.3294 15.3286 71.3521 15.1988 71.3514Z" fill="#3C3C3B"/>
</g>
<defs>
<clipPath id="clip0_1965_106648">
<rect width="80" height="80" fill="white"/>
</clipPath>
</defs>
</svg>
