<svg width="80" height="80" viewBox="0 0 80 80" fill="none" xmlns="http://www.w3.org/2000/svg">
<g clip-path="url(#clip0_1779_50179)">
<g clip-path="url(#clip1_1779_50179)">
<path d="M78.5058 78.0169C78.0741 73.8952 76.2041 59.917 70.2655 53.102C67.577 50.0177 65.5875 46.6397 64.3349 43.0469H66.0939C67.0847 43.0469 67.8908 42.2408 67.8908 41.25V33.125C67.8908 32.1342 67.0847 31.3281 66.0939 31.3281H62.898C63.0473 29.7258 63.3342 28.1784 63.7566 26.7169L63.7872 26.6112C63.8039 26.5544 63.8233 26.4881 63.8425 26.4211C64.4667 24.287 65.7513 22.3909 67.5574 20.9377C71.6216 17.6661 73.8855 12.7966 73.7686 7.57922C73.7194 5.30594 73.212 3.10531 72.2611 1.03828C71.9708 0.4075 71.3314 0 70.6325 0H9.36751C8.66876 0 8.02969 0.407344 7.73907 1.03813C6.78704 3.10547 6.27938 5.30844 6.23001 7.58547C6.16141 10.7367 6.97579 13.8223 8.58548 16.5086C8.91813 17.0636 9.63782 17.2439 10.1931 16.9114C10.7483 16.5788 10.9288 15.8591 10.5961 15.3038C9.21376 12.9969 8.51438 10.3456 8.57329 7.63641C8.61298 5.80141 8.99969 4.0225 9.72298 2.34375H70.2769C70.9995 4.02203 71.3858 5.79875 71.4255 7.63094C71.5259 12.1158 69.5803 16.3005 66.088 19.112C64.7908 20.1558 63.7173 21.3934 62.8984 22.772C57.1539 20.4714 47.0964 16.9016 40.0008 16.9016C32.9231 16.9016 22.9074 20.447 17.1006 22.772C16.2817 21.3936 15.2077 20.1544 13.9099 19.1092C13.4056 18.7033 12.668 18.7831 12.2622 19.287C11.8563 19.7911 11.9358 20.5287 12.4399 20.9347C14.2458 22.3892 15.5309 24.2859 16.1542 26.4125L16.2045 26.5859C16.2188 26.6347 16.2311 26.6766 16.2442 26.7241C16.6634 28.1737 16.95 29.7206 17.1006 31.3283H13.9063C12.9155 31.3283 12.1094 32.1344 12.1094 33.1252V41.2502C12.1094 42.2409 12.9155 43.047 13.9063 43.047H15.6642C14.4119 46.6395 12.4228 50.0173 9.73501 53.102C3.79376 59.9166 1.92532 73.8952 1.49407 78.0173C1.44126 78.5227 1.60594 79.0291 1.94594 79.4062C2.28594 79.7838 2.77251 80.0002 3.28063 80.0002H25.8514C26.4986 80.0002 27.0233 79.4756 27.0233 78.8283C27.0233 78.1809 26.4986 77.6564 25.8514 77.6564H3.89188C4.25657 74.4966 5.57673 65.1225 8.96844 58.4992C15.09 60.5608 25.2692 62.8922 40 62.8922C54.2442 62.8922 64.5972 60.4955 70.9678 58.3758C74.4053 65.0052 75.7405 74.4759 76.1081 77.6562H31.4327C30.7855 77.6562 30.2608 78.1808 30.2608 78.8281C30.2608 79.4755 30.7855 80 31.4327 80H76.7192C77.2277 80 77.7142 79.7833 78.0544 79.4056C78.3944 79.0281 78.5589 78.5219 78.5058 78.0169ZM18.4992 26.0861C18.4872 26.0427 18.4719 25.9898 18.4538 25.9278L18.4053 25.7611C18.3191 25.4669 18.2213 25.1769 18.1149 24.8906C23.777 22.6303 33.3652 19.2453 40.0006 19.2453C46.653 19.2453 56.2806 22.6534 61.8839 24.8908C61.7764 25.1802 61.6777 25.4734 61.5906 25.7711L61.5028 26.073C61.0222 27.7355 60.702 29.5023 60.5455 31.3281H19.4527C19.2947 29.4963 18.9747 27.7302 18.4992 26.0861ZM40 60.5484C25.9369 60.5484 16.1556 58.3922 10.1631 56.427C10.5831 55.7842 11.0284 55.1847 11.5017 54.6419C14.5783 51.1113 16.8063 47.2122 18.1347 43.047H53.3972C54.0445 43.047 54.5691 42.5225 54.5691 41.8752C54.5691 41.2278 54.0445 40.7033 53.3972 40.7033H14.4531V33.672H18.7327V36.9523C18.7327 37.5997 19.2574 38.1242 19.9045 38.1242C20.5517 38.1242 21.0764 37.5997 21.0764 36.9523V33.6719H25.4313V35.542C25.4313 36.1894 25.9559 36.7139 26.6031 36.7139C27.2503 36.7139 27.775 36.1894 27.775 35.542V33.6719H32.1297V36.9522C32.1297 37.5995 32.6544 38.1241 33.3016 38.1241C33.9488 38.1241 34.4734 37.5995 34.4734 36.9522V33.6719H38.8281V35.542C38.8281 36.1894 39.3528 36.7139 40 36.7139C40.6474 36.7139 41.1719 36.1894 41.1719 35.542V33.6719H45.5266V36.9522C45.5266 37.5995 46.0511 38.1241 46.6984 38.1241C47.3458 38.1241 47.8703 37.5995 47.8703 36.9522V33.6719H52.2252V35.542C52.2252 36.1894 52.7497 36.7139 53.397 36.7139C54.0444 36.7139 54.5689 36.1894 54.5689 35.542V33.6719H58.9236V36.9522C58.9236 37.5995 59.4481 38.1241 60.0955 38.1241C60.7428 38.1241 61.2673 37.5995 61.2673 36.9522V33.6719H65.5469V40.7031H58.7292C58.0819 40.7031 57.5574 41.2277 57.5574 41.875C57.5574 42.5223 58.0819 43.0469 58.7292 43.0469H61.8642C63.193 47.2123 65.4214 51.1116 68.4984 54.6417C68.9419 55.1506 69.3608 55.7095 69.7573 56.307C63.5233 58.33 53.5872 60.5484 40 60.5484Z" fill="#3C3C3B"/>
<path d="M40 45.6608C39.3528 45.6608 38.8281 46.1853 38.8281 46.8326V47.7664C38.8281 48.4137 39.3528 48.9383 40 48.9383C40.6473 48.9383 41.1719 48.4137 41.1719 47.7664V46.8326C41.1719 46.1853 40.6473 45.6608 40 45.6608Z" fill="#3C3C3B"/>
</g>
</g>
<defs>
<clipPath id="clip0_1779_50179">
<rect width="80" height="80" fill="white"/>
</clipPath>
<clipPath id="clip1_1779_50179">
<rect width="80" height="80" fill="white"/>
</clipPath>
</defs>
</svg>
