<svg width="80" height="80" viewBox="0 0 80 80" fill="none" xmlns="http://www.w3.org/2000/svg">
<g clip-path="url(#clip0_1491_33643)">
<path d="M14.9765 47.0281C14.8351 50.9456 15.467 54.8525 16.836 58.5257C18.205 62.1989 20.2844 65.5663 22.9553 68.4356C23.0672 68.5557 23.1545 68.6966 23.212 68.8503C23.2695 69.0041 23.2962 69.1676 23.2905 69.3317C23.2848 69.4958 23.2468 69.6571 23.1788 69.8065C23.1107 69.9558 23.0139 70.0904 22.8939 70.2023C22.7738 70.3143 22.6329 70.4016 22.4792 70.4591C22.3254 70.5166 22.1618 70.5432 21.9978 70.5375C21.8337 70.5318 21.6724 70.4939 21.523 70.4258C21.3736 70.3578 21.2391 70.261 21.1271 70.1409C17.3525 66.0987 14.6818 61.1529 13.3721 55.7796C12.0624 50.4062 12.1577 44.7863 13.649 39.4605C13.6934 39.3024 13.7685 39.1547 13.87 39.0256C13.9715 38.8966 14.0974 38.7888 14.2405 38.7084C14.3836 38.6281 14.5412 38.5767 14.7042 38.5572C14.8672 38.5377 15.0325 38.5505 15.1905 38.5949C15.3486 38.6393 15.4963 38.7144 15.6253 38.8159C15.7544 38.9174 15.8622 39.0433 15.9425 39.1864C16.0229 39.3295 16.0743 39.4871 16.0938 39.6501C16.1133 39.8131 16.1004 39.9784 16.0561 40.1364C15.4289 42.3837 15.0666 44.6967 14.9765 47.0281ZM74.1103 49.3577C74.0897 56.7795 71.5376 63.3733 66.73 68.4266C66.5014 68.6667 66.3777 68.9879 66.3859 69.3193C66.3942 69.6507 66.5338 69.9653 66.7739 70.1938C67.0141 70.4223 67.3353 70.5461 67.6667 70.5378C67.9981 70.5296 68.3127 70.39 68.5412 70.1498C73.7928 64.6306 76.5828 57.4509 76.6103 49.3864C76.8265 43.548 75.7287 37.5028 73.3468 31.4177C71.2328 26.0167 68.1654 20.7045 64.2296 15.6287C64.0242 15.3737 63.7269 15.2095 63.4017 15.1713C63.0764 15.1332 62.7492 15.2242 62.4904 15.4248C62.2315 15.6255 62.0618 15.9196 62.0176 16.2441C61.9734 16.5686 62.0583 16.8975 62.254 17.16C70.2903 27.5241 74.5012 38.9431 74.1111 49.3138C74.1104 49.3281 74.1103 49.3438 74.1103 49.3577ZM19.7407 35.8289C23.8093 27.9328 22.4175 17.6675 22.0759 16.4842C22.0169 16.2802 22.0108 16.0644 22.0583 15.8574C22.1059 15.6503 22.2053 15.4588 22.3474 15.3009C22.4895 15.143 22.6695 15.0239 22.8704 14.9548C23.0713 14.8858 23.2864 14.8691 23.4956 14.9062C27.1631 15.5577 30.1771 17.68 32.4728 21.2228C35.1134 18.688 36.4782 14.6414 35.2071 5.34406C35.1788 5.13616 35.2033 4.92446 35.2783 4.72849C35.3532 4.53252 35.4764 4.35858 35.6363 4.22271C35.7961 4.08683 35.9877 3.9934 36.1932 3.95101C36.3987 3.90862 36.6115 3.91864 36.8121 3.98016C47.0664 7.125 53.6417 14.1875 56.9136 25.572C56.9545 25.717 57.0425 25.8443 57.1636 25.934C57.2847 26.0237 57.4321 26.0706 57.5828 26.0675C57.7335 26.0644 57.8788 26.0113 57.9961 25.9167C58.1134 25.8221 58.196 25.6913 58.2309 25.5447C58.6568 23.7659 58.7601 21.6264 58.5378 19.1877C58.5132 18.9184 58.5766 18.6485 58.7184 18.4183C58.8603 18.1881 59.0729 18.0102 59.3244 17.9111C59.576 17.812 59.8529 17.7971 60.1136 17.8687C60.3743 17.9403 60.6048 18.0945 60.7704 18.3081C64.4478 23.0503 67.3062 27.9928 69.2664 32.9984C71.4426 38.5558 72.4412 44.0394 72.2342 49.2975C72.2289 56.0788 70.1036 61.8792 65.9167 66.5383C61.832 71.0836 56.7761 73.4247 52.9979 74.6164V77.5C52.9979 77.8315 52.8662 78.1495 52.6318 78.3839C52.3974 78.6183 52.0794 78.75 51.7479 78.75C51.4164 78.75 51.0985 78.6183 50.864 78.3839C50.6296 78.1495 50.4979 77.8315 50.4979 77.5V67.375C50.498 67.0435 50.6296 66.7256 50.864 66.4912L59.5671 57.7881C59.8307 57.5344 60.0389 57.229 60.1787 56.891C60.3185 56.553 60.3869 56.1898 60.3797 55.8241V47.5938C60.3888 47.0218 60.2175 46.4614 59.8901 45.9923C59.5627 45.5232 59.0958 45.1692 58.5557 44.9805L57.5167 44.6011L45.6954 49.1359L46.4662 50.473C46.8232 51.1029 47.3804 51.5955 48.0494 51.8726C48.7183 52.1497 49.4607 52.1953 50.1586 52.0023L56.2428 50.3683C56.563 50.2823 56.9042 50.327 57.1914 50.4926C57.4786 50.6582 57.6883 50.9311 57.7743 51.2513C57.8602 51.5715 57.8155 51.9127 57.6499 52.2C57.4843 52.4872 57.2114 52.6968 56.8912 52.7828L53.1954 53.7755L53.6954 56.2634C53.7532 56.5509 53.7081 56.8496 53.568 57.1071C53.4278 57.3647 53.2016 57.5648 52.9289 57.6725L48.0567 59.5944C46.3731 60.2605 45.4506 60.7902 45.0832 61.8355L44.4364 63.6742C44.3824 63.8298 44.2983 63.9731 44.1888 64.0961C44.0793 64.219 43.9466 64.3191 43.7983 64.3906C43.6501 64.4621 43.4891 64.5036 43.3247 64.5128C43.1604 64.5219 42.9958 64.4985 42.8405 64.4439C42.6852 64.3892 42.5422 64.3045 42.4198 64.1944C42.2973 64.0844 42.1978 63.9512 42.127 63.8026C42.0562 63.654 42.0154 63.4929 42.007 63.3284C41.9986 63.164 42.0227 62.9996 42.0781 62.8445L42.7246 61.0064C43.5371 58.6939 45.7042 57.8366 47.1379 57.2692L51.0384 55.7303L50.7759 54.4241C49.5497 54.7563 48.2479 54.6711 47.0755 54.1819C45.9031 53.6926 44.9269 52.8271 44.3007 51.7217L43.1667 49.7547C42.9842 49.7959 42.7977 49.8169 42.6106 49.8172H40.6329L40.6936 50.1731C40.8014 50.8084 40.653 51.4605 40.2808 51.9865C39.9086 52.5125 39.343 52.8695 38.7081 52.9792C38.638 52.9913 38.5669 52.9974 38.4957 52.9973H35.1871C33.7543 52.9973 33.0923 52.1364 32.9507 51.3305L31.727 44.1531C31.6994 43.9913 31.704 43.8256 31.7404 43.6656C31.7768 43.5055 31.8444 43.3542 31.9394 43.2203C32.1311 42.9498 32.4224 42.7665 32.7492 42.7108C33.076 42.6551 33.4116 42.7315 33.6821 42.9232C33.9525 43.1149 34.1358 43.4062 34.1915 43.733L35.3446 50.4973H38.2128L37.9496 48.9537C37.913 48.8403 37.8928 48.7222 37.8898 48.603L36.2475 38.9725L32.8734 39.5506C32.85 39.5545 32.6932 39.595 32.3768 40.153L30.2264 43.9131C29.9755 44.3296 29.8469 44.8084 29.8554 45.2945V58.5513C29.8489 59.0404 29.9781 59.5218 30.2289 59.9419L32.9081 64.5825C33.0178 64.7725 33.0755 64.9881 33.0754 65.2075V77.5C33.0754 77.8315 32.9437 78.1495 32.7093 78.3839C32.4749 78.6183 32.1569 78.75 31.8254 78.75C31.4939 78.75 31.176 78.6183 30.9415 78.3839C30.7071 78.1495 30.5754 77.8315 30.5754 77.5V72.1527C26.2272 69.6183 22.6518 65.9469 20.2335 61.533C17.8153 57.119 16.6457 52.1296 16.8504 47.1008C16.9985 43.1803 17.984 39.3369 19.7407 35.8289ZM42.6106 47.3183C42.6228 47.3171 42.6343 47.3116 42.643 47.303C42.6517 47.2943 42.6571 47.2829 42.6584 47.2706V35.2586C42.6572 35.2463 42.6517 35.2349 42.643 35.2262C42.6343 35.2174 42.6228 35.212 42.6106 35.2108H38.7837C38.7714 35.212 38.76 35.2174 38.7512 35.2261C38.7425 35.2348 38.7371 35.2463 38.7359 35.2586V38.6937L40.2067 47.3187L42.6106 47.3183ZM49.0762 45.162V35.2586C49.0759 35.2468 49.0714 35.2354 49.0634 35.2267C49.0555 35.2179 49.0447 35.2123 49.0329 35.2108H45.2017C45.1899 35.2122 45.1791 35.2179 45.1712 35.2266C45.1632 35.2354 45.1587 35.2468 45.1584 35.2586V46.6648L49.0762 45.162ZM56.2561 35.4095C56.2554 35.3571 56.2342 35.3071 56.1972 35.27C56.1601 35.233 56.11 35.2119 56.0576 35.2113H51.7746C51.7227 35.2132 51.6733 35.2347 51.6365 35.2715C51.5997 35.3082 51.5782 35.3575 51.5762 35.4095V44.2009L56.2561 42.4062V35.4095ZM21.9698 36.9611C19.2332 42.4627 18.5975 48.7736 20.1818 54.7105C21.7661 60.6474 25.4616 65.8025 30.5754 69.2092V65.5438L28.0631 61.192C27.5938 60.3916 27.3493 59.4793 27.3554 58.5514V45.2952C27.3458 44.372 27.589 43.4638 28.0586 42.6689L30.2046 38.9166C30.5953 38.2291 31.2557 37.2852 32.4587 37.0859L35.8936 36.498C36.0069 36.4793 36.1214 36.4689 36.2362 36.4667V35.2588C36.237 34.5833 36.5056 33.9356 36.9833 33.458C37.4609 32.9804 38.1085 32.7117 38.784 32.7109H42.6106C43.0674 32.7114 43.5156 32.8356 43.9075 33.0703C44.2985 32.8356 44.7458 32.7114 45.2018 32.7109H49.0331C49.5107 32.7111 49.9784 32.847 50.3818 33.1027C50.8014 32.8468 51.2833 32.7112 51.7748 32.7109H56.0578C56.7732 32.7117 57.4591 32.9963 57.9649 33.5021C58.4708 34.008 58.7554 34.6938 58.7562 35.4092V42.3925L59.4145 42.633C60.4347 42.9992 61.316 43.6731 61.9368 44.5618C62.5575 45.4504 62.8869 46.5098 62.8797 47.5938V55.8234C62.8895 56.5178 62.7576 57.2069 62.4921 57.8485C62.2266 58.4902 61.8329 59.071 61.3353 59.5553L52.9979 67.8925V71.9764C58.3498 70.0925 69.7342 64.3092 69.7342 49.2733C69.7342 49.2567 69.7342 49.24 69.7353 49.2233C70.0695 40.8844 67.0256 31.697 61.1086 23.0186C61.0499 24.0665 60.9003 25.1073 60.6617 26.1294C60.4978 26.8124 60.1125 27.4221 59.5658 27.8631C59.019 28.3041 58.3417 28.5518 57.6394 28.5674C56.9372 28.583 56.2495 28.3658 55.6837 27.9495C55.1179 27.5332 54.7058 26.9413 54.5117 26.2663C51.6523 16.3175 46.3575 10.1473 37.9265 6.99797C38.3739 11.2081 38.2614 14.4461 37.5862 17.0814C36.822 20.0644 35.3342 22.3033 32.9037 24.1283C32.7605 24.2358 32.5958 24.3113 32.4209 24.3496C32.2459 24.388 32.0648 24.3883 31.8897 24.3505C31.7146 24.3127 31.5497 24.2378 31.4061 24.1307C31.2625 24.0237 31.1436 23.887 31.0575 23.73C29.4334 20.7711 27.3461 18.8025 24.8357 17.8564C25.062 19.8541 25.1362 21.8661 25.0576 23.875C24.9304 27.357 24.2914 32.4555 21.9698 36.9606V36.9611ZM65.7365 7.96562C65.7365 8.29715 65.6048 8.61509 65.3704 8.84951C65.136 9.08393 64.818 9.21562 64.4865 9.21562C63.37 9.21687 62.2996 9.66095 61.5101 10.4504C60.7206 11.2399 60.2765 12.3104 60.2753 13.4269C60.2753 13.7584 60.1436 14.0763 59.9092 14.3108C59.6747 14.5452 59.3568 14.6769 59.0253 14.6769C58.6938 14.6769 58.3758 14.5452 58.1414 14.3108C57.907 14.0763 57.7753 13.7584 57.7753 13.4269C57.7733 12.3098 57.3283 11.2391 56.538 10.4497C55.7477 9.6602 54.6766 9.21641 53.5595 9.21562C53.228 9.21562 52.91 9.08393 52.6756 8.84951C52.4412 8.61509 52.3095 8.29715 52.3095 7.96562C52.3095 7.6341 52.4412 7.31616 52.6756 7.08174C52.91 6.84732 53.228 6.71562 53.5595 6.71562C54.6772 6.71438 55.7487 6.26985 56.5391 5.47954C57.3294 4.68923 57.774 3.61769 57.7753 2.5C57.7753 2.16848 57.907 1.85054 58.1414 1.61612C58.3758 1.3817 58.6938 1.25 59.0253 1.25C59.3568 1.25 59.6747 1.3817 59.9092 1.61612C60.1436 1.85054 60.2753 2.16848 60.2753 2.5C60.2761 3.61704 60.7199 4.68816 61.5094 5.47844C62.2988 6.26872 63.3695 6.71364 64.4865 6.71562C64.818 6.71562 65.136 6.84732 65.3704 7.08174C65.6048 7.31616 65.7365 7.6341 65.7365 7.96562ZM60.5903 7.96562C59.9861 7.53284 59.4572 7.00358 59.0248 6.39906C58.592 7.00362 58.0628 7.53287 57.4582 7.96562C58.0628 8.39799 58.5921 8.92694 59.0248 9.53125C59.4571 8.92686 59.986 8.3978 60.5903 7.96531V7.96562ZM3.3623 30.4352C3.3623 30.1036 3.494 29.7857 3.72842 29.5513C3.96284 29.3169 4.28078 29.1852 4.6123 29.1852C5.72882 29.1839 6.79924 28.7398 7.58874 27.9503C8.37823 27.1608 8.82231 26.0904 8.82355 24.9739C8.82355 24.6424 8.95525 24.3244 9.18967 24.09C9.42409 23.8556 9.74203 23.7239 10.0736 23.7239C10.4051 23.7239 10.723 23.8556 10.9574 24.09C11.1919 24.3244 11.3236 24.6424 11.3236 24.9739C11.3255 26.0909 11.7705 27.1616 12.5607 27.9511C13.351 28.7405 14.4221 29.1843 15.5392 29.1852C15.8707 29.1852 16.1886 29.3169 16.4231 29.5513C16.6575 29.7857 16.7892 30.1036 16.7892 30.4352C16.7892 30.7667 16.6575 31.0846 16.4231 31.319C16.1886 31.5535 15.8707 31.6852 15.5392 31.6852C14.4215 31.6864 13.35 32.1309 12.5597 32.9213C11.7693 33.7116 11.3248 34.7831 11.3236 35.9008C11.3236 36.2323 11.1919 36.5502 10.9574 36.7847C10.723 37.0191 10.4051 37.1508 10.0736 37.1508C9.74203 37.1508 9.42409 37.0191 9.18967 36.7847C8.95525 36.5502 8.82355 36.2323 8.82355 35.9008C8.82273 34.7837 8.37892 33.7126 7.58946 32.9223C6.8 32.1321 5.72935 31.6871 4.6123 31.6852C4.28078 31.6852 3.96284 31.5535 3.72842 31.319C3.494 31.0846 3.3623 30.7667 3.3623 30.4352ZM8.5084 30.4352C9.11265 30.8678 9.64154 31.3971 10.0739 32.0016C10.5066 31.3972 11.0358 30.8682 11.6403 30.4356C11.0358 30.0032 10.5065 29.4742 10.0737 28.87C9.64137 29.4742 9.11253 30.0032 8.5084 30.4356V30.4352Z" fill="#3C3C3B"/>
</g>
<defs>
<clipPath id="clip0_1491_33643">
<rect width="80" height="80" fill="white"/>
</clipPath>
</defs>
</svg>
