<svg width="80" height="80" viewBox="0 0 80 80" fill="none" xmlns="http://www.w3.org/2000/svg">
<g clip-path="url(#clip0_1491_33681)">
<g clip-path="url(#clip1_1491_33681)">
<path d="M61.8233 14.2972C61.3009 13.9123 60.5655 14.0238 60.1804 14.5461L57.2154 18.57C56.8305 19.0925 56.942 19.828 57.4644 20.2129C57.6743 20.3676 57.9184 20.442 58.1604 20.442C58.521 20.442 58.8768 20.2765 59.1073 19.964L62.0723 15.9401C62.4572 15.4178 62.3456 14.6823 61.8233 14.2972Z" fill="#3C3C3B"/>
<path d="M59.1073 60.3937C58.7224 59.8714 57.987 59.76 57.4644 60.1448C56.942 60.5299 56.8305 61.2652 57.2154 61.7877L60.1804 65.8116C60.4109 66.1241 60.7666 66.2896 61.1273 66.2896C61.3693 66.2896 61.6136 66.215 61.8233 66.0605C62.3456 65.6754 62.4572 64.9401 62.0723 64.4176L59.1073 60.3937Z" fill="#3C3C3B"/>
<path d="M71.6094 39.0039H67.4797C66.8306 39.0039 66.3047 39.53 66.3047 40.1789C66.3047 40.8278 66.8306 41.3538 67.4797 41.3538H71.6094C72.2585 41.3538 72.7844 40.8278 72.7844 40.1789C72.7844 39.53 72.2583 39.0039 71.6094 39.0039Z" fill="#3C3C3B"/>
<path d="M20.8933 19.964C21.1238 20.2765 21.4795 20.442 21.8402 20.442C22.0822 20.442 22.3265 20.3674 22.5362 20.2129C23.0585 19.8279 23.1701 19.0925 22.7852 18.57L19.8202 14.5461C19.4352 14.0238 18.6997 13.9123 18.1772 14.2972C17.6549 14.6823 17.5434 15.4177 17.9283 15.9401L20.8933 19.964Z" fill="#3C3C3B"/>
<path d="M22.5363 60.1448C22.014 59.7601 21.2784 59.8713 20.8933 60.3938L17.9284 64.4176C17.5434 64.9401 17.6548 65.6756 18.1773 66.0606C18.3872 66.2152 18.6313 66.2896 18.8733 66.2896C19.234 66.2896 19.5899 66.1242 19.8202 65.8116L22.7852 61.7878C23.1701 61.2653 23.0587 60.5298 22.5363 60.1448Z" fill="#3C3C3B"/>
<path d="M12.5206 39.0039H8.39079C7.74189 39.0039 7.21582 39.53 7.21582 40.1789C7.21582 40.8278 7.74189 41.3538 8.39079 41.3538H12.5206C13.1695 41.3538 13.6955 40.8278 13.6955 40.1789C13.6955 39.53 13.1695 39.0039 12.5206 39.0039Z" fill="#3C3C3B"/>
<path d="M40.2486 61.9353C39.6684 61.6453 38.9624 61.8804 38.6722 62.4607L32.8798 74.0468L35.3997 48.3639C35.4412 47.9409 35.3013 47.5178 35.0157 47.2027C34.7303 46.888 34.3228 46.7074 33.8978 46.7074H20.6593L32.8376 23.0438C33.1347 22.4668 32.9077 21.7582 32.3307 21.4614C31.7537 21.1643 31.0453 21.3913 30.7482 21.9683L17.9392 46.8578C17.6965 47.3295 17.7167 47.8814 17.9929 48.3343C18.2693 48.787 18.7509 49.0574 19.2813 49.0574H32.9707L30.0973 78.3411C30.0252 79.0768 30.4708 79.7337 31.1811 79.9384C31.3251 79.98 31.4697 80 31.6116 80C32.1698 80 32.6854 79.6904 32.9492 79.1633L40.7742 63.5118C41.0643 62.9313 40.829 62.2256 40.2486 61.9353Z" fill="#3C3C3B"/>
<path d="M33.5672 19.0578C34.1443 19.355 34.8528 19.1279 35.1496 18.5509L41.7824 5.66271L39.7557 29.9087C39.7207 30.3281 39.8641 30.7463 40.1491 31.0558C40.434 31.3655 40.8388 31.543 41.2596 31.543H45.7762C46.4253 31.543 46.9512 31.017 46.9512 30.3681C46.9512 29.7192 46.4253 29.1931 45.7762 29.1931H42.1736L44.477 1.63727C44.5381 0.9102 44.0908 0.26193 43.3896 0.0606192C42.6887 -0.140849 41.9652 0.17185 41.6314 0.820589L33.0602 17.4754C32.7632 18.0524 32.9902 18.7609 33.5672 19.0578Z" fill="#3C3C3B"/>
<path d="M56.7729 29.9088C56.4957 29.4605 56.016 29.1931 55.4892 29.1931H50.7832C50.1341 29.1931 49.6082 29.7192 49.6082 30.3681C49.6082 31.017 50.1341 31.5431 50.7832 31.5431H54.1287L40.9144 57.9739C40.6241 58.5543 40.8594 59.2601 41.4398 59.5504C41.6084 59.6347 41.7878 59.6746 41.9643 59.6746C42.3953 59.6746 42.8103 59.4365 43.0162 59.0249L56.839 31.3771C57.0746 30.9058 57.0498 30.357 56.7729 29.9088Z" fill="#3C3C3B"/>
</g>
</g>
<defs>
<clipPath id="clip0_1491_33681">
<rect width="80" height="80" fill="white"/>
</clipPath>
<clipPath id="clip1_1491_33681">
<rect width="80" height="80" fill="white"/>
</clipPath>
</defs>
</svg>
