<svg width="80" height="80" viewBox="0 0 80 80" fill="none" xmlns="http://www.w3.org/2000/svg">
<g clip-path="url(#clip0_1961_102940)">
<path d="M41.1629 6.66343C41.0164 6.50007 40.8371 6.36941 40.6367 6.27996C40.4364 6.19052 40.2194 6.14429 40 6.14429C39.7805 6.14429 39.5636 6.19052 39.3632 6.27996C39.1628 6.36941 38.9836 6.50007 38.8371 6.66343C37.8634 7.83411 15 35.5107 15 48.8746C15 52.1577 15.6466 55.4086 16.903 58.4417C18.1594 61.4748 20.0009 64.2308 22.3223 66.5523C24.6438 68.8737 27.3998 70.7152 30.4329 71.9716C33.466 73.2279 36.7169 73.8746 40 73.8746C43.283 73.8746 46.5339 73.2279 49.567 71.9716C52.6002 70.7152 55.3561 68.8737 57.6776 66.5523C59.9991 64.2308 61.8405 61.4748 63.0969 58.4417C64.3533 55.4086 64.9999 52.1577 64.9999 48.8746C64.9999 35.5107 42.1366 7.83411 41.1629 6.66343ZM40 70.8515C34.1735 70.8447 28.5877 68.527 24.4678 64.407C20.348 60.287 18.0305 54.7011 18.0239 48.8746C18.0239 38.2097 35.3034 15.8933 40.0008 10.0295C41.9957 12.5186 46.262 17.978 50.4921 24.2341C58.0086 35.3534 61.976 43.8731 61.976 48.8746C61.9694 54.7011 59.652 60.287 55.5321 64.407C51.4123 68.527 45.8264 70.8447 40 70.8515Z" fill="#3C3C3B"/>
<path d="M40 44.5314C24.3361 44.5314 21.0479 46.8935 21.0479 48.8746C21.0479 51.3634 21.5381 53.8279 22.4905 56.1272C23.4429 58.4266 24.8389 60.5159 26.5988 62.2758C28.3587 64.0356 30.4479 65.4316 32.7473 66.3841C35.0467 67.3365 37.5112 67.8267 40 67.8267C42.4888 67.8267 44.9533 67.3365 47.2527 66.3841C49.552 65.4316 51.6413 64.0356 53.4012 62.2758C55.1611 60.5159 56.5571 58.4266 57.5095 56.1272C58.4619 53.8279 58.9521 51.3634 58.9521 48.8746C58.9521 46.8935 55.6647 44.5314 40 44.5314ZM40 47.5553C47.2755 47.5553 52.1915 48.2465 54.577 48.8746C52.1915 49.507 47.2755 50.1913 40 50.1913C32.7245 50.1913 27.8085 49.5001 25.423 48.8711C27.8085 48.243 32.7245 47.5553 40 47.5553ZM40 64.8037C36.2666 64.7977 32.6537 63.4816 29.7912 61.0849C26.9287 58.6881 24.9982 55.3628 24.3361 51.6885C27.0672 52.5802 31.8596 53.2152 40 53.2152C48.1404 53.2152 52.9337 52.5767 55.6647 51.6851C55.0031 55.3599 53.0726 58.686 50.2099 61.0834C47.3473 63.4808 43.7339 64.7974 40 64.8037Z" fill="#3C3C3B"/>
</g>
<defs>
<clipPath id="clip0_1961_102940">
<rect width="80" height="80" fill="white"/>
</clipPath>
</defs>
</svg>
