<svg width="80" height="80" viewBox="0 0 80 80" fill="none" xmlns="http://www.w3.org/2000/svg">
<g clip-path="url(#clip0_1491_33273)">
<g clip-path="url(#clip1_1491_33273)">
<path d="M40.2272 54.0525C32.9572 54.0525 26.2966 52.9353 22.8447 51.1366C21.3576 50.3501 19.7047 49.9284 18.0225 49.9063L1.1591 49.8347C0.910463 49.8342 0.672221 49.7349 0.496786 49.5587C0.321352 49.3825 0.223096 49.1438 0.223635 48.8952C0.224174 48.6465 0.323462 48.4083 0.499659 48.2329C0.675855 48.0574 0.914526 47.9592 1.16317 47.9597H1.16723L18.0316 48.0313C20.0127 48.055 21.9597 48.5494 23.7122 49.4735C26.9129 51.1413 33.2413 52.1775 40.2282 52.1775C47.1879 52.1775 53.505 51.1463 56.7141 49.4878C58.4828 48.5587 60.4475 48.0645 62.4454 48.0463H79.2891C79.5377 48.0463 79.7762 48.1451 79.952 48.3209C80.1278 48.4967 80.2266 48.7351 80.2266 48.9838C80.2266 49.2324 80.1278 49.4709 79.952 49.6467C79.7762 49.8225 79.5377 49.9213 79.2891 49.9213H62.4454C60.7472 49.9391 59.0777 50.3615 57.5754 51.1535C54.1154 52.9416 47.4691 54.0525 40.2272 54.0525Z" fill="#3C3C3B"/>
<path d="M10.21 63.1377C9.46828 63.1377 8.74326 62.9178 8.12657 62.5057C7.50989 62.0937 7.02924 61.508 6.74541 60.8228C6.46159 60.1375 6.38732 59.3835 6.53202 58.6561C6.67671 57.9287 7.03387 57.2605 7.55831 56.736C8.08276 56.2116 8.75095 55.8544 9.47837 55.7098C10.2058 55.5651 10.9598 55.6393 11.645 55.9232C12.3302 56.207 12.9159 56.6876 13.328 57.3043C13.74 57.921 13.96 58.646 13.96 59.3877C13.9591 60.382 13.5637 61.3353 12.8606 62.0383C12.1575 62.7414 11.2042 63.1368 10.21 63.1377ZM10.21 57.5127C9.83912 57.5127 9.47661 57.6227 9.16827 57.8287C8.85993 58.0347 8.6196 58.3276 8.47769 58.6702C8.33577 59.0128 8.29864 59.3898 8.37099 59.7535C8.44334 60.1172 8.62191 60.4513 8.88414 60.7135C9.14636 60.9757 9.48045 61.1543 9.84417 61.2267C10.2079 61.299 10.5849 61.2619 10.9275 61.12C11.2701 60.9781 11.5629 60.7377 11.769 60.4294C11.975 60.121 12.085 59.7585 12.085 59.3877C12.0845 58.8907 11.8868 58.4142 11.5352 58.0629C11.1837 57.7116 10.707 57.5143 10.21 57.5143V57.5127Z" fill="#3C3C3B"/>
<path d="M20.2256 72.6462C19.4839 72.6462 18.7589 72.4263 18.1422 72.0143C17.5255 71.6022 17.0449 71.0165 16.761 70.3313C16.4772 69.6461 16.4029 68.8921 16.5476 68.1647C16.6923 67.4372 17.0495 66.769 17.5739 66.2446C18.0984 65.7201 18.7666 65.363 19.494 65.2183C20.2214 65.0736 20.9754 65.1479 21.6607 65.4317C22.3459 65.7155 22.9315 66.1962 23.3436 66.8129C23.7557 67.4295 23.9756 68.1546 23.9756 68.8962C23.9747 69.8905 23.5793 70.8438 22.8762 71.5469C22.1732 72.2499 21.2199 72.6453 20.2256 72.6462ZM20.2256 67.0231C19.8547 67.0231 19.4922 67.1331 19.1839 67.3391C18.8756 67.5451 18.6352 67.838 18.4933 68.1806C18.3514 68.5232 18.3143 68.9002 18.3866 69.2639C18.459 69.6276 18.6375 69.9617 18.8998 70.2239C19.162 70.4862 19.4961 70.6647 19.8598 70.7371C20.2235 70.8094 20.6005 70.7723 20.9431 70.6304C21.2857 70.4885 21.5786 70.2482 21.7846 69.9398C21.9906 69.6315 22.1006 69.269 22.1006 68.8981C22.1006 68.4008 21.903 67.9239 21.5514 67.5723C21.1998 67.2207 20.7229 67.0231 20.2256 67.0231Z" fill="#3C3C3B"/>
<path d="M40.2256 72.6462C39.4839 72.6462 38.7589 72.4263 38.1422 72.0143C37.5255 71.6022 37.0449 71.0165 36.761 70.3313C36.4772 69.6461 36.4029 68.8921 36.5476 68.1647C36.6923 67.4372 37.0495 66.769 37.5739 66.2446C38.0984 65.7201 38.7666 65.363 39.494 65.2183C40.2214 65.0736 40.9754 65.1479 41.6607 65.4317C42.3459 65.7155 42.9315 66.1962 43.3436 66.8129C43.7557 67.4295 43.9756 68.1546 43.9756 68.8962C43.9747 69.8905 43.5793 70.8438 42.8762 71.5469C42.1732 72.2499 41.2199 72.6453 40.2256 72.6462ZM40.2256 67.0231C39.8547 67.0231 39.4922 67.1331 39.1839 67.3391C38.8756 67.5451 38.6352 67.838 38.4933 68.1806C38.3514 68.5232 38.3143 68.9002 38.3866 69.2639C38.459 69.6276 38.6375 69.9617 38.8998 70.2239C39.162 70.4862 39.4961 70.6647 39.8598 70.7371C40.2235 70.8094 40.6005 70.7723 40.9431 70.6304C41.2857 70.4885 41.5786 70.2482 41.7846 69.9398C41.9906 69.6315 42.1006 69.269 42.1006 68.8981C42.1006 68.4008 41.903 67.9239 41.5514 67.5723C41.1998 67.2207 40.7229 67.0231 40.2256 67.0231Z" fill="#3C3C3B"/>
<path d="M60.2256 72.6462C59.4839 72.6462 58.7589 72.4263 58.1422 72.0143C57.5255 71.6022 57.0449 71.0165 56.761 70.3313C56.4772 69.6461 56.4029 68.8921 56.5476 68.1647C56.6923 67.4372 57.0495 66.769 57.5739 66.2446C58.0984 65.7201 58.7666 65.363 59.494 65.2183C60.2214 65.0736 60.9754 65.1479 61.6606 65.4317C62.3459 65.7155 62.9315 66.1962 63.3436 66.8129C63.7557 67.4295 63.9756 68.1546 63.9756 68.8962C63.9747 69.8905 63.5793 70.8438 62.8762 71.5469C62.1732 72.2499 61.2199 72.6453 60.2256 72.6462ZM60.2256 67.0231C59.8547 67.0231 59.4922 67.1331 59.1839 67.3391C58.8755 67.5451 58.6352 67.838 58.4933 68.1806C58.3514 68.5232 58.3143 68.9002 58.3866 69.2639C58.459 69.6276 58.6375 69.9617 58.8998 70.2239C59.162 70.4862 59.4961 70.6647 59.8598 70.7371C60.2235 70.8094 60.6005 70.7723 60.9431 70.6304C61.2857 70.4885 61.5786 70.2482 61.7846 69.9398C61.9906 69.6315 62.1006 69.269 62.1006 68.8981C62.1006 68.4008 61.903 67.9239 61.5514 67.5723C61.1998 67.2207 60.7229 67.0231 60.2256 67.0231Z" fill="#3C3C3B"/>
<path d="M30.2256 63.1377C29.4839 63.1377 28.7589 62.9178 28.1422 62.5057C27.5255 62.0937 27.0449 61.508 26.761 60.8228C26.4772 60.1375 26.4029 59.3835 26.5476 58.6561C26.6923 57.9287 27.0495 57.2605 27.5739 56.736C28.0984 56.2116 28.7666 55.8544 29.494 55.7098C30.2214 55.5651 30.9754 55.6393 31.6607 55.9232C32.3459 56.207 32.9315 56.6876 33.3436 57.3043C33.7557 57.921 33.9756 58.646 33.9756 59.3877C33.9747 60.382 33.5793 61.3353 32.8762 62.0383C32.1732 62.7414 31.2199 63.1368 30.2256 63.1377ZM30.2256 57.5127C29.8547 57.5127 29.4922 57.6227 29.1839 57.8287C28.8756 58.0347 28.6352 58.3276 28.4933 58.6702C28.3514 59.0128 28.3143 59.3898 28.3866 59.7535C28.459 60.1172 28.6375 60.4513 28.8998 60.7135C29.162 60.9757 29.4961 61.1543 29.8598 61.2267C30.2235 61.299 30.6005 61.2619 30.9431 61.12C31.2857 60.9781 31.5786 60.7377 31.7846 60.4294C31.9906 60.121 32.1006 59.7585 32.1006 59.3877C32.1002 58.8907 31.9024 58.4142 31.5509 58.0629C31.1993 57.7116 30.7226 57.5143 30.2256 57.5143V57.5127Z" fill="#3C3C3B"/>
<path d="M50.2402 63.1377C49.4986 63.1377 48.7735 62.9178 48.1568 62.5057C47.5402 62.0937 47.0595 61.508 46.7757 60.8228C46.4919 60.1375 46.4176 59.3835 46.5623 58.6561C46.707 57.9287 47.0641 57.2605 47.5886 56.736C48.113 56.2116 48.7812 55.8544 49.5086 55.7098C50.2361 55.5651 50.9901 55.6393 51.6753 55.9232C52.3605 56.207 52.9462 56.6876 53.3582 57.3043C53.7703 57.921 53.9902 58.646 53.9902 59.3877C53.9893 60.382 53.5939 61.3353 52.8909 62.0383C52.1878 62.7414 51.2345 63.1368 50.2402 63.1377ZM50.2402 57.5127C49.8694 57.5127 49.5069 57.6227 49.1985 57.8287C48.8902 58.0347 48.6499 58.3276 48.508 58.6702C48.366 59.0128 48.3289 59.3898 48.4013 59.7535C48.4736 60.1172 48.6522 60.4513 48.9144 60.7135C49.1766 60.9757 49.5107 61.1543 49.8744 61.2267C50.2382 61.299 50.6152 61.2619 50.9578 61.12C51.3004 60.9781 51.5932 60.7377 51.7992 60.4294C52.0053 60.121 52.1152 59.7585 52.1152 59.3877C52.1148 58.8907 51.9171 58.4142 51.5655 58.0629C51.2139 57.7116 50.7372 57.5143 50.2402 57.5143V57.5127Z" fill="#3C3C3B"/>
<path d="M70.2549 63.1377C69.5132 63.1377 68.7882 62.9178 68.1715 62.5057C67.5548 62.0937 67.0742 61.508 66.7903 60.8228C66.5065 60.1375 66.4322 59.3835 66.5769 58.6561C66.7216 57.9287 67.0788 57.2605 67.6032 56.736C68.1277 56.2116 68.7959 55.8544 69.5233 55.7098C70.2507 55.5651 71.0047 55.6393 71.6899 55.9232C72.3752 56.207 72.9608 56.6876 73.3729 57.3043C73.785 57.921 74.0049 58.646 74.0049 59.3877C74.0039 60.382 73.6085 61.3352 72.9054 62.0382C72.2024 62.7413 71.2491 63.1367 70.2549 63.1377ZM70.2549 57.5127C69.884 57.5127 69.5215 57.6227 69.2132 57.8287C68.9048 58.0347 68.6645 58.3276 68.5226 58.6702C68.3807 59.0128 68.3436 59.3898 68.4159 59.7535C68.4883 60.1172 68.6668 60.4513 68.9291 60.7135C69.1913 60.9757 69.5254 61.1543 69.8891 61.2267C70.2528 61.299 70.6298 61.2619 70.9724 61.12C71.315 60.9781 71.6079 60.7377 71.8139 60.4294C72.0199 60.121 72.1299 59.7585 72.1299 59.3877C72.1295 58.8907 71.9317 58.4142 71.5802 58.0629C71.2286 57.7116 70.7519 57.5143 70.2549 57.5143V57.5127Z" fill="#3C3C3B"/>
<path d="M40.2272 43.9657C32.9575 43.9657 26.2969 42.8485 22.8447 41.0494C21.3577 40.263 19.7049 39.8415 18.0229 39.8197L1.1591 39.7476C0.910463 39.747 0.672221 39.6477 0.496786 39.4715C0.321352 39.2953 0.223096 39.0567 0.223635 38.808C0.224174 38.5594 0.323462 38.3211 0.499659 38.1457C0.675855 37.9703 0.914526 37.872 1.16317 37.8726H1.16723L18.0307 37.9447C20.0118 37.9679 21.959 38.4623 23.7113 39.3869C26.9122 41.0547 33.2407 42.0907 40.2272 42.0907C47.1866 42.0907 53.5038 41.0594 56.7132 39.401C58.4819 38.4718 60.4466 37.9777 62.4444 37.9594H79.2882C79.5368 37.9594 79.7753 38.0582 79.9511 38.234C80.1269 38.4098 80.2257 38.6483 80.2257 38.8969C80.2257 39.1456 80.1269 39.384 79.9511 39.5598C79.7753 39.7357 79.5368 39.8344 79.2882 39.8344H62.4444C60.7461 39.8524 59.0766 40.2747 57.5741 41.0666C54.115 42.8551 47.4691 43.9657 40.2272 43.9657Z" fill="#3C3C3B"/>
<path d="M35.5037 13.9503C35.3183 13.9503 35.1371 13.8952 34.983 13.7922C34.8288 13.6892 34.7087 13.5428 34.6378 13.3715C34.5668 13.2003 34.5483 13.0118 34.5844 12.83C34.6206 12.6481 34.7098 12.4811 34.8409 12.35L39.5621 7.62842C39.7384 7.45495 39.9761 7.35816 40.2234 7.35914C40.4707 7.36012 40.7077 7.45878 40.8826 7.63364C41.0575 7.8085 41.1562 8.04539 41.1572 8.2927C41.1582 8.54002 41.0615 8.77773 40.8881 8.95404L36.1668 13.6756C36.0798 13.7628 35.9765 13.832 35.8627 13.8791C35.7489 13.9263 35.6269 13.9504 35.5037 13.9503Z" fill="#3C3C3B"/>
<path d="M44.9462 13.9503C44.823 13.9505 44.7011 13.9263 44.5873 13.8792C44.4736 13.832 44.3703 13.7628 44.2833 13.6756L39.5621 8.95404C39.3887 8.77773 39.2919 8.54002 39.293 8.2927C39.294 8.04539 39.3927 7.8085 39.5676 7.63364C39.7425 7.45878 39.9794 7.36012 40.2268 7.35914C40.4741 7.35816 40.7118 7.45495 40.888 7.62842L45.6093 12.35C45.7404 12.4811 45.8296 12.6482 45.8658 12.83C45.9019 13.0119 45.8833 13.2004 45.8124 13.3717C45.7414 13.543 45.6212 13.6894 45.467 13.7924C45.3128 13.8954 45.1316 13.9503 44.9462 13.9503Z" fill="#3C3C3B"/>
<path d="M40.2256 21.4328C39.9769 21.4328 39.7385 21.3341 39.5627 21.1582C39.3869 20.9824 39.2881 20.744 39.2881 20.4953V8.29126C39.2881 8.04262 39.3869 7.80416 39.5627 7.62835C39.7385 7.45253 39.9769 7.35376 40.2256 7.35376C40.4742 7.35376 40.7127 7.45253 40.8885 7.62835C41.0643 7.80416 41.1631 8.04262 41.1631 8.29126V20.4953C41.1631 20.744 41.0643 20.9824 40.8885 21.1582C40.7127 21.3341 40.4742 21.4328 40.2256 21.4328Z" fill="#3C3C3B"/>
<path d="M50.5037 28.4712C50.3183 28.4712 50.1371 28.4162 49.983 28.3132C49.8288 28.2101 49.7087 28.0637 49.6378 27.8925C49.5668 27.7212 49.5483 27.5327 49.5844 27.3509C49.6206 27.169 49.7098 27.002 49.8409 26.8709L54.5621 22.1497C54.7384 21.9762 54.9761 21.8794 55.2234 21.8804C55.4707 21.8814 55.7077 21.98 55.8826 22.1549C56.0575 22.3297 56.1562 22.5666 56.1572 22.8139C56.1582 23.0613 56.0615 23.299 55.8881 23.4753L51.1668 28.1965C51.0798 28.2837 50.9765 28.3529 50.8627 28.4C50.7489 28.4472 50.6269 28.4714 50.5037 28.4712Z" fill="#3C3C3B"/>
<path d="M59.9462 28.4712C59.823 28.4714 59.7011 28.4472 59.5873 28.4001C59.4736 28.3529 59.3703 28.2838 59.2833 28.1965L54.5621 23.4753C54.3887 23.299 54.2919 23.0613 54.293 22.8139C54.294 22.5666 54.3927 22.3297 54.5676 22.1549C54.7425 21.98 54.9794 21.8814 55.2268 21.8804C55.4741 21.8794 55.7118 21.9762 55.888 22.1497L60.6093 26.8709C60.7404 27.002 60.8296 27.1691 60.8658 27.351C60.9019 27.5328 60.8833 27.7213 60.8124 27.8926C60.7414 28.0639 60.6212 28.2103 60.467 28.3133C60.3128 28.4163 60.1316 28.4712 59.9462 28.4712Z" fill="#3C3C3B"/>
<path d="M55.2256 35.9544C54.9769 35.9544 54.7385 35.8556 54.5627 35.6798C54.3869 35.504 54.2881 35.2655 54.2881 35.0169V22.8125C54.2881 22.5639 54.3869 22.3254 54.5627 22.1496C54.7385 21.9738 54.9769 21.875 55.2256 21.875C55.4742 21.875 55.7127 21.9738 55.8885 22.1496C56.0643 22.3254 56.1631 22.5639 56.1631 22.8125V35.0169C56.1631 35.2655 56.0643 35.504 55.8885 35.6798C55.7127 35.8556 55.4742 35.9544 55.2256 35.9544Z" fill="#3C3C3B"/>
<path d="M20.5037 28.4712C20.3183 28.4712 20.1371 28.4162 19.983 28.3132C19.8288 28.2101 19.7087 28.0637 19.6378 27.8925C19.5668 27.7212 19.5483 27.5327 19.5844 27.3509C19.6206 27.169 19.7098 27.002 19.8409 26.8709L24.5621 22.1497C24.7384 21.9762 24.9761 21.8794 25.2234 21.8804C25.4707 21.8814 25.7077 21.98 25.8826 22.1549C26.0575 22.3297 26.1562 22.5666 26.1572 22.8139C26.1582 23.0613 26.0615 23.299 25.8881 23.4753L21.1668 28.1965C21.0798 28.2837 20.9765 28.3529 20.8627 28.4C20.7489 28.4472 20.6269 28.4714 20.5037 28.4712Z" fill="#3C3C3B"/>
<path d="M29.9462 28.4713C29.8231 28.4715 29.7011 28.4473 29.5874 28.4001C29.4736 28.353 29.3703 28.2838 29.2834 28.1966L24.5622 23.4753C24.4739 23.3885 24.4038 23.2851 24.3558 23.1711C24.3077 23.057 24.2827 22.9346 24.2822 22.8108C24.2817 22.6871 24.3058 22.5645 24.3529 22.45C24.4 22.3356 24.4694 22.2316 24.5569 22.1441C24.6444 22.0566 24.7484 21.9873 24.8628 21.9402C24.9773 21.8931 25.0999 21.8691 25.2237 21.8696C25.3474 21.8702 25.4698 21.8952 25.5839 21.9432C25.6979 21.9913 25.8013 22.0615 25.8881 22.1497L30.6093 26.871C30.7404 27.0021 30.8297 27.1692 30.8658 27.351C30.902 27.5329 30.8834 27.7214 30.8124 27.8927C30.7414 28.064 30.6213 28.2104 30.4671 28.3133C30.3129 28.4163 30.1316 28.4713 29.9462 28.4713Z" fill="#3C3C3B"/>
<path d="M25.2256 35.9544C24.9769 35.9544 24.7385 35.8556 24.5627 35.6798C24.3869 35.504 24.2881 35.2655 24.2881 35.0169V22.8125C24.2881 22.5639 24.3869 22.3254 24.5627 22.1496C24.7385 21.9738 24.9769 21.875 25.2256 21.875C25.4742 21.875 25.7127 21.9738 25.8885 22.1496C26.0643 22.3254 26.1631 22.5639 26.1631 22.8125V35.0169C26.1631 35.2655 26.0643 35.504 25.8885 35.6798C25.7127 35.8556 25.4742 35.9544 25.2256 35.9544Z" fill="#3C3C3B"/>
</g>
</g>
<defs>
<clipPath id="clip0_1491_33273">
<rect width="80" height="80" fill="white"/>
</clipPath>
<clipPath id="clip1_1491_33273">
<rect width="80" height="80" fill="white"/>
</clipPath>
</defs>
</svg>
