<svg width="80" height="80" viewBox="0 0 80 80" fill="none" xmlns="http://www.w3.org/2000/svg">
<g clip-path="url(#clip0_1779_50289)">
<g clip-path="url(#clip1_1779_50289)">
<path d="M67.9794 62.5477L62.4647 59.3638V44.4888L71.6303 39.197C72.5192 40.0647 73.7331 40.6008 75.0706 40.6008C77.7887 40.6008 80 38.3895 80 35.6714C80 32.9533 77.7887 30.742 75.0706 30.742C72.3525 30.742 70.1413 32.9533 70.1413 35.6714C70.1413 36.208 70.2286 36.7242 70.3878 37.2083L61.293 42.4592L48.2695 34.9402V19.902L55.2031 15.8989C56.2994 17.242 57.9667 18.1014 59.8316 18.1014C63.1252 18.1014 65.8048 15.4219 65.8048 12.1281C65.8048 8.83438 63.1253 6.15484 59.8316 6.15484C56.5378 6.15484 53.8583 8.83438 53.8583 12.1281C53.8583 12.718 53.9456 13.2875 54.1056 13.8261L47.0977 17.8722L34.0742 10.3531V7.16125C35.5286 6.67078 36.5792 5.29469 36.5792 3.67687C36.5792 1.64953 34.9298 0 32.9023 0C30.8748 0 29.2255 1.64953 29.2255 3.67687C29.2255 5.29469 30.2761 6.67063 31.7305 7.16125V10.3531L18.707 17.8722L13.2994 14.75C12.7389 14.4263 12.0222 14.6183 11.6986 15.1789C11.375 15.7394 11.567 16.4561 12.1275 16.7797L17.5352 19.9019V34.94L8.36953 40.2317C7.48062 39.3641 6.26672 38.828 4.92922 38.828C2.21125 38.8281 0 41.0394 0 43.7575C0 46.4756 2.21125 48.6869 4.92938 48.6869C7.6475 48.6869 9.85875 46.4756 9.85875 43.7575C9.85875 43.2209 9.77141 42.7047 9.61219 42.2206L18.707 36.9697L31.7305 44.4888V59.5269L24.7969 63.53C23.7006 62.1869 22.0331 61.3275 20.1684 61.3275C16.8748 61.3275 14.1952 64.007 14.1952 67.3008C14.1952 70.5945 16.8747 73.2741 20.1684 73.2741C23.4622 73.2741 26.1417 70.5945 26.1417 67.3008C26.1417 66.7109 26.0544 66.1414 25.8944 65.6028L32.9023 61.5567L45.9258 69.0758V72.8389C44.4714 73.3294 43.4208 74.7055 43.4208 76.3233C43.4208 78.3508 45.0703 80.0002 47.0977 80.0002C49.125 80.0002 50.7745 78.3506 50.7745 76.3233C50.7745 74.7056 49.7239 73.3295 48.2695 72.8389V69.0758L61.4342 61.4752L66.8077 64.5775C66.9922 64.6841 67.1937 64.7347 67.3925 64.7347C67.7975 64.7347 68.1914 64.5244 68.4084 64.1486C68.732 63.588 68.54 62.8713 67.9794 62.5477ZM59.8316 8.49875C61.8328 8.49875 63.4611 10.1269 63.4611 12.1283C63.4611 14.1297 61.833 15.7578 59.8316 15.7578C57.8302 15.7578 56.202 14.1297 56.202 12.1283C56.202 10.1269 57.8303 8.49875 59.8316 8.49875ZM20.1684 70.9302C18.1672 70.9302 16.5389 69.302 16.5389 67.3006C16.5389 65.2992 18.167 63.6711 20.1684 63.6711C22.1698 63.6711 23.798 65.2992 23.798 67.3006C23.798 69.302 22.1697 70.9302 20.1684 70.9302ZM75.0706 33.0856C76.4964 33.0856 77.6562 34.2455 77.6562 35.6712C77.6562 37.097 76.4964 38.2569 75.0706 38.2569C73.6448 38.2569 72.485 37.097 72.485 35.6712C72.485 34.2455 73.6448 33.0856 75.0706 33.0856ZM32.9023 2.34375C33.6375 2.34375 34.2355 2.94187 34.2355 3.67687C34.2355 4.41187 33.6373 5.01 32.9023 5.01C32.1673 5.01 31.5692 4.41187 31.5692 3.67687C31.5692 2.94187 32.1673 2.34375 32.9023 2.34375ZM4.92938 46.3433C3.50359 46.3433 2.34375 45.1834 2.34375 43.7577C2.34375 42.3319 3.50359 41.1719 4.92938 41.1719C6.35516 41.1719 7.515 42.3317 7.515 43.7575C7.515 45.1833 6.35516 46.3433 4.92938 46.3433ZM47.0977 77.6562C46.3625 77.6562 45.7645 77.0581 45.7645 76.3231C45.7645 75.5881 46.3627 74.99 47.0977 74.99C47.8327 74.99 48.4308 75.5881 48.4308 76.3231C48.4308 77.0581 47.8327 77.6562 47.0977 77.6562ZM60.1209 59.5269L47.0975 67.0459L34.0741 59.5269V44.4888L41.0467 40.4631C41.6072 40.1395 41.7992 39.4228 41.4756 38.8623C41.152 38.3019 40.4355 38.1098 39.8748 38.4334L32.9022 42.4591L19.8787 34.94V19.9019L32.9022 12.3828L45.9256 19.9019V34.94L44.4241 35.8069C43.8636 36.1305 43.6716 36.8472 43.9952 37.4077C44.3187 37.9683 45.0355 38.1603 45.5959 37.8366L47.0975 36.9697L60.1209 44.4888V59.5269Z" fill="#3C3C3B"/>
<path d="M75.071 63.2518C72.3529 63.2518 70.1416 65.4631 70.1416 68.1812C70.1416 70.8993 72.3529 73.1106 75.071 73.1106C77.7891 73.1106 80.0004 70.8993 80.0004 68.1812C80.0004 65.4631 77.7891 63.2518 75.071 63.2518ZM75.071 70.767C73.6452 70.767 72.4854 69.6071 72.4854 68.1814C72.4854 66.7556 73.6452 65.5957 75.071 65.5957C76.4968 65.5957 77.6566 66.7554 77.6566 68.1812C77.6566 69.607 76.4968 70.767 75.071 70.767Z" fill="#3C3C3B"/>
<path d="M4.92938 16.0139C7.6475 16.0139 9.85875 13.8027 9.85875 11.0846C9.85875 8.36644 7.6475 6.15503 4.92938 6.15503C2.21125 6.15503 0 8.36628 0 11.0844C0 13.8025 2.21125 16.0139 4.92938 16.0139ZM4.92938 8.49878C6.35516 8.49878 7.515 9.65862 7.515 11.0844C7.515 12.5102 6.35516 13.67 4.92938 13.67C3.50359 13.67 2.34375 12.5102 2.34375 11.0844C2.34375 9.65862 3.50359 8.49878 4.92938 8.49878Z" fill="#3C3C3B"/>
</g>
</g>
<defs>
<clipPath id="clip0_1779_50289">
<rect width="80" height="80" fill="white"/>
</clipPath>
<clipPath id="clip1_1779_50289">
<rect width="80" height="80" fill="white"/>
</clipPath>
</defs>
</svg>
