<svg width="80" height="80" viewBox="0 0 80 80" fill="none" xmlns="http://www.w3.org/2000/svg">
<g clip-path="url(#clip0_1779_50121)">
<g clip-path="url(#clip1_1779_50121)">
<path d="M68.2842 11.7156C60.7292 4.16078 50.6844 0 40 0C29.3156 0 19.2708 4.16078 11.7158 11.7156C4.16063 19.2708 0 29.3156 0 40C0 50.6844 4.16063 60.7292 11.7158 68.2844C19.2708 75.8392 29.3156 80 40 80C50.6844 80 60.7292 75.8392 68.2842 68.2844C75.8394 60.7292 80 50.6844 80 40C80 29.3156 75.8394 19.2708 68.2842 11.7156ZM66.0745 66.0745C59.1098 73.0394 49.8497 76.875 40 76.875C30.1503 76.875 20.8902 73.0394 13.9255 66.0745C6.96063 59.1098 3.125 49.8497 3.125 40C3.125 30.1503 6.96063 20.8902 13.9255 13.9255C20.8903 6.96078 30.1503 3.125 40 3.125C49.8497 3.125 59.1097 6.96078 66.0745 13.9255C73.0394 20.8902 76.875 30.1503 76.875 40C76.875 49.8497 73.0394 59.1098 66.0745 66.0745Z" fill="#3C3C3B"/>
<path d="M65.834 19.2655C65.5559 18.9199 65.1438 18.7088 64.7009 18.6847C64.2582 18.661 63.8254 18.8263 63.5118 19.1401L53.7282 28.9236C53.6393 28.8851 53.5476 28.8515 53.4509 28.8296C51.8404 28.4668 50.212 28.433 48.6465 28.7019L60.8602 16.4883C61.174 16.1746 61.3395 15.7422 61.3156 15.2993C61.2917 14.8561 61.0806 14.4441 60.7348 14.1661C49.7167 5.30162 34.2812 4.42162 22.3256 11.9761C21.596 12.4371 21.3784 13.4022 21.8393 14.1318C22.3002 14.8613 23.2656 15.0788 23.9948 14.618C34.326 8.08943 47.5273 8.51693 57.3834 15.5457L46.5454 26.3835C46.3452 22.3922 44.2437 18.7771 40.8351 16.6219C40.3249 16.2994 39.6751 16.2994 39.1651 16.6219C35.5787 18.8897 33.4376 22.7733 33.4376 27.011C33.4376 27.8007 33.5121 28.5782 33.6563 29.3351C31.4304 28.4805 28.9693 28.2846 26.5493 28.8296C25.9607 28.9622 25.501 29.4219 25.3684 30.0107C24.5348 33.711 25.4323 37.5071 27.7723 40.4113C27.3643 40.4615 26.9562 40.5315 26.5493 40.623C25.9607 40.7557 25.501 41.2154 25.3684 41.8041C24.936 43.7232 24.9698 45.6679 25.4281 47.5008L15.5456 57.3835C8.51806 47.5286 8.08993 34.3288 14.6159 23.9982C15.0767 23.2686 14.8588 22.3035 14.1293 21.8427C13.3999 21.3818 12.4348 21.5996 11.9738 22.3291C4.42181 34.284 5.3029 49.7179 14.166 60.7347C14.4442 61.0804 14.8562 61.2915 15.2992 61.3155C15.3273 61.3171 15.3554 61.3179 15.3835 61.3179C15.7968 61.3179 16.1945 61.154 16.4884 60.8602L26.7023 50.6461C27.2342 51.5657 27.8898 52.4254 28.6645 53.1999C28.7962 53.3316 28.9312 53.459 29.0677 53.5838L19.1399 63.5116C18.8262 63.8254 18.6607 64.2577 18.6846 64.7007C18.7085 65.1438 18.9196 65.5558 19.2654 65.8338C25.1484 70.5669 32.4523 73.1243 39.9963 73.1241C40.561 73.1241 41.1274 73.1097 41.6943 73.081C49.8951 72.664 57.6118 69.2341 63.4229 63.4229C69.234 57.6118 72.664 49.8949 73.081 41.6943C73.4951 33.5543 70.9213 25.589 65.834 19.2655ZM51.7534 31.7082C52.0631 34.4663 51.1168 37.2061 49.1259 39.1969C47.1348 41.188 44.3949 42.1343 41.6371 41.8244C41.3273 39.0665 42.2735 36.3266 44.2645 34.3357C46.2556 32.3446 48.9949 31.3982 51.7534 31.7082ZM44.2645 46.129C46.2556 44.138 48.9949 43.1918 51.7534 43.5016C52.0631 46.2597 51.1168 48.9996 49.1259 50.9904C47.1348 52.9815 44.3949 53.9279 41.6371 53.6179C41.3274 50.8596 42.2735 48.1199 44.2645 46.129ZM40.0001 19.8579C42.1693 21.589 43.4376 24.1954 43.4376 27.011C43.4376 29.8266 42.1693 32.433 40.0001 34.1641C37.8309 32.433 36.5626 29.8266 36.5626 27.011C36.5626 24.1954 37.8309 21.589 40.0001 19.8579ZM28.2468 31.7082C31.0048 31.3985 33.7446 32.3446 35.7356 34.3357C37.7265 36.3266 38.6727 39.0663 38.3629 41.8244C35.6051 42.1338 32.8651 41.1879 30.8742 39.1969C28.8834 37.206 27.9371 34.4663 28.2468 31.7082ZM28.2468 43.5015C31.0052 43.1915 33.7446 44.1379 35.7357 46.1288C37.7267 48.1197 38.6729 50.8596 38.3631 53.6177C35.6052 53.9274 32.8652 52.9811 30.8743 50.9902C28.8834 48.9994 27.9371 46.2597 28.2468 43.5015ZM69.9601 41.5357C69.5824 48.9619 66.4762 55.9504 61.2132 61.2133C55.9502 66.4763 48.962 69.5826 41.5356 69.9602C34.7481 70.3041 28.097 68.3583 22.617 64.4541L31.6642 55.4071C33.4074 56.3208 35.3457 56.8016 37.3273 56.8016C37.6962 56.8016 38.0665 56.7841 38.4374 56.7507V62.0576C38.4374 62.9204 39.137 63.6201 39.9999 63.6201C40.8629 63.6201 41.5624 62.9204 41.5624 62.0576V56.7507C41.9332 56.7841 42.3037 56.8016 42.6726 56.8016C45.8909 56.8016 48.9979 55.5376 51.3354 53.2001C54.3318 50.2037 55.564 45.9436 54.6315 41.8041C54.4988 41.2154 54.0392 40.7557 53.4506 40.623C53.0437 40.5313 52.6356 40.4615 52.2276 40.4111C54.1173 38.0657 55.0652 35.1388 54.921 32.1501L64.454 22.6171C68.3585 28.0971 70.3052 34.7486 69.9601 41.5357Z" fill="#3C3C3B"/>
<path d="M17.6826 19.2456C18.5456 19.2456 19.2451 18.5461 19.2451 17.6831C19.2451 16.8202 18.5456 16.1206 17.6826 16.1206C16.8197 16.1206 16.1201 16.8202 16.1201 17.6831C16.1201 18.5461 16.8197 19.2456 17.6826 19.2456Z" fill="#3C3C3B"/>
</g>
</g>
<defs>
<clipPath id="clip0_1779_50121">
<rect width="80" height="80" fill="white"/>
</clipPath>
<clipPath id="clip1_1779_50121">
<rect width="80" height="80" fill="white"/>
</clipPath>
</defs>
</svg>
