<svg width="80" height="80" viewBox="0 0 80 80" fill="none" xmlns="http://www.w3.org/2000/svg">
<g clip-path="url(#clip0_1779_49801)">
<g clip-path="url(#clip1_1779_49801)">
<path d="M76.875 50.5129H68.1283C67.2655 50.5129 66.5658 51.2125 66.5658 52.0754C66.5658 52.9384 67.2655 53.6379 68.1283 53.6379H76.875V59.9739C74.0581 60.1451 72.4313 60.9467 70.9777 61.6639C69.4538 62.4158 68.1375 63.0651 65.335 63.0651C62.5325 63.0651 61.2163 62.4158 59.6923 61.6639C58.0547 60.8559 56.1984 59.9401 52.6667 59.9401C49.1353 59.9401 47.2794 60.8559 45.6416 61.6639C44.1177 62.4158 42.8014 63.0651 39.9991 63.0651C37.1967 63.0651 35.8808 62.4158 34.3569 61.6639C32.7194 60.8559 30.8633 59.9401 27.3319 59.9401C23.8005 59.9401 21.9445 60.8559 20.3067 61.6639C18.7828 62.4158 17.4667 63.0651 14.6644 63.0651C11.862 63.0651 10.5461 62.4158 9.02219 61.6639C7.56875 60.9467 5.94187 60.1451 3.12531 59.9739V53.6379H53.8911C54.7539 53.6379 55.4536 52.9384 55.4536 52.0754C55.4536 51.2125 54.7539 50.5129 53.8911 50.5129H3.125C1.40188 50.5129 0 51.9148 0 53.6379V76.582C0 78.3051 1.40188 79.707 3.125 79.707H76.875C78.5981 79.707 80 78.3051 80 76.582V53.6379C80 51.9148 78.5981 50.5129 76.875 50.5129ZM3.125 76.582V63.1059C5.18234 63.2572 6.33641 63.8236 7.63922 64.4664C9.27672 65.2743 11.1328 66.1901 14.6642 66.1901C18.1956 66.1901 20.0517 65.2743 21.6894 64.4664C23.2133 63.7145 24.5294 63.0651 27.3317 63.0651C30.1341 63.0651 31.45 63.7145 32.9739 64.4664C34.6114 65.2743 36.4675 66.1901 39.9989 66.1901C43.5305 66.1901 45.3864 65.2743 47.0242 64.4664C48.5481 63.7145 49.8642 63.0651 52.6666 63.0651C55.4694 63.0651 56.7855 63.7145 58.3094 64.4664C59.947 65.2743 61.8033 66.1901 65.3348 66.1901C68.8664 66.1901 70.7225 65.2743 72.3603 64.4664C73.6631 63.8236 74.8172 63.2572 76.875 63.1059V76.582H3.125Z" fill="#3C3C3B"/>
<path d="M39.9998 46.8345C46.1629 46.8345 51.6823 43.6479 54.7637 38.3106C57.8453 32.9731 57.8451 26.6002 54.7636 21.2629L43.9854 2.59446C43.1537 1.15337 41.6636 0.293213 39.9998 0.293213C38.3361 0.293213 36.8459 1.15337 36.0142 2.59431L25.2361 21.2627C22.1545 26.6001 22.1543 32.9731 25.2359 38.3104C28.3173 43.6479 33.8367 46.8345 39.9998 46.8345ZM27.9423 22.8252L38.7204 4.15681C39.1053 3.49024 39.7432 3.41821 39.9998 3.41821C40.2564 3.41821 40.8943 3.49024 41.2792 4.15681L52.0573 22.8252C54.5739 27.1841 54.574 32.389 52.0575 36.7479C49.5407 41.107 45.0332 43.7095 39.9998 43.7095C34.9664 43.7095 30.4589 41.1071 27.9421 36.7481C25.4256 32.389 25.4257 27.1843 27.9423 22.8252Z" fill="#3C3C3B"/>
<path d="M41.9638 35.6902C42.681 35.9632 43.473 35.6729 43.8558 35.0384H47.5749C47.86 35.5107 48.3718 35.793 48.9114 35.793C49.0947 35.793 49.2811 35.7605 49.4627 35.692C50.2702 35.3873 50.6775 34.4857 50.373 33.6784L47.361 25.6966C47.3555 25.6823 47.3499 25.6679 47.3441 25.6538C47.0736 24.9965 46.44 24.5723 45.7294 24.5723C45.7288 24.5723 45.728 24.5723 45.7274 24.5723C45.016 24.573 44.3825 24.999 44.1133 25.6576C44.1085 25.6693 44.1038 25.6809 44.0994 25.6927L41.0597 33.674C40.7527 34.4802 41.1574 35.383 41.9638 35.6902ZM46.3669 31.9134H45.0743L45.7236 30.2085L46.3669 31.9134Z" fill="#3C3C3B"/>
<path d="M31.7256 35.7923C32.5884 35.7923 33.2881 35.0928 33.2881 34.2298V31.6059H35.7651V34.2298C35.7651 35.0928 36.4648 35.7923 37.3276 35.7923C38.1904 35.7923 38.8901 35.0928 38.8901 34.2298V26.1345C38.8901 25.2716 38.1904 24.572 37.3276 24.572C36.4648 24.572 35.7651 25.2716 35.7651 26.1345V28.4809H33.2881V26.1345C33.2881 25.2716 32.5884 24.572 31.7256 24.572C30.8628 24.572 30.1631 25.2716 30.1631 26.1345V34.2298C30.1631 35.0928 30.8628 35.7923 31.7256 35.7923Z" fill="#3C3C3B"/>
<path d="M60.9971 53.6379C61.86 53.6379 62.5596 52.9384 62.5596 52.0754C62.5596 51.2125 61.86 50.5129 60.9971 50.5129C60.1341 50.5129 59.4346 51.2125 59.4346 52.0754C59.4346 52.9384 60.1341 53.6379 60.9971 53.6379Z" fill="#3C3C3B"/>
<path d="M9.55273 72.3074C10.4157 72.3074 11.1152 71.6078 11.1152 70.7449C11.1152 69.8819 10.4157 69.1824 9.55273 69.1824C8.68979 69.1824 7.99023 69.8819 7.99023 70.7449C7.99023 71.6078 8.68979 72.3074 9.55273 72.3074Z" fill="#3C3C3B"/>
<path d="M21.6768 72.3074C22.5397 72.3074 23.2393 71.6078 23.2393 70.7449C23.2393 69.8819 22.5397 69.1824 21.6768 69.1824C20.8138 69.1824 20.1143 69.8819 20.1143 70.7449C20.1143 71.6078 20.8138 72.3074 21.6768 72.3074Z" fill="#3C3C3B"/>
<path d="M32.6406 72.7855C33.5036 72.7855 34.2031 72.086 34.2031 71.223C34.2031 70.3601 33.5036 69.6605 32.6406 69.6605C31.7777 69.6605 31.0781 70.3601 31.0781 71.223C31.0781 72.086 31.7777 72.7855 32.6406 72.7855Z" fill="#3C3C3B"/>
<path d="M45.8096 73.291C46.6725 73.291 47.3721 72.5915 47.3721 71.7285C47.3721 70.8656 46.6725 70.166 45.8096 70.166C44.9466 70.166 44.2471 70.8656 44.2471 71.7285C44.2471 72.5915 44.9466 73.291 45.8096 73.291Z" fill="#3C3C3B"/>
<path d="M54.7715 70.9973C55.6344 70.9973 56.334 70.2978 56.334 69.4348C56.334 68.5719 55.6344 67.8723 54.7715 67.8723C53.9085 67.8723 53.209 68.5719 53.209 69.4348C53.209 70.2978 53.9085 70.9973 54.7715 70.9973Z" fill="#3C3C3B"/>
<path d="M68.5322 72.7861C69.3952 72.7861 70.0947 72.0866 70.0947 71.2236C70.0947 70.3607 69.3952 69.6611 68.5322 69.6611C67.6693 69.6611 66.9697 70.3607 66.9697 71.2236C66.9697 72.0866 67.6693 72.7861 68.5322 72.7861Z" fill="#3C3C3B"/>
</g>
</g>
<defs>
<clipPath id="clip0_1779_49801">
<rect width="80" height="80" fill="white"/>
</clipPath>
<clipPath id="clip1_1779_49801">
<rect width="80" height="80" fill="white"/>
</clipPath>
</defs>
</svg>
