<svg width="80" height="80" viewBox="0 0 80 80" fill="none" xmlns="http://www.w3.org/2000/svg">
<g clip-path="url(#clip0_1779_50107)">
<g clip-path="url(#clip1_1779_50107)">
<path d="M50.2559 35.2567C49.6766 35.5452 49.4406 36.2486 49.7291 36.828C52.5359 42.467 53.125 45.3592 53.125 46.7925C53.125 54.0297 47.237 59.9175 40 59.9175C32.763 59.9175 26.875 54.0297 26.875 46.7925C26.875 41.7262 33.8423 29.63 39.9997 20.5105C41.4978 22.733 44.4408 27.2134 47.175 32.0459C47.4938 32.6092 48.2084 32.8075 48.772 32.4888C49.3353 32.17 49.5336 31.455 49.2148 30.8917C46.1266 25.4336 42.7798 20.4237 41.4841 18.523C41.1491 18.0317 40.5944 17.7384 40 17.7384C39.4056 17.7384 38.8509 18.0317 38.5158 18.5231C35.2352 23.3356 24.5312 39.5964 24.5312 46.7927C24.5312 55.3222 31.4705 62.2614 40 62.2614C48.5295 62.2614 55.4688 55.3222 55.4688 46.7927C55.4688 44.3077 54.2775 40.7066 51.827 35.7836C51.5387 35.2042 50.8352 34.9686 50.2559 35.2567ZM70.6184 9.03172L65.2305 14.4198L63.4441 12.6334C62.9862 12.1758 62.2444 12.1758 61.7867 12.6334C61.3291 13.0911 61.3291 13.8331 61.7867 14.2906L63.9597 16.4636C64.2992 16.803 64.7505 16.99 65.2305 16.99C65.7103 16.99 66.1616 16.8031 66.5011 16.4636L72.2759 10.6889C72.7336 10.2312 72.7336 9.48922 72.2759 9.03172C71.8183 8.57406 71.0764 8.57406 70.6184 9.03172ZM80 12.9688C80 5.81781 74.1823 0 67.0312 0C63.3205 0 59.9711 1.56906 57.605 4.07562C52.1642 1.4075 46.098 0 40 0C30.5956 0 21.4586 3.32812 14.2717 9.37156C13.7764 9.78813 13.7125 10.5273 14.1291 11.0227C14.5475 11.5202 15.2872 11.58 15.7802 11.1655C22.5453 5.47656 31.1467 2.34375 40 2.34375C45.6597 2.34375 51.077 3.56281 56.1253 5.96453C55.4214 7.05672 54.877 8.26 54.5252 9.54313C50.0139 7.38719 45.0258 6.25 40 6.25C21.3902 6.25 6.25 21.3902 6.25 40C6.25 58.6098 21.3902 73.75 40 73.75C58.6098 73.75 73.75 58.6098 73.75 40C73.75 34.9742 72.613 29.9861 70.4569 25.4748C71.7398 25.123 72.9433 24.5786 74.0355 23.8747C76.4373 28.9228 77.6562 34.3403 77.6562 40C77.6562 60.467 60.5664 77.6562 40 77.6562C19.1102 77.6562 2.34375 60.7322 2.34375 40C2.34375 30.6986 5.76281 21.7678 11.9709 14.853C12.4033 14.3714 12.3634 13.6305 11.8819 13.1981C11.4 12.7655 10.6592 12.8056 10.2269 13.2873C3.63203 20.633 0 30.1197 0 40C0 61.7275 17.94 80 40 80C61.7075 80 80 61.8672 80 40C80 33.9017 78.5925 27.8356 75.9244 22.395C78.4309 20.0288 80 16.6795 80 12.9688ZM71.4062 40C71.4062 57.3175 57.3175 71.4062 40 71.4062C22.6825 71.4062 8.59375 57.3175 8.59375 40C8.59375 22.6825 22.6825 8.59375 40 8.59375C44.8978 8.59375 49.757 9.75219 54.1066 11.9466C54.0802 12.2842 54.0625 12.6244 54.0625 12.9688C54.0625 20.1197 59.8802 25.9375 67.0312 25.9375C67.3756 25.9375 67.7158 25.92 68.0534 25.8934C70.2477 30.243 71.4062 35.1023 71.4062 40ZM67.0312 23.5938C61.1727 23.5938 56.4062 18.8273 56.4062 12.9688C56.4062 7.11016 61.1727 2.34375 67.0312 2.34375C72.8898 2.34375 77.6562 7.11016 77.6562 12.9688C77.6562 18.8273 72.8898 23.5938 67.0312 23.5938Z" fill="#3C3C3B"/>
</g>
</g>
<defs>
<clipPath id="clip0_1779_50107">
<rect width="80" height="80" fill="white"/>
</clipPath>
<clipPath id="clip1_1779_50107">
<rect width="80" height="80" fill="white"/>
</clipPath>
</defs>
</svg>
