<svg width="80" height="80" viewBox="0 0 80 80" fill="none" xmlns="http://www.w3.org/2000/svg">
<g clip-path="url(#clip0_1779_49969)">
<g clip-path="url(#clip1_1779_49969)">
<path d="M50.1416 45.3047C49.4944 45.3047 48.9697 45.8294 48.9697 46.4764C48.9697 47.1236 49.4944 47.6481 50.1416 47.6481C50.7888 47.6481 51.3133 47.1234 51.3133 46.4764C51.3135 45.8292 50.7888 45.3047 50.1416 45.3047Z" fill="#3C3C3B"/>
<path d="M50.1416 52.1473C50.1416 52.7945 50.6663 53.319 51.3133 53.319C51.9605 53.319 52.4852 52.7943 52.4852 52.1473C52.4852 51.5003 51.9605 50.9756 51.3133 50.9756C50.6663 50.9754 50.1416 51.5001 50.1416 52.1473Z" fill="#3C3C3B"/>
<path d="M46.4705 51.7044C46.5346 51.0605 46.0644 50.4866 45.4205 50.4225C44.7765 50.3584 44.2025 50.8284 44.1385 51.4723C44.0744 52.1162 44.5445 52.6901 45.1885 52.7542C45.8324 52.8183 46.4064 52.3482 46.4705 51.7044Z" fill="#3C3C3B"/>
<path d="M74.8508 20.3539C71.5852 14.5731 66.8858 9.64844 61.2605 6.11188C60.7123 5.7675 59.9891 5.93234 59.6447 6.48016C59.3003 7.02797 59.4653 7.75141 60.013 8.09594C65.3102 11.4261 69.7353 16.0634 72.8102 21.5066C75.9806 27.1187 77.6562 33.5137 77.6562 39.9998C77.6562 50.0581 73.7392 59.5145 66.627 66.627C59.5145 73.7394 50.0581 77.6562 39.9998 77.6562C29.9414 77.6562 20.485 73.7394 13.3727 66.627C6.26047 59.5147 2.34359 50.0584 2.34359 40C2.34359 29.9416 6.26047 20.4852 13.3728 13.3728C20.4852 6.26047 29.9416 2.34359 40 2.34359C45.3305 2.34359 50.4813 3.43438 55.3094 5.58547C55.9005 5.84906 56.5931 5.58328 56.8566 4.99203C57.12 4.40078 56.8542 3.70812 56.2633 3.44469C51.1328 1.15891 45.6613 0 40 0C29.3155 0 19.2708 4.16078 11.7158 11.7158C4.16078 19.2706 0 29.3155 0 40C0 50.6844 4.16078 60.7292 11.7158 68.2842C19.2708 75.8392 29.3155 80 40 80C50.6844 80 60.7292 75.8392 68.2844 68.2842C75.8392 60.7292 80 50.6844 80 40C80 33.1108 78.2194 26.3172 74.8508 20.3539Z" fill="#3C3C3B"/>
<path d="M31.5599 23.1335C27.7004 23.1335 24.5605 26.2734 24.5605 30.1329C24.5605 33.9925 27.7004 37.1323 31.5599 37.1323C35.4195 37.1323 38.5593 33.9925 38.5593 30.1329C38.5593 26.2734 35.4195 23.1335 31.5599 23.1335ZM31.5599 34.7889C28.9927 34.7889 26.904 32.7003 26.904 30.1331C26.904 27.5659 28.9926 25.4771 31.5599 25.4771C34.1273 25.4771 36.2159 27.5657 36.2159 30.1331C36.2157 32.7003 34.1271 34.7889 31.5599 34.7889Z" fill="#3C3C3B"/>
<path d="M65.4266 18.5302C65.009 18.0357 64.2699 17.9734 63.7752 18.3909L46.6148 32.8804C45.171 30.8906 44.443 28.7076 43.6607 26.3568C43.619 26.2315 43.5769 26.1057 43.5349 25.9799L46.333 24.0888C46.8693 23.7265 47.0102 22.9981 46.6479 22.462C46.2855 21.9257 45.5571 21.7846 45.021 22.1473L42.7229 23.7004C41.6207 21.3009 39.8065 19.3659 37.5999 18.099L38.7737 15.3821C39.0304 14.7881 38.7569 14.0984 38.1627 13.8416C37.568 13.5846 36.8788 13.8587 36.6223 14.4526L35.4668 17.1271C34.1826 16.6827 32.8155 16.4437 31.4129 16.4437C29.491 16.4437 27.6074 16.8952 25.9096 17.7321L24.6115 15.3034C24.3065 14.7327 23.5963 14.5171 23.0257 14.8223C22.4549 15.1273 22.2394 15.8373 22.5446 16.4081L23.9116 18.9657C23.3393 19.3973 22.7999 19.8768 22.306 20.4071C20.6662 22.1671 19.6126 24.4115 19.1815 27.0145L16.4013 26.3762C15.771 26.2315 15.1419 26.6254 14.9971 27.256C14.8523 27.8866 15.2463 28.5154 15.8769 28.6602L18.964 29.369C18.9523 29.8668 18.9598 30.3745 18.9883 30.8921C19.1379 33.594 19.649 36.3013 20.4835 38.9348L17.6869 40.0907C17.0888 40.3381 16.8044 41.0232 17.0516 41.6213C17.2383 42.0729 17.6749 42.3457 18.1351 42.3457C18.2841 42.3457 18.4358 42.317 18.5823 42.2566L21.2673 41.1468C22.5043 44.2966 24.208 47.3027 26.3146 50.0209L14.7116 59.8179C14.2173 60.2354 14.1549 60.9748 14.5724 61.4693C14.8041 61.7438 15.1351 61.8851 15.4683 61.8851C15.7354 61.8851 16.0038 61.7943 16.2238 61.6087L27.8104 51.8254C28.1418 52.1995 28.481 52.5673 28.8285 52.9274C29.1485 53.259 29.4843 53.5932 29.8268 53.9213C30.294 54.369 31.0358 54.3531 31.4835 53.8857C31.9312 53.4184 31.9151 52.6766 31.4477 52.229C31.1274 51.9221 30.8137 51.6096 30.5149 51.3001C30.2033 50.9773 29.8994 50.6476 29.6018 50.3129C29.6018 50.3129 46.3393 36.1804 46.3633 36.1601C46.306 36.2085 48.7623 38.1327 48.9812 38.279C51.801 40.1623 55.0205 40.8566 56.9991 43.8305C60.143 48.5562 58.7423 55.3373 53.8315 58.2313C47.9865 61.6759 40.6971 59.1712 35.5408 55.5823C35.0096 55.2124 34.2793 55.3438 33.9099 55.8752C33.5404 56.4065 33.6716 57.1368 34.2029 57.5063C34.8905 57.9846 35.5851 58.4281 36.2827 58.8391L34.8801 61.2026C34.5499 61.7591 34.7333 62.4781 35.2898 62.8085C35.4774 62.9198 35.6833 62.9727 35.8868 62.9727C36.2869 62.9727 36.6765 62.7679 36.8957 62.3988L38.3483 59.9512C40.334 60.9202 42.3201 61.6048 44.2304 61.9659C45.2043 62.1499 46.1582 62.2535 47.0907 62.2776L47.0762 65.0765C47.0729 65.7237 47.5948 66.251 48.2418 66.2545H48.248C48.8923 66.2545 49.4163 65.7338 49.4196 65.0888L49.4348 62.1631C51.4129 61.914 53.2805 61.2762 55.021 60.2504C55.7187 59.8393 56.3673 59.3637 56.9616 58.8346L59.1757 60.9349C59.4024 61.1499 59.6924 61.2565 59.9821 61.2565C60.2923 61.2565 60.6021 61.134 60.8324 60.8912C61.2779 60.4215 61.2583 59.6799 60.7888 59.2345L58.5577 57.1181C60.2102 54.969 61.1541 52.302 61.1541 49.5231C61.1541 49.0334 61.1251 48.5485 61.0688 48.0704L64.2955 46.7766C64.8962 46.5359 65.1879 45.8537 64.9469 45.253C64.7062 44.6523 64.0232 44.3606 63.4233 44.6015L60.5655 45.7473C59.6588 42.9091 57.7521 40.4665 55.1894 38.9009L56.5316 36.5026C56.8476 35.9379 56.646 35.2238 56.0812 34.9079C55.5169 34.5921 54.8024 34.7935 54.4865 35.3584L53.0793 37.8731C53.0212 37.8512 52.9638 37.8279 52.9052 37.8068C50.861 36.8306 49.3354 35.7748 48.1562 34.646L65.2866 20.1818C65.7818 19.7641 65.844 19.0248 65.4266 18.5302ZM28.1066 48.5082C24.1055 43.3171 21.6751 37.0198 21.3287 30.7624C21.1888 28.2356 21.5423 24.6651 24.0208 22.0046C25.8944 19.9935 28.6293 18.7874 31.413 18.7874C35.3744 18.7876 38.9887 21.1232 40.6208 24.7377C40.6265 24.7504 40.6326 24.7631 40.6382 24.7759C40.966 25.5102 41.1834 26.3341 41.4373 27.097C42.2551 29.5546 43.0891 32.057 44.8249 34.392L28.1066 48.5082Z" fill="#3C3C3B"/>
</g>
</g>
<defs>
<clipPath id="clip0_1779_49969">
<rect width="80" height="80" fill="white"/>
</clipPath>
<clipPath id="clip1_1779_49969">
<rect width="80" height="80" fill="white"/>
</clipPath>
</defs>
</svg>
