<svg width="80" height="80" viewBox="0 0 80 80" fill="none" xmlns="http://www.w3.org/2000/svg">
<g clip-path="url(#clip0_1491_33016)">
<path d="M11.7113 17.8608C11.8885 17.8608 12.0685 17.8204 12.2375 17.7351C13.6187 17.0387 15.105 16.6857 16.6556 16.6857H33.8142C34.9239 16.6857 35.8268 15.7829 35.8268 14.6731V1.17104C35.8268 0.524156 35.3027 0 34.6558 0C34.0089 0 33.4848 0.524156 33.4848 1.17104V14.3436H16.6556C14.7355 14.3436 12.8944 14.7811 11.1832 15.6436C10.6057 15.9348 10.3735 16.639 10.6647 17.2164C10.8707 17.625 11.2832 17.8608 11.7113 17.8608Z" fill="#3C3C3B"/>
<path d="M25.5731 54.7847H37.0089C37.6558 54.7847 38.18 54.2605 38.18 53.6137C38.18 52.9668 37.6558 52.4426 37.0089 52.4426H25.5731C23.6157 52.4426 22.0234 54.0349 22.0234 55.9923C22.0234 57.9496 23.6157 59.5419 25.5731 59.5419H30.0655C33.2421 59.5419 35.8264 62.1263 35.8264 65.3028V78.8289C35.8264 79.4758 36.3505 79.9999 36.9974 79.9999C37.6443 79.9999 38.1684 79.4758 38.1684 78.8289V65.3028C38.1684 60.8347 34.5335 57.1998 30.0655 57.1998H25.5731C24.9072 57.1998 24.3655 56.658 24.3655 55.9923C24.3655 55.3265 24.9073 54.7847 25.5731 54.7847Z" fill="#3C3C3B"/>
<path d="M22.3057 25.9242C22.3057 26.5711 22.8298 27.0953 23.4767 27.0953H46.4174C51.2765 27.0953 55.769 29.9309 57.8625 34.3195C58.0635 34.7404 58.483 34.9865 58.9202 34.9865C59.0893 34.9865 59.261 34.9498 59.4237 34.8722C60.0074 34.5936 60.2549 33.8946 59.9765 33.311C57.4962 28.1124 52.1739 24.7532 46.4174 24.7532H44.4943C46.3911 23.0618 47.5885 20.6016 47.5885 17.8663V1.17104C47.5885 0.524156 47.0643 0 46.4174 0C45.7706 0 45.2464 0.524156 45.2464 1.17104V17.8663C45.2464 21.6637 42.1569 24.7532 38.3595 24.7532H23.4769C22.8298 24.7532 22.3057 25.2775 22.3057 25.9242Z" fill="#3C3C3B"/>
<path d="M29.5968 62.2626H18.6092C16.5121 62.2626 14.4506 61.7022 12.6476 60.6422C12.0906 60.3148 11.3724 60.5009 11.0445 61.0583C10.7168 61.6157 10.903 62.3335 11.4606 62.6614C13.6231 63.9328 16.0951 64.6047 18.6091 64.6047H29.5967C30.0684 64.6047 30.4523 64.9885 30.4523 65.4602V78.8289C30.4523 79.4758 30.9765 79.9999 31.6233 79.9999C32.2702 79.9999 32.7944 79.4758 32.7944 78.8289V65.4602C32.7945 63.6971 31.3601 62.2626 29.5968 62.2626Z" fill="#3C3C3B"/>
<path d="M18.6088 38.6923H41.3002C41.9471 38.6923 42.4712 38.1681 42.4712 37.5213C42.4712 36.8744 41.9471 36.3502 41.3002 36.3502H16.6557C11.2343 36.3502 6.82352 31.9395 6.82352 26.5179C6.82352 24.3616 7.50927 22.3145 8.80631 20.5978C9.19619 20.0817 9.09392 19.3472 8.57788 18.9574C8.06154 18.5675 7.32737 18.6701 6.9375 19.1858C5.33068 21.3126 4.48145 23.8479 4.48145 26.518C4.48145 31.6778 7.70944 36.0948 12.2509 37.8641C7.64605 40.1948 4.48145 44.9733 4.48145 50.4774C4.48145 53.6068 5.48619 56.5732 7.38671 59.056C7.61732 59.3573 7.9652 59.5153 8.31745 59.5152C8.5657 59.5152 8.81599 59.4365 9.02834 59.2739C9.54188 58.8808 9.63962 58.1458 9.24631 57.6323C7.66135 55.5616 6.82336 53.0874 6.82336 50.4773C6.82352 43.9791 12.1105 38.6923 18.6088 38.6923Z" fill="#3C3C3B"/>
<path d="M58.0025 37.3071C48.3441 37.3071 40.4863 45.1649 40.4863 54.8235C40.4863 64.482 48.344 72.3398 58.0025 72.3398C61.3098 72.3398 64.5316 71.4122 67.3202 69.6572C67.8676 69.3128 68.032 68.5897 67.6876 68.0423C67.343 67.4949 66.6203 67.3306 66.0727 67.6749C63.6583 69.1944 60.8678 69.9976 58.0025 69.9976C49.6355 69.9976 42.8284 63.1905 42.8284 54.8233C42.8284 46.4562 49.6355 39.649 58.0025 39.649C66.3696 39.649 73.177 46.4562 73.177 54.8233C73.177 58.4112 71.9007 61.8931 69.5831 64.6274C69.165 65.1208 69.226 65.8598 69.7193 66.2779C70.2128 66.6961 70.9518 66.635 71.3698 66.1418C74.0454 62.9848 75.5189 58.9652 75.5189 54.8233C75.519 45.1649 67.6612 37.3071 58.0025 37.3071Z" fill="#3C3C3B"/>
<path d="M63.4962 47.2888C63.4962 45.0053 61.6386 43.1477 59.3551 43.1477C57.0716 43.1477 55.2139 45.0053 55.2139 47.2888C55.2139 49.5723 57.0716 51.4301 59.3551 51.4301C61.6386 51.4301 63.4962 49.5723 63.4962 47.2888ZM59.3551 49.0881C58.363 49.0881 57.5559 48.2811 57.5559 47.289C57.5559 46.2969 58.363 45.4899 59.3551 45.4899C60.3472 45.4899 61.1541 46.297 61.1541 47.289C61.1541 48.2811 60.3471 49.0881 59.3551 49.0881Z" fill="#3C3C3B"/>
<path d="M53.249 62.9435C56.328 62.9435 58.8331 60.4386 58.8331 57.3595C58.8331 54.2805 56.328 51.7754 53.249 51.7754C50.17 51.7754 47.665 54.2805 47.665 57.3595C47.665 60.4386 50.17 62.9435 53.249 62.9435ZM53.249 54.1176C55.0366 54.1176 56.4911 55.5719 56.4911 57.3597C56.4911 59.1471 55.0368 60.6016 53.249 60.6016C51.4615 60.6016 50.0071 59.1473 50.0071 57.3597C50.0071 55.5719 51.4615 54.1176 53.249 54.1176Z" fill="#3C3C3B"/>
<path d="M63.6086 53.9261C63.7398 54.4605 64.2182 54.8184 64.745 54.8184C64.8374 54.8184 64.9311 54.8075 65.0249 54.7844C65.6529 54.6303 66.0372 53.9962 65.8832 53.368L65.5058 51.8294C65.3519 51.2015 64.7178 50.8166 64.0895 50.9712C63.4615 51.1253 63.0773 51.7593 63.2312 52.3875L63.6086 53.9261Z" fill="#3C3C3B"/>
<path d="M64.531 60.3612C64.5719 60.3612 64.6132 60.359 64.6549 60.3546L66.5847 60.1517C67.2279 60.0839 67.6944 59.5078 67.6269 58.8646C67.5592 58.2213 66.9843 57.7521 66.3399 57.8224L64.41 58.0254C63.7669 58.0931 63.3004 58.6693 63.3678 59.3124C63.431 59.9142 63.9393 60.3612 64.531 60.3612Z" fill="#3C3C3B"/>
<path d="M59.3551 65.8337C59.6273 65.8337 59.9008 65.7394 60.1224 65.5468L61.4407 64.4022C61.9291 63.9781 61.9812 63.2387 61.5571 62.7503C61.1329 62.2619 60.3933 62.2097 59.9052 62.6338L58.5869 63.7784C58.0985 64.2025 58.0464 64.942 58.4704 65.4304C58.702 65.697 59.0275 65.8337 59.3551 65.8337Z" fill="#3C3C3B"/>
<path d="M50.1376 48.4128C50.2473 48.445 50.358 48.4603 50.4667 48.4603C50.9735 48.4603 51.4407 48.1286 51.5901 47.6177L51.9555 46.3686C52.1371 45.7478 51.7811 45.0975 51.1603 44.9159C50.5387 44.734 49.889 45.0905 49.7076 45.7111L49.3422 46.9602C49.1609 47.5809 49.5169 48.2312 50.1376 48.4128Z" fill="#3C3C3B"/>
</g>
<defs>
<clipPath id="clip0_1491_33016">
<rect width="80" height="80" fill="white"/>
</clipPath>
</defs>
</svg>
