<svg width="80" height="80" viewBox="0 0 80 80" fill="none" xmlns="http://www.w3.org/2000/svg">
<g clip-path="url(#clip0_1779_50138)">
<g clip-path="url(#clip1_1779_50138)">
<path d="M40.0184 75.2783C47.7233 75.2783 55.4553 72.7588 61.8961 67.6449C63.0953 66.6926 63.1895 64.904 62.1092 63.8234L56.0066 57.7209C56.0066 57.7209 28.8843 30.5986 28.8843 30.5985C28.8837 30.5979 28.8831 30.5974 28.8825 30.5968L16.1766 17.8909C15.0941 16.8082 13.3053 16.907 12.355 18.1038C1.22211 32.1254 2.38679 52.2589 15.0639 64.936C21.918 71.79 30.9496 75.2783 40.0184 75.2783ZM54.006 59.0348V60.4529C54.006 61.7884 52.9196 62.8748 51.5841 62.8748H28.4161C27.0765 62.8748 25.9942 61.7801 25.9942 60.4529V43.6937C26.3878 43.7752 26.7903 43.8169 27.1953 43.8169C28.8086 43.8169 30.3493 43.1578 31.4634 42C32.5778 43.158 34.1184 43.8169 35.7317 43.8169C36.6049 43.8169 37.4548 43.6273 38.2338 43.2628L54.006 59.0348ZM36.3824 41.4114C36.1692 41.4506 35.952 41.4731 35.7317 41.4731C34.7032 41.4731 33.7232 41.0297 33.0432 40.2563C32.6428 39.8008 32.0668 39.5397 31.4634 39.5397C30.8601 39.5397 30.2842 39.8009 29.8837 40.2563C29.2036 41.0295 28.2237 41.4731 27.1953 41.4731C26.7842 41.4731 26.3779 41.4011 25.9942 41.2644V40.021C25.9942 37.601 26.7586 35.2194 28.1667 33.1957L36.3824 41.4114ZM14.1907 19.5613C14.2711 19.4599 14.4261 19.4549 14.5192 19.5482L26.4895 31.5185C24.6536 34.0039 23.6506 36.9835 23.6506 40.021V60.4531V60.4535C23.6506 63.0723 25.7811 65.2187 28.4162 65.2187H51.5841C53.9221 65.2187 55.871 63.5257 56.2725 61.3015L60.4519 65.4809C60.5461 65.5751 60.5395 65.7296 60.4386 65.8096C47.3501 76.2016 28.5559 75.1133 16.7214 63.2788C4.88647 51.444 3.79866 32.6496 14.1907 19.5613Z" fill="#3C3C3B"/>
<path d="M63.8236 62.1091C64.9057 63.191 66.6944 63.0935 67.6452 61.896C71.9951 56.4176 74.5905 49.8239 75.1508 42.8278C75.2023 42.1827 74.7212 41.6178 74.0761 41.5661C73.4278 41.5152 72.8661 41.9958 72.8145 42.6406C72.2916 49.1712 69.8692 55.3256 65.8096 60.4384C65.7299 60.5388 65.5756 60.5463 65.481 60.4516L56.3499 51.3206V42.01V40.0208C56.3499 35.6427 54.3205 31.511 50.7821 28.6849C49.1332 27.3679 48.2209 25.1366 48.0585 22.0499C49.6015 21.6012 50.7329 20.1754 50.7329 18.4895C50.7329 16.4448 49.0695 14.7814 47.0248 14.7814H42.7348C42.0875 14.7814 41.5629 15.306 41.5629 15.9532C41.5629 16.6004 42.0875 17.1251 42.7348 17.1251H47.0248C47.7771 17.1251 48.3891 17.7371 48.3891 18.4895C48.3891 19.2418 47.7771 19.854 47.0248 19.854C45.891 19.854 36.1865 19.854 32.9759 19.854C32.2236 19.854 31.6116 19.242 31.6116 18.4895C31.6116 17.7371 32.2236 17.1251 32.9759 17.1251H37.2661C37.9134 17.1251 38.4379 16.6004 38.4379 15.9532C38.4379 15.306 37.9134 14.7814 37.2661 14.7814H32.9759C30.9312 14.7814 29.2678 16.4448 29.2678 18.4895C29.2678 20.1762 30.4002 21.6024 31.9442 22.0505C31.8612 23.6135 31.583 24.9624 31.1133 26.0837L19.5486 14.519C19.4546 14.4249 19.4608 14.2704 19.5619 14.1903C40.2665 -2.24921 70.7369 11.3673 72.8137 37.3591C72.8655 38.0041 73.4281 38.485 74.0753 38.4338C74.7205 38.3822 75.2015 37.8175 75.1501 37.1722C72.9205 9.27247 40.2509 -5.2292 18.1041 12.3551C16.9071 13.3054 16.8083 15.0938 17.891 16.1765L63.8236 62.1091ZM54.0062 48.977L47.7295 42.7003C48.0182 42.4922 48.2885 42.2578 48.5368 42C49.6512 43.158 51.1918 43.8169 52.8051 43.8169C53.2099 43.8169 53.6124 43.7753 54.0062 43.6937V48.977ZM34.2834 22.1979H45.7167C45.9198 25.9721 47.1292 28.7669 49.3195 30.5164C52.298 32.8953 54.0062 36.3596 54.0062 40.0209V41.2644C53.6224 41.4009 53.2162 41.4731 52.8051 41.4731C51.7766 41.4731 50.7966 41.0297 50.1166 40.2563C49.7162 39.8008 49.1402 39.5397 48.5368 39.5397C47.9335 39.5397 47.3576 39.8009 46.9571 40.2563C46.6926 40.5572 46.3804 40.8102 46.0356 41.0064L32.8716 27.8422C33.6892 26.3052 34.1623 24.4144 34.2834 22.1979Z" fill="#3C3C3B"/>
<path d="M40 80C62.108 80 80 62.1099 80 40C80 17.892 62.1099 0 40 0C17.892 0 0 17.8901 0 40C0 62.108 17.8901 80 40 80ZM40 2.34374C60.7638 2.34374 77.6563 19.2363 77.6563 40C77.6563 60.7637 60.7638 77.6563 40 77.6563C19.2362 77.6563 2.34374 60.7637 2.34374 40C2.34374 19.2363 19.2362 2.34374 40 2.34374Z" fill="#3C3C3B"/>
</g>
</g>
<defs>
<clipPath id="clip0_1779_50138">
<rect width="80" height="80" fill="white"/>
</clipPath>
<clipPath id="clip1_1779_50138">
<rect width="80" height="80" fill="white"/>
</clipPath>
</defs>
</svg>
