<svg width="80" height="80" viewBox="0 0 80 80" fill="none" xmlns="http://www.w3.org/2000/svg">
<g clip-path="url(#clip0_1965_106752)">
<path d="M49.9062 37.5938H41.0156C40.5625 35.8906 39.2344 34.5625 37.5312 34.125V22.9688C37.5312 22.2656 36.9687 21.7188 36.2812 21.7188C35.5937 21.7188 35.0312 22.2656 35.0312 22.9688V34.1094C32.9375 34.6719 31.375 36.5625 31.375 38.8438C31.375 41.5469 33.5781 43.7344 36.2812 43.7344C38.5469 43.7344 40.4531 42.1719 41.0156 40.0938H49.9062C50.5937 40.0938 51.1562 39.5313 51.1562 38.8438C51.1562 38.1406 50.5937 37.5938 49.9062 37.5938ZM36.2812 41.25C34.9531 41.25 33.8594 40.1719 33.8594 38.8438C33.8594 37.4531 35.0312 36.4219 36.2812 36.4219C37.5 36.4219 38.7031 37.4063 38.7031 38.8438C38.7031 40.125 37.625 41.25 36.2812 41.25Z" fill="black"/>
<path d="M71.2188 47.5313C72 44.5781 72.4219 41.5156 72.4219 38.3906C72.4219 18.4531 56.2031 2.25 36.2812 2.25C16.3594 2.25 0.15625 18.4688 0.15625 38.3906C0.15625 58.3125 16.3594 74.5156 36.2812 74.5156C41.4375 74.5156 46.4062 73.4375 51.0469 71.3594C53.9688 75.2344 58.6094 77.75 63.8281 77.75C72.6562 77.75 79.8438 70.5625 79.8438 61.7188C79.8438 55.5625 76.3438 50.2188 71.2188 47.5313ZM36.2812 72.0312C17.7344 72.0312 2.65625 56.9375 2.65625 38.4062C2.65625 19.8438 17.75 4.75 36.2812 4.75C54.8438 4.75 69.9375 19.8438 69.9375 38.4062C69.9375 41.1875 69.5781 43.9062 68.9219 46.5625C67.4062 46.0469 65.7812 45.7656 64.1094 45.7344C64.7344 43.3594 65.0781 40.9062 65.0781 38.4219V38.4062V38.3906C65.0781 22.5938 52.2344 9.64062 36.3125 9.625H36.2969H36.2812C20.4062 9.60937 7.5 22.5156 7.5 38.3906C7.5 54.2188 20.3594 67.1562 36.25 67.1562H36.2812H36.3125C40.3594 67.1562 44.3906 66.2812 48.0625 64.625C48.3594 66.2656 48.9062 67.8125 49.6719 69.25C45.4531 71.0781 40.9531 72.0312 36.2812 72.0312ZM47.8125 61.9844C44.6094 63.5469 41.1094 64.4531 37.5312 64.625V61.7344C37.5312 61.0469 36.9688 60.4844 36.2812 60.4844C35.5938 60.4844 35.0312 61.0469 35.0312 61.7344V64.6094C28.7188 64.3125 23 61.7969 18.6094 57.8125L20.6406 55.7812C21.125 55.2969 21.125 54.5 20.6406 54.0156C20.1563 53.5313 19.3594 53.5313 18.875 54.0156L16.8438 56.0469C12.875 51.6563 10.3594 45.9375 10.0625 39.625H12.9531C13.6406 39.625 14.2031 39.0625 14.2031 38.375C14.2031 37.6875 13.6406 37.125 12.9531 37.125H10.0625C10.3594 30.8125 12.875 25.0938 16.875 20.7031L18.9062 22.7344C19.3906 23.2188 20.1875 23.2188 20.6719 22.7344C21.1562 22.25 21.1562 21.4531 20.6719 20.9688L18.6406 18.9375C23.0312 14.9531 28.75 12.4375 35.0625 12.1406V15.0156C35.0625 15.7031 35.625 16.2656 36.3125 16.2656C37 16.2656 37.5625 15.7031 37.5625 15.0156V12.1562C43.875 12.4531 49.5938 14.9688 53.9688 18.9688L51.9375 21C51.4531 21.4844 51.4531 22.2812 51.9375 22.7656C52.4219 23.25 53.2188 23.25 53.7031 22.7656L55.7344 20.7344C59.7188 25.125 62.25 30.8438 62.5469 37.1406H59.6719C58.9844 37.1406 58.4219 37.7031 58.4219 38.3906C58.4219 39.0781 58.9844 39.6406 59.6719 39.6406H62.5625C62.4688 41.7812 62.1094 43.8906 61.4844 45.9062C53.7656 47.0625 47.8281 53.7031 47.8281 61.7344C47.7969 61.8125 47.8125 61.8906 47.8125 61.9844ZM63.8281 75.2656C56.3594 75.2656 50.2969 69.1875 50.2969 61.7344C50.2969 54.2812 56.375 48.2031 63.8281 48.2031C71.2812 48.2031 77.3594 54.2656 77.3594 61.7344C77.3594 69.2031 71.2812 75.2656 63.8281 75.2656Z" fill="black"/>
<path d="M63.8281 53.0312C61.0937 53.0312 58.8594 55.2656 58.8594 58C58.8594 59.4844 59.5312 60.8125 60.5781 61.7344C59.5312 62.6406 58.8594 63.9688 58.8594 65.4688C58.8594 68.2031 61.0937 70.4375 63.8281 70.4375C66.5625 70.4375 68.7969 68.2031 68.7969 65.4688C68.7969 63.9844 68.125 62.6563 67.0781 61.7344C68.125 60.8281 68.7969 59.5 68.7969 58C68.7969 55.2656 66.5625 53.0312 63.8281 53.0312ZM63.8281 67.9375C62.4531 67.9375 61.3437 66.8281 61.3437 65.4531C61.3437 64.0781 62.4531 62.9688 63.8281 62.9688C65.2031 62.9688 66.3125 64.0781 66.3125 65.4531C66.3125 66.8281 65.1875 67.9375 63.8281 67.9375ZM63.8281 60.4844C62.4531 60.4844 61.3437 59.375 61.3437 58C61.3437 56.625 62.4531 55.5156 63.8281 55.5156C65.2031 55.5156 66.3125 56.625 66.3125 58C66.2969 59.375 65.1875 60.4844 63.8281 60.4844Z" fill="black"/>
</g>
<defs>
<clipPath id="clip0_1965_106752">
<rect width="80" height="80" fill="white"/>
</clipPath>
</defs>
</svg>
