<svg width="80" height="80" viewBox="0 0 80 80" fill="none" xmlns="http://www.w3.org/2000/svg">
<g clip-path="url(#clip0_1961_65544)">
<path d="M3.75001 71.25C3.41849 71.25 3.10055 71.3817 2.86613 71.6161C2.63171 71.8505 2.50001 72.1685 2.50001 72.5C2.502 74.157 3.16112 75.7455 4.33279 76.9172C5.50446 78.0889 7.09302 78.748 8.75001 78.75H66.25C67.907 78.748 69.4956 78.0889 70.6672 76.9172C71.8389 75.7455 72.498 74.157 72.5 72.5V53.4637C74.3136 52.8733 75.8944 51.725 77.0168 50.1829C78.1391 48.6408 78.7457 46.7835 78.75 44.8762C78.7506 42.5134 77.9216 40.2254 76.4077 38.4113C74.8938 36.5973 72.791 35.3722 70.4663 34.95C66.0727 34.1526 61.6166 33.751 57.1513 33.75H52.7038C55.5023 31.1633 57.4455 27.7848 58.2742 24.0652C59.1029 20.3456 58.7776 16.4617 57.3418 12.9317C55.906 9.40173 53.428 6.39348 50.2383 4.3083C47.0485 2.22312 43.2988 1.16016 39.4893 1.26123C35.6799 1.3623 31.9918 2.6226 28.9171 4.87398C25.8425 7.12537 23.5274 10.2608 22.2808 13.8619C21.0342 17.4631 20.9154 21.3588 21.9402 25.0292C22.9649 28.6997 25.0845 31.9704 28.0163 34.405C26.8475 34.56 25.6838 34.7412 24.5325 34.95C22.5892 35.3016 20.7931 36.2196 19.3698 37.5887C17.9465 38.9577 16.9594 40.7168 16.5325 42.645C15.7898 42.8442 15.1259 43.266 14.63 43.8537C13.9504 43.7 13.2417 43.7352 12.5806 43.9556C11.9196 44.1759 11.3315 44.573 10.88 45.1037C9.94981 44.8798 8.96918 45.0199 8.13889 45.4954C7.3086 45.9708 6.69145 46.7456 6.41376 47.6612C5.69213 47.8814 5.05345 48.3137 4.58083 48.9018C4.10821 49.4899 3.8235 50.2066 3.76376 50.9587C3.36799 51.3084 3.05075 51.7379 2.83293 52.219C2.61511 52.7001 2.50165 53.2219 2.50001 53.75C2.16849 53.75 1.85055 53.8817 1.61613 54.1161C1.38171 54.3505 1.25001 54.6685 1.25001 55V55.9862C1.24494 61.3359 2.62837 66.5952 5.26501 71.25H3.75001ZM8.75001 76.25C7.97467 76.249 7.21861 76.0083 6.5855 75.5607C5.95239 75.1131 5.47324 74.4806 5.21376 73.75H32.2863C32.0268 74.4806 31.5476 75.1131 30.9145 75.5607C30.2814 76.0083 29.5254 76.249 28.75 76.25H8.75001ZM66.25 76.25H56.2175C57.0448 75.1745 57.4954 73.8568 57.5 72.5V53.75H70V72.5C70 73.4945 69.6049 74.4484 68.9017 75.1516C68.1984 75.8549 67.2446 76.25 66.25 76.25ZM76.25 44.875C76.2461 46.367 75.7321 47.8128 74.7933 48.9724C73.8545 50.132 72.5473 50.9357 71.0888 51.25H61.1038C62.7959 49.5597 63.7478 47.2667 63.75 44.875C63.7501 43.1531 63.309 41.4599 62.4687 39.957C61.6284 38.4541 60.417 37.1916 58.95 36.29C62.6633 36.377 66.3644 36.751 70.02 37.4087C71.7686 37.7262 73.3502 38.6476 74.4889 40.0122C75.6275 41.3767 76.2508 43.0978 76.25 44.875ZM23.75 20C23.75 16.786 24.7031 13.6443 26.4886 10.972C28.2742 8.29966 30.8121 6.21686 33.7814 4.98694C36.7507 3.75701 40.018 3.43521 43.1702 4.06222C46.3224 4.68923 49.2179 6.23689 51.4905 8.50949C53.7631 10.7821 55.3108 13.6776 55.9378 16.8298C56.5648 19.982 56.243 23.2493 55.0131 26.2186C53.7831 29.1879 51.7003 31.7258 49.028 33.5114C46.3557 35.2969 43.214 36.25 40 36.25C35.6918 36.245 31.5614 34.5314 28.515 31.485C25.4686 28.4386 23.755 24.3082 23.75 20ZM24.98 37.41C27.0388 37.035 29.14 36.755 31.23 36.5625C33.9291 37.9992 36.9399 38.7507 39.9975 38.7507C43.0552 38.7507 46.066 37.9992 48.765 36.5625C50.8575 36.7562 52.9588 37.0375 55.015 37.4112C56.7641 37.7276 58.3466 38.6482 59.4861 40.0123C60.6257 41.3765 61.25 43.0975 61.25 44.875C61.2464 46.3832 60.7218 47.8438 59.7652 49.0098C58.8085 50.1758 57.4785 50.9755 56 51.2737C55.7175 51.3314 55.4635 51.485 55.2813 51.7085C55.099 51.932 54.9997 52.2116 55 52.5V72.5C55 73.4945 54.6049 74.4484 53.9017 75.1516C53.1984 75.8549 52.2446 76.25 51.25 76.25H33.7175C34.5448 75.1745 34.9954 73.8568 35 72.5C35 72.1685 34.8683 71.8505 34.6339 71.6161C34.3995 71.3817 34.0815 71.25 33.75 71.25H32.235C34.8717 66.5952 36.2551 61.3359 36.25 55.9862V55C36.25 54.6685 36.1183 54.3505 35.8839 54.1161C35.6495 53.8817 35.3315 53.75 35 53.75C34.9987 53.2221 34.8856 52.7004 34.6682 52.2193C34.4509 51.7382 34.1341 51.3086 33.7388 50.9587C33.679 50.2066 33.3943 49.4899 32.9217 48.9018C32.4491 48.3137 31.8104 47.8814 31.0888 47.6612C30.8111 46.7462 30.1943 45.9718 29.3646 45.4964C28.5349 45.021 27.5549 44.8805 26.625 45.1037C26.1738 44.5726 25.5857 44.1753 24.9246 43.955C24.2635 43.7346 23.5546 43.6996 22.875 43.8537C22.4207 43.3192 21.8267 42.9216 21.1594 42.7053C20.4921 42.4889 19.7778 42.4624 19.0963 42.6287C19.5032 41.3024 20.2675 40.1138 21.3054 39.1932C22.3433 38.2726 23.6146 37.6557 24.98 37.41ZM3.75001 56.25H33.75C33.7425 57.0887 33.6863 57.9212 33.6063 58.75H3.89501C3.81501 57.9212 3.75876 57.0887 3.75001 56.25ZM5.64501 52.6675C5.86184 52.5451 6.03717 52.3607 6.14852 52.138C6.25988 51.9153 6.30218 51.6644 6.27001 51.4175L6.25001 51.25C6.25001 50.9185 6.38171 50.6005 6.61613 50.3661C6.85055 50.1317 7.16849 50 7.50001 50C7.83153 50 8.14948 49.8683 8.3839 49.6339C8.61832 49.3994 8.75001 49.0815 8.75001 48.75C8.75001 48.4185 8.88171 48.1005 9.11613 47.8661C9.35055 47.6317 9.66849 47.5 10 47.5C10.2491 47.4993 10.4927 47.5738 10.6988 47.7137C10.8573 47.8199 11.038 47.8883 11.2271 47.9138C11.4161 47.9393 11.6085 47.9212 11.7895 47.8609C11.9705 47.8006 12.1352 47.6996 12.2712 47.5658C12.4071 47.4319 12.5106 47.2688 12.5738 47.0887C12.6416 46.9124 12.7476 46.7532 12.8841 46.6227C13.0207 46.4921 13.1845 46.3935 13.3638 46.3337C13.543 46.274 13.7332 46.2546 13.9208 46.2771C14.1084 46.2996 14.2887 46.3633 14.4488 46.4637C14.6073 46.5699 14.788 46.6383 14.9771 46.6638C15.1661 46.6893 15.3585 46.6712 15.5395 46.6109C15.7205 46.5506 15.8852 46.4496 16.0212 46.3158C16.1571 46.1819 16.2606 46.0188 16.3238 45.8387C16.3838 45.6662 16.4813 45.5091 16.6092 45.3787C16.7371 45.2482 16.8922 45.1477 17.0635 45.0842C17.2348 45.0208 17.4181 44.996 17.6001 45.0117C17.7821 45.0274 17.9583 45.0832 18.1163 45.175C18.3072 45.2861 18.5241 45.3446 18.745 45.3446C18.9659 45.3446 19.1828 45.2861 19.3738 45.175C19.5316 45.0829 19.7079 45.027 19.89 45.0112C20.0721 44.9954 20.2554 45.0201 20.4268 45.0836C20.5981 45.147 20.7533 45.2477 20.8812 45.3782C21.009 45.5088 21.1064 45.6661 21.1663 45.8387C21.2294 46.0188 21.3329 46.1819 21.4688 46.3158C21.6048 46.4496 21.7696 46.5506 21.9505 46.6109C22.1315 46.6712 22.3239 46.6893 22.513 46.6638C22.702 46.6383 22.8827 46.5699 23.0413 46.4637C23.2013 46.3633 23.3816 46.2996 23.5692 46.2771C23.7568 46.2546 23.947 46.274 24.1263 46.3337C24.3055 46.3935 24.4693 46.4921 24.6059 46.6227C24.7425 46.7532 24.8485 46.9124 24.9163 47.0887C24.9794 47.2688 25.0829 47.4319 25.2188 47.5658C25.3548 47.6996 25.5196 47.8006 25.7005 47.8609C25.8815 47.9212 26.0739 47.9393 26.263 47.9138C26.452 47.8883 26.6327 47.8199 26.7913 47.7137C27.0002 47.5718 27.2475 47.4972 27.5 47.5C27.8315 47.5 28.1495 47.6317 28.3839 47.8661C28.6183 48.1005 28.75 48.4185 28.75 48.75C28.75 49.0815 28.8817 49.3994 29.1161 49.6339C29.3505 49.8683 29.6685 50 30 50C30.3302 50 30.6471 50.1306 30.8813 50.3634C31.1155 50.5962 31.248 50.9123 31.25 51.2425L31.2275 51.4187C31.1953 51.6656 31.2377 51.9165 31.349 52.1392C31.4604 52.3619 31.6357 52.5463 31.8525 52.6687C32.0477 52.7741 32.2108 52.9302 32.3247 53.1204C32.4387 53.3107 32.4992 53.5282 32.5 53.75H5.00001C5.00044 53.5281 5.0607 53.3105 5.17443 53.1199C5.28816 52.9294 5.45116 52.7731 5.64626 52.6675H5.64501ZM4.25001 61.25H33.25C32.5843 64.8039 31.2462 68.198 29.3075 71.25H8.19751C6.25709 68.1983 4.91726 64.8042 4.25001 61.25Z" fill="#3C3C3B"/>
<path d="M38.9285 33.1438C39.0396 33.3286 39.1967 33.4815 39.3844 33.5877C39.5721 33.6938 39.7841 33.7496 39.9998 33.7496C40.2154 33.7496 40.4274 33.6938 40.6151 33.5877C40.8028 33.4815 40.9599 33.3286 41.071 33.1438L48.571 20.6438C48.685 20.4541 48.7465 20.2376 48.7494 20.0164C48.7523 19.7952 48.6964 19.5771 48.5875 19.3846C48.4786 19.192 48.3205 19.0318 48.1294 18.9203C47.9383 18.8088 47.721 18.7501 47.4998 18.75H43.8748L44.9873 7.62502C45.0047 7.45172 44.9857 7.27669 44.9315 7.11116C44.8773 6.94563 44.7892 6.79325 44.6726 6.66379C44.5561 6.53433 44.4139 6.43065 44.2549 6.3594C44.096 6.28814 43.9239 6.25088 43.7498 6.25002H36.2498C36.0745 6.24914 35.9011 6.28511 35.7407 6.35559C35.5802 6.42608 35.4364 6.5295 35.3186 6.65916C35.2007 6.78881 35.1114 6.9418 35.0565 7.1082C35.0016 7.27459 34.9822 7.45067 34.9998 7.62502L36.1248 18.75H32.4998C32.2785 18.7501 32.0612 18.8088 31.8701 18.9203C31.679 19.0318 31.5209 19.192 31.412 19.3846C31.3031 19.5771 31.2472 19.7952 31.2501 20.0164C31.253 20.2376 31.3146 20.4541 31.4285 20.6438L38.9285 33.1438ZM37.4998 21.25C37.675 21.2509 37.8484 21.2149 38.0089 21.1444C38.1693 21.074 38.3131 20.9705 38.431 20.8409C38.5488 20.7112 38.6381 20.5582 38.693 20.3918C38.748 20.2254 38.7673 20.0494 38.7498 19.875L37.631 8.75002H42.3748L41.2623 19.875C41.2448 20.0483 41.2638 20.2233 41.318 20.3889C41.3722 20.5544 41.4604 20.7068 41.5769 20.8362C41.6934 20.9657 41.8357 21.0694 41.9946 21.1406C42.1535 21.2119 42.3256 21.2491 42.4998 21.25H45.2923L39.9998 30.07L34.7073 21.25H37.4998Z" fill="#3C3C3B"/>
</g>
<defs>
<clipPath id="clip0_1961_65544">
<rect width="80" height="80" fill="white"/>
</clipPath>
</defs>
</svg>
