<svg width="80" height="80" viewBox="0 0 80 80" fill="none" xmlns="http://www.w3.org/2000/svg">
<g clip-path="url(#clip0_1803_106633)">
<path d="M74.5967 37.1979H68.7703C68.3982 37.1979 68.0413 37.3457 67.7781 37.6088C67.515 37.872 67.3672 38.2288 67.3672 38.601C67.3672 38.9731 67.515 39.33 67.7781 39.5931C68.0413 39.8562 68.3982 40.004 68.7703 40.004H74.5967C74.9688 40.004 75.3257 39.8562 75.5888 39.5931C75.8519 39.33 75.9998 38.9731 75.9998 38.601C75.9998 38.2288 75.8519 37.872 75.5888 37.6088C75.3257 37.3457 74.9688 37.1979 74.5967 37.1979Z" fill="#3C3C3B"/>
<path d="M11.4725 37.2396H5.64527C5.27315 37.2396 4.91627 37.3875 4.65314 37.6506C4.39001 37.9137 4.24219 38.2706 4.24219 38.6427C4.24219 39.0148 4.39001 39.3717 4.65314 39.6348C4.91627 39.898 5.27315 40.0458 5.64527 40.0458H11.4725C11.8446 40.0458 12.2015 39.898 12.4646 39.6348C12.7277 39.3717 12.8756 39.0148 12.8756 38.6427C12.8756 38.2706 12.7277 37.9137 12.4646 37.6506C12.2015 37.3875 11.8446 37.2396 11.4725 37.2396Z" fill="#3C3C3B"/>
<path d="M63.4937 13.2372L59.3735 17.3575C59.2395 17.4869 59.1326 17.6418 59.0591 17.813C58.9856 17.9841 58.9469 18.1683 58.9454 18.3546C58.9438 18.5409 58.9793 18.7256 59.0499 18.898C59.1205 19.0705 59.2247 19.2271 59.3565 19.3588C59.4882 19.4905 59.6449 19.5947 59.8174 19.6652C59.9898 19.7357 60.1746 19.7712 60.3609 19.7695C60.5472 19.7679 60.7313 19.7291 60.9024 19.6555C61.0736 19.582 61.2284 19.4751 61.3578 19.341L65.4773 15.2256C65.7329 14.961 65.8744 14.6066 65.8713 14.2387C65.8682 13.8708 65.7207 13.5189 65.4606 13.2587C65.2005 12.9985 64.8486 12.8509 64.4807 12.8476C64.1128 12.8443 63.7584 12.9857 63.4937 13.2412V13.2372Z" fill="#3C3C3B"/>
<path d="M40.1013 11.3771C40.4734 11.3771 40.8303 11.2293 41.0935 10.9662C41.3566 10.703 41.5044 10.3461 41.5044 9.97402V4.14601C41.5044 3.77388 41.3566 3.417 41.0935 3.15387C40.8303 2.89075 40.4734 2.74292 40.1013 2.74292C39.7292 2.74292 39.3723 2.89075 39.1092 3.15387C38.8461 3.417 38.6982 3.77388 38.6982 4.14601V9.97322C38.6981 10.1575 38.7344 10.3401 38.8048 10.5104C38.8753 10.6807 38.9786 10.8355 39.1089 10.9659C39.2392 11.0962 39.3939 11.1997 39.5642 11.2702C39.7345 11.3408 39.917 11.3771 40.1013 11.3771Z" fill="#3C3C3B"/>
<path d="M20.8411 19.3706C20.9715 19.2404 21.0749 19.0857 21.1455 18.9154C21.2161 18.7452 21.2524 18.5627 21.2524 18.3784C21.2524 18.1941 21.2161 18.0116 21.1455 17.8414C21.0749 17.6711 20.9715 17.5165 20.8411 17.3862L16.7208 13.266C16.4576 13.0028 16.1006 12.855 15.7284 12.8551C15.3561 12.8552 14.9992 13.0031 14.7361 13.2664C14.4729 13.5296 14.3251 13.8866 14.3252 14.2588C14.3253 14.631 14.4732 14.988 14.7365 15.2511L18.8575 19.3714C18.9877 19.5017 19.1424 19.605 19.3125 19.6755C19.4827 19.746 19.6651 19.7823 19.8493 19.7823C20.0335 19.7823 20.2159 19.746 20.3861 19.6755C20.5562 19.605 20.7109 19.5009 20.8411 19.3706Z" fill="#3C3C3B"/>
<path d="M54.1769 23.3106C52.1353 21.3807 49.7169 19.8936 47.0733 18.9427C44.4298 17.9918 41.6182 17.5976 38.8151 17.7848C34.7799 18.0408 30.9103 19.4836 27.6925 21.9319C24.4747 24.3803 22.0522 27.7249 20.7294 31.5458C19.4066 35.3666 19.2425 39.4931 20.2576 43.4069C21.2728 47.3208 23.4219 50.8473 26.4351 53.5435C28.0411 54.9805 29.2703 56.7895 30.0149 58.8119C29.6705 59.4507 29.524 60.1776 29.5943 60.9C29.6645 61.6224 29.9483 62.3075 30.4094 62.868C29.8677 63.5217 29.5712 64.3441 29.5712 65.1931C29.5712 66.0421 29.8677 66.8645 30.4094 67.5182C29.8716 68.174 29.5763 68.9952 29.5732 69.8433C29.5742 70.8313 29.9672 71.7785 30.6659 72.477C31.3645 73.1755 32.3118 73.5683 33.2998 73.5691H34.864C35.1696 74.6307 35.8117 75.5644 36.6938 76.2295C37.5758 76.8947 38.65 77.2553 39.7547 77.2572H40.4924C41.5971 77.2553 42.6713 76.8947 43.5534 76.2295C44.4354 75.5644 45.0775 74.6307 45.3831 73.5691H46.9474C47.9351 73.5681 48.8821 73.1752 49.5804 72.4766C50.2788 71.7781 50.6715 70.8311 50.6724 69.8433C50.6695 68.9953 50.3744 68.1742 49.8369 67.5182C50.377 66.8646 50.6724 66.0433 50.6724 65.1955C50.6724 64.3477 50.377 63.5264 49.8369 62.8728C50.3754 62.2193 50.6716 61.4 50.6756 60.5533C50.6721 59.9291 50.5114 59.3158 50.2081 58.7702C50.8975 56.8208 52.0724 55.0793 53.622 53.7102C55.7797 51.8266 57.519 49.5119 58.7277 46.9153C59.9365 44.3186 60.588 41.4976 60.6403 38.6338C60.6925 35.7701 60.1444 32.9272 59.0312 30.2881C57.918 27.6491 56.2644 25.2725 54.1769 23.3114V23.3106ZM35.94 44.2214H33.8979C33.3564 44.221 32.8372 44.0057 32.4544 43.6228C32.0715 43.2399 31.8562 42.7208 31.8558 42.1793V41.8121C31.8558 41.2705 32.0709 40.7511 32.4539 40.3681C32.8369 39.9851 33.3563 39.77 33.8979 39.77C34.4395 39.77 34.9589 39.9851 35.3418 40.3681C35.7248 40.7511 35.94 41.2705 35.94 41.8121V44.2214ZM38.7461 47.0275H41.5066V56.8251H38.7461V47.0275ZM37.343 59.6313H46.9474C47.0919 59.631 47.2344 59.6656 47.3627 59.7323C47.4624 59.7824 47.5525 59.8497 47.6289 59.9311C47.787 60.1033 47.8731 60.3297 47.8692 60.5635C47.8653 60.7973 47.7718 61.0206 47.608 61.1875C47.4328 61.3635 47.1957 61.4642 46.9474 61.4681H33.2981C33.0556 61.4679 32.823 61.3714 32.6515 61.1999C32.48 61.0284 32.3835 60.7959 32.3833 60.5533C32.3783 60.3319 32.4567 60.1166 32.603 59.9504C32.6231 59.9295 32.6407 59.9079 32.6583 59.8862L32.664 59.879C32.7299 59.8206 32.8032 59.771 32.882 59.7315C33.0094 59.6652 33.1514 59.6318 33.2949 59.6345L37.343 59.6313ZM46.9474 66.1151H33.2973C33.0534 66.1151 32.8195 66.0182 32.6471 65.8458C32.4746 65.6733 32.3777 65.4394 32.3777 65.1955C32.3777 64.9516 32.4746 64.7177 32.6471 64.5452C32.8195 64.3728 33.0534 64.2759 33.2973 64.2759H46.9474C47.1913 64.2759 47.4252 64.3728 47.5976 64.5452C47.7701 64.7177 47.867 64.9516 47.867 65.1955C47.867 65.4394 47.7701 65.6733 47.5976 65.8458C47.4252 66.0182 47.1913 66.1151 46.9474 66.1151ZM40.4908 74.4535H39.7531C39.405 74.4537 39.0614 74.3744 38.7486 74.2215C38.4358 74.0687 38.1621 73.8464 37.9484 73.5715H42.2955C42.0816 73.846 41.8078 74.0679 41.495 74.2204C41.1822 74.3728 40.8387 74.4517 40.4908 74.4511V74.4535ZM46.9474 70.7654H33.2973C33.0534 70.7654 32.8195 70.6685 32.6471 70.496C32.4746 70.3235 32.3777 70.0896 32.3777 69.8457C32.3777 69.6018 32.4746 69.3679 32.6471 69.1955C32.8195 69.023 33.0534 68.9261 33.2973 68.9261H46.9474C47.1913 68.9261 47.4252 69.023 47.5976 69.1955C47.7701 69.3679 47.867 69.6018 47.867 69.8457C47.867 70.0896 47.7701 70.3235 47.5976 70.496C47.4252 70.6685 47.1913 70.7654 46.9474 70.7654ZM51.7748 51.6032C50.1018 53.0773 48.7813 54.9085 47.9111 56.9614C47.5975 56.8756 47.274 56.8317 46.949 56.8307H44.3128V47.0275H46.3557C47.641 47.0261 48.8734 46.5148 49.7823 45.6059C50.6912 44.697 51.2024 43.4647 51.2039 42.1793V41.8121C51.1875 40.5369 50.6695 39.3196 49.762 38.4237C48.8544 37.5277 47.6305 37.0254 46.3553 37.0254C45.08 37.0254 43.8561 37.5277 42.9486 38.4237C42.0411 39.3196 41.523 40.5369 41.5066 41.8121V44.2174H38.7461V41.8121C38.7461 40.5262 38.2353 39.2931 37.3261 38.3838C36.4169 37.4746 35.1837 36.9638 33.8979 36.9638C32.612 36.9638 31.3789 37.4746 30.4696 38.3838C29.5604 39.2931 29.0496 40.5262 29.0496 41.8121V42.1793C29.0511 43.4647 29.5624 44.697 30.4713 45.6059C31.3802 46.5148 32.6125 47.0261 33.8979 47.0275H35.94V56.8251H33.2941C32.9541 56.8257 32.6158 56.8732 32.2887 56.9662C31.37 54.8643 30.0106 52.9843 28.3024 51.4533C25.6216 49.0543 23.7345 45.8962 22.892 42.3988C22.0495 38.9014 22.2915 35.2303 23.5859 31.8738C24.8803 28.5173 27.1657 25.6343 30.1383 23.6081C33.1109 21.5819 36.6298 20.5085 40.2272 20.5306C43.8246 20.5527 47.33 21.6693 50.2774 23.7319C53.2249 25.7945 55.4746 28.7054 56.7276 32.0776C57.9807 35.4498 58.1775 39.1235 57.2921 42.6103C56.4067 46.0971 54.4809 49.2318 51.7708 51.5976L51.7748 51.6032ZM44.3128 44.227V41.8217C44.3234 41.287 44.5432 40.7778 44.9251 40.4034C45.307 40.029 45.8205 39.8193 46.3553 39.8193C46.8901 39.8193 47.4035 40.029 47.7854 40.4034C48.1673 40.7778 48.3872 41.287 48.3978 41.8217V42.1889C48.3971 42.7303 48.1818 43.2494 47.7989 43.6322C47.4161 44.015 46.8971 44.2304 46.3557 44.231L44.3128 44.227Z" fill="#3C3C3B"/>
</g>
<defs>
<clipPath id="clip0_1803_106633">
<rect width="80" height="80" fill="white"/>
</clipPath>
</defs>
</svg>
