<svg width="80" height="80" viewBox="0 0 80 80" fill="none" xmlns="http://www.w3.org/2000/svg">
<g clip-path="url(#clip0_1491_33014)">
<path d="M79.1252 33.75C79.0002 33.25 78.6252 32.75 78.0002 32.75C67.3752 31.75 58.2502 34.25 50.8752 40.125C42.8752 36 34.6252 37.5 28.2502 43.625C30.5002 40.125 31.3752 36 32.2502 32C33.5002 26.5 34.6252 21.375 38.7502 17.375L41.0002 16.875C41.0002 17.75 41.2502 18.25 41.6252 18.625C42.7502 19.875 44.6252 19.75 46.3752 19.375C47.8752 20.75 49.7502 21 51.5002 20.25C52.3752 21 53.3752 21.5 54.6252 21.25C55.6252 21.875 57.1252 22.625 58.0002 22.875C60.5002 23.625 62.7502 23.25 62.8752 20.625C63.0002 18.875 62.0002 17.125 60.6252 16.25C61.3752 15.25 61.5002 14 60.8752 12.875L57.5002 6.37503C56.6252 4.25003 55.0002 2.12503 50.1252 2.87503C47.5002 3.25003 47.6252 3.12503 37.3752 3.37503C35.2502 3.37503 33.3752 4.50003 32.3752 6.37503C28.7502 12.5 23.5002 17.125 18.3752 21.625C9.75022 29.25 0.750224 37.25 0.000224091 52.375C-0.124776 54 0.500224 55.625 1.50022 56.875C3.37522 59.125 7.50022 62.875 10.2502 63.5C28.7502 67.5 36.8752 77.625 57.8752 65.5C58.7502 70.25 60.5002 74 63.1252 76.875C63.5002 77.375 64.2502 77.375 64.7502 77.125C84.8752 64.5 79.3752 35 79.1252 33.75ZM60.5002 20.5V20.75C60.2502 20.75 59.6252 20.75 58.8752 20.5C58.5002 20.375 57.8752 20.125 57.2502 19.75C57.3752 19.625 56.6252 20.375 58.7502 18.125C60.0002 18.5 60.5002 19.5 60.5002 20.5ZM64.3752 74.375C62.1252 71.625 60.7502 68 60.1252 63.375C60.0002 62.5 59.0002 62 58.2502 62.5C37.2502 75.25 30.2502 65.25 10.8752 61C8.75022 60.5 5.12522 57.125 3.50022 55.25C2.75022 54.375 2.50022 53.5 2.50022 52.5C3.12522 38.5 11.3752 31.25 20.0002 23.5C25.2502 18.75 30.6252 14 34.5002 7.50003C35.1252 6.50003 36.2502 5.87503 37.3752 5.75003C47.6252 5.37503 47.6252 5.62503 50.3752 5.25003C53.8752 4.75003 54.5002 5.87503 55.0002 7.12503L58.6252 14C58.7502 14.25 58.7502 14.5 58.5002 14.75L57.7502 15.5C57.5002 13.75 56.5002 12.375 56.7502 11.25C56.8752 10.625 56.5002 9.87503 55.8752 9.75003C55.2502 9.62503 54.5002 10 54.3752 10.625C53.6252 13.375 55.8752 14.875 55.5002 18C54.7502 18.875 54.2502 19.125 53.6252 18.625C54.8752 15.5 51.8752 13.375 53.0002 10.875C53.2502 10.25 53.0002 9.50003 52.3752 9.25003C51.7502 9.00003 51.0002 9.25003 50.7502 9.87503C49.2502 13.5 52.3752 16.25 51.2502 17.875C50.1252 18.5 49.2502 18.5 48.3752 17.625C48.7502 15.375 47.0002 13.125 47.8752 12.125C48.3752 11.625 48.3752 10.875 47.8752 10.375C47.3752 9.87503 46.6252 9.87503 46.1252 10.375C44.0002 12.5 45.8752 15.625 45.8752 17C44.6252 17.375 43.8752 17.125 43.7502 17C43.7502 17 43.6252 16.625 44.1252 15.75C44.6252 14.875 43.7502 13.75 42.7502 14L38.7502 14.875L37.1252 12.875C36.7502 12.375 35.8752 12.25 35.3752 12.75C34.8752 13.125 34.7502 14 35.2502 14.5L36.6252 16.125C32.3752 20.5 31.1252 26.125 29.8752 31.5C28.7502 36.625 27.6252 41.5 24.0002 45.125C22.2502 46.75 20.1252 48.125 17.5002 49C16.8752 49.25 16.5002 50 16.7502 50.625C17.0002 51.25 17.7502 51.625 18.3752 51.375C21.2502 50.375 23.5002 49 25.5002 47.25C27.2502 47.125 29.1252 46.5 30.8752 44.875C36.6252 39.375 43.3752 38.625 50.6252 42.75C52.1252 43.625 53.6252 44.625 55.2502 45.875C55.7502 46.25 56.6252 46.25 57.0002 45.625C57.3752 45.125 57.3752 44.25 56.8752 43.875C55.7502 42.875 54.6252 42.125 53.5002 41.375C60.0002 36.5 67.8752 34.375 77.1252 35C77.6252 40.125 80.1252 63.625 64.3752 74.375ZM13.3752 55.75C12.5002 55.625 11.8752 55.25 11.2502 54.875C11.0002 54.75 10.8752 54.5 10.6252 54.375C9.00022 53 8.12522 50.875 8.50022 48.875C8.62522 48.125 8.25022 47.5 7.50022 47.375C6.87522 47.25 6.12522 47.75 6.00022 48.375C5.37522 51.375 6.62522 54.375 9.00022 56.375C9.25022 56.5 9.50022 56.75 9.75022 56.875C10.6252 57.5 11.6252 58 12.7502 58.25H13.0002C13.6252 58.25 14.1252 57.875 14.2502 57.25C14.3752 56.625 14.0002 56 13.3752 55.75ZM68.6252 61.125C65.7502 59.5 63.5002 57 61.6252 53.625C61.2502 53 60.5002 52.75 59.8752 53.125C53.1252 57 46.6252 58 40.6252 56.125C40.0002 55.875 39.2502 56.25 39.0002 56.875C38.7502 57.5 39.1252 58.25 39.7502 58.5C46.1252 60.625 53.0002 59.75 60.0002 56C62.0002 59.125 64.3752 61.625 67.2502 63.375C67.8752 63.75 68.6252 63.5 69.0002 62.875C69.3752 62.25 69.1252 61.5 68.6252 61.125Z" fill="#3C3C3B"/>
</g>
<defs>
<clipPath id="clip0_1491_33014">
<rect width="80" height="80" fill="white"/>
</clipPath>
</defs>
</svg>
