<svg width="80" height="80" viewBox="0 0 80 80" fill="none" xmlns="http://www.w3.org/2000/svg">
<g clip-path="url(#clip0_1491_33773)">
<g clip-path="url(#clip1_1491_33773)">
<path d="M58.8607 15.9854L62.1336 19.2984C62.7555 19.9203 63.5823 20.2628 64.4618 20.2628C65.3413 20.2628 66.1682 19.9203 66.7916 19.2969L73.5275 12.5366C74.1494 11.9147 74.492 11.0879 74.492 10.2083C74.492 9.32884 74.1496 8.50198 73.5277 7.88028C72.9058 7.25826 72.079 6.91577 71.1993 6.91577C70.3198 6.91577 69.493 7.25826 68.8692 7.88215L64.4692 12.3025L63.5222 11.3341C62.9003 10.7122 62.0735 10.3696 61.1938 10.3696C60.3141 10.3696 59.4874 10.7121 58.8657 11.3339C58.2439 11.9558 57.9014 12.7827 57.9014 13.6622C57.9014 14.5417 58.2439 15.3685 58.8607 15.9854ZM60.5232 12.9912C60.7022 12.812 60.9405 12.7133 61.1939 12.7133C61.4475 12.7133 61.6856 12.812 61.8558 12.982L63.624 14.7904C63.8432 15.0146 64.1431 15.1417 64.4567 15.1429C64.7701 15.1418 65.0712 15.0199 65.2924 14.7978L70.5285 9.53742C70.7078 9.35821 70.946 9.25946 71.1995 9.25946C71.4529 9.25946 71.6912 9.35821 71.8705 9.53758C72.0498 9.71679 72.1485 9.95507 72.1485 10.2085C72.1485 10.4619 72.0498 10.7002 71.869 10.881L65.1331 17.6413C64.9538 17.8205 64.7156 17.9192 64.4621 17.9192C64.2087 17.9192 63.9704 17.8205 63.7962 17.6463L60.5233 14.3332C60.3441 14.154 60.2454 13.9158 60.2454 13.6623C60.2454 13.4089 60.3438 13.1705 60.5232 12.9912Z" fill="#3C3C3B"/>
<path d="M42.9253 47.1978C45.1135 47.1978 47.0575 45.806 47.7625 43.7343L48.3831 41.9111C49.3443 41.7731 51.0032 41.4051 52.6577 40.4291C54.924 39.0922 57.5988 36.3554 57.6843 30.8752C58.3622 30.1367 59.7428 28.3719 60.5051 25.6196C62.232 26.4399 64.1613 26.9007 66.1968 26.9007C73.537 26.9007 79.5084 20.9291 79.5084 13.5891C79.5084 6.24916 73.537 0.277588 66.1968 0.277588C60.5015 0.277588 55.6323 3.87375 53.7351 8.91393C51.9992 8.06723 50.2652 7.68224 48.9631 7.68224C48.9499 7.68224 48.9368 7.68224 48.9237 7.6824C47.8195 5.07528 45.2783 3.28079 42.5518 3.28079C42.5303 3.28079 42.5085 3.28079 42.4868 3.28111C41.5278 3.28111 40.6544 3.6525 40.0014 4.25842C39.35 3.6525 38.4796 3.28126 37.5263 3.28126C34.7681 3.25282 32.188 5.05637 31.0759 7.68599C31.0681 7.68599 31.0604 7.68599 31.0526 7.68599C29.0136 7.68599 25.7679 8.60784 23.1295 11.0489C22.6544 11.4884 22.6256 12.2298 23.0651 12.7049C23.5047 13.1801 24.2462 13.2088 24.7212 12.7693C26.7339 10.9072 29.092 10.1933 30.5268 10.0519C30.4142 11.4887 30.5682 13.6971 32.2327 15.1239C32.4538 15.3133 32.7249 15.4061 32.9947 15.4061C33.3249 15.4061 33.6531 15.2672 33.885 14.9969C34.3063 14.5055 34.2494 13.7658 33.758 13.3446C32.3351 12.1249 32.9922 9.32845 33.0135 9.24127C33.5797 7.13913 35.4448 5.62495 37.472 5.62495C37.486 5.62495 37.5002 5.62495 37.5143 5.62511C38.2391 5.62511 38.8288 6.21478 38.8288 6.93961V43.1015C38.8288 44.068 38.0424 44.8544 37.0759 44.8544C35.8912 44.8544 34.8391 44.101 34.4573 42.9795L32.3018 36.019C32.1201 35.3979 31.4696 35.042 30.8481 35.2231C30.2268 35.4048 29.8706 36.0556 30.0521 36.6768L30.8404 39.3725C28.5025 38.7541 24.5799 36.7685 24.6595 30.4099C24.6595 30.4084 24.6593 30.4068 24.6593 30.4051C24.6593 30.4035 24.6596 30.402 24.6596 30.4004C24.6607 30.2678 24.7156 27.4372 26.9233 25.7648C27.8806 26.8075 29.2326 27.4986 30.9618 27.8214C31.0345 27.835 31.1068 27.8416 31.1782 27.8416C31.7315 27.8416 32.2237 27.448 32.3288 26.8846C32.4476 26.2483 32.0282 25.6363 31.392 25.5176C29.8706 25.2335 28.8051 24.5918 28.2255 23.6101C27.1089 21.7195 27.9681 19.0609 27.977 19.0343C28.1817 18.4221 27.8527 17.7592 27.2405 17.5526C26.6272 17.3457 25.9624 17.6746 25.7554 18.2881C25.7112 18.419 24.8082 21.1641 25.7173 23.7436C24.1429 24.8484 23.2965 26.3366 22.8428 27.6275C21.7605 25.7402 20.6379 22.4509 21.7916 17.8012C21.8749 17.4654 21.9736 17.1333 22.085 16.8139C22.2981 16.2028 21.9756 15.5345 21.3646 15.3214C20.7535 15.1083 20.0852 15.4308 19.8721 16.0419C19.7369 16.4292 19.6174 16.8312 19.5169 17.2367C17.6028 24.951 21.0946 29.5534 22.3167 30.8776C22.403 36.3564 25.0773 39.0927 27.3433 40.4294C28.998 41.4054 30.6567 41.7734 31.6179 41.9114L32.2385 43.7346C32.9436 45.8061 34.8875 47.1981 37.0757 47.1981C38.2204 47.1981 39.2564 46.7256 40.0005 45.9661C40.7445 46.7253 41.7806 47.1978 42.9253 47.1978ZM66.1968 2.62128C72.2447 2.62128 77.1647 7.54147 77.1647 13.5891C77.1647 19.6368 72.2445 24.557 66.1968 24.557C60.1492 24.557 55.229 19.6368 55.229 13.5891C55.229 7.54147 60.1492 2.62128 66.1968 2.62128ZM41.1723 6.93945C41.1723 6.21462 41.762 5.62495 42.499 5.6248C42.5131 5.62464 42.527 5.62464 42.541 5.62464C44.5558 5.62464 46.4208 7.13851 46.9873 9.24002C47.0041 9.30752 47.6714 12.1203 46.2431 13.3444C45.7517 13.7657 45.6949 14.5054 46.1161 14.9967C46.3478 15.2672 46.6761 15.406 47.0064 15.406C47.2764 15.406 47.5475 15.3133 47.7684 15.1238C49.4318 13.698 49.5868 11.4915 49.4745 10.0547C50.4052 10.1486 51.7288 10.4839 53.1005 11.2211C52.9617 11.9903 52.8853 12.7807 52.8853 13.5893C52.8853 18.0206 55.0639 21.9505 58.4039 24.3714C58.1036 25.7329 57.6119 26.8327 57.1316 27.6613C56.4815 25.8651 55.1904 24.0143 52.8945 23.3567C52.9319 23.0062 52.9428 22.6709 52.937 22.3656C52.925 21.7185 52.3889 21.2046 51.7436 21.2158C51.0965 21.2278 50.5816 21.7622 50.5938 22.4092C50.606 23.0678 50.5126 24.2821 49.7498 25.016C49.1821 25.5619 48.2815 25.8033 47.0733 25.7341C46.4255 25.6976 45.8732 26.1907 45.8361 26.8368C45.7989 27.4828 46.2927 28.0369 46.9387 28.0739C47.1189 28.0842 47.295 28.0894 47.468 28.0894C49.1059 28.0894 50.4185 27.6247 51.3746 26.705C51.7258 26.3672 52.0003 25.9941 52.2163 25.6054C55.0265 26.4057 55.3206 30.0829 55.3418 30.4295C55.4129 36.7737 51.4946 38.7555 49.1609 39.3727L49.9493 36.6765C50.1309 36.0553 49.7746 35.4045 49.1534 35.2228C48.5321 35.0408 47.8812 35.3975 47.6997 36.0187L45.5441 42.9792C45.1624 44.1005 44.1101 44.8541 42.9256 44.8541C41.959 44.8541 41.1726 44.0677 41.1726 43.1012V6.93945H41.1723Z" fill="#3C3C3B"/>
<path d="M79.7957 41.9076L77.6707 31.0576C77.4395 29.879 76.6839 28.9093 75.5974 28.3975C74.511 27.8856 73.2826 27.92 72.2262 28.4922C71.2543 29.0253 70.3651 30.1587 70.2795 31.5343L69.4875 43.8116L62.8163 48.529L63.1308 45.9898C63.2694 44.875 62.9238 43.7546 62.1828 42.9159C61.4363 42.0707 60.367 41.5861 59.2492 41.5861C58.9168 41.5861 58.5837 41.6285 58.2594 41.7125C56.9778 42.0434 55.9577 42.9899 55.5307 44.2441L51.2953 56.6764L46.8354 59.8304C43.7771 61.993 41.9512 65.5206 41.9512 69.2668V75.9703C41.9512 78.0395 43.6344 79.7227 45.7036 79.7227H61.5722C62.6175 79.7227 63.6233 79.282 64.3317 78.5132C65.0401 77.7447 65.3974 76.7064 65.3123 75.6646L64.625 67.2579L71.1843 58.957C71.5856 58.4492 71.4992 57.7124 70.9914 57.311C70.4836 56.9097 69.7467 56.9961 69.3453 57.5039L62.4999 66.167C62.316 66.3996 62.2272 66.6934 62.2514 66.989L62.9764 75.8556C63.0089 76.2525 62.8781 76.6322 62.6083 76.925C62.3385 77.2178 61.9705 77.379 61.5724 77.379H45.7037C44.9269 77.379 44.295 76.7472 44.295 75.9703V69.2668C44.295 66.2804 45.7506 63.4681 48.1887 61.7441L52.9571 58.372C53.0864 58.2609 53.2698 58.1361 53.3913 57.7919L57.7492 44.9999C57.9211 44.4953 58.3309 44.1147 58.8456 43.9818C59.4196 43.8338 60.0335 44.0229 60.4265 44.4677C60.7271 44.808 60.8616 45.246 60.8051 45.7014L59.802 53.7979C59.7223 54.4403 60.1785 55.0254 60.8209 55.1049C61.4646 55.1857 62.0483 54.7284 62.1278 54.086L62.4266 51.675L71.2975 45.4022C71.5864 45.1978 71.7676 44.8739 71.7903 44.5208L72.6184 31.6844C72.6882 31.4483 72.6168 31.0527 73.3429 30.5527C73.7361 30.3396 74.1936 30.327 74.5982 30.5176C75.003 30.7084 75.2845 31.0696 75.3706 31.5083L77.4956 42.3579C77.9773 44.8189 77.3615 47.3593 75.8059 49.3279L72.7505 53.1947C72.3493 53.7025 72.4357 54.4393 72.9435 54.8407C73.1587 55.0107 73.4149 55.0932 73.6693 55.0932C74.0154 55.0932 74.3582 54.9404 74.5896 54.6477L77.645 50.781C79.6249 48.2751 80.4089 45.041 79.7957 41.9076Z" fill="#3C3C3B"/>
<path d="M33.1645 59.8303L28.7044 56.6763L24.4692 44.2441C24.0422 42.9898 23.0221 42.0432 21.7407 41.7123C21.4162 41.6284 21.0831 41.5859 20.7507 41.5859C19.6329 41.5859 18.5636 42.0706 17.8171 42.9157C17.0761 43.7544 16.7305 44.875 16.8691 45.9892L17.1838 48.5288L10.5124 43.8115L9.72039 31.5349C9.64461 30.4277 8.98572 29.1468 7.77309 28.4917C6.71749 27.9197 5.48893 27.8855 4.40255 28.3973C3.31602 28.9092 2.56041 29.8788 2.32901 31.0579L0.204064 41.9076C-0.409201 45.0408 0.374685 48.2749 2.35495 50.781L15.3748 67.2576L14.6874 75.6642C14.6023 76.7059 14.9596 77.7443 15.668 78.5129C16.3765 79.2817 17.3822 79.7224 18.4275 79.7224H23.0525C23.6997 79.7224 24.2244 79.1977 24.2244 78.5506C24.2244 77.9034 23.6997 77.3787 23.0525 77.3787H18.4275C18.0294 77.3787 17.6614 77.2175 17.3916 76.9247C17.1218 76.6319 16.9911 76.252 17.0235 75.8553L17.7485 66.9887C17.7727 66.6931 17.6838 66.3993 17.5 66.1667L4.19412 49.328C2.63853 47.3595 2.02261 44.8191 2.50447 42.3581L4.62926 31.5088C4.71536 31.0696 4.99707 30.7084 5.40174 30.5176C5.80611 30.327 6.26375 30.3396 6.6564 30.5524C6.86155 30.6637 7.03717 30.8273 7.16561 31.0283C7.29201 31.2247 7.3667 31.4516 7.38169 31.6852L8.2098 44.5208C8.23261 44.8739 8.4137 45.1978 8.7026 45.4022L17.5735 51.675L17.8722 54.086C17.9517 54.7282 18.5369 55.1846 19.1792 55.1049C19.8215 55.0254 20.2776 54.4403 20.1981 53.7979L19.195 45.7009C19.1384 45.246 19.273 44.808 19.5736 44.4675C19.9667 44.0225 20.5798 43.8332 21.1546 43.9816C21.6691 44.1146 22.0791 44.495 22.2508 44.9999L26.6087 57.7917C26.6776 57.9431 26.7487 58.1613 27.0432 58.372L31.8115 61.744C34.2496 63.4681 35.7052 66.2803 35.7052 69.2666V75.9702C35.7052 76.747 35.0733 77.3789 34.2965 77.3789H28.5373C27.8901 77.3789 27.3654 77.9036 27.3654 78.5507C27.3654 79.1979 27.8901 79.7226 28.5373 79.7226H34.2965C36.3656 79.7226 38.0489 78.0393 38.0489 75.9702V69.2666C38.0486 65.5204 36.2227 61.9929 33.1645 59.8303Z" fill="#3C3C3B"/>
</g>
</g>
<defs>
<clipPath id="clip0_1491_33773">
<rect width="80" height="80" fill="white"/>
</clipPath>
<clipPath id="clip1_1491_33773">
<rect width="80" height="80" fill="white"/>
</clipPath>
</defs>
</svg>
