<svg width="80" height="80" viewBox="0 0 80 80" fill="none" xmlns="http://www.w3.org/2000/svg">
<g clip-path="url(#clip0_1491_33629)">
<path d="M49.6966 69.4602L42.3031 63.8411C41.9925 63.6055 41.1675 62.9797 40.3031 63.4092C39.4473 63.8344 39.4473 64.8316 39.4473 65.1592V67.3812C24.6067 67.0864 12.6258 54.9177 12.6258 40.0019C12.6258 37.6617 10.7227 35.7578 8.38328 35.7578C6.04391 35.7578 4.14062 37.6617 4.14062 40.0019C4.14062 48.3637 7.07719 56.5014 12.4095 62.9158C12.8233 63.4134 13.5619 63.4812 14.0592 63.0675C14.5567 62.6537 14.6245 61.9148 14.2109 61.4172C9.22781 55.4228 6.48359 47.8173 6.48359 40.0019C6.48359 38.9541 7.33578 38.1014 8.38328 38.1014C9.43078 38.1014 10.283 38.9539 10.283 40.0019C10.283 56.3944 23.6141 69.7305 40.0002 69.7305C40.4391 69.7305 40.9855 69.7305 41.4117 69.2573C41.7903 68.837 41.7903 68.3681 41.7902 67.8717V66.3944L48.2797 71.3266C48.493 71.4886 48.5437 71.6083 48.5456 71.6305C48.5437 71.6536 48.493 71.7733 48.2794 71.9356L41.7945 76.8642V75.4045C41.7945 74.905 41.7945 74.433 41.4208 74.0123C40.9934 73.5314 40.4427 73.5314 40 73.5314C32.0389 73.5314 24.3208 70.6903 18.2678 65.5316C17.7755 65.112 17.0361 65.1709 16.6164 65.6636C16.1969 66.1562 16.2559 66.8959 16.7484 67.3155C23.0858 72.7166 31.1287 75.7433 39.4517 75.8708V78.1025C39.4517 78.4306 39.4517 79.4292 40.3092 79.8536C40.5203 79.958 40.7286 79.9998 40.9275 79.9998C41.545 79.9998 42.0716 79.5977 42.3039 79.4203L49.6963 73.802C50.4652 73.2181 50.8886 72.447 50.8884 71.6308C50.8884 70.8148 50.465 70.0438 49.6966 69.4602Z" fill="#3C3C3B"/>
<path d="M65.4398 14.7172C64.9837 14.2579 64.2422 14.2558 63.7833 14.7119C63.3244 15.1679 63.322 15.91 63.778 16.369C70.0583 22.6919 73.5169 31.0848 73.5169 40.002C73.5169 41.0498 72.6647 41.9025 71.6172 41.9025C70.5697 41.9025 69.7175 41.05 69.7175 40.002C69.7175 23.6072 56.3864 10.2689 40.0003 10.2689C39.5567 10.2689 39.0047 10.2689 38.5772 10.7531C38.2058 11.1736 38.2058 11.6461 38.2058 12.1612V13.6015L31.7206 8.67295C31.5097 8.51279 31.4578 8.39123 31.4563 8.37029C31.4577 8.34842 31.5094 8.22529 31.7209 8.06389L38.2102 3.13201V4.59529C38.2102 5.09045 38.2102 5.55811 38.5722 5.97623C38.9984 6.46826 39.5666 6.46686 40.0002 6.46811C47.1316 6.46811 53.9436 8.68045 59.7 12.8661C60.2234 13.2469 60.9559 13.1308 61.3363 12.6072C61.7167 12.0837 61.6008 11.3508 61.0775 10.9703C55.0702 6.60217 47.9881 4.24248 40.553 4.12873V1.89686C40.553 1.5692 40.553 0.572012 39.6972 0.146856C38.8327 -0.282519 38.0077 0.343106 37.6963 0.579199L30.3019 6.19904C29.5345 6.78451 29.1125 7.55639 29.1133 8.37279C29.1142 9.18795 29.537 9.95748 30.3036 10.5395L37.697 16.1586C38.0073 16.3939 38.8316 17.019 39.6941 16.5908C40.5484 16.1662 40.5484 15.1683 40.5484 14.8404V12.6181C55.3905 12.9115 67.3744 25.0829 67.3744 40.002C67.3744 42.3422 69.2775 44.2461 71.6169 44.2461C73.9563 44.2461 75.8595 42.3422 75.8595 40.002C75.8597 30.4617 72.1592 21.482 65.4398 14.7172Z" fill="#3C3C3B"/>
<path d="M47.915 34.2279C47.9161 33.0785 47.4694 31.998 46.6572 31.1857C45.8461 30.3741 44.768 29.9272 43.6216 29.9272C42.4752 29.9272 41.397 30.3741 40.5859 31.1855C39.7738 31.998 39.327 33.0783 39.3281 34.2277C39.3292 35.3749 39.7764 36.4519 40.5859 37.2588C41.397 38.0702 42.4752 38.5171 43.6216 38.5171C44.7673 38.5171 45.8447 38.0708 46.6555 37.2604C47.4667 36.4519 47.9139 35.3751 47.915 34.2279ZM45.0022 35.6001C45.0017 35.6005 45.0011 35.6012 45.0006 35.6016C44.632 35.9704 44.1423 36.1735 43.6217 36.1735C43.1011 36.1735 42.6114 35.9704 42.2413 35.6002C41.8741 35.2343 41.6716 34.7462 41.6712 34.2257C41.6708 33.7032 41.8738 33.2121 42.2428 32.8429C42.6114 32.4741 43.1011 32.271 43.6217 32.271C44.1423 32.271 44.6319 32.4741 45.0006 32.8429C45.3697 33.2121 45.5727 33.7032 45.5722 34.2257C45.5717 34.746 45.3692 35.2341 45.0022 35.6001Z" fill="#3C3C3B"/>
<path d="M57.7777 45.1272C58.5691 43.1214 58.9709 41.0042 58.9709 38.8172C58.9709 29.3229 51.2517 21.5987 41.7634 21.5987C38.7775 21.5987 35.8909 22.3629 33.3213 23.8161C33.0378 23.139 32.623 22.5047 32.0739 21.9542C29.8013 19.6862 26.1034 19.6861 23.8288 21.9562C21.5617 24.2297 21.5617 27.929 23.8308 30.2045C24.4983 30.8708 25.2891 31.3397 26.1303 31.6144C25.0972 33.8592 24.5561 36.319 24.5561 38.8172C24.5561 39.6858 24.6219 40.552 24.7497 41.4058C23.6548 41.6364 22.6495 42.1778 21.8423 42.9872C20.7408 44.0864 20.1338 45.5489 20.1328 47.105C20.1319 48.6633 20.7386 50.1289 21.8403 51.2311C22.94 52.3339 24.4037 52.9412 25.9617 52.9412C27.4637 52.9412 28.8772 52.3753 29.9623 51.3464C33.1411 54.3381 37.3716 56.0312 41.7634 56.0312C43.4375 56.0312 45.0805 55.7892 46.6641 55.3186C47.0273 56.0334 47.5056 56.7044 48.1025 57.3015C49.5803 58.78 51.545 59.5942 53.6347 59.5942C55.7242 59.5942 57.6889 58.78 59.1669 57.3015C62.2173 54.25 62.2173 49.2847 59.1669 46.2329C58.7417 45.8075 58.275 45.439 57.7777 45.1272ZM25.4856 23.6136C26.1661 22.9345 27.0597 22.5953 27.9533 22.5953C28.8459 22.5953 29.7386 22.9342 30.4173 23.6115C31.7739 24.972 31.7744 27.1856 30.4183 28.5465C29.0578 29.9033 26.8453 29.9026 25.4875 28.5475C24.1306 27.1865 24.1306 24.9723 25.4856 23.6136ZM28.4245 49.5759C27.7675 50.2348 26.893 50.5976 25.9619 50.5976C25.0308 50.5976 24.1561 50.2348 23.4981 49.575C22.8383 48.915 22.4753 48.0383 22.4758 47.1065C22.4763 46.1769 22.8391 45.3033 23.4991 44.6445C24.1561 43.9856 25.0306 43.6228 25.9617 43.6228C26.8928 43.6228 27.7675 43.9856 28.4264 44.6465C29.0845 45.3033 29.4472 46.177 29.4478 47.1065C29.4483 48.0383 29.0853 48.9148 28.4255 49.575C28.4252 49.5753 28.4248 49.5756 28.4245 49.5759ZM41.7636 53.6876C37.8548 53.6876 34.0941 52.1351 31.3222 49.4029C31.6292 48.6861 31.7913 47.9081 31.7908 47.1051C31.7898 45.549 31.1827 44.0865 30.0833 42.9894C29.2613 42.1651 28.2359 41.6179 27.12 41.3939C26.9736 40.5472 26.8992 39.6837 26.8992 38.8173C26.8992 36.3839 27.4933 33.9944 28.6198 31.8662C29.8828 31.7222 31.1077 31.1694 32.0744 30.2047C32.075 30.204 32.0758 30.2033 32.0764 30.2026C33.1598 29.1161 33.7241 27.7039 33.7717 26.2772C36.16 24.7483 38.9098 23.9426 41.7639 23.9426C49.9603 23.9426 56.6286 30.6154 56.6286 38.8173C56.6286 40.6812 56.2909 42.4858 55.6264 44.1964C54.9842 44.0284 54.3166 43.9403 53.6352 43.9403C51.5456 43.9403 49.5809 44.7545 48.103 46.2329C46.2402 48.0965 45.5172 50.6734 45.9295 53.0926C44.5828 53.4854 43.1866 53.6876 41.7636 53.6876ZM57.5105 55.6444C56.475 56.6801 55.0988 57.2506 53.6348 57.2506C52.1711 57.2506 50.7947 56.6801 49.7594 55.6444C47.6225 53.5065 47.6225 50.0281 49.7594 47.8901C50.7948 46.8544 52.1711 46.2839 53.6348 46.2839C55.0986 46.2839 56.475 46.8542 57.5105 47.8901C59.6473 50.0281 59.6473 53.5065 57.5105 55.6444Z" fill="#3C3C3B"/>
</g>
<defs>
<clipPath id="clip0_1491_33629">
<rect width="80" height="80" fill="white"/>
</clipPath>
</defs>
</svg>
