<svg width="80" height="80" viewBox="0 0 80 80" fill="none" xmlns="http://www.w3.org/2000/svg">
<g clip-path="url(#clip0_1491_33663)">
<g clip-path="url(#clip1_1491_33663)">
<path d="M25.3283 25.9977C25.3283 25.3505 24.8036 24.8258 24.1564 24.8258C23.5092 24.8258 22.9845 25.3505 22.9845 25.9977C22.9845 26.6449 23.5092 27.1696 24.1564 27.1696C24.8036 27.1696 25.3283 26.6449 25.3283 25.9977ZM24.7926 45.6923C24.1454 45.6923 23.6208 46.217 23.6208 46.8642C23.6208 47.5114 24.1454 48.036 24.7926 48.036C25.4398 48.036 25.9645 47.5114 25.9645 46.8642C25.9645 46.217 25.4398 45.6923 24.7926 45.6923ZM28.0007 24.8146C28.5965 25.0388 29.2081 25.1516 29.8246 25.1516C29.9782 25.1516 30.1325 25.1446 30.2865 25.1305C32.1842 24.9575 33.4035 23.7579 33.8398 23.2502C34.2617 22.7593 34.2056 22.0194 33.7146 21.5977C33.2235 21.1758 32.4839 21.2318 32.0621 21.7229C31.812 22.014 31.1176 22.7013 30.0737 22.7965C29.6562 22.8344 29.2367 22.7755 28.8264 22.621C28.2209 22.3935 27.5448 22.6991 27.3167 23.3049C27.0889 23.9107 27.3951 24.5864 28.0007 24.8146ZM36.797 20.2993C37.4441 20.2993 37.9688 19.7746 37.9688 19.1274C37.9688 18.4802 37.4441 17.9555 36.797 17.9555C36.1498 17.9555 35.6251 18.4802 35.6251 19.1274C35.6251 19.7746 36.1498 20.2993 36.797 20.2993ZM52.8735 36.5136C53.5206 36.5136 54.0453 35.9889 54.0453 35.3417C54.0453 34.6945 53.5206 34.1698 52.8735 34.1698C52.2263 34.1698 51.7016 34.6945 51.7016 35.3417C51.7016 35.9889 52.2263 36.5136 52.8735 36.5136ZM44.2149 24.2618C44.5946 24.3171 45.5468 24.5358 46.186 25.3666C46.4416 25.6988 46.6163 26.0849 46.7054 26.5139C46.9218 27.556 48.0013 27.4417 48.091 27.423C48.7247 27.2914 49.1318 26.6711 49.0002 26.0374C48.8385 25.2589 48.5166 24.5524 48.0435 23.9374C46.8815 22.4271 45.2155 22.0391 44.5532 21.9424C43.9147 21.8491 43.3179 22.2922 43.2244 22.9327C43.131 23.5732 43.5744 24.1682 44.2149 24.2618ZM21.8522 35.2519C21.8823 34.8341 22.0086 34.4295 22.2276 34.0495C22.5508 33.4888 22.3583 32.7722 21.7975 32.4491C21.2369 32.1259 20.5201 32.3185 20.197 32.8792C19.7998 33.5684 19.5703 34.31 19.5145 35.0834C19.3775 36.9834 20.3633 38.3816 20.7934 38.8945C21.0253 39.1709 21.3573 39.3134 21.6919 39.3134C21.9575 39.3134 22.2248 39.2236 22.4442 39.0395C22.9401 38.6236 23.005 37.8844 22.589 37.3886C22.3425 37.0942 21.7769 36.2972 21.8522 35.2519ZM78.1252 54.9137C77.8312 54.3371 77.1252 54.1082 76.5488 54.4021C75.9723 54.696 75.7432 55.4018 76.0373 55.9784C77.1115 58.0848 77.6562 60.361 77.6562 62.7435C77.6562 70.9664 70.9664 77.6562 62.7434 77.6562C54.5205 77.6562 47.8308 70.9664 47.8308 62.7435C47.8308 54.5205 54.5205 47.8307 62.7434 47.8307C66.5911 47.8307 70.2437 49.2918 73.0284 51.9448C73.4967 52.3912 74.2385 52.3734 74.6851 51.9046C75.1315 51.436 75.1135 50.6943 74.6451 50.2478C71.4226 47.1778 67.1957 45.487 62.7434 45.487C60.6681 45.487 58.6772 45.8554 56.8325 46.5301L57.0069 45.1162C57.018 45.0253 57.0531 44.9404 57.1097 44.8681L62.3065 38.2103C62.5189 37.9383 62.6734 37.6373 62.7737 37.3233C64.39 37.1037 65.9973 37.1489 67.5631 37.4633C68.757 37.7031 69.9193 38.097 71.0179 38.6344C71.1837 38.7155 71.3592 38.7537 71.5318 38.7537C71.9654 38.7537 72.3821 38.5122 72.5854 38.0964C72.8698 37.515 72.6288 36.8133 72.0476 36.5289C70.7685 35.9036 69.415 35.4448 68.0245 35.1656C67.8914 35.1389 67.7581 35.1139 67.6246 35.0905C67.8915 34.6427 68.3095 34.1769 68.955 33.9197C70.0026 33.5025 70.9754 33.8923 71.2484 34.0219C71.8335 34.2991 72.5321 34.0499 72.8093 33.4649C73.0865 32.88 72.8371 32.1813 72.2524 31.9039C71.7628 31.672 70.0157 30.9747 68.0876 31.7424C66.3598 32.4308 65.5368 33.8592 65.1601 34.847C64.2772 34.8259 63.3884 34.8755 62.4981 34.9944C62.4398 34.8978 62.3775 34.803 62.3067 34.7122L57.1081 28.0522C57.053 27.9821 57.0181 27.8972 57.007 27.8086L55.9742 19.4229C55.932 19.0802 55.8286 18.758 55.6774 18.4651C56.6645 17.1673 57.833 16.0626 59.1623 15.1776C60.1708 14.506 61.2714 13.9624 62.4337 13.5616C63.0456 13.3507 63.3706 12.6837 63.1597 12.0718C62.9487 11.4599 62.2814 11.1349 61.6698 11.3459C60.3187 11.8117 59.038 12.4446 57.8634 13.2268C57.75 13.3023 57.6406 13.3832 57.5292 13.4613C57.4003 12.9551 57.3652 12.3281 57.6406 11.6876C58.0864 10.6515 59.0498 10.2398 59.3344 10.1382C59.9439 9.92073 60.262 9.25041 60.0445 8.64089C59.8269 8.0312 59.1562 7.71323 58.547 7.93089C58.0366 8.11292 56.308 8.85495 55.4877 10.7615C54.8003 12.3595 55.1205 13.9477 55.6086 15.0376C54.9725 15.6448 54.3805 16.3037 53.8366 17.013C53.7264 16.9859 53.6147 16.9627 53.4999 16.9485L45.1166 15.9159C45.0247 15.9045 44.9383 15.869 44.8683 15.8146L38.2101 10.6156C37.938 10.4034 37.6373 10.2487 37.3232 10.1485C37.1037 8.53167 37.1488 6.92418 37.463 5.35903C37.7023 4.16825 38.0963 3.0056 38.6344 1.90341C38.9184 1.3217 38.6771 0.620137 38.0955 0.336232C37.5137 0.0523266 36.8123 0.293576 36.5284 0.875136C35.9026 2.15716 35.444 3.51044 35.1654 4.89762C35.1387 5.03074 35.1135 5.16418 35.0901 5.29793C34.6424 5.03106 34.1765 4.61309 33.9193 3.96747C33.502 2.91982 33.892 1.94732 34.0215 1.6742C34.2987 1.08935 34.0493 0.390607 33.4645 0.113264C32.8796 -0.164079 32.1807 0.0854515 31.9035 0.670293C31.6715 1.15982 30.974 2.90716 31.742 4.83496C32.4304 6.56293 33.859 7.38605 34.8468 7.76261C34.8257 8.64526 34.8752 9.53385 34.9942 10.4242C34.8976 10.4826 34.8026 10.5449 34.7118 10.6157L28.0559 15.8127C27.984 15.8687 27.8978 15.9041 27.8086 15.9154L19.4228 16.9482C19.0802 16.9904 18.758 17.0938 18.465 17.2451C17.1672 16.2577 16.0625 15.0895 15.1774 13.7602C14.5058 12.7515 13.962 11.6509 13.5614 10.4887C13.3505 9.87682 12.6836 9.55198 12.0716 9.76276C11.4597 9.97369 11.1347 10.6407 11.3457 11.2526C11.8114 12.6035 12.4442 13.8843 13.2266 15.0591C13.3022 15.1726 13.383 15.2821 13.4613 15.3935C12.955 15.5226 12.328 15.5577 11.6874 15.2821C10.6514 14.8363 10.2394 13.8729 10.1378 13.5882C9.92035 12.9787 9.24941 12.6607 8.64035 12.8785C8.03082 13.096 7.71301 13.7665 7.93067 14.376C8.11285 14.8863 8.85519 16.6149 10.7613 17.4351C11.4324 17.7238 12.0856 17.833 12.6902 17.833C13.6272 17.833 14.445 17.5705 15.0313 17.3074C15.6402 17.9459 16.3011 18.5401 17.0128 19.0858C16.9856 19.196 16.9623 19.3077 16.9483 19.4227L15.9156 27.8067C15.9042 27.8978 15.8688 27.9841 15.8142 28.0541L10.6157 34.7122C10.4032 34.9845 10.2485 35.2858 10.1485 35.6C8.52988 35.8184 6.9227 35.773 5.35927 35.4591C4.17115 35.2205 3.00803 34.8267 1.90225 34.2886C1.32038 34.0056 0.618975 34.2477 0.335695 34.8295C0.0525713 35.4116 0.294758 36.1128 0.876631 36.3961C2.16147 37.0212 3.51428 37.4791 4.89771 37.7569C5.03099 37.7836 5.16443 37.8087 5.29818 37.8322C5.0313 38.28 4.61318 38.7459 3.9674 39.0033C2.91975 39.4205 1.94725 39.0306 1.67413 38.9011C1.08929 38.6239 0.390539 38.8733 0.113196 39.4581C-0.16399 40.043 0.0853836 40.7417 0.670225 41.019C0.995068 41.1729 1.87288 41.5317 2.99006 41.5317C3.55693 41.5317 4.18584 41.4392 4.8349 41.1806C6.56286 40.4922 7.38598 39.0637 7.76254 38.0759C7.8991 38.0792 9.06629 38.1095 10.4246 37.9291C10.4828 38.0255 10.545 38.1201 10.6157 38.2108L15.8128 44.8668C15.8684 44.9384 15.9041 45.025 15.9153 45.1156L16.9481 53.4999C16.9903 53.8426 17.0938 54.1648 17.245 54.4577C16.2577 55.7554 15.0894 56.8602 13.7602 57.7454C12.7514 58.4169 11.6508 58.9607 10.4886 59.3613C9.87675 59.5723 9.55175 60.2393 9.76269 60.8512C9.93003 61.3365 10.3844 61.6413 10.8705 61.6413C10.9972 61.6413 11.1261 61.6207 11.2525 61.5769C12.6035 61.1111 13.8842 60.4783 15.0591 59.696C15.1725 59.6204 15.282 59.5396 15.3934 59.4613C15.5225 59.9676 15.5577 60.5947 15.282 61.2354C14.8363 62.2713 13.8728 62.6833 13.5881 62.7849C12.9786 63.0024 12.6608 63.6729 12.8785 64.2824C13.0496 64.7618 13.5006 65.0607 13.982 65.0607C14.1127 65.0607 14.2458 65.0386 14.376 64.9922C14.8863 64.81 16.6149 64.0679 17.435 62.1616C18.1714 60.4497 17.7406 58.8552 17.3075 57.891C17.9459 57.2821 18.54 56.6213 19.0858 55.9098C19.1959 55.937 19.3077 55.9602 19.4225 55.9743L27.8062 57.0068C27.8968 57.0182 27.9818 57.0532 28.054 57.1099L34.712 62.3069C34.984 62.5193 35.2849 62.6738 35.599 62.774C35.8184 64.391 35.7732 65.9983 35.459 67.5633C35.2198 68.7546 34.826 69.9174 34.2888 71.0197C34.0052 71.6014 34.247 72.303 34.8288 72.5864C34.9942 72.667 35.169 72.7052 35.3413 72.7052C35.7754 72.7052 36.1926 72.463 36.3956 72.0464C37.0202 70.7647 37.4782 69.4116 37.7566 68.0247C37.7834 67.8916 37.8085 67.7582 37.8318 67.6246C38.2796 67.8914 38.7457 68.3094 39.0029 68.9553C39.4202 70.003 39.0302 70.9755 38.9007 71.2486C38.6235 71.8335 38.8729 72.5322 39.4577 72.8095C39.6198 72.8864 39.7907 72.9228 39.9588 72.9228C40.3976 72.9228 40.8182 72.6753 41.0187 72.2525C41.2507 71.763 41.9482 70.0156 41.1802 68.0878C40.4918 66.3597 39.0629 65.5366 38.0751 65.16C38.0962 64.2772 38.0466 63.3886 37.9279 62.4982C38.0243 62.4399 38.1191 62.3776 38.2099 62.3068L44.8696 57.1083C44.9408 57.0526 45.0238 57.0183 45.1149 57.0071L46.5297 56.8327C45.855 58.6774 45.4866 60.6683 45.4866 62.7436C45.4866 72.2589 53.2278 80.0001 62.743 80.0001C72.2582 80.0001 79.9994 72.2589 79.9994 62.7436C79.9999 59.9874 79.3691 57.353 78.1252 54.9137ZM44.8274 54.6809C44.3143 54.7448 43.8288 54.9463 43.4258 55.2623L36.7682 60.4591C36.5874 60.6002 36.3346 60.6002 36.154 60.4591L29.4982 55.2638C29.0937 54.9466 28.6092 54.7452 28.0951 54.6809L19.7092 53.6481C19.4812 53.6199 19.3023 53.4412 19.2744 53.2132L18.2414 44.8276C18.178 44.3167 17.9778 43.8326 17.6616 43.4259L12.4633 36.7684C12.3222 36.5877 12.3222 36.335 12.4631 36.1544L17.663 29.4947C17.9777 29.09 18.1777 28.6067 18.2416 28.0952L19.2744 19.7093C19.3025 19.4813 19.4812 19.3026 19.7092 19.2744L28.097 18.2413C28.6067 18.1777 29.0898 17.9776 29.4965 17.6616L36.154 12.4634C36.3348 12.3223 36.5876 12.3221 36.7681 12.4632L43.4277 17.663C43.8327 17.978 44.3168 18.178 44.8288 18.2416L53.2131 19.2744C53.4411 19.3026 53.62 19.4813 53.648 19.7093L54.681 28.0969C54.7447 28.6091 54.9463 29.0938 55.2622 29.4964L60.4591 36.1541C60.6001 36.335 60.6001 36.5875 60.4591 36.7683L55.2641 43.4237C54.9463 43.8287 54.7447 44.3143 54.681 44.8287L54.3292 47.6825C51.5488 49.242 49.2421 51.5487 47.6825 54.3291L44.8274 54.6809ZM52.2285 42.1504C52.5247 41.575 52.2985 40.8684 51.7231 40.572C51.1478 40.2758 50.4413 40.5019 50.1447 41.0772C49.9691 41.4184 49.4532 42.2479 48.4596 42.5828C48.0627 42.7165 47.6411 42.7564 47.2057 42.7015C46.565 42.6214 45.9772 43.075 45.8961 43.7172C45.8149 44.3592 46.2697 44.9456 46.9118 45.0267C47.1372 45.0551 47.3614 45.0693 47.5839 45.0693C48.1396 45.0693 48.6836 44.9804 49.2083 44.8036C51.0141 44.1951 51.9219 42.7454 52.2285 42.1504ZM66.4358 53.0802C65.9122 52.6999 65.1795 52.8159 64.7987 53.3393L59.2103 61.0294C58.878 61.4868 58.81 62.071 59.0286 62.5922C59.2472 63.1135 59.7114 63.4747 60.2705 63.5585L63.6634 64.0661L58.7917 70.7699C58.4113 71.2934 58.5273 72.0264 59.0508 72.4069C59.2589 72.558 59.4998 72.6308 59.7387 72.6308C60.1009 72.6308 60.4583 72.4633 60.6876 72.1478L66.2761 64.4577C66.6084 64.0004 66.6764 63.4161 66.4578 62.8949C66.2392 62.3736 65.775 62.0124 65.2159 61.9286L61.823 61.421L66.6946 54.7173C67.0753 54.1937 66.9593 53.4607 66.4358 53.0802ZM47.0586 47.7282C46.4114 47.7282 45.8868 48.2529 45.8868 48.9001C45.8868 49.5473 46.4114 50.072 47.0586 50.072C47.7058 50.072 48.2305 49.5473 48.2305 48.9001C48.2305 48.2529 47.7058 47.7282 47.0586 47.7282ZM37.8034 49.1389C37.4755 49.3385 36.6029 49.7779 35.5804 49.5467C35.1718 49.4542 34.7909 49.2685 34.4481 48.9949C33.9423 48.5912 33.2048 48.6739 32.801 49.1798C32.3973 49.6856 32.4801 50.4231 32.9859 50.8268C33.6074 51.3229 34.306 51.6612 35.0627 51.8326C35.446 51.9193 35.8151 51.9557 36.1648 51.9557C37.511 51.9557 38.569 51.417 39.0227 51.1404C39.5755 50.8037 39.7505 50.0826 39.4137 49.5299C39.0773 48.9771 38.3562 48.802 37.8034 49.1389ZM36.4612 27.0371C35.2256 27.0371 34.0237 27.2728 32.889 27.7378C32.2901 27.9833 32.0035 28.6678 32.249 29.2666C32.4945 29.8655 33.179 30.1521 33.7778 29.9066C34.629 29.5577 35.5318 29.3808 36.461 29.3808C40.3652 29.3808 43.5416 32.5572 43.5416 36.4612C43.5416 40.3653 40.3652 43.5417 36.461 43.5417C32.5568 43.5417 29.3806 40.3653 29.3806 36.4612C29.3806 35.2227 29.7048 34.0042 30.3181 32.9378C30.6406 32.3767 30.4475 31.6603 29.8864 31.3377C29.3254 31.0153 28.609 31.2085 28.2862 31.7694C27.469 33.1908 27.0368 34.8131 27.0368 36.4612C27.0368 41.6578 31.2646 45.8854 36.461 45.8854C41.6576 45.8854 45.8854 41.6576 45.8854 36.4612C45.8854 31.2649 41.6577 27.0371 36.4612 27.0371Z" fill="#3C3C3B"/>
</g>
</g>
<defs>
<clipPath id="clip0_1491_33663">
<rect width="80" height="80" fill="white"/>
</clipPath>
<clipPath id="clip1_1491_33663">
<rect width="80" height="80" fill="white"/>
</clipPath>
</defs>
</svg>
