<svg width="80" height="80" viewBox="0 0 80 80" fill="none" xmlns="http://www.w3.org/2000/svg">
<g clip-path="url(#clip0_1779_50079)">
<path fill-rule="evenodd" clip-rule="evenodd" d="M35.6209 3.83051L29.6283 8.18441H22.2213C19.0307 8.18441 16.203 10.2388 15.2171 13.2732L12.9281 20.3178L6.93579 24.6717C4.3544 26.5469 3.27439 29.8712 4.26045 32.9056L6.54925 39.9502L4.26045 46.9947C3.27439 50.0291 4.3544 53.3531 6.93579 55.2286L12.9281 59.5823L15.2171 66.6269C16.203 69.6612 19.0307 71.7159 22.2213 71.7159H29.6283L35.6209 76.0695C38.202 77.945 41.6972 77.945 44.2786 76.0695L50.2709 71.7159H57.6782C60.8685 71.7159 63.6963 69.6612 64.6823 66.6269L66.9711 59.5823L72.9637 55.2286C75.5448 53.3531 76.6248 50.0291 75.639 46.9947L73.35 39.9502L75.639 32.9056C76.6248 29.8712 75.5448 26.5469 72.9637 24.6717L66.9711 20.3178L64.6823 13.2732C63.6963 10.2388 60.8685 8.18441 57.6782 8.18441H50.2709L44.2786 3.83051C41.6972 1.95526 38.202 1.95526 35.6209 3.83051ZM36.8131 5.47159C38.6835 4.11286 41.216 4.11286 43.0861 5.47159C45.9245 7.53377 49.3452 10.0193 49.3452 10.0193C49.5185 10.1451 49.7273 10.2128 49.9415 10.2128H57.6782C59.9898 10.2128 62.0386 11.7015 62.753 13.9C63.8372 17.2369 65.1438 21.2581 65.1438 21.2581C65.21 21.4618 65.3391 21.6392 65.5124 21.7651C65.5124 21.7651 68.933 24.2503 71.7715 26.3128C73.6416 27.6715 74.4242 30.08 73.7097 32.2788C72.6256 35.6155 71.3192 39.6366 71.3192 39.6366C71.253 39.8404 71.253 40.0599 71.3192 40.2634C71.3192 40.2634 72.6256 44.2848 73.7097 47.6215C74.4242 49.8203 73.6416 52.2288 71.7715 53.5875C68.933 55.6497 65.5124 58.135 65.5124 58.135C65.3391 58.2608 65.21 58.4385 65.1438 58.6422C65.1438 58.6422 63.8372 62.6634 62.753 66.0001C62.0386 68.1988 59.9898 69.6873 57.6782 69.6873C54.1696 69.6873 49.9415 69.6873 49.9415 69.6873C49.7273 69.6873 49.5185 69.7552 49.3452 69.8811C49.3452 69.8811 45.9245 72.3663 43.0861 74.4285C41.216 75.7874 38.6835 75.7874 36.8131 74.4285C33.9747 72.3663 30.554 69.8811 30.554 69.8811C30.3807 69.7552 30.1721 69.6873 29.9579 69.6873C29.9579 69.6873 25.7299 69.6873 22.2213 69.6873C19.9094 69.6873 17.8606 68.1988 17.1462 66.0001C16.062 62.6634 14.7554 58.6422 14.7554 58.6422C14.6894 58.4385 14.5604 58.2608 14.3871 58.135C14.3871 58.135 10.9664 55.6497 8.12802 53.5875C6.25764 52.2288 5.47507 49.8203 6.18949 47.6215C7.27364 44.2848 8.58028 40.2634 8.58028 40.2634C8.64649 40.0599 8.64649 39.8404 8.58028 39.6366C8.58028 39.6366 7.27364 35.6155 6.18949 32.2788C5.47507 30.08 6.25764 27.6715 8.12802 26.3128C10.9664 24.2503 14.3871 21.7651 14.3871 21.7651C14.5604 21.6392 14.6894 21.4618 14.7554 21.2581C14.7554 21.2581 16.062 17.2369 17.1462 13.9C17.8606 11.7015 19.9094 10.2128 22.2213 10.2128H29.9579C30.1721 10.2128 30.3807 10.1451 30.554 10.0193L36.8131 5.47159Z" fill="#3C3C3B"/>
<path fill-rule="evenodd" clip-rule="evenodd" d="M29.783 30.7402C31.4606 35.807 36.3834 39.2241 42.2913 37.7095C46.7269 36.5726 49.6493 33.451 51.537 30.0873C54.2861 25.1887 54.8138 19.81 54.8138 19.81C54.8503 19.4398 54.6812 19.0793 54.373 18.8709C54.0648 18.6623 53.6673 18.6392 53.337 18.8106C49.8037 20.6454 46.8302 20.2489 43.9311 19.8434C41.7728 19.541 39.6488 19.2326 37.3977 19.599C33.7251 20.1965 31.3058 22.8264 30.2051 25.5628C29.4481 27.4449 29.3303 29.3722 29.783 30.7402ZM31.7084 30.1027C31.3771 29.1013 31.5329 27.697 32.0869 26.3198C32.953 24.1671 34.8341 22.0711 37.7234 21.601C40.3121 21.1797 42.7155 21.7734 45.2295 22.0569C47.5163 22.315 49.883 22.3481 52.5121 21.3883C52.1487 23.2365 51.3627 26.2529 49.7681 29.0947C48.1317 32.0105 45.6331 34.7589 41.7876 35.7447C37.0219 36.9664 33.0618 34.1898 31.7087 30.1027H31.7084Z" fill="#3C3C3B"/>
<path fill-rule="evenodd" clip-rule="evenodd" d="M21.8506 29.393C25.1768 30.6797 28.2368 31.2868 31.0121 31.4302C37.8542 31.7843 42.9827 29.3259 46.1451 27.1639C46.6071 26.8479 46.7258 26.2163 46.4099 25.7543C46.0939 25.292 45.4623 25.1735 45.0003 25.4894C42.0988 27.473 37.3942 29.7292 31.1168 29.4045C28.5313 29.2708 25.6814 28.6998 22.5823 27.5012C22.0604 27.2992 21.4726 27.5592 21.2706 28.0813C21.0688 28.6034 21.3285 29.1913 21.8506 29.393Z" fill="#3C3C3B"/>
<path fill-rule="evenodd" clip-rule="evenodd" d="M17.3834 48.7075L20.3106 47.1823V58.1424C20.3106 58.7022 20.7651 59.1567 21.3247 59.1567C21.8845 59.1567 22.339 58.7022 22.339 58.1424V45.5103C22.339 45.1559 22.154 44.827 21.8507 44.6433C21.5476 44.4592 21.1706 44.4471 20.8561 44.6109L16.446 46.9084C15.9497 47.1672 15.7566 47.7801 16.0151 48.2764C16.2739 48.773 16.8868 48.966 17.3834 48.7075Z" fill="#3C3C3B"/>
<path fill-rule="evenodd" clip-rule="evenodd" d="M60.5269 45.4358L51.3456 56.9626C50.997 57.4005 51.0693 58.0392 51.5072 58.388C51.9449 58.7366 52.5836 58.6643 52.9324 58.2264L62.1134 46.6996C62.4622 46.2617 62.3899 45.6233 61.952 45.2744C61.5141 44.9256 60.8754 44.9982 60.5269 45.4358Z" fill="#3C3C3B"/>
<path fill-rule="evenodd" clip-rule="evenodd" d="M52.8249 44.4319C51.5467 44.4319 50.5088 45.4698 50.5088 46.7479C50.5088 48.0261 51.5467 49.064 52.8249 49.064C54.103 49.064 55.1409 48.0261 55.1409 46.7479C55.1409 45.4698 54.103 44.4319 52.8249 44.4319ZM52.8249 46.4605C52.9836 46.4605 53.1123 46.5892 53.1123 46.7479C53.1123 46.9067 52.9836 47.0354 52.8249 47.0354C52.6661 47.0354 52.5374 46.9067 52.5374 46.7479C52.5374 46.5892 52.6661 46.4605 52.8249 46.4605Z" fill="#3C3C3B"/>
<path fill-rule="evenodd" clip-rule="evenodd" d="M60.4127 54.3887C59.1346 54.3887 58.0967 55.4263 58.0967 56.7045C58.0967 57.9829 59.1346 59.0206 60.4127 59.0206C61.6909 59.0206 62.7288 57.9829 62.7288 56.7045C62.7288 55.4263 61.6909 54.3887 60.4127 54.3887ZM60.4127 56.417C60.5715 56.417 60.7002 56.5458 60.7002 56.7045C60.7002 56.8632 60.5715 56.9922 60.4127 56.9922C60.254 56.9922 60.1253 56.8632 60.1253 56.7045C60.1253 56.5458 60.254 56.417 60.4127 56.417Z" fill="#3C3C3B"/>
<path fill-rule="evenodd" clip-rule="evenodd" d="M34.6524 54.4305V49.2219C34.6524 46.6118 32.5364 44.4958 29.9263 44.4958C27.3164 44.4958 25.2002 46.6118 25.2002 49.2219V54.4305C25.2002 57.0406 27.3162 59.1565 29.926 59.1565C32.5361 59.1565 34.6524 57.0406 34.6524 54.4305ZM32.6238 49.2219V54.4305C32.6238 55.9204 31.4162 57.1282 29.9263 57.1282C28.4366 57.1282 27.2285 55.9204 27.2285 54.4307C27.2285 54.4305 27.2285 49.2219 27.2285 49.2219C27.2285 47.732 28.4364 46.5244 29.926 46.5244C31.416 46.5244 32.6238 47.732 32.6238 49.2219Z" fill="#3C3C3B"/>
<path fill-rule="evenodd" clip-rule="evenodd" d="M46.9658 54.4305V49.2219C46.9658 46.6118 44.8501 44.4958 42.24 44.4958C39.6299 44.4958 37.5139 46.6118 37.5137 49.2219V54.4305C37.5139 57.0406 39.6297 59.1565 42.2398 59.1565C44.8499 59.1565 46.9658 57.0406 46.9658 54.4305ZM44.9375 49.2219V54.4305C44.9375 55.9204 43.7297 57.1282 42.24 57.1282C40.7503 57.1282 39.5423 55.9204 39.5423 54.4307C39.5423 54.4305 39.5423 49.2219 39.5423 49.2219C39.5423 47.732 40.7501 46.5244 42.2398 46.5244C43.7294 46.5244 44.9375 47.732 44.9375 49.2219Z" fill="#3C3C3B"/>
</g>
<defs>
<clipPath id="clip0_1779_50079">
<rect width="80" height="80" fill="white"/>
</clipPath>
</defs>
</svg>
