<svg width="80" height="80" viewBox="0 0 80 80" fill="none" xmlns="http://www.w3.org/2000/svg">
<g clip-path="url(#clip0_1491_33724)">
<g clip-path="url(#clip1_1491_33724)">
<path d="M16.5488 27.0188C16.5488 31.5441 20.2304 35.2258 24.7559 35.2258C29.2813 35.2258 32.9629 31.5441 32.9629 27.0188C32.9629 22.4935 29.2813 18.8118 24.7559 18.8118C20.2304 18.8118 16.5488 22.4935 16.5488 27.0188ZM30.618 27.0188C30.618 30.2511 27.9884 32.8808 24.756 32.8808C21.5237 32.8808 18.894 30.2511 18.894 27.0188C18.894 23.7865 21.5237 21.1568 24.756 21.1568C27.9884 21.1568 30.618 23.7865 30.618 27.0188Z" fill="#3C3C3B"/>
<path d="M55.2441 44.7742C50.7188 44.7742 47.0371 48.4559 47.0371 52.9812C47.0371 57.5065 50.7188 61.1882 55.2441 61.1882C59.7695 61.1882 63.4512 57.5065 63.4512 52.9812C63.4512 48.4559 59.7695 44.7742 55.2441 44.7742ZM55.2441 58.8432C52.0118 58.8432 49.3821 56.2135 49.3821 52.9812C49.3821 49.7489 52.0118 47.1192 55.2441 47.1192C58.4765 47.1192 61.1062 49.7489 61.1062 52.9812C61.1062 56.2135 58.4765 58.8432 55.2441 58.8432Z" fill="#3C3C3B"/>
<path d="M79.2795 62.0716L75.2186 63.1597L71.6772 61.115V44.8477L75.2188 42.803L79.2797 43.8909L79.8867 41.6259L76.4891 40.7156L77.3994 37.318L75.1344 36.7109L74.0462 40.772L70.5047 42.8167L64.6648 39.4452C64.8988 32.5445 70.5814 27.002 77.538 27.002V24.657C74.4137 24.657 71.5066 25.6033 69.0869 27.2233C68.1006 23.0683 64.3612 19.967 59.9089 19.967V22.312C63.6566 22.312 66.7323 25.2353 66.9805 28.9212C64.4967 31.3134 62.8217 34.5389 62.4091 38.1427L56.4166 34.683V30.5934L59.3894 27.6205L57.7311 25.9625L55.2441 28.4497L52.757 25.9625L51.0988 27.6205L54.0716 30.5934V34.683L47.2237 38.6366L41.1889 35.1523V18.8852L44.7305 16.8403L48.7914 17.9284L49.3984 15.6634L46.0008 14.753L46.9111 11.3555L44.6461 10.7484L43.558 14.8094L40.0164 16.8542L33.5828 13.1398L32.4103 15.1706L38.8439 18.8852V35.1525L24.7559 43.2863L10.6678 35.1525V18.8852L24.7559 10.7514L30.1811 13.8836L31.3536 11.8528L25.9284 8.72062V4.63109L28.9012 1.65813L27.2431 0.00015625L24.7559 2.48734L22.2687 0L20.6106 1.65828L23.5834 4.63109V8.72062L9.49531 16.8544L5.95391 14.8095L4.86578 10.7484L2.60062 11.3555L3.51094 14.753L0.113281 15.6634L0.720313 17.9284L4.78125 16.8403L8.32281 18.8852V35.1525L4.78125 37.1972L0.720313 36.1091L0.113281 38.3741L3.51094 39.2845L2.60062 42.682L4.86578 43.2891L5.95391 39.2281L9.49547 37.1834L15.505 40.6531C15.1569 47.4081 9.55188 52.7969 2.71172 52.7969V55.1419C5.75703 55.1419 8.59484 54.2383 10.9728 52.6861C11.9452 56.778 15.6283 59.8317 20.0133 59.8317V57.4867C16.3459 57.4867 13.335 54.6305 13.0834 51.0259C15.5772 48.6817 17.2797 45.505 17.7409 41.9441L23.5834 45.3172V49.4066L20.6106 52.3794L22.2687 54.0377L24.7559 51.5505L27.2431 54.0377L28.9012 52.3794L25.9284 49.4067V45.3172L32.7762 41.3636L38.8109 44.8478V61.1152L35.2694 63.1598L31.2083 62.0717L30.6014 64.3367L33.9991 65.2472L33.0886 68.6447L35.3538 69.2517L36.4419 65.1908L39.9834 63.1461L54.0714 71.2798V75.3692L51.0986 78.342L52.7569 80L55.2439 77.5128L57.7311 80L59.3894 78.3417L56.4166 75.3689V71.2795L61.7223 68.2163L60.5498 66.1855L55.2441 69.2487L41.1561 61.115V44.8477L55.2441 36.7139L69.3322 44.8477V61.115L62.7956 64.8889L63.9681 66.9197L70.5047 63.1458L74.0462 65.1905L75.1344 69.2514L77.3994 68.6444L76.4891 65.2469L79.8867 64.3364L79.2795 62.0716ZM39.9836 42.8169L35.1213 40.0095L40.0164 37.1833L44.8787 39.9905L39.9836 42.8169Z" fill="#3C3C3B"/>
<path d="M13.0645 19.9673H15.4095V22.3123H13.0645V19.9673Z" fill="#3C3C3B"/>
<path d="M43.5166 45.8052H45.8616V48.1502H43.5166V45.8052Z" fill="#3C3C3B"/>
</g>
</g>
<defs>
<clipPath id="clip0_1491_33724">
<rect width="80" height="80" fill="white"/>
</clipPath>
<clipPath id="clip1_1491_33724">
<rect width="80" height="80" fill="white"/>
</clipPath>
</defs>
</svg>
