<svg width="80" height="80" viewBox="0 0 80 80" fill="none" xmlns="http://www.w3.org/2000/svg">
<g clip-path="url(#clip0_1961_104379)">
<g clip-path="url(#clip1_1961_104379)">
<path d="M40 80C62.056 80 80 62.056 80 40C80 29.3201 75.8424 19.2775 68.2921 11.7234C67.5193 10.9499 66.2655 10.9499 65.492 11.7226C64.7184 12.4961 64.7177 13.75 65.4912 14.5235C67.2679 16.3011 68.8343 18.2333 70.1818 20.2877L52.8396 30.3009C52.3554 26.3335 53.4344 22.2076 56.0775 18.9519C56.7675 18.1026 56.6375 16.8557 55.7882 16.1665C54.9397 15.4773 53.6928 15.6064 53.0028 16.4558C50.2584 19.8368 48.7469 24.0965 48.7469 28.4514C48.7469 29.7904 48.8916 31.1208 49.1692 32.4196L40.9476 37.1666C37.0815 31.7079 37.2765 24.201 41.5377 18.9519C42.2269 18.1026 42.097 16.8557 41.2485 16.1665C40.3991 15.4773 39.1522 15.6064 38.463 16.4558C35.7186 19.8368 34.2064 24.0965 34.2064 28.4514C34.2064 32.2679 35.3682 36.0118 37.5031 39.1553L30.0967 43.4313C29.3773 41.4565 28.3346 39.5985 26.9972 37.951C22.5286 32.4466 22.5286 24.4562 26.9972 18.9519C27.6864 18.1033 27.5565 16.8557 26.7079 16.1665C25.8586 15.4773 24.6117 15.6072 23.9225 16.4558C21.1781 19.8368 19.6658 24.0973 19.6658 28.4514C19.6658 32.8063 21.1773 37.0661 23.9225 40.4471C25.1524 41.9616 26.0419 43.6657 26.5942 45.4533L7.8504 56.2755C5.36433 51.3838 3.9604 45.8532 3.9604 40C3.9604 20.1276 20.1276 3.9604 40 3.9604C44.4462 3.9604 48.7864 4.75944 52.8984 6.33663C53.9202 6.72881 55.065 6.21751 55.4564 5.19647C55.8478 4.17543 55.3373 3.03063 54.3162 2.63846C49.7494 0.887995 44.9327 0 40 0C17.944 0 0 17.944 0 40C0 62.056 17.944 80 40 80ZM27.2672 49.638C27.3376 53.1134 26.2245 56.6089 23.9225 59.4454C23.2333 60.2939 23.3625 61.5416 24.2118 62.2308C24.5784 62.5286 25.0201 62.6733 25.4587 62.6733C26.035 62.6733 26.6058 62.4234 26.9972 61.9415C29.7416 58.5605 31.2531 54.3007 31.2531 49.9459C31.2531 49.1035 31.1951 48.2642 31.0845 47.4342L39.8028 42.4002C42.8713 47.7251 42.4265 54.5622 38.463 59.4446C37.7738 60.2939 37.903 61.5408 38.7523 62.23C39.1197 62.5286 39.5606 62.6733 39.9992 62.6733C40.5755 62.6733 41.1464 62.4226 41.5377 61.9408C44.2822 58.5605 45.7944 54.3 45.7944 49.9459C45.7944 46.595 44.8956 43.3014 43.2325 40.42L50.4301 36.2647C51.1007 37.7568 51.9632 39.1646 53.0036 40.4463C57.4722 45.9506 57.4722 53.9403 53.0036 59.4446C52.3144 60.2939 52.4435 61.5408 53.2929 62.23C53.6603 62.5278 54.1012 62.6725 54.5398 62.6725C55.116 62.6725 55.6869 62.4226 56.0783 61.9408C58.8227 58.5597 60.3349 54.3 60.3349 49.9451C60.3349 45.591 58.8235 41.3304 56.0783 37.9502C55.1562 36.8147 54.4284 35.5724 53.8869 34.269L72.1697 23.7136C74.6991 28.6997 76.0396 34.2466 76.0396 40C76.0396 59.8724 59.8724 76.0396 40 76.0396C27.3933 76.0396 16.2802 69.532 9.83756 59.7006L27.2672 49.638Z" fill="#3C3C3B"/>
<path d="M58.8234 9.71131C58.8547 9.7283 58.8882 9.74586 58.9218 9.76167C59.255 9.9227 59.6297 10 59.9996 10C60.6451 10 61.2788 9.76577 61.6644 9.33187C62.2763 8.64324 62.0281 7.71277 61.1102 7.25368C61.1079 7.25193 61.1048 7.25075 61.1017 7.24958C60.215 6.80806 59.0147 6.96558 58.3825 7.61732C57.7331 8.28663 57.9306 9.22412 58.8234 9.71131Z" fill="#3C3C3B"/>
</g>
</g>
<defs>
<clipPath id="clip0_1961_104379">
<rect width="80" height="80" fill="white"/>
</clipPath>
<clipPath id="clip1_1961_104379">
<rect width="80" height="80" fill="white"/>
</clipPath>
</defs>
</svg>
