<svg width="80" height="80" viewBox="0 0 80 80" fill="none" xmlns="http://www.w3.org/2000/svg">
<g clip-path="url(#clip0_1491_33695)">
<path d="M66.5608 12.1895C67.0109 12.1895 67.4509 12.0561 67.8252 11.806C68.1994 11.556 68.4912 11.2006 68.6634 10.7847C68.8357 10.3689 68.8808 9.9113 68.793 9.46983C68.7052 9.02837 68.4885 8.62285 68.1702 8.30456C67.8519 7.98627 67.4464 7.7695 67.005 7.68168C66.5635 7.59386 66.1059 7.63892 65.6901 7.81116C65.2742 7.9834 64.9188 8.27509 64.6687 8.64935C64.4186 9.0236 64.2852 9.46361 64.2852 9.91372C64.2858 10.5171 64.5258 11.0955 64.9524 11.5222C65.379 11.9488 65.9574 12.1888 66.5608 12.1895ZM66.5608 9.2006C66.7019 9.20057 66.8398 9.24238 66.9571 9.32074C67.0744 9.39911 67.1659 9.5105 67.2199 9.64084C67.2739 9.77119 67.288 9.91462 67.2605 10.053C67.233 10.1914 67.1651 10.3185 67.0653 10.4182C66.9655 10.518 66.8384 10.5859 66.7001 10.6135C66.5617 10.641 66.4182 10.6268 66.2879 10.5728C66.1576 10.5188 66.0462 10.4274 65.9678 10.3101C65.8894 10.1927 65.8476 10.0548 65.8477 9.91372C65.8479 9.72467 65.9231 9.54342 66.0568 9.40974C66.1905 9.27606 66.3717 9.20084 66.5608 9.2006Z" fill="#3C3C3B"/>
<path d="M18.6407 76.6023C18.8835 76.6117 19.1254 76.6166 19.3664 76.6168C23.665 76.6144 27.8149 75.043 31.0371 72.1977C34.2592 69.3525 36.3321 65.4289 36.8664 61.1637C39.8146 63.0218 42.8858 64.1168 45.6321 65.0934C50.7958 66.9304 54.5266 68.2576 54.5368 73.359C54.5171 74.0152 55.3705 74.394 55.8439 73.9352C56.5959 73.2554 57.2021 72.4301 57.6262 71.5093C58.0502 70.5886 58.2831 69.5914 58.311 68.578C58.3361 67.5528 58.1557 66.5329 57.7802 65.5785C57.4048 64.6241 56.842 63.7547 56.125 63.0213C55.9041 62.7937 55.8344 62.3807 56.036 62.1357C56.9329 61.046 57.599 59.7853 57.9937 58.4303C58.3885 57.0752 58.5037 55.654 58.3324 54.2531C58.1611 52.8521 57.7068 51.5006 56.9971 50.2807C56.2874 49.0607 55.3372 47.9977 54.2041 47.1562C54.0576 47.0477 53.8777 46.9938 53.6956 47.004C53.5136 47.0141 53.3408 47.0877 53.2072 47.2118C53.0737 47.336 52.9878 47.5029 52.9644 47.6837C52.941 47.8646 52.9815 48.0479 53.0791 48.202L53.7875 49.319C54.4103 50.316 54.7183 51.4775 54.6713 52.652C54.6243 53.8266 54.2245 54.9598 53.5241 55.9038C52.1303 57.8087 49.4691 58.6327 47.2063 57.9601C41.3938 56.234 37.4657 50.2745 38.0682 44.187C38.6536 38.2696 42.6755 33.1281 48.2275 31.312C48.7958 32.6674 49.0785 34.1254 49.0581 35.595C49.0377 37.0646 48.7145 38.5142 48.1088 39.8534C47.6063 40.5756 47.7999 41.647 48.8546 41.4077L50.0946 40.9765C52.4572 40.1553 54.4467 38.5136 55.7014 36.3499C56.9562 34.1861 57.3928 31.644 56.9321 29.1856C61.313 27.7803 65.3573 25.4873 68.8125 22.4495C73.091 18.6784 76.335 13.8767 78.2367 8.49993C78.2715 8.40148 78.2862 8.29706 78.2799 8.19285C78.2736 8.08864 78.2465 7.98674 78.2001 7.89319C78.1538 7.79963 78.0892 7.71631 78.0101 7.64815C77.931 7.57998 77.8391 7.52836 77.7397 7.49633L70.2757 5.09008C64.51 3.23071 58.655 2.88352 52.8742 4.05743C49.9021 4.66566 47.024 5.66636 44.3157 7.03321C39.3948 6.39917 34.3937 7.06869 29.8129 8.97474C25.2321 10.8808 21.2322 13.9565 18.2136 17.8941C17.3825 18.8004 18.1646 19.5709 19.2169 19.3927C21.0177 19.3885 22.7811 19.9072 24.2927 20.8859C25.8044 21.8646 26.9994 23.2612 27.7325 24.906C26.016 29.1059 25.1653 33.6091 25.2313 38.1457C23.5355 35.3947 22.1326 32.4736 21.0457 29.4302L20.0938 26.7698C20.0395 26.6181 19.9397 26.4869 19.8081 26.3941C19.6764 26.3014 19.5192 26.2516 19.3582 26.2516C19.1971 26.2516 19.0399 26.3014 18.9083 26.3941C18.7766 26.4869 18.6768 26.6181 18.6225 26.7698L17.6721 29.4279C15.6831 34.9997 12.6431 40.138 8.71722 44.5638C8.18191 45.1685 7.57066 45.8156 6.87019 46.517C5.14798 48.2297 3.80158 50.2825 2.91684 52.5444C2.0321 54.8064 1.62843 57.228 1.7316 59.6546C2.07441 68.7948 9.50191 76.2391 18.6407 76.6023ZM54.5041 35.2874C53.523 37.1325 51.9214 38.5715 49.9821 39.3499C50.9091 36.5941 50.8247 33.5983 49.7441 30.899L53.7805 30.0293C54.3328 29.9102 54.8805 29.7732 55.425 29.6265C55.7542 31.5634 55.4303 33.5548 54.5041 35.2874ZM60.8257 4.96758C63.8754 5.09084 66.8937 5.63236 69.7961 6.57696L76.4863 8.7343C74.6418 13.5581 71.6542 17.8622 67.7799 21.277C67.3764 21.6323 66.9619 21.9735 66.5416 22.3071C63.9508 20.331 62.0183 17.6173 60.9982 14.5226C59.978 11.4279 59.9179 8.09706 60.8257 4.96758ZM20.2308 17.8766C22.8723 14.7439 26.1975 12.2593 29.9504 10.6139C33.7033 8.9686 37.7838 8.2065 41.8775 8.38633C36.1002 11.8886 31.466 16.9953 28.5393 23.0845C27.6607 21.6248 26.4507 20.3927 25.0072 19.4879C23.5637 18.5831 21.9274 18.0311 20.2308 17.8766ZM39.0286 12.2918C43.143 8.95676 47.9977 6.65799 53.1849 5.58868C55.1693 5.18506 57.1874 4.96968 59.2124 4.9454C58.7766 6.58293 58.5795 8.27482 58.6274 9.96868C52.0422 9.9595 45.6588 12.2409 40.5711 16.4218C32.5127 22.9968 28.7483 33.0424 30.5018 43.2941C30.5367 43.4984 30.6513 43.6804 30.8204 43.8001C30.9896 43.9198 31.1993 43.9674 31.4035 43.9325C31.6078 43.8976 31.7898 43.7829 31.9095 43.6138C32.0292 43.4447 32.0768 43.2349 32.0419 43.0307C30.3847 33.3413 33.9424 23.8466 41.5591 17.6324C46.3974 13.6538 52.4762 11.4951 58.7402 11.5312C58.8792 12.6963 59.1328 13.8449 59.4974 14.9602C60.559 18.2375 62.5597 21.1308 65.2511 23.2812C61.7145 25.8069 57.6992 27.5837 53.4514 28.5026L49.4063 29.3735C42.4128 30.8806 37.2174 36.9137 36.5132 44.0329C35.8371 50.8645 40.233 57.5188 46.7613 59.4576C49.655 60.317 53.0021 59.2624 54.7849 56.8263C55.7463 55.5216 56.262 53.942 56.2557 52.3213C56.517 53.0042 56.6937 53.7166 56.7816 54.4424C56.932 55.6334 56.8364 56.8425 56.5006 57.995C56.1648 59.1475 55.5961 60.2188 54.8296 61.1426C54.1219 62.002 54.228 63.3102 55.0036 64.1095C55.5743 64.6929 56.0227 65.3843 56.3226 66.1433C56.6225 66.9023 56.7678 67.7136 56.75 68.5295C56.7217 69.5408 56.4363 70.5282 55.921 71.3988C55.0244 66.7759 50.8753 65.2998 46.1563 63.621C43.2657 62.5926 40.0043 61.4295 36.9947 59.3782C36.9977 59.2445 36.9997 59.1106 36.9997 58.9763C37.0098 54.3552 35.1964 49.9168 31.9532 46.6249C31.2946 45.9531 30.6138 45.2587 29.9863 44.5499C28.9031 43.3254 27.8851 42.0446 26.9366 40.7131C25.8996 29.8784 30.4085 19.2666 39.0286 12.2918ZM7.97706 47.621C8.69956 46.8971 9.33175 46.2276 9.88816 45.599C13.9461 41.0244 17.0882 35.7133 19.1439 29.9541L19.3588 29.3532L19.5744 29.9563C21.626 35.7098 24.7635 41.0157 28.8164 45.5857C29.47 46.3243 30.1653 47.0332 30.8418 47.7234C33.0967 50.0246 34.6082 52.9501 35.1804 56.1208C35.7526 59.2914 35.3591 62.5608 34.0508 65.505C32.7425 68.4493 30.5799 70.9326 27.8433 72.6329C25.1066 74.3333 21.9223 75.1722 18.7032 75.041C10.375 74.7101 3.60613 67.9259 3.29347 59.596C3.19943 57.3841 3.56734 55.1769 4.37373 53.1151C5.18013 51.0533 6.40733 49.1822 7.97706 47.621Z" fill="#3C3C3B"/>
<path d="M13.8408 30.9192C13.7484 30.8746 13.6482 30.8485 13.5457 30.8426C13.4433 30.8367 13.3407 30.851 13.2438 30.8847C13.1469 30.9185 13.0576 30.971 12.981 31.0392C12.9044 31.1075 12.842 31.1901 12.7973 31.2825C10.9022 35.2011 8.50706 38.8575 5.67188 42.1603C5.53691 42.3175 5.46992 42.5219 5.48566 42.7285C5.50139 42.9352 5.59856 43.1271 5.75578 43.262C5.91301 43.397 6.11741 43.464 6.32402 43.4482C6.53063 43.4325 6.72253 43.3353 6.8575 43.1781C9.78071 39.7728 12.2502 36.003 14.2044 31.9628C14.2491 31.8704 14.2751 31.7701 14.281 31.6677C14.2869 31.5652 14.2726 31.4626 14.2388 31.3657C14.205 31.2688 14.1525 31.1795 14.0842 31.1029C14.0159 31.0262 13.9332 30.9638 13.8408 30.9192Z" fill="#3C3C3B"/>
<path d="M15.2881 29.5671C15.5518 28.943 15.8073 28.3035 16.0474 27.6665C16.1185 27.473 16.1103 27.2594 16.0246 27.072C15.9388 26.8846 15.7825 26.7386 15.5897 26.6659C15.3969 26.5932 15.1831 26.5997 14.995 26.6839C14.8069 26.7681 14.6597 26.9232 14.5854 27.1154C14.3524 27.7334 14.1045 28.3535 13.8488 28.9591C13.8077 29.0538 13.7858 29.1558 13.7843 29.259C13.7828 29.3622 13.8017 29.4647 13.8401 29.5606C13.8785 29.6564 13.9354 29.7437 14.0077 29.8175C14.0801 29.8912 14.1662 29.9498 14.2614 29.99C14.3565 30.0302 14.4586 30.0511 14.5618 30.0516C14.6651 30.052 14.7674 30.0321 14.8629 29.9927C14.9583 29.9534 15.0451 29.8956 15.118 29.8226C15.191 29.7495 15.2488 29.6628 15.2881 29.5673V29.5671Z" fill="#3C3C3B"/>
</g>
<defs>
<clipPath id="clip0_1491_33695">
<rect width="80" height="80" fill="white"/>
</clipPath>
</defs>
</svg>
