<svg width="80" height="80" viewBox="0 0 80 80" fill="none" xmlns="http://www.w3.org/2000/svg">
<g clip-path="url(#clip0_1491_33604)">
<path d="M10.9504 5.00665C12.2782 4.94052 13.5921 5.30198 14.6992 6.0379C15.5294 6.58988 16.5042 6.88435 17.5011 6.88435C18.4981 6.88435 19.4729 6.58988 20.3031 6.0379C21.41 5.30274 22.7234 4.94164 24.0506 5.00759C25.4714 5.0761 26.8264 5.62716 27.8917 6.56976C28.9571 7.51235 29.6691 8.79012 29.9102 10.192C30.1513 11.5939 29.907 13.0361 29.2177 14.2805C28.5284 15.5248 27.4354 16.4968 26.119 17.036C25.4218 17.3145 24.8238 17.795 24.4018 18.4159C23.9799 19.0368 23.7532 19.7697 23.7509 20.5204V27.5001H26.2509V20.5204C26.2542 20.2661 26.3335 20.0186 26.4786 19.8098C26.6238 19.6009 26.8281 19.4403 27.0653 19.3485C28.195 18.8854 29.2153 18.1911 30.0606 17.31C30.9058 16.429 31.5574 15.3808 31.9733 14.2329C32.3892 13.085 32.5603 11.8627 32.4755 10.6447C32.3907 9.42674 32.052 8.23997 31.481 7.16073C30.9101 6.0815 30.1196 5.13369 29.1605 4.37826C28.2013 3.62282 27.0946 3.07649 25.9117 2.77439C24.7287 2.47228 23.4956 2.42109 22.2916 2.62412C21.0877 2.82714 19.9395 3.27987 18.9211 3.95321C18.5003 4.23281 18.0063 4.38196 17.5011 4.38196C16.9959 4.38196 16.502 4.23281 16.0812 3.95321C14.5322 2.92254 12.6933 2.41615 10.835 2.50852C9.46256 2.57847 8.12568 2.96928 6.9317 3.64955C5.73771 4.32983 4.71989 5.28061 3.95996 6.42556L6.04184 7.80977C6.5839 6.99131 7.31034 6.31136 8.16282 5.82454C9.0153 5.33772 9.97006 5.05759 10.9504 5.00665Z" fill="#3C3C3B"/>
<path d="M27.0629 60.6506C26.8262 60.5587 26.6224 60.3981 26.4776 60.1895C26.3328 59.9809 26.2537 59.7338 26.2504 59.4799V38.7502H23.7504V59.4799C23.7525 60.2304 23.9789 60.9633 24.4007 61.5842C24.8224 62.2051 25.4202 62.6857 26.1171 62.9642C26.9239 63.295 27.6525 63.7909 28.2562 64.4201C28.8599 65.0493 29.3252 65.7978 29.6223 66.6176C29.9193 67.4374 30.0416 68.3103 29.9812 69.1801C29.9208 70.05 29.679 70.8975 29.2715 71.6684C28.8639 72.4392 28.2996 73.1162 27.6147 73.6559C26.9299 74.1956 26.1397 74.5861 25.295 74.8021C24.4502 75.0182 23.5696 75.0551 22.7097 74.9105C21.8499 74.7659 21.0298 74.443 20.3021 73.9625C19.4719 73.4105 18.4972 73.1161 17.5002 73.1161C16.5032 73.1161 15.5285 73.4105 14.6982 73.9625C13.5914 74.6979 12.2779 75.059 10.9507 74.9928C9.5299 74.9243 8.17493 74.3733 7.10957 73.4307C6.04422 72.4881 5.33222 71.2103 5.09114 69.8084C4.85007 68.4065 5.09434 66.9643 5.78362 65.7199C6.47291 64.4756 7.56597 63.5036 8.8823 62.9644C9.57951 62.6859 10.1775 62.2054 10.5995 61.5845C11.0215 60.9635 11.2482 60.2306 11.2504 59.4799V20.5205C11.2484 19.7699 11.0219 19.0371 10.6002 18.4162C10.1785 17.7953 9.58069 17.3147 8.88371 17.0361C7.69836 16.547 6.69126 15.7065 5.99795 14.6278C5.30463 13.5491 4.95836 12.2839 5.00574 11.0025C5.01592 10.7365 5.04338 10.4715 5.08792 10.2091L2.62292 9.79126C2.29237 11.7512 2.63851 13.7653 3.60444 15.5024C4.57037 17.2395 6.09861 18.5963 7.93792 19.3497C8.17464 19.4416 8.37848 19.6022 8.52326 19.8108C8.66803 20.0194 8.74714 20.2666 8.75042 20.5205V59.4799C8.74713 59.7342 8.66781 59.9816 8.52268 60.1905C8.37755 60.3993 8.17324 60.56 7.93605 60.6517C6.093 61.4067 4.56263 62.7678 3.59772 64.5102C2.63281 66.2525 2.29111 68.2719 2.62904 70.2347C2.96698 72.1975 3.96434 73.9863 5.45637 75.3057C6.94841 76.625 8.84585 77.3959 10.8353 77.4911C10.974 77.4971 11.1124 77.5002 11.2504 77.5002C12.9688 77.504 14.6497 76.998 16.0804 76.0461C16.5012 75.7664 16.9951 75.6173 17.5003 75.6173C18.0056 75.6173 18.4995 75.7664 18.9203 76.0461C20.4694 77.0765 22.3082 77.5829 24.1665 77.4908C26.1561 77.3956 28.0537 76.6245 29.5458 75.3049C31.0379 73.9853 32.0351 72.1961 32.3727 70.2331C32.7104 68.27 32.3682 66.2505 31.4028 64.5082C30.4373 62.7659 28.9064 61.4051 27.0629 60.6506Z" fill="#3C3C3B"/>
<path d="M16.25 27.5H13.75V60H16.25V27.5Z" fill="#3C3C3B"/>
<path d="M16.25 22.5H13.75V25H16.25V22.5Z" fill="#3C3C3B"/>
<path d="M59.7253 37.3476L55.977 35.5157C55.2833 35.1783 54.5219 35.0029 53.7505 35.0029C52.979 35.0029 52.2176 35.1783 51.5239 35.5157L47.7739 37.3485C46.9435 37.7464 46.2424 38.3709 45.7516 39.15C45.2608 39.9291 45.0003 40.8311 45 41.752V46.9988C45.0028 47.7946 45.1992 48.5777 45.5721 49.2806C45.945 49.9836 46.4833 50.5853 47.1406 51.0338C48.4655 51.9354 50.0841 52.5318 51.5233 53.2352C52.217 53.5726 52.9784 53.748 53.7498 53.748C54.5213 53.748 55.2827 53.5726 55.9764 53.2352C57.4236 52.5279 59.0356 51.9455 60.367 51.0291C61.0225 50.5804 61.5591 49.9791 61.9306 49.2771C62.3022 48.575 62.4976 47.7932 62.5 46.9988V41.752C62.4998 40.8309 62.2392 39.9287 61.7482 39.1494C61.2573 38.3701 60.556 37.7454 59.7253 37.3476ZM60 41.752V43.458L58.873 42.9074C58.4639 42.7136 58.118 42.4081 57.875 42.0262C57.6321 41.6443 57.5021 41.2015 57.5 40.7488V39.0426L58.627 39.5934C59.0361 39.7872 59.382 40.0927 59.6249 40.4746C59.8678 40.8565 59.9979 41.2993 60 41.752ZM53.75 37.5009C54.1406 37.5005 54.5261 37.5893 54.8772 37.7605L55.0002 37.8207V40.7488C55.0003 41.6699 55.2609 42.5721 55.7519 43.3514C56.2428 44.1307 56.9441 44.7554 57.7748 45.1532L60 46.2404V46.9988C59.9983 47.5363 59.8144 48.0574 59.4783 48.4768L55.977 46.7657C55.2833 46.4283 54.5219 46.2529 53.7505 46.2529C52.979 46.2529 52.2176 46.4283 51.5239 46.7657L48.0223 48.4766C47.6858 48.0575 47.5016 47.5364 47.5 46.9988V46.2404L49.7262 45.1529C50.5567 44.7549 51.2578 44.1303 51.7486 43.3511C52.2393 42.5718 52.4998 41.6697 52.5 40.7488V37.8207L52.6237 37.7602C52.9745 37.589 53.3597 37.5003 53.75 37.5009ZM48.8722 39.5946L50 39.0426V40.7488C49.9979 41.2013 49.8681 41.644 49.6253 42.0258C49.3825 42.4076 49.0368 42.7131 48.628 42.907L47.5 43.458V41.752C47.5021 41.2995 47.632 40.8568 47.8748 40.475C48.1175 40.0932 48.4632 39.7877 48.872 39.5938L48.8722 39.5946ZM54.8764 50.9915C54.5253 51.1623 54.1399 51.2511 53.7494 51.2511C53.3589 51.2511 52.9735 51.1623 52.6223 50.9915L50.5978 50.0001L52.6237 49.0099C52.9749 48.8391 53.3603 48.7504 53.7508 48.7504C54.1413 48.7504 54.5267 48.8391 54.8778 49.0099L56.9022 50.0001L54.8764 50.9915Z" fill="#3C3C3B"/>
<path d="M74.7816 35.6771C72.1778 30.6398 67.8992 26.6679 62.6825 24.4453C57.4657 22.2227 51.6373 21.8885 46.2007 23.5001C41.7315 24.8557 37.7335 27.4408 34.6632 30.9601L22.7432 30.5215C22.4887 30.5121 22.2374 30.5807 22.0229 30.7181C21.8085 30.8556 21.6411 31.0552 21.5432 31.2903C21.4454 31.5255 21.4217 31.7849 21.4753 32.0339C21.5289 32.2829 21.6574 32.5095 21.8434 32.6835L28.4795 38.8913L29.7204 40.0523C29.4392 41.0196 29.2176 42.0033 29.057 42.9977C29.0555 43.0063 29.0541 43.0151 29.053 43.0238C28.8511 44.2976 28.7499 45.5854 28.7504 46.8751C28.7504 57.4532 36.077 67.2604 46.2104 70.2551C51.0026 71.6405 56.1006 71.5527 60.8423 70.0032C64.7855 68.6748 68.3273 66.3677 71.136 63.2977C72.9049 61.3624 74.3493 59.1538 75.4135 56.7576L73.1287 55.742C72.8504 56.3684 72.5429 56.9808 72.206 57.5791C71.7649 56.3811 70.8756 55.4013 69.7257 54.8466L65.9774 53.0157C65.2837 52.6783 64.5223 52.503 63.7509 52.503C62.9794 52.503 62.218 52.6783 61.5243 53.0157L57.7743 54.8485C56.9439 55.2464 56.2429 55.8708 55.7521 56.6499C55.2613 57.429 55.0007 58.3309 55.0004 59.2516V64.4985C55.0031 65.2586 55.1826 66.0077 55.5247 66.6864C55.8668 67.3652 56.3622 67.955 56.9716 68.4093C54.7712 68.8028 52.5234 68.8559 50.3068 68.5666C50.3263 68.5538 50.3462 68.5427 50.3657 68.5295C51.0216 68.0809 51.5586 67.4796 51.9304 66.7774C52.3023 66.0752 52.4979 65.2931 52.5004 64.4985V59.2516C52.5002 58.3306 52.2396 57.4283 51.7487 56.649C51.2577 55.8697 50.5564 55.2451 49.7257 54.8473L45.9774 53.0157C45.2837 52.6783 44.5223 52.503 43.7509 52.503C42.9794 52.503 42.218 52.6783 41.5243 53.0157L37.7743 54.8485C36.9631 55.2377 36.2751 55.8435 35.7864 56.599C35.2977 57.3545 35.0273 58.2303 35.0049 59.1298C33.8347 57.4044 32.9186 55.5198 32.2849 53.5337C33.5089 53.9019 34.8266 53.7959 35.976 53.2368C37.419 52.5316 39.0357 51.9359 40.3666 51.0307C41.0225 50.5819 41.5594 49.9804 41.9311 49.2779C42.3028 48.5755 42.4982 47.7932 42.5004 46.9985V41.7516C42.5002 40.8306 42.2396 39.9284 41.7486 39.1491C41.2577 38.3697 40.5564 37.7451 39.7257 37.3473L35.9774 35.5157C35.2837 35.1783 34.5223 35.0029 33.7509 35.0029C32.9794 35.0029 32.218 35.1783 31.5243 35.5157L29.5582 36.4776L25.9938 33.1432L35.1813 33.4812C35.3739 33.4877 35.5654 33.4499 35.7411 33.3707C35.9167 33.2914 36.0718 33.1729 36.1943 33.0241C36.2427 32.9649 36.2921 32.9071 36.3409 32.849C36.1805 33.0495 38.9762 34.5343 39.1246 34.6146C40.551 35.3876 42.0812 36.2487 43.7512 36.2485C45.8149 36.2485 47.9177 34.7873 49.728 33.9026C50.5504 33.4944 51.2443 32.8673 51.7334 32.0903C52.2225 31.3134 52.4879 30.4165 52.5004 29.4985V25.0096C53.3344 24.9862 54.1691 25.0099 55.0004 25.0809V29.4985C55.0033 30.2942 55.1996 31.0773 55.5725 31.7802C55.9455 32.4832 56.4838 33.0848 57.141 33.5334C58.4659 34.4345 60.0844 35.0315 61.5237 35.7349C62.2174 36.0723 62.9788 36.2477 63.7502 36.2477C64.5217 36.2477 65.283 36.0723 65.9768 35.7349L69.7288 33.901C69.9497 33.7923 70.1627 33.668 70.366 33.5291C70.3854 33.5159 70.4029 33.5007 70.422 33.4871C70.9014 34.1027 71.3476 34.7435 71.7585 35.4068C71.6797 35.4406 71.6018 35.4763 71.5251 35.5141L67.7751 37.347C66.9443 37.7448 66.243 38.3695 65.752 39.1488C65.2611 39.9282 65.0005 40.8305 65.0004 41.7516V46.9985C65.0033 47.7942 65.1996 48.5773 65.5725 49.2802C65.9455 49.9832 66.4838 50.5848 67.141 51.0334C67.3434 51.1713 67.5554 51.2948 67.7752 51.4029L71.5237 53.2349C72.2172 53.5723 72.9783 53.7477 73.7495 53.7478C74.5207 53.748 75.2819 53.5729 75.9755 53.2359L76.2318 53.1109C76.4002 53.0288 76.548 52.9099 76.6643 52.7631C76.7806 52.6162 76.8624 52.445 76.9037 52.2623C78.1561 46.6558 77.4053 40.7877 74.7816 35.6771ZM70.0004 59.2516V60.7946C69.9691 60.8332 69.936 60.8718 69.9037 60.9104L68.8734 60.4071C68.4643 60.2133 68.1184 59.9078 67.8755 59.5259C67.6325 59.144 67.5025 58.7012 67.5004 58.2485V56.5423L68.6274 57.093C69.0365 57.2869 69.3824 57.5923 69.6253 57.9743C69.8682 58.3562 69.9983 58.799 70.0004 59.2516ZM64.8774 55.2602L65.0004 55.3204V58.2485C65.0006 59.1696 65.2613 60.0719 65.7522 60.8512C66.2432 61.6305 66.9445 62.2552 67.7752 62.6531L68.1054 62.8141C67.5107 63.3738 66.8851 63.8997 66.2316 64.3895L65.9774 64.2652C65.2837 63.9277 64.5224 63.7522 63.7509 63.7521C62.9795 63.752 62.2181 63.9272 61.5243 64.2645L58.0221 65.9762C57.6858 65.557 57.5018 65.036 57.5004 64.4985V63.7404L59.7266 62.6529C60.5571 62.2549 61.2582 61.6303 61.749 60.8511C62.2397 60.0718 62.5002 59.1697 62.5004 58.2488V55.3204L62.6241 55.2599C62.9752 55.0892 63.3605 55.0005 63.7508 55.0006C64.1412 55.0006 64.5264 55.0894 64.8774 55.2602ZM58.8724 57.0938L60.0004 56.5423V58.2488C59.9983 58.7013 59.8684 59.144 59.6257 59.5258C59.3829 59.9077 59.0372 60.2131 58.6284 60.407L57.5004 60.9581V59.2516C57.5025 58.7992 57.6324 58.3566 57.8752 57.9749C58.1179 57.5931 58.4636 57.2877 58.8724 57.0938ZM46.4641 67.7141C45.3127 67.347 44.1939 66.8844 43.1193 66.3313C43.7084 66.1819 44.3313 66.2454 44.8782 66.5106L46.9024 67.5001L46.4641 67.7141ZM50.0004 59.2516V60.9581L48.8734 60.4074C48.4643 60.2136 48.1184 59.9081 47.8754 59.5262C47.6325 59.1443 47.5025 58.7015 47.5004 58.2488V56.5423L48.6274 57.093C49.0365 57.2868 49.3824 57.5923 49.6253 57.9743C49.8683 58.3562 49.9983 58.799 50.0004 59.2516ZM44.8774 55.2602L45.0004 55.3204V58.2488C45.0006 59.1699 45.2612 60.0721 45.7521 60.8514C46.2431 61.6307 46.9444 62.2554 47.7751 62.6532L50.0004 63.7404V64.4985C49.9987 65.036 49.8148 65.5571 49.4787 65.9765L45.9774 64.2657C45.2839 63.9283 44.5228 63.7529 43.7515 63.7527C42.9803 63.7526 42.2191 63.9276 41.5254 64.2648L40.5213 64.7549C39.846 64.2778 39.198 63.7629 38.5805 63.2129L39.7266 62.6529C40.5572 62.255 41.2584 61.6303 41.7491 60.851C42.2399 60.0717 42.5004 59.1695 42.5004 58.2485V55.3204L42.6241 55.2599C42.9752 55.0892 43.3605 55.0005 43.7508 55.0006C44.1412 55.0006 44.5264 55.0894 44.8774 55.2602ZM37.5004 59.2516C37.5024 58.7992 37.6323 58.3565 37.8751 57.9747C38.1178 57.5928 38.4636 57.2874 38.8724 57.0935L40.0004 56.5426V58.2485C39.9983 58.701 39.8684 59.1437 39.6257 59.5255C39.3829 59.9073 39.0372 60.2128 38.6284 60.4066L37.5004 60.9577V59.2516ZM34.8766 50.9902C34.5255 51.1611 34.1402 51.2498 33.7498 51.2498C33.3593 51.2498 32.974 51.1611 32.6229 50.9902L31.5438 50.4624C31.541 50.4468 31.5388 50.4295 31.5362 50.4131C31.4985 50.1812 31.4652 49.9477 31.4349 49.7137C31.4299 49.6754 31.4252 49.637 31.4205 49.5987L32.6237 49.0105C32.9748 48.8397 33.3602 48.7509 33.7507 48.7509C34.1412 48.7509 34.5266 48.8397 34.8777 49.0105L36.9027 50.0001L34.8766 50.9902ZM40.0004 41.7516V43.4573L38.8734 42.9068C38.4643 42.713 38.1184 42.4075 37.8755 42.0256C37.6326 41.6436 37.5025 41.2008 37.5004 40.7482V39.0423L38.6274 39.5931C39.0365 39.7869 39.3824 40.0923 39.6253 40.4743C39.8682 40.8562 39.9983 41.299 40.0004 41.7516ZM34.8774 37.7602L35.0004 37.8204V40.7482C35.0006 41.6693 35.2612 42.5715 35.7522 43.3508C36.2431 44.1301 36.9444 44.7547 37.7751 45.1526L40.0004 46.2396V46.9985C39.9987 47.536 39.8148 48.0571 39.4787 48.4765L35.9774 46.7657C35.2837 46.4282 34.5224 46.2527 33.7509 46.2526C32.9795 46.2524 32.2181 46.4276 31.5243 46.7649L31.2504 46.8985C31.2504 46.8907 31.2504 46.8829 31.2504 46.8751C31.2514 45.8207 31.328 44.7676 31.4795 43.7241C32.141 42.8733 32.5003 41.8263 32.5004 40.7485V37.8204L32.6241 37.7599C32.9752 37.5892 33.3605 37.5005 33.7508 37.5006C34.1412 37.5006 34.5264 37.5894 34.8774 37.7602ZM49.4788 30.9762L45.9774 29.2657C45.2837 28.9283 44.5223 28.7529 43.7509 28.7529C42.9794 28.7529 42.218 28.9283 41.5243 29.2657L38.1982 30.8907C40.4409 28.7947 43.0991 27.1935 46.0004 26.191C46.4699 26.8102 47.0778 27.3108 47.7755 27.6529L50.0004 28.7399V29.4985C49.9987 30.0359 49.8148 30.5568 49.4788 30.9762ZM48.8851 25.4129C49.2548 25.34 49.6265 25.277 50.0004 25.2238V25.9582L48.8851 25.4129ZM44.8766 33.4902C44.5255 33.6611 44.1401 33.7499 43.7496 33.7499C43.3591 33.7499 42.9737 33.6611 42.6226 33.4902L40.5977 32.5001L42.6241 31.5096C42.9753 31.3388 43.3607 31.25 43.7512 31.25C44.1417 31.25 44.527 31.3388 44.8782 31.5096L46.903 32.5001L44.8766 33.4902ZM58.0224 30.9759C57.6861 30.5568 57.5021 30.0359 57.5004 29.4985V28.7399L59.7259 27.6529C60.2857 27.3802 60.7893 27.0045 61.2102 26.5456C63.0375 27.2742 64.758 28.2462 66.3252 29.4351L65.9773 29.2649C65.2835 28.9275 64.5222 28.7521 63.7507 28.7521C62.9792 28.7521 62.2179 28.9275 61.5241 29.2649L58.0224 30.9759ZM58.2329 25.5998L57.5004 25.9576V25.4396C57.7454 25.4893 57.9899 25.5416 58.2329 25.5998ZM64.8766 33.4904C64.5255 33.6612 64.1401 33.75 63.7496 33.75C63.3591 33.75 62.9737 33.6612 62.6226 33.4904L60.5977 32.5001L62.6241 31.5096C62.9753 31.3388 63.3607 31.25 63.7512 31.25C64.1417 31.25 64.527 31.3388 64.8782 31.5096L66.903 32.5001L64.8766 33.4904ZM72.9548 37.626C74.2449 40.377 74.9397 43.3693 74.994 46.4073C73.8318 46.1143 72.6035 46.2406 71.5252 46.764L68.023 48.4757C67.6865 48.0568 67.5022 47.5359 67.5004 46.9985V46.2396L69.7266 45.1521C70.5571 44.7542 71.2582 44.1296 71.7489 43.3504C72.2397 42.5712 72.5002 41.6691 72.5004 40.7482V37.8204L72.6254 37.7591C72.7319 37.7069 72.842 37.6624 72.9549 37.6259L72.9548 37.626ZM68.8724 39.5938L70.0004 39.0423V40.7482C69.9983 41.2007 69.8684 41.6433 69.6256 42.0251C69.3829 42.407 69.0372 42.7124 68.6284 42.9063L67.5004 43.4573V41.7516C67.5025 41.2992 67.6324 40.8566 67.8752 40.4749C68.1179 40.0931 68.4636 39.7877 68.8724 39.5938ZM72.6224 50.9899L70.5982 50.0001L72.6241 49.0099C72.9755 48.8392 73.361 48.7505 73.7516 48.7507C74.1422 48.7509 74.5277 48.8398 74.8788 49.0109L74.8945 49.0188C74.8263 49.7196 74.7254 50.4188 74.5904 51.1091C73.9445 51.3314 73.2368 51.2884 72.6226 50.9896L72.6224 50.9899Z" fill="#3C3C3B"/>
</g>
<defs>
<clipPath id="clip0_1491_33604">
<rect width="80" height="80" fill="white"/>
</clipPath>
</defs>
</svg>
