<svg width="80" height="80" viewBox="0 0 80 80" fill="none" xmlns="http://www.w3.org/2000/svg">
<g clip-path="url(#clip0_1491_33753)">
<g clip-path="url(#clip1_1491_33753)">
<path d="M78.6667 29.3334C78.6586 25.3566 75.7306 21.9895 71.7934 21.4294C70.4844 12.9704 63.2263 6.71407 54.6667 6.66675C54.3267 6.66675 53.9694 6.70675 53.6214 6.72675C52.3649 4.49739 50.115 3.0063 47.5723 2.71776C45.0295 2.42922 42.5027 3.37827 40.7787 5.26941C38.4124 3.57685 35.576 2.66681 32.6667 2.66675C28.145 2.68934 23.9089 4.88033 21.2774 8.55742C18.2558 7.50296 14.9119 7.96145 12.2857 9.79027C9.65956 11.6191 8.0697 14.5964 8.01069 17.7961C4.08402 19.1159 1.86054 23.2615 2.93335 27.2627C1.01842 30.0244 -0.00521567 33.3061 1.99843e-05 36.6667C-0.00494358 41.8913 2.44256 46.8152 6.61038 49.9655C10.7782 53.1159 16.183 54.1274 21.208 52.6974C22.9501 56.4443 26.415 59.1021 30.4854 59.8136C34.5558 60.5251 38.7168 59.2005 41.6267 56.2668C43.2663 56.8238 44.972 57.1632 46.7 57.2761C46.9467 62.2628 48.864 65.2521 56.912 67.9348C62.1374 69.6761 63.532 73.2121 63.8974 75.1654C64.1456 76.4298 65.2569 77.3396 66.5454 77.3334H70.6134C71.3485 77.3347 72.0515 77.0324 72.5564 76.498C73.0612 75.9637 73.323 75.2446 73.28 74.5107C73.0814 71.3108 72.1947 63.9014 68.332 59.1974C72.7777 56.7679 75.9314 52.508 76.9574 47.5467C80.5909 43.3164 81.0149 37.2021 78 32.5107C78.436 31.508 78.6628 30.4268 78.6667 29.3334ZM74.7654 46.0161L74.7347 46.0481C72.8375 48.1327 70.152 49.3247 67.3334 49.3334C65.7555 49.3389 64.1999 48.9614 62.8 48.2334C62.1648 47.9055 61.5686 47.507 61.0227 47.0454C62.8042 45.0115 63.1773 42.1017 61.9667 39.6841C61.7523 39.2582 61.3271 38.9791 60.8511 38.9518C60.3751 38.9245 59.9207 39.1532 59.6591 39.5518C59.3975 39.9504 59.3683 40.4582 59.5827 40.8841C59.8597 41.4374 60.0026 42.048 60 42.6667C60.0018 44.5235 58.7255 46.1374 56.9184 46.5636C55.1112 46.9899 53.2483 46.1166 52.42 44.4548C52.2057 44.0289 51.7804 43.7497 51.3044 43.7224C50.8284 43.6952 50.374 43.9239 50.1124 44.3224C49.8508 44.721 49.8217 45.2289 50.036 45.6548C51.6422 48.8939 55.5476 50.2487 58.8147 48.7001C59.645 49.4647 60.578 50.1096 61.5867 50.6161C65.2019 52.4794 69.4975 52.4679 73.1027 50.5854C71.0154 54.7761 67.0394 57.7067 62.4187 58.4601C61.7301 58.5677 61.2405 59.1876 61.2954 59.8824C61.3503 60.5772 61.931 61.1125 62.628 61.1107C62.6995 61.1109 62.7709 61.1051 62.8414 61.0934C63.8424 60.9295 64.8267 60.6765 65.7827 60.3374C69.5694 64.3174 70.4254 71.6201 70.6134 74.6721H66.5187C66.1374 72.6361 64.5187 67.6574 57.7547 65.4027C50.8787 63.1107 49.5587 61.0294 49.3654 57.2814H49.4374C50.9455 57.1776 52.437 56.902 53.8827 56.4601C54.5867 56.244 54.9822 55.4981 54.766 54.7941C54.5499 54.0901 53.804 53.6946 53.1 53.9107C51.8396 54.2959 50.5391 54.5349 49.224 54.6227C46.6747 54.8215 44.1137 54.4357 41.736 53.4947C41.2095 53.2974 40.6158 53.4447 40.2427 53.8654C37.9083 56.5766 34.3024 57.8328 30.7887 57.1589C27.275 56.485 24.3897 53.9839 23.224 50.6014V50.5934C22.2509 47.8034 22.5694 44.725 24.0934 42.1934C24.473 41.5623 24.2691 40.743 23.638 40.3634C23.0069 39.9838 22.1876 40.1877 21.808 40.8187C21.2172 41.8031 20.7637 42.8636 20.46 43.9707C19.3231 44.1218 18.1767 43.7702 17.3201 43.0075C16.4634 42.2449 15.9815 41.1469 16 40.0001V39.9467C15.999 39.5959 15.8573 39.2601 15.6067 39.0145C15.3561 38.7689 15.0175 38.634 14.6667 38.6401C13.9254 38.6532 13.3318 39.2587 13.3334 40.0001C13.3378 43.6802 16.32 46.6623 20 46.6667H20.0454C20.0334 46.8908 20 47.1121 20 47.3334C20.0029 48.2919 20.1152 49.247 20.3347 50.1801C16.1263 51.3192 11.6275 50.4339 8.16453 47.7853C4.70152 45.1366 2.6692 41.0265 2.66669 36.6667C2.66269 34.3883 3.22145 32.144 4.29335 30.1334C4.90599 30.9607 5.67299 31.6616 6.55202 32.1974C6.96049 32.4425 7.46869 32.451 7.88518 32.2198C8.30166 31.9886 8.56316 31.5528 8.57118 31.0765C8.57919 30.6002 8.33249 30.1558 7.92402 29.9107C5.86447 28.6791 4.88108 26.2237 5.52112 23.9109C6.16115 21.5982 8.26699 19.9976 10.6667 20.0001C12.3493 19.9939 13.9341 20.7902 14.9334 22.1441C15.3752 22.7332 16.2109 22.8526 16.8 22.4107C17.3891 21.9689 17.5085 21.1332 17.0667 20.5441C15.5736 18.5249 13.2113 17.3336 10.7 17.3334C11.0482 13.5603 14.2109 10.672 18 10.6667C18.6446 10.6706 19.2858 10.7603 19.9067 10.9334C19.5852 11.6346 19.3221 12.361 19.12 13.1054C19.0304 13.4477 19.0805 13.8116 19.2593 14.117C19.4381 14.4224 19.7309 14.6441 20.0734 14.7334C20.4157 14.8231 20.7796 14.773 21.0849 14.5942C21.3903 14.4154 21.6121 14.1225 21.7014 13.7801C21.9649 12.7646 22.3688 11.7907 22.9014 10.8867C24.9595 7.45345 28.6638 5.34695 32.6667 5.33341C35.0593 5.33201 37.3905 6.09072 39.324 7.50008C38.89 8.49936 38.6662 9.57727 38.6667 10.6667C38.6667 11.4031 39.2636 12.0001 40 12.0001C40.7364 12.0001 41.3334 11.4031 41.3334 10.6667C41.3334 7.72123 43.7212 5.33341 46.6667 5.33341C49.6122 5.33341 52 7.72123 52 10.6667C52 11.4031 52.597 12.0001 53.3334 12.0001C54.0697 12.0001 54.6667 11.4031 54.6667 10.6667C54.6644 10.2197 54.6243 9.77367 54.5467 9.33342H54.6667C61.7876 9.37082 67.8659 14.4884 69.116 21.4987C67.9384 21.7251 66.8274 22.2156 65.8667 22.9334C65.2776 23.3752 65.1582 24.211 65.6 24.8001C66.0419 25.3892 66.8776 25.5086 67.4667 25.0667C69.4861 23.5501 72.2925 23.6579 74.1897 25.3248C76.0869 26.9918 76.5549 29.7609 75.3107 31.9587C74.7569 32.9235 73.9187 33.6936 72.9107 34.1641C72.2435 34.4763 71.9558 35.2703 72.268 35.9374C72.5803 36.6046 73.3742 36.8923 74.0414 36.5801C74.8852 36.1774 75.6523 35.6305 76.308 34.9641C78.1014 38.6179 77.4871 42.9957 74.7574 46.0148L74.7654 46.0161Z" fill="#3C3C3B"/>
<path d="M51.9997 28.0002H49.005L46.6143 19.6335C46.4548 19.0455 45.9112 18.645 45.3023 18.6669C44.6948 18.6805 44.1734 19.1033 44.0343 19.6949L40.105 36.4002L35.973 15.7335C35.8468 15.1121 35.3004 14.6655 34.6663 14.6655C34.0322 14.6655 33.4859 15.1121 33.3597 15.7335L30.9063 28.0002H22.6663C21.93 28.0002 21.333 28.5972 21.333 29.3335C21.333 30.0699 21.93 30.6669 22.6663 30.6669H31.9997C32.6334 30.667 33.1796 30.2211 33.3063 29.6002L34.6663 22.8002L38.693 42.9335C38.818 43.5462 39.3519 43.9897 39.977 44.0002H39.9997C40.6187 44.0006 41.1566 43.5748 41.2983 42.9722L45.4583 25.2909L46.7183 29.7002C46.882 30.2722 47.4047 30.6666 47.9997 30.6669H51.9997C52.7361 30.6669 53.333 30.0699 53.333 29.3335C53.333 28.5972 52.7361 28.0002 51.9997 28.0002Z" fill="#3C3C3B"/>
<path d="M60 28H57.3333C56.597 28 56 28.597 56 29.3333C56 30.0697 56.597 30.6667 57.3333 30.6667H60C60.7364 30.6667 61.3333 30.0697 61.3333 29.3333C61.3333 28.597 60.7364 28 60 28Z" fill="#3C3C3B"/>
</g>
</g>
<defs>
<clipPath id="clip0_1491_33753">
<rect width="80" height="80" fill="white"/>
</clipPath>
<clipPath id="clip1_1491_33753">
<rect width="80" height="80" fill="white"/>
</clipPath>
</defs>
</svg>
