<svg width="80" height="80" viewBox="0 0 80 80" fill="none" xmlns="http://www.w3.org/2000/svg">
<g clip-path="url(#clip0_1779_49925)">
<path d="M46.25 46.6012V42.5C46.2437 36.8661 44.0029 31.4647 40.0191 27.4809C36.0353 23.4971 30.6339 21.2563 25 21.25C24.6685 21.25 24.3505 21.3817 24.1161 21.6161C23.8817 21.8505 23.75 22.1685 23.75 22.5V35C23.7481 37.1625 24.0778 39.3124 24.7275 41.375C23.9877 41.2944 23.2442 41.2527 22.5 41.25H10C9.66848 41.25 9.35054 41.3817 9.11612 41.6161C8.8817 41.8505 8.75 42.1685 8.75 42.5C8.75894 47.9764 10.8809 53.238 14.6736 57.1884C18.4664 61.1388 23.6373 63.4732 29.1088 63.705C28.8755 64.9567 28.7555 66.2268 28.75 67.5C28.75 67.8315 28.8817 68.1495 29.1161 68.3839C29.3505 68.6183 29.6685 68.75 30 68.75H42.5C48.1339 68.7437 53.5353 66.5029 57.5191 62.5191C61.5029 58.5353 63.7437 53.1339 63.75 47.5C63.75 47.1685 63.6183 46.8505 63.3839 46.6161C63.1495 46.3817 62.8315 46.25 62.5 46.25H50C48.7421 46.2562 47.4872 46.3737 46.25 46.6012ZM26.25 35V23.7913C30.9938 24.1141 35.4384 26.2249 38.6865 29.6973C41.9346 33.1697 43.7442 37.7452 43.75 42.5V47.1912C42.8376 47.4791 41.9459 47.8291 41.0813 48.2388L41.065 48.075C40.7108 44.5366 39.6053 41.1147 37.8223 38.0379C36.0394 34.9611 33.6201 32.3004 30.7262 30.2338L29.2738 32.2662C31.8777 34.1267 34.0545 36.5215 35.6587 39.2906C37.263 42.0597 38.2576 45.1394 38.5763 48.3237L38.61 48.6575C35.7228 45.3025 31.8631 42.929 27.5662 41.8662C26.6977 39.6812 26.251 37.3514 26.25 35ZM11.2912 43.75H22.5C25.2863 43.7584 28.0358 44.3868 30.5492 45.5895C33.0625 46.7923 35.2767 48.5392 37.0312 50.7038C35.6987 51.7307 34.492 52.9114 33.4363 54.2212L17.9925 47.5962L17.0075 49.8938L31.9688 56.3062C31.0022 57.8429 30.238 59.4978 29.695 61.23C24.9958 61.1499 20.4977 59.3096 17.09 56.073C13.6823 52.8363 11.613 48.4388 11.2912 43.75ZM42.5 66.25H33.64C40.4913 61.0493 48.279 57.2151 56.5788 54.9562L55.9212 52.5438C47.0404 54.9599 38.727 59.1139 31.4625 64.765C32.1226 60.3181 34.3568 56.2557 37.7587 53.3167C41.1606 50.3777 45.5044 48.7573 50 48.75H61.2087C60.8859 53.4938 58.7751 57.9384 55.3027 61.1865C51.8302 64.4346 47.2548 66.2442 42.5 66.25Z" fill="#3C3C3B"/>
<path d="M67.866 10.3662L56.2497 21.9825L52.1335 17.8662C51.8991 17.6319 51.5812 17.5002 51.2497 17.5002C50.9183 17.5002 50.6004 17.6319 50.366 17.8662L46.616 21.6162C46.3816 21.8506 46.25 22.1685 46.25 22.5C46.25 22.8314 46.3816 23.1493 46.616 23.3837L55.366 32.1337C55.6004 32.3681 55.9183 32.4997 56.2497 32.4997C56.5812 32.4997 56.8991 32.3681 57.1335 32.1337L73.3835 15.8837C73.6178 15.6493 73.7495 15.3314 73.7495 15C73.7495 14.6685 73.6178 14.3506 73.3835 14.1162L69.6335 10.3662C69.3991 10.1319 69.0812 10.0002 68.7497 10.0002C68.4183 10.0002 68.1004 10.1319 67.866 10.3662ZM56.2497 29.4825L49.2672 22.5L51.2497 20.5175L55.366 24.6337C55.6004 24.8681 55.9183 24.9997 56.2497 24.9997C56.5812 24.9997 56.8991 24.8681 57.1335 24.6337L68.7497 13.0175L70.7322 15L56.2497 29.4825Z" fill="#3C3C3B"/>
<path d="M60.0004 1.25C56.8941 1.25194 53.8371 2.02598 51.1042 3.5025C48.3713 4.97902 46.0483 7.11172 44.3441 9.70875C36.9198 7.93564 29.1197 8.63479 22.1291 11.6999C15.1384 14.7651 9.33962 20.0287 5.61388 26.6907C1.88814 33.3528 0.4392 41.049 1.48726 48.6098C2.53533 56.1706 6.02309 63.1825 11.4205 68.5799C16.8179 73.9773 23.8298 77.465 31.3906 78.5131C38.9514 79.5612 46.6476 78.1122 53.3097 74.3865C59.9717 70.6608 65.2353 64.8619 68.3004 57.8713C71.3656 50.8807 72.0647 43.0805 70.2916 35.6563C73.6649 33.443 76.2338 30.2001 77.6163 26.4098C78.9988 22.6195 79.1211 18.4842 77.9649 14.6189C76.8087 10.7535 74.4359 7.36454 71.1992 4.95587C67.9626 2.54721 64.0349 1.24749 60.0004 1.25ZM68.7504 43.75C68.7571 50.4803 66.6763 57.047 62.7947 62.5452C58.9131 68.0433 53.4218 72.2023 47.0776 74.449C40.7334 76.6956 33.8485 76.9193 27.3718 75.0892C20.8951 73.2592 15.1454 69.4654 10.9151 64.2308C6.6848 58.9962 4.1821 52.5785 3.75191 45.8619C3.32173 39.1454 4.98524 32.4608 8.51319 26.7293C12.0411 20.9978 17.2599 16.5015 23.4502 13.8602C29.6405 11.2188 36.4976 10.5623 43.0766 11.9813C41.4099 15.4721 40.8662 19.3937 41.5205 23.2063C42.1748 27.0188 43.9949 30.5348 46.7303 33.2701C49.4656 36.0054 52.9815 37.8255 56.7941 38.4799C60.6067 39.1342 64.5283 38.5905 68.0191 36.9238C68.502 39.1672 68.7471 41.4552 68.7504 43.75ZM60.0004 36.25C56.7864 36.25 53.6447 35.297 50.9724 33.5114C48.3001 31.7258 46.2173 29.1879 44.9873 26.2186C43.7574 23.2493 43.4356 19.982 44.0626 16.8298C44.6896 13.6776 46.2373 10.7821 48.5099 8.50952C50.7825 6.23692 53.678 4.68925 56.8302 4.06224C59.9823 3.43523 63.2497 3.75704 66.219 4.98696C69.1883 6.21689 71.7262 8.29969 73.5118 10.972C75.2973 13.6443 76.2504 16.7861 76.2504 20C76.2454 24.3082 74.5318 28.4386 71.4854 31.485C68.439 34.5314 64.3086 36.245 60.0004 36.25Z" fill="#3C3C3B"/>
</g>
<defs>
<clipPath id="clip0_1779_49925">
<rect width="80" height="80" fill="white"/>
</clipPath>
</defs>
</svg>
