<svg width="80" height="80" viewBox="0 0 80 80" fill="none" xmlns="http://www.w3.org/2000/svg">
<g clip-path="url(#clip0_1803_106700)">
<path d="M17.2305 2.02197V3.16483C17.4063 12.5714 18.725 57.9341 27.1645 63.8242V77.8022H52.3074V63.8242C60.747 57.9341 62.0656 12.4835 62.2415 3.16483V2.02197H17.2305ZM50.1096 72.2637H44.9228L43.0766 70.945H36.659L34.8129 72.2637H29.3623V64.4396H50.1096C50.1096 64.3516 50.1096 72.2637 50.1096 72.2637ZM29.3623 75.6044V74.4615H35.5162L37.3623 73.1428H42.3733L44.2195 74.4615H50.1096V75.6044H29.3623ZM50.8129 62.1538H28.747C23.3843 60.1319 20.4832 31.2967 19.692 9.67032H52.0437V7.47252H19.5162C19.5162 6.32966 19.4283 5.27472 19.4283 4.13186H60.0437C60.0437 5.18681 59.9557 6.32966 59.9557 7.47252H55.2964V9.67032H59.8678C59.0766 31.2967 56.1755 60.1319 50.8129 62.1538Z" fill="#3C3C3B"/>
<path d="M39.7357 26.989C34.6368 26.989 30.5049 31.1209 30.5049 36.2198C30.5049 41.3187 34.6368 45.4506 39.7357 45.4506C44.8346 45.4506 48.9664 41.3187 48.9664 36.2198C48.9664 31.1209 44.8346 26.989 39.7357 26.989ZM39.7357 43.2528C35.8675 43.2528 32.7027 40.0879 32.7027 36.2198C32.7027 32.3517 35.8675 29.1868 39.7357 29.1868C43.6038 29.1868 46.7686 32.3517 46.7686 36.2198C46.7686 40.0879 43.6038 43.2528 39.7357 43.2528Z" fill="#3C3C3B"/>
<path d="M38.6807 21.978H40.8785V25.4066H38.6807V21.978Z" fill="#3C3C3B"/>
<path d="M50.5488 35.1648H53.9774V37.3626H50.5488V35.1648Z" fill="#3C3C3B"/>
<path d="M38.6807 47.033H40.8785V50.4615H38.6807V47.033Z" fill="#3C3C3B"/>
<path d="M25.4941 35.1648H28.9227V37.3626H25.4941V35.1648Z" fill="#3C3C3B"/>
<path d="M46.666 27.7957L49.0904 25.3713L50.6445 26.9254L48.2201 29.3497L46.666 27.7957Z" fill="#3C3C3B"/>
<path d="M46.5605 44.6322L48.1146 43.0781L50.539 45.5025L48.9849 47.0566L46.5605 44.6322Z" fill="#3C3C3B"/>
<path d="M28.874 45.488L31.2984 43.0637L32.8525 44.6178L30.4281 47.0421L28.874 45.488Z" fill="#3C3C3B"/>
<path d="M28.9141 26.9478L30.4681 25.3937L32.8925 27.818L31.3384 29.3721L28.9141 26.9478Z" fill="#3C3C3B"/>
</g>
<defs>
<clipPath id="clip0_1803_106700">
<rect width="80" height="80" fill="white"/>
</clipPath>
</defs>
</svg>
