<svg width="80" height="80" viewBox="0 0 80 80" fill="none" xmlns="http://www.w3.org/2000/svg">
<g clip-path="url(#clip0_1803_106666)">
<path d="M47.8721 34.3033C47.8721 33.6486 47.4638 33.0632 46.8493 32.8369L28.5896 26.116C28.2411 25.9879 27.8586 25.9879 27.5102 26.116L9.25035 32.8368C8.63582 33.063 8.22754 33.6483 8.22754 34.3032V45.9133C8.22754 51.7254 10.1358 57.3732 13.7463 62.2457C17.1364 66.8213 21.8733 70.4774 27.4443 72.8188C27.8289 72.9804 28.2705 72.9804 28.6552 72.8188C34.2264 70.4769 38.9633 66.8208 42.3535 62.2457C45.9636 57.3732 47.8719 51.7255 47.8719 45.9133V34.3033H47.8721ZM44.7471 45.9133C44.7471 51.0508 43.0511 56.0551 39.8427 60.3852C36.9089 64.3444 32.8414 67.5466 28.0497 69.6763C23.2583 67.5469 19.191 64.3447 16.2571 60.3854C13.0485 56.0549 11.3524 51.0507 11.3524 45.9133V35.3932L28.0496 29.2476L44.7468 35.3933V45.9133H44.7471Z" fill="#3C3C3B"/>
<path d="M67.1751 25.461C67.1751 17.5699 60.7552 11.15 52.8641 11.15C49.131 11.15 45.5979 12.5789 42.9157 15.1735C40.7518 17.2666 39.3279 19.9374 38.7929 22.8471L28.5899 19.0917C28.2415 18.9636 27.859 18.9636 27.5105 19.0917L2.69664 28.2246C2.08211 28.4506 1.67383 29.0361 1.67383 29.691V45.8538C1.67383 53.1069 4.03695 60.1299 8.50758 66.1633C12.9777 72.1963 19.2716 76.8467 26.7088 79.6121C27.1338 79.77 27.5888 79.9997 28.0501 79.9997C28.5115 79.9997 28.9668 79.7697 29.392 79.6119C34.5805 77.6825 39.1837 74.8597 43.0734 71.2219C43.7035 70.6325 43.7366 69.6436 43.1473 69.0133C42.5577 68.3835 41.569 68.35 40.9387 68.9394C37.3529 72.2933 33.1016 74.8985 28.3034 76.6827C28.2351 76.7081 28.1224 76.7761 28.0502 76.7761C27.9782 76.7761 27.8659 76.7083 27.7977 76.6828C20.9296 74.1291 15.1276 69.8483 11.0185 64.303C6.94961 58.8116 4.79883 52.4319 4.79883 45.8538V30.7808L28.0502 22.223L51.3016 30.7808V45.8538C51.3016 50.1677 50.383 54.383 48.5712 58.3824C48.2152 59.1683 48.5637 60.0942 49.3496 60.4503C50.1357 60.8063 51.0616 60.4577 51.4177 59.6719C53.4141 55.2647 54.4265 50.6156 54.4265 45.8538V39.6877C61.5852 38.9067 67.1751 32.8249 67.1751 25.461ZM54.4266 36.5397V29.6907C54.4266 29.036 54.0184 28.4505 53.4038 28.2242L41.7807 23.946C42.1148 21.4677 43.2663 19.1822 45.0884 17.4196C47.1848 15.3917 49.9462 14.275 52.8641 14.275C59.0321 14.275 64.0501 19.293 64.0501 25.461C64.0501 31.0996 59.8577 35.7774 54.4266 36.5397Z" fill="#3C3C3B"/>
<path d="M52.8643 8.17625C53.7271 8.17625 54.4268 7.47656 54.4268 6.61375V1.5625C54.4268 0.699688 53.7271 0 52.8643 0C52.0014 0 51.3018 0.699688 51.3018 1.5625V6.61375C51.3018 7.47672 52.0014 8.17625 52.8643 8.17625Z" fill="#3C3C3B"/>
<path d="M38.4318 13.2389C38.737 13.5439 39.1368 13.6966 39.5367 13.6966C39.9365 13.6966 40.3364 13.5439 40.6415 13.2389C41.2517 12.6288 41.2517 11.6394 40.6415 11.0291L37.0698 7.45738C36.4595 6.84738 35.4704 6.84738 34.86 7.45738C34.2498 8.06753 34.2498 9.05691 34.86 9.66722L38.4318 13.2389Z" fill="#3C3C3B"/>
<path d="M67.2964 37.6842C66.6862 37.0744 65.6971 37.0742 65.0865 37.6842C64.4764 38.2944 64.4764 39.2838 65.0865 39.8941L68.6582 43.466C68.9634 43.771 69.3632 43.9236 69.7631 43.9236C70.1629 43.9236 70.5628 43.771 70.8679 43.466C71.4781 42.8558 71.4781 41.8664 70.8679 41.2561L67.2964 37.6842Z" fill="#3C3C3B"/>
<path d="M66.1915 13.6966C66.5915 13.6966 66.9912 13.5439 67.2964 13.2389L70.8681 9.66722C71.4782 9.05707 71.4782 8.06769 70.8681 7.45738C70.2578 6.84738 69.2687 6.84738 68.6582 7.45738L65.0865 11.0291C64.4764 11.6393 64.4764 12.6286 65.0865 13.2389C65.3918 13.5441 65.7915 13.6966 66.1915 13.6966Z" fill="#3C3C3B"/>
<path d="M76.7632 23.8992H71.7119C70.8491 23.8992 70.1494 24.5989 70.1494 25.4617C70.1494 26.3245 70.8491 27.0242 71.7119 27.0242H76.7632C77.626 27.0242 78.3257 26.3245 78.3257 25.4617C78.3257 24.5989 77.6261 23.8992 76.7632 23.8992Z" fill="#3C3C3B"/>
<path d="M21.5024 47.9489C20.8921 47.3389 19.903 47.3389 19.2926 47.9489C18.6824 48.5591 18.6824 49.5484 19.2926 50.1587L24.5693 55.4355C25.1715 56.0373 26.177 56.0373 26.7791 55.4355L38.4691 43.7455C39.0793 43.1353 39.0793 42.1459 38.4691 41.5356C37.8588 40.9256 36.8698 40.9256 36.2593 41.5356L25.6741 52.1209L21.5024 47.9489Z" fill="#3C3C3B"/>
<path d="M48.0781 64.2266C47.7507 63.4413 46.8246 63.0544 46.0373 63.3813C45.2506 63.7078 44.867 64.635 45.192 65.4221C45.5168 66.2086 46.4468 66.5935 47.2327 66.2672C48.0216 65.9397 48.4012 65.0152 48.0781 64.2266Z" fill="#3C3C3B"/>
</g>
<defs>
<clipPath id="clip0_1803_106666">
<rect width="80" height="80" fill="white"/>
</clipPath>
</defs>
</svg>
