<svg width="80" height="80" viewBox="0 0 80 80" fill="none" xmlns="http://www.w3.org/2000/svg">
<g clip-path="url(#clip0_1779_50490)">
<path d="M55 26.7875L63.55 18.25C65.3221 19.5734 67.5296 20.1766 69.7284 19.9383C71.9273 19.7 73.9543 18.6379 75.4017 16.9655C76.8492 15.2932 77.6096 13.1348 77.53 10.9245C77.4504 8.71417 76.5368 6.61601 74.9728 5.05208C73.4089 3.48815 71.3108 2.5745 69.1005 2.49493C66.8902 2.41536 64.7317 3.17577 63.0594 4.62319C61.3871 6.07062 60.3249 8.09765 60.0866 10.2965C59.8483 12.4954 60.4515 14.7029 61.775 16.475L53.2125 25C49.896 22.043 45.6843 20.2826 41.25 20V17.375C42.7675 17.0652 44.116 16.203 45.034 14.9555C45.9519 13.708 46.374 12.1641 46.2183 10.6231C46.0626 9.08206 45.3403 7.65375 44.1914 6.61504C43.0425 5.57634 41.5488 5.00124 40 5.00124C38.4511 5.00124 36.9574 5.57634 35.8085 6.61504C34.6596 7.65375 33.9373 9.08206 33.7816 10.6231C33.6259 12.1641 34.048 13.708 34.966 14.9555C35.8839 16.203 37.2324 17.0652 38.75 17.375V20.0625C34.3157 20.3451 30.104 22.1055 26.7875 25.0625L18.25 16.475C19.5734 14.7029 20.1766 12.4954 19.9383 10.2965C19.7 8.09765 18.6379 6.07062 16.9655 4.62319C15.2932 3.17577 13.1348 2.41536 10.9245 2.49493C8.71417 2.5745 6.61601 3.48815 5.05208 5.05208C3.48815 6.61601 2.5745 8.71417 2.49493 10.9245C2.41536 13.1348 3.17577 15.2932 4.62319 16.9655C6.07062 18.6379 8.09765 19.7 10.2965 19.9383C12.4954 20.1766 14.7029 19.5734 16.475 18.25L25 26.7875C22.043 30.104 20.2826 34.3157 20 38.75H17.375C17.0652 37.2324 16.203 35.8839 14.9555 34.966C13.708 34.048 12.1641 33.6259 10.6231 33.7816C9.08206 33.9373 7.65375 34.6596 6.61504 35.8085C5.57634 36.9574 5.00124 38.4511 5.00124 40C5.00124 41.5488 5.57634 43.0425 6.61504 44.1914C7.65375 45.3403 9.08206 46.0626 10.6231 46.2183C12.1641 46.374 13.708 45.9519 14.9555 45.034C16.203 44.116 17.0652 42.7675 17.375 41.25H20.0625C20.3451 45.6843 22.1055 49.896 25.0625 53.2125L16.475 61.75C14.7029 60.4265 12.4954 59.8233 10.2965 60.0616C8.09765 60.2999 6.07062 61.3621 4.62319 63.0344C3.17577 64.7067 2.41536 66.8652 2.49493 69.0755C2.5745 71.2858 3.48815 73.3839 5.05208 74.9478C6.61601 76.5118 8.71417 77.4254 10.9245 77.505C13.1348 77.5846 15.2932 76.8242 16.9655 75.3767C18.6379 73.9293 19.7 71.9023 19.9383 69.7034C20.1766 67.5046 19.5734 65.2971 18.25 63.525L26.7875 55C30.104 57.957 34.3157 59.7173 38.75 60V62.625C37.2324 62.9347 35.8839 63.797 34.966 65.0445C34.048 66.292 33.6259 67.8359 33.7816 69.3769C33.9373 70.9179 34.6596 72.3462 35.8085 73.3849C36.9574 74.4236 38.4511 74.9987 40 74.9987C41.5488 74.9987 43.0425 74.4236 44.1914 73.3849C45.3403 72.3462 46.0626 70.9179 46.2183 69.3769C46.374 67.8359 45.9519 66.292 45.034 65.0445C44.116 63.797 42.7675 62.9347 41.25 62.625V60C45.6843 59.7173 49.896 57.957 53.2125 55L61.75 63.55C60.4265 65.3221 59.8233 67.5296 60.0616 69.7284C60.2999 71.9273 61.3621 73.9543 63.0344 75.4017C64.7067 76.8492 66.8652 77.6096 69.0755 77.53C71.2858 77.4504 73.3839 76.5368 74.9478 74.9728C76.5118 73.4089 77.4254 71.3108 77.505 69.1005C77.5846 66.8902 76.8242 64.7317 75.3767 63.0594C73.9293 61.3871 71.9023 60.3249 69.7034 60.0866C67.5046 59.8483 65.2971 60.4515 63.525 61.775L55 53.2125C57.957 49.896 59.7173 45.6843 60 41.25H62.625C62.9347 42.7675 63.797 44.116 65.0445 45.034C66.292 45.9519 67.8359 46.374 69.3769 46.2183C70.9179 46.0626 72.3462 45.3403 73.3849 44.1914C74.4236 43.0425 74.9987 41.5488 74.9987 40C74.9987 38.4511 74.4236 36.9574 73.3849 35.8085C72.3462 34.6596 70.9179 33.9373 69.3769 33.7816C67.8359 33.6259 66.292 34.048 65.0445 34.966C63.797 35.8839 62.9347 37.2324 62.625 38.75H60C59.7173 34.3157 57.957 30.104 55 26.7875ZM11.25 43.75C10.5083 43.75 9.78326 43.53 9.16658 43.118C8.54989 42.7059 8.06924 42.1202 7.78542 41.435C7.50159 40.7498 7.42732 39.9958 7.57202 39.2684C7.71671 38.5409 8.07387 37.8728 8.59831 37.3483C9.12276 36.8239 9.79095 36.4667 10.5184 36.322C11.2458 36.1773 11.9998 36.2516 12.685 36.5354C13.3702 36.8192 13.9559 37.2999 14.368 37.9166C14.78 38.5333 15 39.2583 15 40C15 40.9945 14.6049 41.9483 13.9016 42.6516C13.1984 43.3549 12.2445 43.75 11.25 43.75ZM68.75 36.25C69.4916 36.25 70.2167 36.4699 70.8334 36.882C71.45 37.294 71.9307 37.8797 72.2145 38.5649C72.4983 39.2501 72.5726 40.0041 72.4279 40.7316C72.2832 41.459 71.9261 42.1272 71.4016 42.6516C70.8772 43.1761 70.209 43.5332 69.4816 43.6779C68.7541 43.8226 68.0001 43.7483 67.3149 43.4645C66.6297 43.1807 66.044 42.7 65.632 42.0834C65.2199 41.4667 65 40.7416 65 40C65 39.0054 65.3951 38.0516 66.0983 37.3483C66.8016 36.6451 67.7554 36.25 68.75 36.25ZM68.75 4.99996C69.9861 4.99996 71.1945 5.36652 72.2223 6.05328C73.2501 6.74004 74.0512 7.71615 74.5242 8.85819C74.9973 10.0002 75.121 11.2569 74.8799 12.4693C74.6387 13.6817 74.0435 14.7953 73.1694 15.6694C72.2953 16.5435 71.1817 17.1387 69.9693 17.3799C68.7569 17.621 67.5002 17.4973 66.3582 17.0242C65.2162 16.5512 64.24 15.7501 63.5533 14.7223C62.8665 13.6945 62.5 12.4861 62.5 11.25C62.5 9.59236 63.1584 8.00265 64.3305 6.83055C65.5026 5.65844 67.0924 4.99996 68.75 4.99996ZM36.25 11.25C36.25 10.5083 36.4699 9.78326 36.882 9.16658C37.294 8.54989 37.8797 8.06924 38.5649 7.78542C39.2501 7.50159 40.0041 7.42732 40.7316 7.57202C41.459 7.71671 42.1272 8.07387 42.6516 8.59831C43.1761 9.12276 43.5332 9.79095 43.6779 10.5184C43.8226 11.2458 43.7483 11.9998 43.4645 12.685C43.1807 13.3702 42.7 13.9559 42.0834 14.368C41.4667 14.78 40.7416 15 40 15C39.0054 15 38.0516 14.6049 37.3483 13.9016C36.6451 13.1984 36.25 12.2445 36.25 11.25ZM4.99996 11.25C4.99996 10.0138 5.36652 8.80546 6.05328 7.77765C6.74004 6.74984 7.71615 5.94877 8.85819 5.47572C10.0002 5.00267 11.2569 4.8789 12.4693 5.12006C13.6817 5.36121 14.7953 5.95647 15.6694 6.83055C16.5435 7.70463 17.1387 8.81827 17.3799 10.0306C17.621 11.243 17.4973 12.4997 17.0242 13.6417C16.5512 14.7838 15.7501 15.7599 14.7223 16.4466C13.6945 17.1334 12.4861 17.5 11.25 17.5C9.59236 17.5 8.00265 16.8415 6.83055 15.6694C5.65844 14.4973 4.99996 12.9076 4.99996 11.25ZM11.25 75C10.0138 75 8.80546 74.6334 7.77765 73.9466C6.74984 73.2599 5.94877 72.2838 5.47572 71.1417C5.00267 69.9997 4.8789 68.743 5.12006 67.5306C5.36121 66.3183 5.95647 65.2046 6.83055 64.3305C7.70463 63.4565 8.81827 62.8612 10.0306 62.6201C11.243 62.3789 12.4997 62.5027 13.6417 62.9757C14.7838 63.4488 15.7599 64.2498 16.4466 65.2776C17.1334 66.3055 17.5 67.5138 17.5 68.75C17.5 69.5707 17.3383 70.3835 17.0242 71.1417C16.7101 71.9 16.2497 72.589 15.6694 73.1694C15.089 73.7497 14.4 74.2101 13.6417 74.5242C12.8835 74.8383 12.0707 75 11.25 75ZM43.75 68.75C43.75 69.4916 43.53 70.2167 43.118 70.8334C42.7059 71.45 42.1202 71.9307 41.435 72.2145C40.7498 72.4983 39.9958 72.5726 39.2684 72.4279C38.5409 72.2832 37.8728 71.9261 37.3483 71.4016C36.8239 70.8772 36.4667 70.209 36.322 69.4816C36.1773 68.7541 36.2516 68.0001 36.5354 67.3149C36.8192 66.6297 37.2999 66.044 37.9166 65.632C38.5333 65.2199 39.2583 65 40 65C40.9945 65 41.9483 65.3951 42.6516 66.0983C43.3549 66.8016 43.75 67.7554 43.75 68.75ZM75 68.75C75 69.9861 74.6334 71.1945 73.9466 72.2223C73.2599 73.2501 72.2838 74.0512 71.1417 74.5242C69.9997 74.9973 68.743 75.121 67.5306 74.8799C66.3183 74.6387 65.2046 74.0435 64.3305 73.1694C63.4565 72.2953 62.8612 71.1817 62.6201 69.9693C62.3789 68.7569 62.5027 67.5002 62.9757 66.3582C63.4488 65.2162 64.2498 64.24 65.2776 63.5533C66.3055 62.8665 67.5138 62.5 68.75 62.5C70.4076 62.5 71.9973 63.1584 73.1694 64.3305C74.3415 65.5026 75 67.0924 75 68.75ZM40 57.5C36.5388 57.5 33.1553 56.4736 30.2775 54.5507C27.3996 52.6278 25.1566 49.8946 23.8321 46.6969C22.5075 43.4992 22.161 39.9806 22.8362 36.5859C23.5115 33.1912 25.1782 30.073 27.6256 27.6256C30.073 25.1782 33.1912 23.5115 36.5859 22.8362C39.9806 22.161 43.4992 22.5075 46.6969 23.8321C49.8946 25.1566 52.6278 27.3996 54.5507 30.2775C56.4736 33.1553 57.5 36.5388 57.5 40C57.5 44.6413 55.6562 49.0924 52.3743 52.3743C49.0924 55.6562 44.6413 57.5 40 57.5Z" fill="#3C3C3B"/>
<path d="M41.1753 29.5625C41.0877 29.3212 40.928 29.1127 40.7178 28.9654C40.5075 28.8181 40.257 28.739 40.0003 28.739C39.7436 28.739 39.4931 28.8181 39.2829 28.9654C39.0727 29.1127 38.9129 29.3212 38.8253 29.5625L34.2378 41.675C33.8092 42.801 33.6581 44.0136 33.7973 45.2104C33.9366 46.4071 34.3621 47.5526 35.0378 48.55C35.5742 49.3781 36.3092 50.0588 37.176 50.5301C38.0428 51.0014 39.0137 51.2483 40.0003 51.2483C40.9869 51.2483 41.9579 51.0014 42.8246 50.5301C43.6914 50.0588 44.4265 49.3781 44.9628 48.55C45.6386 47.5526 46.0641 46.4071 46.2033 45.2104C46.3426 44.0136 46.1915 42.801 45.7628 41.675L41.1753 29.5625ZM42.9003 47.125C42.5965 47.6215 42.1703 48.0317 41.6625 48.3162C41.1547 48.6008 40.5824 48.7502 40.0003 48.7502C39.4183 48.7502 38.8459 48.6008 38.3382 48.3162C37.8304 48.0317 37.4042 47.6215 37.1003 47.125C36.6546 46.4618 36.3743 45.7015 36.283 44.9076C36.1917 44.1138 36.2919 43.3097 36.5753 42.5625L40.0003 33.525L43.4253 42.5625C43.7088 43.3097 43.809 44.1138 43.7177 44.9076C43.6263 45.7015 43.346 46.4618 42.9003 47.125Z" fill="#3C3C3B"/>
</g>
<defs>
<clipPath id="clip0_1779_50490">
<rect width="80" height="80" fill="white"/>
</clipPath>
</defs>
</svg>
