<svg width="80" height="80" viewBox="0 0 80 80" fill="none" xmlns="http://www.w3.org/2000/svg">
<g clip-path="url(#clip0_1491_33372)">
<g clip-path="url(#clip1_1491_33372)">
<path d="M13.5719 36.9966C14.1408 37.8413 15.4027 37.9172 16.0685 37.1455L20.8807 31.5666C21.4443 30.9132 21.3716 29.9264 20.718 29.3629C20.0647 28.7991 19.078 28.8721 18.5143 29.5255L16.413 31.9614C16.3007 29.7586 15.7144 27.5932 14.7047 25.6693C12.8846 22.2038 12.8846 17.896 14.7047 14.4275C15.8643 12.2199 16.4668 9.7366 16.4472 7.24644C16.4404 6.38769 15.7422 5.69629 14.8851 5.69629C14.8808 5.69629 14.8766 5.69629 14.8724 5.69629C14.0096 5.70301 13.3155 6.40816 13.3222 7.27098C13.3379 9.24848 12.8591 11.2207 11.9379 12.975C9.64724 17.34 9.64739 22.761 11.9379 27.1219C12.7069 28.5874 13.1655 30.2335 13.2794 31.9157L11.1819 29.5172C10.6138 28.8677 9.62677 28.8016 8.97724 29.3697C8.32771 29.9379 8.26161 30.925 8.82974 31.5746L13.5719 36.9966Z" fill="#3C3C3B"/>
<path d="M64.8504 36.9966C65.4193 37.8413 66.6812 37.9172 67.347 37.1455L72.1592 31.5666C72.7228 30.9132 72.6501 29.9264 71.9965 29.3629C71.3432 28.7991 70.3564 28.8721 69.7928 29.5255L67.6915 31.9614C67.5792 29.7588 66.9928 27.5933 65.9831 25.6693C64.1631 22.2038 64.1631 17.896 65.9829 14.4277C67.1426 12.2204 67.7451 9.73707 67.7257 7.2466C67.719 6.38785 67.0207 5.69629 66.1635 5.69629C66.1595 5.69629 66.1551 5.69629 66.151 5.69629C65.2882 5.70301 64.594 6.40801 64.6007 7.27098C64.6162 9.24879 64.1374 11.2211 63.2162 12.975C60.9257 17.34 60.9259 22.761 63.2162 27.1219C63.9853 28.5875 64.444 30.2338 64.5579 31.9157L62.4603 29.5174C61.8921 28.8677 60.9053 28.8018 60.2554 29.37C59.606 29.9382 59.5399 30.9252 60.1081 31.5747L64.8504 36.9966Z" fill="#3C3C3B"/>
<path d="M12.2242 61.7798C11.6141 62.3899 11.6141 63.3793 12.2242 63.9894L14.2134 65.9787C14.5186 66.2838 14.9184 66.4363 15.3183 66.4363C15.7181 66.4363 16.118 66.2837 16.4231 65.9787C17.0333 65.3685 17.0333 64.3791 16.4231 63.769L14.4339 61.7798C13.8237 61.1694 12.8347 61.1694 12.2242 61.7798Z" fill="#3C3C3B"/>
<path d="M49.4943 63.4613C49.7293 63.5871 49.9818 63.6467 50.2308 63.6467C50.7883 63.6467 51.3278 63.3475 51.6094 62.8217C52.0169 62.0611 51.7307 61.1141 50.97 60.7066L48.4882 59.3771C47.7272 58.9697 46.7805 59.256 46.373 60.0166C45.9655 60.7772 46.2518 61.7242 47.0124 62.1317L49.4943 63.4613Z" fill="#3C3C3B"/>
<path d="M31.6543 62.8078L29.2741 64.2993C28.5427 64.7576 28.3215 65.7218 28.7798 66.4531C29.0763 66.9264 29.5849 67.186 30.1052 67.186C30.3885 67.186 30.6754 67.1089 30.9334 66.9473L33.3135 65.4557C34.0449 64.9975 34.2662 64.0332 33.8079 63.302C33.3496 62.571 32.3857 62.3495 31.6543 62.8078Z" fill="#3C3C3B"/>
<path d="M66.4343 66.8736L68.4249 64.8856C69.0355 64.2759 69.0361 63.2865 68.4264 62.6759C67.8166 62.0654 66.8272 62.0645 66.2166 62.6745L64.226 64.6625C63.6154 65.2722 63.6147 66.2615 64.2244 66.8722C64.5296 67.1778 64.9299 67.3306 65.33 67.3306C65.7296 67.3306 66.1293 67.1783 66.4343 66.8736Z" fill="#3C3C3B"/>
<path d="M39.014 73.6093C39.8322 74.8345 41.7969 74.2866 41.873 72.8185C41.9438 71.4531 40.2577 70.6665 39.2562 71.5898C38.7019 72.1004 38.5844 72.9824 39.014 73.6093Z" fill="#3C3C3B"/>
<path d="M78.5169 41.0532C75.8858 40.9198 73.1289 41.5327 70.7538 42.7801C67.2866 44.601 62.9791 44.6009 59.5122 42.7801C58.0294 42.0013 56.4242 41.4879 54.7802 41.2385C54.7372 38.8945 54.1467 36.576 53.0622 34.5121C53.0514 34.4893 53.0398 34.4667 53.0278 34.4442L41.0872 12.2254C40.8148 11.7187 40.2861 11.4026 39.7108 11.4026C39.1353 11.4026 38.6067 11.7187 38.3344 12.2256L26.5141 34.224C26.5067 34.2376 26.4995 34.2515 26.4927 34.2652C25.3208 36.3981 24.6844 38.806 24.6414 41.2496C23.0198 41.5026 21.4369 42.0118 19.973 42.7801C16.507 44.6001 12.1994 44.6001 8.73141 42.7801C6.52391 41.6206 4.04406 41.019 1.55016 41.0374C0.692187 41.0443 0 41.7418 0 42.5999V51.909V72.7413C0 73.6043 0.699688 74.3038 1.5625 74.3038H33.195C34.0578 74.3038 34.7575 73.6043 34.7575 72.7413C34.7575 71.8784 34.0578 71.1788 33.195 71.1788H3.125V53.5602C4.57141 53.7374 5.98453 54.1762 7.27891 54.856C11.6434 57.1463 17.0645 57.1463 21.4256 54.856C24.8944 53.0356 29.2023 53.0356 32.6683 54.856C37.0353 57.1476 42.4492 57.1499 46.8173 54.8557C50.2844 53.0349 54.592 53.0349 58.0591 54.8557C62.4223 57.1474 67.8434 57.1474 72.2067 54.8557C73.6486 54.0985 75.2645 53.6352 76.875 53.5062V71.1787H47.1119C46.2491 71.1787 45.5494 71.8782 45.5494 72.7412C45.5494 73.6042 46.2491 74.3037 47.1119 74.3037H78.4375C79.3003 74.3037 80 73.6042 80 72.7412V51.9229V42.6138C80 41.7817 79.3478 41.0956 78.5169 41.0532ZM47.8244 50.2849C43.3145 54.4593 36.1128 54.4637 31.598 50.2856C29.8261 48.6459 28.6077 46.5373 28.0719 44.2248C29.6708 44.357 31.2461 44.8009 32.6678 45.5473C36.7488 47.6882 41.7833 47.8279 45.988 45.9493C47.7598 45.1576 49.3814 44.402 51.3487 44.2288C50.8122 46.5396 49.5944 48.6463 47.8244 50.2849ZM29.2581 35.7224C29.2722 35.6971 29.2855 35.6715 29.298 35.6456L39.7113 16.2662L50.2442 35.8659C50.2527 35.8832 50.2612 35.9002 50.2705 35.9173C51.1105 37.4981 51.5845 39.2713 51.6512 41.072C49.4348 41.1824 47.2797 41.786 45.3122 42.8067C41.8595 44.5974 37.5652 44.5876 34.1208 42.7802C32.1641 41.7523 29.9778 41.1698 27.7708 41.0677C27.8409 39.1935 28.3514 37.3543 29.2581 35.7224ZM19.9731 52.0893C16.5072 53.9093 12.1995 53.9093 8.73156 52.0893C6.99 51.1746 5.07875 50.6088 3.125 50.419V44.2512C4.57141 44.4284 5.98453 44.8671 7.27891 45.547C11.6436 47.8374 17.0647 47.8373 21.4256 45.547C22.5216 44.9718 23.7013 44.5788 24.9117 44.3671C25.3289 46.5448 26.2197 48.5931 27.5208 50.3784C24.9184 50.2999 22.2963 50.8701 19.9731 52.0893ZM70.7538 52.0893C67.2866 53.9102 62.9791 53.9102 59.5122 52.0893C57.1702 50.8593 54.5236 50.2904 51.8994 50.3809C53.2033 48.5921 54.0953 46.5393 54.5122 44.3567C55.7441 44.5657 56.945 44.9617 58.0592 45.5468C62.4225 47.8385 67.8436 47.8385 72.2069 45.5468C73.6489 44.7895 75.2645 44.3262 76.8752 44.1971V50.376C74.7636 50.5112 72.638 51.0996 70.7538 52.0893Z" fill="#3C3C3B"/>
</g>
</g>
<defs>
<clipPath id="clip0_1491_33372">
<rect width="80" height="80" fill="white"/>
</clipPath>
<clipPath id="clip1_1491_33372">
<rect width="80" height="80" fill="white"/>
</clipPath>
</defs>
</svg>
