<svg width="80" height="80" viewBox="0 0 80 80" fill="none" xmlns="http://www.w3.org/2000/svg">
<g clip-path="url(#clip0_1491_33543)">
<g clip-path="url(#clip1_1491_33543)">
<path d="M20.3982 45.9549C17.7751 45.8405 15.2345 45.0048 13.0557 43.5399L14.4419 41.4587C14.5057 41.5012 21.0044 45.7374 23.9994 41.7499C27.4557 37.1424 27.4994 25.1249 27.4994 24.9999C27.4996 24.7436 27.5786 24.4936 27.7257 24.2837L36.4757 11.7837C36.6085 11.5942 36.7914 11.4454 37.0038 11.3538C37.2162 11.2621 37.4499 11.2312 37.6789 11.2645C37.9079 11.2978 38.1231 11.394 38.3006 11.5424C38.4781 11.6908 38.611 11.8855 38.6844 12.1049C39.5219 14.6162 42.6344 16.7299 44.0594 17.4999H46.2494C46.4433 17.4997 46.6346 17.5447 46.8082 17.6312L51.3482 19.9012C51.4769 19.9659 51.619 19.9997 51.7632 19.9999H52.8207C53.0418 20.0006 53.256 19.9224 53.4247 19.7793C53.5933 19.6362 53.7054 19.4376 53.7406 19.2192C53.7759 19.0009 53.7321 18.7771 53.617 18.5882C53.502 18.3992 53.3233 18.2576 53.1132 18.1887L50.8544 17.4387C50.5906 17.3508 50.3637 17.1775 50.2094 16.9462L47.7094 13.1962C47.6183 13.0596 47.555 12.9064 47.523 12.7454C47.4911 12.5843 47.4912 12.4186 47.5234 12.2576C47.5556 12.0966 47.6191 11.9435 47.7104 11.807C47.8018 11.6706 47.9191 11.5535 48.0557 11.4624L51.8057 8.9624L53.1932 11.0424L50.4832 12.8487L52.0519 15.2024L53.9044 15.8199C54.6756 16.0782 55.3299 16.6022 55.7504 17.2983C56.1709 17.9945 56.3303 18.8174 56.2 19.6203C56.0698 20.4231 55.6584 21.1534 55.0394 21.6809C54.4203 22.2084 53.634 22.4987 52.8207 22.4999H51.7632C51.2311 22.4996 50.7065 22.3755 50.2307 22.1374L45.9544 19.9999H43.7494C43.5555 20.0001 43.3642 19.9551 43.1907 19.8687C40.8912 18.679 38.8888 16.9872 37.3319 14.9187L29.9994 25.3987C29.9657 27.6487 29.6119 38.4387 25.9994 43.2499C25.3557 44.1218 24.5093 44.8238 23.5333 45.2952C22.5574 45.7665 21.4813 45.9929 20.3982 45.9549Z" fill="#3C3C3B"/>
<path d="M49.0001 64.5L45.6026 59.9713C41.8151 59.6363 38.8376 56.435 37.3526 54.485C36.6303 53.5305 36.2428 52.3645 36.2501 51.1675C36.2531 50.2148 36.5012 49.2789 36.9705 48.4499C37.4399 47.6208 38.1147 46.9265 38.9301 46.4337L42.7564 44.1388C43.5826 42.3638 47.3489 36.25 60.0001 36.25C74.5839 36.25 77.4426 48.3563 77.4714 48.4788L75.0301 49.025C74.9338 48.605 72.5339 38.75 60.0001 38.75C47.2976 38.75 44.9589 45.3288 44.9351 45.395C44.8411 45.6777 44.6491 45.9175 44.3939 46.0712L40.2164 48.5775C39.7701 48.8469 39.4008 49.2268 39.144 49.6804C38.8871 50.1341 38.7515 50.6462 38.7501 51.1675C38.7454 51.8187 38.9559 52.4532 39.3489 52.9725C40.3826 54.335 43.1251 57.5 46.2501 57.5C46.4442 57.5 46.6355 57.5452 46.8091 57.632C46.9827 57.7188 47.1337 57.8448 47.2501 58L51.0001 63L49.0001 64.5Z" fill="#3C3C3B"/>
<path d="M56.04 19.4438L53.96 18.0563L56.25 14.625V7.795L55.4 6.09625L38.625 2.5H33.125L29.75 7C29.7142 7.04712 29.6754 7.0918 29.6337 7.13375L20.8837 15.8838L19.1162 14.1163L27.8025 5.42875L31.5 0.500003C31.6164 0.344758 31.7674 0.218754 31.9409 0.131969C32.1145 0.0451845 32.3059 3.12988e-06 32.5 3.12988e-06H38.75C38.8382 -0.000195105 38.9262 0.00902377 39.0125 0.0275031L56.5125 3.7775C56.6958 3.81682 56.868 3.89689 57.0162 4.01179C57.1645 4.12669 57.2849 4.27347 57.3687 4.44125L58.6187 6.94125C58.7052 7.1148 58.7501 7.30609 58.75 7.5V15C58.7496 15.2469 58.6765 15.4881 58.54 15.6938L56.04 19.4438Z" fill="#3C3C3B"/>
<path d="M55.6972 74.3226C55.4686 73.8913 55.2678 73.4458 55.096 72.9888C54.5879 71.95 54.1595 70.8739 53.8147 69.7701C53.4981 68.7536 53.1023 67.7635 52.631 66.8088C51.761 65.0688 48.776 65.0001 48.7497 65.0001H39.5297C36.2297 65.0023 32.9557 64.417 29.861 63.2713C14.811 57.7126 7.82223 52.3363 2.45348 47.7338C1.71825 47.103 1.12126 46.327 0.699954 45.4546C0.278644 44.5823 0.0420906 43.6323 0.00512303 42.6642C-0.0318446 41.6961 0.131571 40.7308 0.485125 39.8288C0.838679 38.9269 1.37475 38.1077 2.05973 37.4226L2.65723 36.8251L3.78223 33.4501C5.17473 25.5851 16.2585 16.8863 16.731 16.5176L18.266 18.4913C18.1572 18.5763 7.39098 27.0326 6.23098 33.9613C6.22076 34.0255 6.20486 34.0887 6.18348 34.1501L4.93348 37.9001C4.87234 38.0842 4.76921 38.2515 4.63223 38.3888L3.82598 39.1951C3.38445 39.6364 3.03881 40.1641 2.81073 40.7453C2.58265 41.3264 2.47703 41.9483 2.5005 42.5721C2.52397 43.196 2.67602 43.8082 2.94712 44.3706C3.21822 44.9329 3.60253 45.4332 4.07598 45.8401C9.28098 50.3013 16.061 55.5151 30.7235 60.9313C33.5424 61.9731 36.5244 62.5044 39.5297 62.5001H48.7497C48.9335 62.5001 53.291 62.5363 54.8747 65.6913C55.3983 66.7517 55.8384 67.8513 56.191 68.9801C56.5076 69.9966 56.9034 70.9867 57.3747 71.9413C57.4013 71.9946 57.4238 72.0497 57.4422 72.1063C57.5769 72.471 57.7364 72.826 57.9197 73.1688L55.6972 74.3226Z" fill="#3C3C3B"/>
<path d="M78.7501 80.0001H61.2501C61.0032 79.9997 60.762 79.9267 60.5563 79.7901C59.4176 79.0272 58.3943 78.1049 57.5176 77.0513L59.4363 75.4489C60.0805 76.2237 60.8211 76.9131 61.6401 77.5001H77.5001V45.9763L73.4476 44.9626L74.0526 42.5376L79.0526 43.7876C79.3231 43.8551 79.5633 44.0111 79.735 44.2308C79.9067 44.4505 80 44.7213 80.0001 45.0001V78.7501C80.0001 79.0816 79.8684 79.3996 79.634 79.634C79.3995 79.8684 79.0816 80.0001 78.7501 80.0001Z" fill="#3C3C3B"/>
<path d="M40.0002 48.75C34.3402 48.75 30.5177 40.215 30.1014 39.2425C30.0298 39.0756 29.9953 38.8951 30.0005 38.7136C30.0057 38.532 30.0504 38.3538 30.1314 38.1912C30.2952 37.865 31.9252 35 38.7502 35C43.0556 35.1293 47.2283 36.5202 50.7502 39L49.2502 41C46.155 38.8571 42.5121 37.6428 38.7502 37.5C35.0627 37.5 33.3902 38.4213 32.7252 38.965C33.9602 41.5075 36.9027 46.25 40.0002 46.25V48.75Z" fill="#3C3C3B"/>
<path d="M13.1427 54.8225L11.8564 52.6788C12.1252 52.5175 18.4789 48.75 25.0002 48.75C29.4358 48.8816 33.818 49.7566 37.9639 51.3387L37.0364 53.6613C33.1829 52.2057 29.117 51.3912 25.0002 51.25C19.1827 51.25 13.2027 54.7863 13.1427 54.8225Z" fill="#3C3C3B"/>
<path d="M78.75 71.25C69.84 71.25 66.4112 65.75 64.7637 63.0987C64.5691 62.7633 64.3528 62.4409 64.1162 62.1337L65.8837 60.3662C66.2663 60.7993 66.6015 61.272 66.8837 61.7762C68.4025 64.2137 71.2275 68.75 78.75 68.75V71.25Z" fill="#3C3C3B"/>
<path d="M46.25 59.9999V57.4999C48.2938 57.4999 48.9462 56.8112 50.125 54.4412L52.3625 55.5587C51.1537 57.9887 49.855 59.9999 46.25 59.9999Z" fill="#3C3C3B"/>
<path d="M61.6445 57.4363L60.8545 55.0613C63.1482 54.2976 65.4207 49.7738 66.3145 47.1013L68.6895 47.8926C68.4095 48.7238 65.8657 56.0288 61.6445 57.4363Z" fill="#3C3C3B"/>
<path d="M70.9471 49.9626C65.4471 48.5876 62.7434 43.2838 62.6309 43.0588L64.8671 41.9338C64.8884 41.9776 67.1921 46.4426 71.5521 47.5326L70.9471 49.9626Z" fill="#3C3C3B"/>
<path d="M67.5 32.5H62.5C62.1685 32.5 61.8505 32.3683 61.6161 32.1339C61.3817 31.8995 61.25 31.5815 61.25 31.25V28.75H58.75C58.4185 28.75 58.1005 28.6183 57.8661 28.3839C57.6317 28.1495 57.5 27.8315 57.5 27.5V22.5C57.5 22.1685 57.6317 21.8505 57.8661 21.6161C58.1005 21.3817 58.4185 21.25 58.75 21.25H61.25V18.75C61.25 18.4185 61.3817 18.1005 61.6161 17.8661C61.8505 17.6317 62.1685 17.5 62.5 17.5H67.5C67.8315 17.5 68.1495 17.6317 68.3839 17.8661C68.6183 18.1005 68.75 18.4185 68.75 18.75V21.25H71.25C71.5815 21.25 71.8995 21.3817 72.1339 21.6161C72.3683 21.8505 72.5 22.1685 72.5 22.5V27.5C72.5 27.8315 72.3683 28.1495 72.1339 28.3839C71.8995 28.6183 71.5815 28.75 71.25 28.75H68.75V31.25C68.75 31.5815 68.6183 31.8995 68.3839 32.1339C68.1495 32.3683 67.8315 32.5 67.5 32.5ZM63.75 30H66.25V27.5C66.25 27.1685 66.3817 26.8505 66.6161 26.6161C66.8505 26.3817 67.1685 26.25 67.5 26.25H70V23.75H67.5C67.1685 23.75 66.8505 23.6183 66.6161 23.3839C66.3817 23.1495 66.25 22.8315 66.25 22.5V20H63.75V22.5C63.75 22.8315 63.6183 23.1495 63.3839 23.3839C63.1495 23.6183 62.8315 23.75 62.5 23.75H60V26.25H62.5C62.8315 26.25 63.1495 26.3817 63.3839 26.6161C63.6183 26.8505 63.75 27.1685 63.75 27.5V30Z" fill="#3C3C3B"/>
<path d="M20 80H12.5C12.1685 80 11.8505 79.8683 11.6161 79.6339C11.3817 79.3995 11.25 79.0815 11.25 78.75V75H7.5C7.16848 75 6.85054 74.8683 6.61612 74.6339C6.3817 74.3995 6.25 74.0815 6.25 73.75V66.25C6.25 65.9185 6.3817 65.6005 6.61612 65.3661C6.85054 65.1317 7.16848 65 7.5 65H11.25V61.25C11.25 60.9185 11.3817 60.6005 11.6161 60.3661C11.8505 60.1317 12.1685 60 12.5 60H20C20.3315 60 20.6495 60.1317 20.8839 60.3661C21.1183 60.6005 21.25 60.9185 21.25 61.25V65H25C25.3315 65 25.6495 65.1317 25.8839 65.3661C26.1183 65.6005 26.25 65.9185 26.25 66.25V73.75C26.25 74.0815 26.1183 74.3995 25.8839 74.6339C25.6495 74.8683 25.3315 75 25 75H21.25V78.75C21.25 79.0815 21.1183 79.3995 20.8839 79.6339C20.6495 79.8683 20.3315 80 20 80ZM13.75 77.5H18.75V73.75C18.75 73.4185 18.8817 73.1005 19.1161 72.8661C19.3505 72.6317 19.6685 72.5 20 72.5H23.75V67.5H20C19.6685 67.5 19.3505 67.3683 19.1161 67.1339C18.8817 66.8995 18.75 66.5815 18.75 66.25V62.5H13.75V66.25C13.75 66.5815 13.6183 66.8995 13.3839 67.1339C13.1495 67.3683 12.8315 67.5 12.5 67.5H8.75V72.5H12.5C12.8315 72.5 13.1495 72.6317 13.3839 72.8661C13.6183 73.1005 13.75 73.4185 13.75 73.75V77.5Z" fill="#3C3C3B"/>
<path d="M31.25 37.5H28.75V40H31.25V37.5Z" fill="#3C3C3B"/>
</g>
</g>
<defs>
<clipPath id="clip0_1491_33543">
<rect width="80" height="80" fill="white"/>
</clipPath>
<clipPath id="clip1_1491_33543">
<rect width="80" height="80" fill="white"/>
</clipPath>
</defs>
</svg>
