<svg width="80" height="80" viewBox="0 0 80 80" fill="none" xmlns="http://www.w3.org/2000/svg">
<g clip-path="url(#clip0_1779_50156)">
<g clip-path="url(#clip1_1779_50156)">
<path d="M45.6179 42.8225C44.9703 42.8225 44.4453 43.3474 44.4453 43.9951V44.7263C44.4453 45.374 44.9703 45.8989 45.6179 45.8989C46.2655 45.8989 46.7905 45.374 46.7905 44.7263V43.9951C46.7905 43.3474 46.2655 42.8225 45.6179 42.8225Z" fill="#3C3C3B"/>
<path d="M50.3923 38.0459C49.7447 38.0459 49.2197 38.5707 49.2197 39.2185V40.8119C49.2197 41.4596 49.7447 41.9845 50.3923 41.9845C51.0399 41.9845 51.5649 41.4596 51.5649 40.8119V39.2185C51.5649 38.5709 51.0399 38.0459 50.3923 38.0459Z" fill="#3C3C3B"/>
<path d="M50.3923 46.4944C49.7447 46.4944 49.2197 47.0192 49.2197 47.667V48.635C49.2197 49.2828 49.7447 49.8076 50.3923 49.8076C51.0399 49.8076 51.5649 49.2828 51.5649 48.635V47.667C51.5649 47.0194 51.0399 46.4944 50.3923 46.4944Z" fill="#3C3C3B"/>
<path d="M68.2843 11.7157C60.7293 4.16075 50.6845 0 40 0C29.8741 0 20.2117 3.79366 12.7923 10.6821C12.3176 11.1227 12.2903 11.8645 12.7308 12.3394C13.1714 12.8135 13.9133 12.8414 14.3879 12.4008C21.3721 5.91633 30.4679 2.34514 40 2.34514C50.058 2.34514 59.5139 6.262 66.6261 13.3739C73.7382 20.4859 77.6549 29.942 77.6549 40C77.6549 50.058 73.738 59.5138 66.6261 66.626C59.5141 73.738 50.058 77.6549 40 77.6549C29.942 77.6549 20.4861 73.738 13.374 66.626C6.262 59.5139 2.34514 50.058 2.34514 40C2.34514 31.2138 5.43729 22.6621 11.052 15.9199C11.4665 15.4221 11.399 14.6829 10.9013 14.2685C10.4038 13.8545 9.66449 13.9214 9.25002 14.4192C3.28508 21.5819 0 30.6666 0 40C0 50.6843 4.16075 60.7292 11.7157 68.2841C19.2708 75.8391 29.3157 80 40 80C50.6843 80 60.7293 75.8392 68.2843 68.2841C75.8393 60.729 80 50.6843 80 40C80 29.3155 75.8393 19.2707 68.2843 11.7157Z" fill="#3C3C3B"/>
<path d="M57.9944 12.2392C49.8647 6.95916 40.0733 5.54864 30.4232 8.26728C25.2424 9.72721 20.4729 12.4949 16.6305 16.2716C12.7796 20.0565 9.93695 24.7796 8.4098 29.9303C6.71973 35.6309 6.46145 41.3408 7.642 46.9016C8.74124 52.0794 11.1147 56.9817 14.5054 61.0783C14.9542 61.6205 15.615 61.9387 16.3184 61.9512C16.3329 61.9515 16.3475 61.9517 16.3619 61.9517C17.0485 61.9517 17.7013 61.6595 18.1587 61.1457L19.9174 59.1703C20.348 58.6866 20.305 57.9454 19.8214 57.5148C19.3378 57.0844 18.5966 57.1272 18.1659 57.6108L16.4072 59.5862C16.4013 59.5928 16.3858 59.6056 16.3606 59.6065C16.3311 59.6059 16.3178 59.5899 16.312 59.5831C9.64537 51.5288 7.58462 40.9637 10.658 30.5971C12.0723 25.8265 14.706 21.4512 18.2741 17.9443C21.8361 14.4433 26.257 11.8777 31.059 10.5246C40.0491 7.99134 49.1615 9.29883 56.7168 14.206C56.7238 14.2105 56.7386 14.2202 56.7424 14.2472C56.7462 14.276 56.7329 14.2909 56.7272 14.2973L48.8149 23.1847L41.4749 18.8739C40.5925 18.3556 39.4961 18.3555 38.6137 18.8739L23.785 27.5823C22.925 28.0873 22.3906 29.0209 22.3906 30.0183V49.8809C22.3906 50.6489 22.7083 51.378 23.2466 51.9038L21.4941 53.8722C21.0636 54.3559 21.1066 55.0971 21.5901 55.5277C22.074 55.9584 22.8151 55.9153 23.2456 55.4317L58.4787 15.8566C58.9461 15.3319 59.1602 14.6312 59.0666 13.9346C58.9733 13.239 58.5824 12.6211 57.9944 12.2392ZM39.8016 20.896C39.9513 20.808 40.1372 20.8082 40.2873 20.896L47.2252 24.9705L37.498 35.8963L25.8788 29.0725L39.8016 20.896ZM24.7359 49.8809V31.121L35.908 37.6822L24.8161 50.1411C24.7661 50.0643 24.7359 49.9752 24.7359 49.8809Z" fill="#3C3C3B"/>
<path d="M63.6397 20.3935C63.6693 20.3941 63.6825 20.41 63.6883 20.4169C67.0069 24.4265 69.2629 29.2386 70.2124 34.333C70.331 34.9698 70.9431 35.3902 71.58 35.2709C72.2167 35.1522 72.6365 34.5398 72.5179 33.9034C71.4955 28.4179 69.067 23.2374 65.495 18.9217C65.0463 18.3795 64.3855 18.0613 63.6821 18.0488C62.9807 18.035 62.3089 18.3297 61.8418 18.8543L21.5216 64.1432C21.0543 64.668 20.8399 65.3688 20.9337 66.0656C21.0272 66.7612 21.4182 67.379 22.0061 67.761C27.4315 71.2846 33.5956 73.0851 39.9652 73.0849C43.1402 73.0848 46.3671 72.6373 49.577 71.7329C54.7577 70.2731 59.5273 67.5054 63.3697 63.7287C67.2206 59.9438 70.0634 55.2207 71.5904 50.0702C72.6691 46.4317 73.1657 42.7352 73.0662 39.0836C73.0486 38.4361 72.5051 37.9245 71.8622 37.9434C71.2148 37.9609 70.7044 38.5002 70.722 39.1474C70.8147 42.5516 70.3506 46.0024 69.342 49.4037C67.9276 54.1742 65.294 58.5494 61.7259 62.0563C58.164 65.5573 53.7429 68.1229 48.941 69.4759C39.9505 72.0087 30.8385 70.7015 23.2834 65.7945C23.2764 65.79 23.2615 65.7803 23.2579 65.7532C23.254 65.7243 23.2675 65.7094 23.2731 65.703L31.2744 56.7157L38.6133 61.0257C39.0546 61.2849 39.5493 61.4146 40.0441 61.4146C40.5388 61.4146 41.0335 61.2849 41.4745 61.0257L56.3032 52.3173C57.1632 51.8123 57.6976 50.8788 57.6976 49.8813V30.0183C57.6976 29.2508 57.3802 28.5219 56.8425 27.9963L63.5931 20.4136C63.5992 20.4071 63.6169 20.3938 63.6397 20.3935ZM32.8642 54.9294L38.8714 48.182V58.4573L32.8642 54.9294ZM55.1157 50.2947L41.2167 58.4572V45.5478L52.6454 32.7108L55.3526 31.1209V49.8808C55.3524 50.0503 55.2618 50.2088 55.1157 50.2947Z" fill="#3C3C3B"/>
</g>
</g>
<defs>
<clipPath id="clip0_1779_50156">
<rect width="80" height="80" fill="white"/>
</clipPath>
<clipPath id="clip1_1779_50156">
<rect width="80" height="80" fill="white"/>
</clipPath>
</defs>
</svg>
