<svg width="80" height="80" viewBox="0 0 80 80" fill="none" xmlns="http://www.w3.org/2000/svg">
<g clip-path="url(#clip0_1961_102947)">
<g clip-path="url(#clip1_1961_102947)">
<path fill-rule="evenodd" clip-rule="evenodd" d="M45.6156 22.3373C45.3358 22.3373 45.0557 22.233 44.8409 22.0182L39.9972 17.1746L35.1536 22.0182C34.1458 23.026 32.5677 21.505 33.6041 20.4688L38.4478 15.6251L33.6041 10.7813C32.583 9.76018 34.1329 8.2109 35.1536 9.23163L39.9972 14.0755L44.8411 9.23163C45.8544 8.21053 47.4144 9.75741 46.3905 10.7813L41.5469 15.6249L46.3905 20.4688C47.0837 21.1617 46.5858 22.3373 45.6156 22.3373ZM39.9972 80C24.5871 80 12.048 67.4609 12.048 52.0508L12.0479 29.7526C12.0479 29.349 12.276 28.9714 12.6338 28.7826L25.6961 21.9139C21.1828 11.6944 28.6732 0 39.9972 0C51.3265 0 58.8082 11.6994 54.301 21.9125L67.3672 28.7891C67.725 28.9779 67.9531 29.349 67.9531 29.7591V52.0572C67.9467 67.4609 55.4074 80 39.9972 80ZM26.7179 23.8475L14.2355 30.41V52.044C14.2355 66.2499 25.7915 77.8059 39.9972 77.8059C54.2032 77.8059 65.7592 66.2499 65.7592 52.044L65.759 30.4166L53.2797 23.8467C52.3819 25.2921 51.2549 26.5808 49.9497 27.6617C51.4575 28.4366 49.8589 30.5912 48.6823 29.414C48.5112 29.2429 48.4082 29.0307 48.3733 28.8099C46.2401 30.1701 43.7565 31.0267 41.0911 31.212V55.3583C41.0909 56.7986 38.9036 56.799 38.9036 55.3581V31.2113C33.7616 30.8536 29.2961 27.995 26.7179 23.8475ZM23.3174 60.7749C22.3659 60.7749 21.8592 59.6353 22.5102 58.9324C23.4907 57.8736 25.0941 59.3626 24.1117 60.4298C23.9034 60.6575 23.6105 60.7749 23.3174 60.7749ZM18.5519 42.4283C17.5811 42.4283 17.0843 41.2525 17.7771 40.5597C18.8176 39.5193 20.3486 41.1248 19.3266 42.1158C19.1118 42.3177 18.8318 42.4283 18.5519 42.4283ZM31.0585 33.9649C30.0885 33.9649 29.591 32.7893 30.2838 32.0964C31.311 31.0688 32.8558 32.6458 31.8332 33.6523C31.6182 33.8606 31.3384 33.9649 31.0585 33.9649ZM30.3227 51.81C29.3702 51.81 28.8648 50.67 29.5155 49.9674C30.496 48.9089 32.0995 50.3978 31.117 51.4648C30.9086 51.6926 30.6158 51.81 30.3227 51.81ZM56.4427 55.4884C55.4729 55.4884 54.9748 54.313 55.6679 53.6198C56.6953 52.5924 58.2398 54.1688 57.2174 55.1757C57.0026 55.3841 56.7225 55.4884 56.4427 55.4884ZM50.9282 42.4283C49.9571 42.4283 49.4612 41.252 50.1535 40.5597C51.194 39.5193 52.7251 41.1252 51.7031 42.1158C51.4881 42.3177 51.2082 42.4283 50.9282 42.4283ZM61.7811 38.7501C60.7823 38.7501 60.3137 37.521 61.0324 36.8555C62.0968 35.8696 63.5832 37.4901 62.5298 38.457C62.315 38.6522 62.0479 38.7501 61.7811 38.7501ZM41.1758 61.9272C40.1604 61.9272 39.6961 60.6717 40.4531 60.0066C41.5375 59.0538 42.9878 60.7033 41.8985 61.6537C41.6899 61.8359 41.4295 61.9272 41.1758 61.9272ZM52.9464 64.8698C51.9755 64.8698 51.4793 63.6937 52.1717 63.0013C53.1957 61.9771 54.7395 63.5383 53.7211 64.5574C53.513 64.7658 53.2266 64.8698 52.9464 64.8698ZM31.9764 71.1197C30.9753 71.1197 30.5135 69.891 31.2213 69.2252C32.2732 68.2356 33.7725 69.8368 32.7187 70.8269C32.5103 71.0223 32.2433 71.1197 31.9764 71.1197ZM22.0415 32.1224C21.09 32.1224 20.5832 30.9826 21.2343 30.2799C22.2131 29.2233 23.8172 30.7193 22.836 31.7773C22.6274 32.0052 22.3345 32.1224 22.0415 32.1224ZM39.9972 2.18745C32.5884 2.18745 26.5598 8.21607 26.5598 15.6249C26.5598 23.034 32.5884 29.0626 39.9972 29.0626C47.4063 29.0626 53.4349 23.034 53.4349 15.6249C53.4349 8.21607 47.4061 2.18745 39.9972 2.18745Z" fill="#3C3C3B"/>
</g>
</g>
<defs>
<clipPath id="clip0_1961_102947">
<rect width="80" height="80" fill="white"/>
</clipPath>
<clipPath id="clip1_1961_102947">
<rect width="80" height="80" fill="white"/>
</clipPath>
</defs>
</svg>
