<svg width="80" height="80" viewBox="0 0 80 80" fill="none" xmlns="http://www.w3.org/2000/svg">
<g clip-path="url(#clip0_1961_102945)">
<g clip-path="url(#clip1_1961_102945)">
<path d="M68.2844 11.7156C60.7292 4.16078 50.6844 0 40 0C29.3156 0 19.2708 4.16078 11.7156 11.7156C4.16078 19.2708 0 29.3156 0 40C0 50.6844 4.16078 60.7292 11.7156 68.2844C19.2708 75.8392 29.3156 80 40 80C50.6844 80 60.7292 75.8392 68.2844 68.2844C75.8392 60.7292 80 50.6844 80 40C80 29.3156 75.8392 19.2708 68.2844 11.7156ZM13.3731 13.373C20.4853 6.26062 29.9417 2.34375 40 2.34375C49.6666 2.34375 58.7759 5.96328 65.7842 12.5584L38.9031 39.4395V32.7789H41.1553C43.4334 32.7789 45.2869 30.9255 45.2869 28.6473V25.1231C45.2869 22.845 43.4334 20.9916 41.1553 20.9916H39.5884V14.3428C39.5884 11.3255 37.1338 8.87078 34.1164 8.87078C31.0991 8.87078 28.6444 11.3255 28.6444 14.3428V20.9916H27.0773C24.7992 20.9916 22.9459 22.845 22.9459 25.1231V28.6473C22.9459 30.9255 24.7992 32.7789 27.0773 32.7789H29.4133V38.2289C29.4133 39.7441 31.757 39.7441 31.757 38.2289V32.7789H36.5592V50.4481H31.757V44.4627C31.757 42.9475 29.4133 42.9475 29.4133 44.4627V48.9292L12.5584 65.7842C5.96328 58.7759 2.34375 49.6667 2.34375 40C2.34375 29.9416 6.26062 20.4853 13.3731 13.373ZM27.0775 30.4352C26.0917 30.4352 25.2898 29.6331 25.2898 28.6473V25.1231C25.2898 24.1373 26.0919 23.3353 27.0775 23.3353H41.1555C42.1414 23.3353 42.9433 24.1373 42.9433 25.1231V28.6473C42.9433 29.6331 42.1412 30.4352 41.1555 30.4352H27.0775ZM37.2447 20.9916H30.9883V14.3428C30.9883 12.6178 32.3916 11.2145 34.1166 11.2145C35.8416 11.2145 37.2448 12.6178 37.2448 14.3428V20.9916H37.2447ZM36.5594 61.8417C36.5594 62.5619 36.5 63.2789 36.3831 63.9855C36.1259 65.5398 35.5909 67.043 34.7992 68.4153C34.6066 68.7494 34.2869 68.7853 34.1583 68.7853C34.0297 68.7853 33.7102 68.7494 33.5173 68.4152C32.3658 66.4192 31.757 64.1461 31.757 61.8417V52.792H36.5592L36.5594 61.8417ZM66.6269 66.627C59.5147 73.7394 50.0583 77.6562 40 77.6562C30.3334 77.6562 21.2241 74.0367 14.2158 67.4416L29.4134 52.2439V61.8416C29.4134 62.1809 29.4247 62.5197 29.4469 62.8573C29.4692 63.195 29.5025 63.5316 29.5467 63.8662C29.5689 64.0336 29.5938 64.2006 29.6213 64.367C29.6517 64.5516 29.6864 64.7352 29.7236 64.9183C30.0552 66.5533 30.6486 68.1322 31.4873 69.5859C31.6964 69.9483 31.9673 70.2558 32.2834 70.4986C32.3031 70.5137 32.3237 70.5273 32.3438 70.5419C32.3773 70.5664 32.4105 70.5914 32.445 70.6145C32.9406 70.9461 33.5311 71.1286 34.1584 71.1286C35.2041 71.1286 36.147 70.6217 36.7198 69.7625C36.758 69.7052 36.7945 69.6464 36.8294 69.5859C38.1862 67.2342 38.9033 64.5563 38.9033 61.8412V51.6197V42.7537L67.4416 14.2158C74.0367 21.2241 77.6562 30.3333 77.6562 40C77.6562 50.0584 73.7394 59.5147 66.6269 66.627Z" fill="#3C3C3B"/>
<path d="M53.1455 45.0255C53.1455 42.1152 49.7829 38.5488 49.3993 38.1516C48.8373 37.6746 48.2752 37.6746 47.7132 38.1516C47.3298 38.5488 43.9668 42.115 43.9668 45.0255C43.9668 47.5428 46.0255 49.591 48.5562 49.591C51.0868 49.591 53.1455 47.5428 53.1455 45.0255ZM48.5563 47.2472C47.318 47.2472 46.3107 46.2505 46.3107 45.0255C46.3107 43.8597 47.4779 42.0561 48.5571 40.7349C49.636 42.0539 50.8018 43.8555 50.8018 45.0255C50.8018 46.2505 49.7945 47.2472 48.5563 47.2472Z" fill="#3C3C3B"/>
<path d="M59.7455 59.409C59.1306 59.2086 58.4687 59.5453 58.2686 60.1608C57.8097 61.5706 56.4964 62.5179 55.0003 62.5179C53.1069 62.5179 51.5664 60.9918 51.5664 59.1162C51.5664 57.1773 53.5953 54.3609 54.9972 52.7067C55.5205 53.3247 56.2116 54.1953 56.8417 55.1636C57.668 56.4337 59.6325 55.1551 58.8061 53.8851C57.4645 51.8236 55.9092 50.2037 55.8436 50.1358C55.3828 49.6583 54.6183 49.6583 54.1572 50.1354C54.1078 50.1867 52.9312 51.41 51.7428 53.079C50.0706 55.4275 49.2227 57.4587 49.2227 59.1162C49.2227 62.2842 51.8145 64.8617 55.0003 64.8617C57.5144 64.8617 59.7236 63.2639 60.4973 60.8859C60.6977 60.2706 60.3611 59.6093 59.7455 59.409Z" fill="#3C3C3B"/>
</g>
</g>
<defs>
<clipPath id="clip0_1961_102945">
<rect width="80" height="80" fill="white"/>
</clipPath>
<clipPath id="clip1_1961_102945">
<rect width="80" height="80" fill="white"/>
</clipPath>
</defs>
</svg>
