<svg width="80" height="80" viewBox="0 0 80 80" fill="none" xmlns="http://www.w3.org/2000/svg">
<g clip-path="url(#clip0_1779_50447)">
<path d="M46.698 3.80969C46.4484 3.80969 46.209 3.90885 46.0325 4.08536C45.856 4.26186 45.7568 4.50125 45.7568 4.75087V13.5295C45.7568 13.7791 45.856 14.0185 46.0325 14.195C46.209 14.3715 46.4484 14.4706 46.698 14.4706C46.9476 14.4706 47.187 14.3715 47.3635 14.195C47.54 14.0185 47.6392 13.7791 47.6392 13.5295V12.7862C49.9415 14.5655 54.4392 17.6332 58.9387 18.3944C64.354 19.3109 65.7425 23.8297 65.798 24.0179C65.8089 24.0561 65.8222 24.0936 65.8378 24.1302C67.1084 27.0932 67.7077 34.5026 67.4834 44.4596C67.4368 46.8446 67.7296 49.2242 68.3528 51.5269C69.4476 55.7275 69.969 60.057 69.903 64.3975C69.9012 64.5211 69.9239 64.6438 69.9696 64.7586C70.0153 64.8735 70.0832 64.9782 70.1694 65.0668C70.2556 65.1554 70.3584 65.2261 70.472 65.275C70.5855 65.3239 70.7076 65.3499 70.8312 65.3516H70.8444C71.0918 65.3516 71.3292 65.2542 71.5053 65.0805C71.6815 64.9068 71.7821 64.6707 71.7855 64.4233C71.8535 59.91 71.3106 55.4081 70.1717 51.0403C69.5944 48.9101 69.323 46.7086 69.3655 44.5019C69.5001 38.521 69.4477 27.8532 67.5891 23.4391C67.3813 22.7735 65.5719 17.6092 59.2531 16.54C54.239 15.6913 48.9615 11.4793 47.6394 10.3673V4.75087C47.6394 4.62725 47.6151 4.50485 47.5678 4.39064C47.5204 4.27644 47.4511 4.17267 47.3637 4.08527C47.2763 3.99787 47.1725 3.92855 47.0583 3.88127C46.944 3.83398 46.8216 3.80966 46.698 3.80969Z" fill="#3C3C3B"/>
<path d="M61.5586 72.9541C61.5881 73.1806 61.6988 73.3886 61.8703 73.5394C62.0418 73.6902 62.2622 73.7736 62.4906 73.7739C62.5317 73.7739 62.5727 73.7713 62.6134 73.7661C62.8609 73.7339 63.0855 73.6047 63.2378 73.4068C63.39 73.209 63.4574 72.9588 63.4252 72.7113C62.6781 66.9715 62.2217 59.6607 62.016 55.8139C61.9415 54.4527 61.7348 53.1019 61.3988 51.7807C60.4257 47.9454 59.8722 44.2278 59.8409 44.016C59.8242 43.8718 59.5821 41.7447 59.5821 39.948C60.1275 39.2022 60.5581 38.3788 60.8595 37.5054C61.2935 36.2577 61.5316 34.9503 61.5654 33.6297C61.5637 33.3812 61.4637 33.1435 61.2874 32.9684C61.1111 32.7933 60.8727 32.6951 60.6242 32.6951H60.6172C60.3676 32.6969 60.129 32.7977 59.9537 32.9755C59.7785 33.1532 59.6811 33.3933 59.6828 33.6428C59.6478 34.7502 59.4444 35.8459 59.0795 36.892C58.5549 38.3792 57.5795 39.6658 56.2892 40.5726C54.9989 41.4793 53.458 41.9611 51.8809 41.9508H48.1268C47.3642 41.9585 46.6053 41.8446 45.8786 41.6134C45.5005 41.5133 45.1477 41.3346 44.8433 41.089C44.6617 40.9184 44.4198 40.8268 44.1707 40.8343C43.9216 40.8417 43.6857 40.9477 43.5146 41.1289C43.3436 41.3101 43.2513 41.5517 43.2582 41.8008C43.265 42.0499 43.3703 42.2861 43.5511 42.4577C44.0555 42.8936 44.6483 43.2154 45.2887 43.401C46.2056 43.6951 47.1635 43.841 48.1264 43.8332H51.8821C54.012 43.8362 56.082 43.1286 57.7645 41.8226C57.8428 43.1181 57.9671 44.1852 57.9746 44.2499C57.9746 44.2541 57.9767 44.2581 57.9774 44.2624C57.9781 44.2666 57.9774 44.2706 57.9774 44.2746C58.0009 44.4337 58.5529 48.2139 59.5755 52.2438C59.8814 53.4462 60.0697 54.6755 60.1377 55.9144C60.3433 59.7882 60.8035 67.153 61.5586 72.9541Z" fill="#3C3C3B"/>
<path d="M58.5476 51.7925C58.5782 51.6715 58.5844 51.5456 58.5658 51.4222C58.5473 51.2987 58.5044 51.1802 58.4396 51.0735C58.3748 50.9668 58.2894 50.8741 58.1884 50.8007C58.0874 50.7273 57.9729 50.6747 57.8514 50.646C57.7299 50.6173 57.6039 50.6131 57.4808 50.6336C57.3576 50.6541 57.2398 50.6988 57.1341 50.7653C57.0284 50.8317 56.937 50.9185 56.8652 51.0207C56.7934 51.1228 56.7427 51.2381 56.7159 51.3601C56.5523 52.0518 56.3763 52.7483 56.1928 53.4276C55.2303 57.0301 55.26 60.8259 56.2787 64.413C56.6028 65.5611 56.8548 66.7284 57.033 67.9081L57.833 75.3499C57.8598 75.5982 57.984 75.8256 58.1784 75.9822C58.3728 76.1388 58.6214 76.2118 58.8696 76.1851C59.1178 76.1584 59.3453 76.0342 59.5019 75.8398C59.6585 75.6454 59.7315 75.3967 59.7048 75.1485L58.9017 67.6841C58.7135 66.4075 58.4425 65.1445 58.0905 63.9031C57.1638 60.643 57.1359 57.1931 58.0097 53.9184C58.1987 53.2191 58.3799 52.5038 58.5476 51.7925Z" fill="#3C3C3B"/>
<path d="M21.0954 67.7066L20.2954 75.1484C20.2687 75.3967 20.3417 75.6453 20.4983 75.8397C20.655 76.0341 20.8824 76.1583 21.1306 76.185C21.3788 76.2117 21.6275 76.1388 21.8219 75.9821C22.0163 75.8255 22.1405 75.5981 22.1672 75.3499L22.9649 67.9306C23.1423 66.7431 23.3953 65.5682 23.722 64.4129C24.7407 60.8259 24.7704 57.0301 23.8082 53.4275C23.6317 52.7741 23.4649 52.1164 23.3119 51.4727C23.284 51.3518 23.2324 51.2376 23.1601 51.1367C23.0879 51.0358 22.9964 50.9502 22.891 50.8849C22.7855 50.8195 22.6682 50.7756 22.5457 50.7557C22.4232 50.7358 22.298 50.7403 22.1773 50.769C22.0566 50.7977 21.9427 50.85 21.8423 50.9229C21.7418 50.9957 21.6568 51.0877 21.592 51.1936C21.5273 51.2994 21.4841 51.4171 21.465 51.5397C21.4459 51.6623 21.4512 51.7874 21.4806 51.908C21.6378 52.5699 21.81 53.2461 21.9907 53.9181C22.8645 57.1928 22.8367 60.6429 21.91 63.903C21.5558 65.1517 21.2837 66.4223 21.0954 67.7066Z" fill="#3C3C3B"/>
<path d="M8.21465 64.4219C8.21812 64.6693 8.3188 64.9053 8.49493 65.0789C8.67106 65.2526 8.90848 65.35 9.15583 65.3499H9.169C9.29263 65.3482 9.4147 65.3222 9.52826 65.2733C9.64182 65.2245 9.74464 65.1537 9.83084 65.0651C9.91704 64.9764 9.98493 64.8717 10.0306 64.7568C10.0764 64.6419 10.099 64.5192 10.0972 64.3956C10.0312 60.0551 10.5526 55.7257 11.6474 51.525C12.2709 49.2224 12.564 46.8428 12.5179 44.4577C12.2937 34.5019 12.8944 27.093 14.1634 24.1295C14.1784 24.094 14.1914 24.0577 14.2022 24.0208C14.2587 23.829 15.6471 19.3106 21.0629 18.3942C25.5617 17.6328 30.0598 14.5652 32.3622 12.7859V13.5295C32.3622 13.7791 32.4613 14.0185 32.6378 14.195C32.8144 14.3715 33.0537 14.4706 33.3034 14.4706C33.553 14.4706 33.7924 14.3715 33.9689 14.195C34.1454 14.0185 34.2445 13.7791 34.2445 13.5295V4.75087C34.2445 4.50125 34.1454 4.26186 33.9689 4.08536C33.7924 3.90885 33.553 3.80969 33.3034 3.80969C33.0537 3.80969 32.8144 3.90885 32.6378 4.08536C32.4613 4.26186 32.3622 4.50125 32.3622 4.75087V10.3657C31.0401 11.4777 25.7627 15.6897 20.7488 16.5384C14.4281 17.6078 12.6184 22.7723 12.4109 23.4377C10.5521 27.8518 10.5001 38.5201 10.6347 44.5003C10.6772 46.7069 10.4057 48.9084 9.82853 51.0386C8.68961 55.4066 8.14673 59.9085 8.21465 64.4219Z" fill="#3C3C3B"/>
<path d="M38.0258 20.3295L37.9124 20.3045C37.7152 20.2613 37.5349 20.1616 37.3936 20.0175L37.3094 19.9311C36.9033 19.5187 36.4194 19.1909 35.8858 18.9666C35.3522 18.7424 34.7795 18.6262 34.2007 18.6248H32.6931C32.4435 18.6248 32.2041 18.7239 32.0276 18.9004C31.8511 19.0769 31.752 19.3163 31.752 19.5659C31.752 19.8155 31.8511 20.0549 32.0276 20.2314C32.2041 20.408 32.4435 20.5071 32.6931 20.5071H34.2007C34.5292 20.5078 34.8543 20.5736 35.1572 20.7008C35.4602 20.828 35.7348 21.014 35.9654 21.2481L36.0501 21.3346C36.4476 21.7408 36.9553 22.0219 37.5105 22.1433L37.6237 22.168C37.745 22.196 37.8706 22.1996 37.9932 22.1786C38.1159 22.1577 38.2332 22.1127 38.3383 22.0461C38.4434 21.9796 38.5343 21.8928 38.6057 21.7909C38.6771 21.689 38.7276 21.574 38.7542 21.4524C38.7809 21.3309 38.7832 21.2053 38.7609 21.0828C38.7387 20.9604 38.6924 20.8436 38.6248 20.7392C38.5571 20.6347 38.4695 20.5447 38.3668 20.4744C38.2642 20.4041 38.1486 20.3548 38.0268 20.3295H38.0258Z" fill="#3C3C3B"/>
<path d="M31.8726 43.8329C32.8354 43.8407 33.7933 43.6948 34.71 43.4007C35.3505 43.2152 35.9434 42.8934 36.4479 42.4574C36.6287 42.2859 36.734 42.0497 36.7408 41.8006C36.7476 41.5515 36.6554 41.3098 36.4843 41.1286C36.3133 40.9475 36.0773 40.8415 35.8283 40.834C35.5792 40.8265 35.3373 40.9181 35.1557 41.0887C34.8513 41.3343 34.4985 41.513 34.1204 41.6132C33.3937 41.8444 32.6349 41.9583 31.8724 41.9506H28.1173C26.5403 41.9609 24.9994 41.4791 23.7091 40.5723C22.4188 39.6656 21.4434 38.379 20.9187 36.8918C20.5564 35.8445 20.353 34.7488 20.3154 33.6412C20.3168 33.3918 20.2192 33.1522 20.044 32.9747C19.8688 32.7973 19.6304 32.6966 19.3811 32.6948H19.374C19.1256 32.6948 18.8872 32.7931 18.7108 32.9682C18.5345 33.1432 18.4346 33.3809 18.4329 33.6294C18.4667 34.95 18.7048 36.2574 19.1387 37.5052C19.4402 38.3786 19.8708 39.2019 20.4162 39.9478C20.4162 41.7466 20.1733 43.8772 20.1573 44.0162C20.1251 44.2348 19.5722 47.9485 18.5997 51.7809C18.2634 53.1021 18.0567 54.4529 17.9823 55.8141C17.7766 59.6598 17.3204 66.9685 16.5731 72.7113C16.5563 72.8343 16.564 72.9593 16.5958 73.0793C16.6275 73.1992 16.6827 73.3117 16.758 73.4103C16.8334 73.5089 16.9276 73.5915 17.035 73.6536C17.1425 73.7156 17.2612 73.7558 17.3842 73.7718C17.5073 73.7878 17.6323 73.7794 17.752 73.7469C17.8718 73.7144 17.984 73.6585 18.0821 73.5825C18.1801 73.5065 18.2622 73.4119 18.3236 73.304C18.385 73.1962 18.4244 73.0773 18.4397 72.9541C19.1947 67.1496 19.655 59.7871 19.8618 55.9146C19.9298 54.6757 20.1181 53.4464 20.4242 52.244C21.4467 48.2141 21.999 44.4339 22.022 44.2748C22.022 44.2708 22.022 44.2668 22.022 44.2626C22.022 44.2584 22.0244 44.2544 22.0249 44.2501C22.0324 44.1854 22.1566 43.1184 22.235 41.8228C23.9174 43.1289 25.9875 43.8364 28.1173 43.8334L31.8726 43.8329Z" fill="#3C3C3B"/>
<path d="M28.7333 40.0706C28.983 40.0706 29.2223 39.9714 29.3989 39.7949C29.5754 39.6184 29.6745 39.379 29.6745 39.1294C29.6745 38.8798 29.5754 38.6404 29.3989 38.4639C29.2223 38.2874 28.983 38.1882 28.7333 38.1882H27.9197C27.6701 38.1882 27.4307 38.2874 27.2542 38.4639C27.0777 38.6404 26.9785 38.8798 26.9785 39.1294C26.9785 39.379 27.0777 39.6184 27.2542 39.7949C27.4307 39.9714 27.6701 40.0706 27.9197 40.0706H28.7333Z" fill="#3C3C3B"/>
<path d="M33.0732 53.5464C32.9598 53.4942 32.8371 53.465 32.7124 53.4607C32.5876 53.4563 32.4632 53.4768 32.3465 53.521C32.2297 53.5651 32.1229 53.6321 32.0323 53.7179C31.9416 53.8038 31.869 53.9068 31.8185 54.021C31.7681 54.1352 31.7409 54.2583 31.7385 54.3831C31.736 54.5079 31.7585 54.6319 31.8045 54.748C31.8505 54.864 31.9191 54.9698 32.0063 55.0591C32.0936 55.1484 32.1977 55.2194 32.3127 55.268C33.4161 55.7364 34.6039 55.9732 35.8026 55.9636C36.0522 55.9636 36.2916 55.8644 36.4681 55.6879C36.6446 55.5114 36.7438 55.272 36.7438 55.0224C36.7438 54.7728 36.6446 54.5334 36.4681 54.3569C36.2916 54.1804 36.0522 54.0812 35.8026 54.0812C34.8657 54.0919 33.9367 53.9099 33.0732 53.5464Z" fill="#3C3C3B"/>
<path d="M42.6073 20.0165C42.466 20.1608 42.2856 20.2606 42.0883 20.3038L41.9749 20.3287C41.8531 20.3541 41.7375 20.4034 41.6348 20.4737C41.5322 20.544 41.4445 20.634 41.3768 20.7384C41.3092 20.8429 41.2629 20.9597 41.2407 21.0821C41.2185 21.2045 41.2208 21.3301 41.2474 21.4517C41.2741 21.5732 41.3245 21.6883 41.3959 21.7902C41.4673 21.8921 41.5582 21.9788 41.6634 22.0454C41.7685 22.1119 41.8858 22.157 42.0084 22.1779C42.1311 22.1988 42.2567 22.1952 42.3779 22.1673L42.4911 22.1426C43.0467 22.0212 43.5545 21.7399 43.952 21.3332L44.036 21.2476C44.2666 21.0135 44.5412 20.8274 44.8442 20.7002C45.1471 20.573 45.4722 20.5071 45.8008 20.5064H47.3085C47.5581 20.5064 47.7975 20.4072 47.974 20.2307C48.1505 20.0542 48.2497 19.8148 48.2497 19.5652C48.2497 19.3156 48.1505 19.0762 47.974 18.8997C47.7975 18.7232 47.5581 18.624 47.3085 18.624H45.8008C45.2219 18.6255 44.6491 18.7417 44.1154 18.966C43.5818 19.1902 43.0979 19.5181 42.6918 19.9306L42.6073 20.0165Z" fill="#3C3C3B"/>
<path d="M52.081 40.0706C52.3306 40.0706 52.57 39.9714 52.7465 39.7949C52.923 39.6184 53.0222 39.379 53.0222 39.1294C53.0222 38.8798 52.923 38.6404 52.7465 38.4639C52.57 38.2874 52.3306 38.1882 52.081 38.1882H51.2673C51.0177 38.1882 50.7783 38.2874 50.6018 38.4639C50.4253 38.6404 50.3262 38.8798 50.3262 39.1294C50.3262 39.379 50.4253 39.6184 50.6018 39.7949C50.7783 39.9714 51.0177 40.0706 51.2673 40.0706H52.081Z" fill="#3C3C3B"/>
<path d="M39.9998 37.7207C40.2494 37.7207 40.4888 37.6216 40.6653 37.4451C40.8418 37.2686 40.9409 37.0292 40.9409 36.7796V29.8447C40.9409 29.5951 40.8418 29.3557 40.6653 29.1792C40.4888 29.0027 40.2494 28.9036 39.9998 28.9036C39.7502 28.9036 39.5108 29.0027 39.3343 29.1792C39.1578 29.3557 39.0586 29.5951 39.0586 29.8447V36.7796C39.0586 37.0292 39.1578 37.2686 39.3343 37.4451C39.5108 37.6216 39.7502 37.7207 39.9998 37.7207Z" fill="#3C3C3B"/>
<path d="M39.0118 54.6965C38.7275 55.5751 38.0485 58.1083 38.6701 60.6904C38.943 61.879 39.0735 63.0959 39.0588 64.3153V64.5991C39.0588 64.8487 39.158 65.0881 39.3345 65.2646C39.511 65.4411 39.7504 65.5403 40 65.5403C40.2496 65.5403 40.489 65.4411 40.6655 65.2646C40.842 65.0881 40.9412 64.8487 40.9412 64.5991V64.3153C40.9557 62.9474 40.8073 61.5826 40.4991 60.2497C40.0944 58.5695 40.3849 56.8551 40.632 55.876C41.2235 56.0008 41.8264 56.0632 42.4308 56.0622C43.3949 56.0608 44.3529 55.9084 45.2699 55.6106C45.3889 55.5739 45.4995 55.5139 45.5952 55.4341C45.6908 55.3543 45.7697 55.2563 45.8272 55.1458C45.8848 55.0353 45.9198 54.9145 45.9302 54.7904C45.9407 54.6662 45.9264 54.5413 45.8882 54.4227C45.85 54.3041 45.7887 54.1943 45.7077 54.0996C45.6267 54.0049 45.5278 53.9273 45.4166 53.8711C45.3054 53.815 45.1841 53.7815 45.0599 53.7725C44.9356 53.7636 44.8108 53.7794 44.6927 53.8191C43.4239 54.2394 42.0621 54.2923 40.7645 53.9718C40.3008 52.1327 40.3429 50.2024 40.8864 48.3852C40.9672 48.1511 40.9524 47.8946 40.8454 47.6712C40.7383 47.4479 40.5475 47.2758 40.3144 47.1922C40.0812 47.1086 39.8245 47.1203 39.5999 47.2247C39.3753 47.3291 39.201 47.5178 39.1146 47.7499C38.409 50.0067 38.3733 52.4198 39.0118 54.6965Z" fill="#3C3C3B"/>
<path d="M40.9409 69.1148V68.3082C40.9409 68.0586 40.8418 67.8192 40.6653 67.6427C40.4888 67.4662 40.2494 67.3671 39.9998 67.3671C39.7502 67.3671 39.5108 67.4662 39.3343 67.6427C39.1578 67.8192 39.0586 68.0586 39.0586 68.3082V69.1148C39.0586 69.3644 39.1578 69.6038 39.3343 69.7803C39.5108 69.9569 39.7502 70.056 39.9998 70.056C40.2494 70.056 40.4888 69.9569 40.6653 69.7803C40.8418 69.6038 40.9409 69.3644 40.9409 69.1148Z" fill="#3C3C3B"/>
</g>
<defs>
<clipPath id="clip0_1779_50447">
<rect width="80" height="80" fill="white"/>
</clipPath>
</defs>
</svg>
