<svg width="80" height="80" viewBox="0 0 80 80" fill="none" xmlns="http://www.w3.org/2000/svg">
<g clip-path="url(#clip0_1491_33436)">
<g clip-path="url(#clip1_1491_33436)">
<path d="M45 71.225C53.475 66.925 60.4875 59.9875 64.875 51.4874C68.225 44.9875 70 37.6999 70 30.3875V16.5875C69.15 16.6375 68.3625 16.6625 67.5875 16.6625C59.5125 16.6625 51.75 14.3875 45 10.0625V7.49995L45.2 7.19995C51.8125 11.75 59.5375 14.1625 67.5875 14.1625C68.6875 14.1625 69.85 14.1125 71.15 14L72.5 13.8875V30.3875C72.5 38.0875 70.6375 45.7874 67.1 52.6375C62.2875 61.9375 54.5 69.475 45.1 73.95L45 73.7499V71.225Z" fill="#3C3C3B"/>
<path d="M45 71.2249V73.7499H42.5V71.2249C42.9125 71.4374 43.325 71.6374 43.75 71.8374C44.175 71.6374 44.5875 71.4374 45 71.2249Z" fill="#3C3C3B"/>
<path d="M45 10.0625V71.225C44.5875 71.4375 44.175 71.6376 43.75 71.8376C43.325 71.6376 42.9125 71.4375 42.5 71.225V10.0625C42.925 9.80005 43.3375 9.52505 43.75 9.23755C44.1625 9.52505 44.575 9.80005 45 10.0625Z" fill="#3C3C3B"/>
<path d="M45 7.5V10.0625C44.575 9.8 44.1625 9.525 43.75 9.2375C43.3375 9.525 42.925 9.8 42.5 10.0625V7.5H45Z" fill="#3C3C3B"/>
<path d="M36.9252 67.9C38.6752 69.125 40.5377 70.25 42.5002 71.225V73.75H45.0002L45.1002 73.95C44.8252 74.0875 44.5502 74.225 44.2627 74.35L43.7502 74.5875L43.2377 74.35C40.5002 73.1125 37.9002 71.625 35.5002 69.95C34.8127 69.475 34.1502 68.9875 33.5127 68.4875L35.0502 66.5125C35.6502 66.9875 36.2877 67.45 36.9252 67.9Z" fill="#3C3C3B"/>
<path d="M32.4998 55C32.4998 56.525 33.2373 57.5 33.7498 57.5C34.2623 57.5 34.9998 56.525 34.9998 55C34.9998 53.475 34.2623 52.5 33.7498 52.5C33.2373 52.5 32.4998 53.475 32.4998 55ZM31.2498 56.25V53.75H30.1123C30.5248 51.575 31.9748 50 33.7498 50C35.8498 50 37.4998 52.2 37.4998 55C37.4998 57.8 35.8498 60 33.7498 60C31.9748 60 30.5248 58.425 30.1123 56.25H31.2498Z" fill="#3C3C3B"/>
<path d="M31.25 53.75V56.25H30.1125C30.0375 55.85 30 55.4375 30 55C30 54.5625 30.0375 54.15 30.1125 53.75H31.25Z" fill="#3C3C3B"/>
<path d="M29.9998 55C29.9998 55.4375 30.0373 55.85 30.1123 56.25H28.6748C28.7248 55.8375 28.7498 55.425 28.7498 55C28.7498 54.575 28.7248 54.1625 28.6748 53.75H30.1123C30.0373 54.15 29.9998 54.5625 29.9998 55Z" fill="#3C3C3B"/>
<path d="M28.75 55C28.75 55.425 28.725 55.8375 28.675 56.25H27.5V53.75H28.675C28.725 54.1625 28.75 54.575 28.75 55Z" fill="#3C3C3B"/>
<path d="M30.2377 43.5125C29.7127 42.975 29.0752 42.6125 28.4877 42.4875C28.3627 42.4625 28.2377 42.45 28.1252 42.45C27.8877 42.45 27.7002 42.5125 27.5877 42.625C27.4252 42.7875 27.3752 43.125 27.4627 43.525C27.5752 44.1125 27.9502 44.75 28.4752 45.275C29.0002 45.8 29.6377 46.175 30.2252 46.2875C30.6252 46.3625 30.9627 46.3125 31.1252 46.1625C31.2877 46 31.3377 45.6625 31.2502 45.2625C31.1377 44.675 30.7627 44.0375 30.2377 43.5125ZM25.8252 40.85C26.5877 40.0875 27.7377 39.7875 28.9752 40.0375C30.0502 40.25 31.1252 40.8625 32.0127 41.7375C32.8877 42.625 33.4877 43.7 33.7127 44.775C33.9502 46.0125 33.6627 47.1625 32.8877 47.925C32.3002 48.5125 31.4877 48.825 30.5752 48.825C30.3002 48.825 30.0252 48.8 29.7377 48.7375C29.0377 48.6 28.3252 48.2875 27.6752 47.85L28.4752 47.0375L26.7002 45.275L25.9002 46.075C25.4627 45.425 25.1502 44.725 25.0127 44.0125C24.7627 42.775 25.0502 41.625 25.8252 40.85Z" fill="#3C3C3B"/>
<path d="M28.4873 67.4999C29.0748 67.3874 29.7123 67.0124 30.2373 66.4874C30.7748 65.9624 31.1373 65.3249 31.2498 64.7374C31.3373 64.3374 31.2873 63.9999 31.1248 63.8374C31.0123 63.7249 30.8248 63.6624 30.5873 63.6624C30.4748 63.6624 30.3498 63.6749 30.2248 63.6999C29.6373 63.8249 28.9998 64.1874 28.4748 64.7249C27.9498 65.2499 27.5748 65.8874 27.4623 66.4749C27.3748 66.8749 27.4248 67.2124 27.5873 67.3749C27.6998 67.4874 27.8873 67.5374 28.1123 67.5374C28.2373 67.5374 28.3623 67.5249 28.4873 67.4999ZM26.6998 64.7249L28.4748 62.9499L27.6748 62.1499C28.3248 61.7124 29.0373 61.3999 29.7373 61.2624C30.9748 61.0124 32.1248 61.2999 32.8873 62.0749C33.6623 62.8374 33.9498 63.9874 33.7123 65.2249C33.4873 66.2999 32.8873 67.3749 32.0123 68.2624C31.5748 68.6999 31.0748 69.0749 30.5623 69.3499C30.0498 69.6499 29.5123 69.8499 28.9748 69.9624C28.6873 70.0124 28.4123 70.0374 28.1373 70.0374C27.2248 70.0374 26.4123 69.7249 25.8248 69.1374C25.2373 68.5499 24.9248 67.7499 24.9248 66.8374C24.9248 66.5624 24.9498 66.2749 25.0123 65.9874C25.1498 65.2874 25.4623 64.5749 25.8998 63.9249L26.6998 64.7249Z" fill="#3C3C3B"/>
<path d="M26.7004 64.7249L25.9004 63.9249C26.1254 63.5874 26.4004 63.2499 26.7004 62.9499C27.0004 62.6499 27.3379 62.3749 27.6754 62.1499L28.4754 62.9499L26.7004 64.7249Z" fill="#3C3C3B"/>
<path d="M25.9004 46.0749L26.7004 45.2749L28.4754 47.0374L27.6754 47.8499C27.3379 47.6124 27.0004 47.3374 26.7004 47.0374C26.4004 46.7374 26.1379 46.4124 25.9004 46.0749Z" fill="#3C3C3B"/>
<path d="M26.65 48.8749C26.1375 48.2124 25.5375 47.6125 24.875 47.1L25.9 46.075C26.1375 46.4125 26.4 46.7375 26.7 47.0375C27 47.3375 27.3375 47.6124 27.675 47.8499L26.65 48.8749Z" fill="#3C3C3B"/>
<path d="M26.7 62.95C26.4 63.25 26.125 63.5875 25.9 63.925L24.875 62.9C25.5375 62.3875 26.1375 61.7875 26.65 61.125L27.675 62.15C27.3375 62.375 27 62.65 26.7 62.95Z" fill="#3C3C3B"/>
<path d="M25.8248 49.6999L24.0498 47.9249L24.8748 47.0999C25.5373 47.6124 26.1373 48.2124 26.6498 48.8749L25.8248 49.6999Z" fill="#3C3C3B"/>
<path d="M26.6498 61.125C26.1373 61.7875 25.5373 62.3875 24.8748 62.9L24.0498 62.075L25.8248 60.3L26.6498 61.125Z" fill="#3C3C3B"/>
<path d="M20 66.3625V67.5H17.5V66.3625C17.9 66.2875 18.3125 66.25 18.75 66.25C19.1875 66.25 19.6 66.2875 20 66.3625Z" fill="#3C3C3B"/>
<path d="M20 45.075V46.25H17.5V45.075C17.9125 45.025 18.325 45 18.75 45C19.175 45 19.5875 45.025 20 45.075Z" fill="#3C3C3B"/>
<path d="M18.75 66.2501C18.3125 66.2501 17.9 66.2876 17.5 66.3626V64.925C17.9125 64.975 18.325 65.0001 18.75 65.0001C19.175 65.0001 19.5875 64.975 20 64.925V66.3626C19.6 66.2876 19.1875 66.2501 18.75 66.2501Z" fill="#3C3C3B"/>
<path d="M18.75 45C18.325 45 17.9125 45.025 17.5 45.075V43.6375C17.9 43.7125 18.3125 43.75 18.75 43.75C19.1875 43.75 19.6 43.7125 20 43.6375V45.075C19.5875 45.025 19.175 45 18.75 45Z" fill="#3C3C3B"/>
<path d="M18.75 65C18.325 65 17.9125 64.975 17.5 64.925V63.75H20V64.925C19.5875 64.975 19.175 65 18.75 65Z" fill="#3C3C3B"/>
<path d="M17.5 42.5H20V43.6375C19.6 43.7125 19.1875 43.75 18.75 43.75C18.3125 43.75 17.9 43.7125 17.5 43.6375V42.5Z" fill="#3C3C3B"/>
<path d="M16.35 14C17.65 14.1125 18.8125 14.1625 19.9125 14.1625C28.25 14.1625 36.25 11.575 43.025 6.70005L43.75 6.17505L44.475 6.70005C44.7125 6.87505 44.95 7.03755 45.2 7.20005L45 7.50005H42.5V10.0625C35.75 14.3875 27.9875 16.6625 19.9125 16.6625C19.1375 16.6625 18.35 16.6375 17.5 16.5875V30.3875C17.5 31.175 17.525 31.9625 17.5625 32.7375L15.0625 32.8625C15.025 32.0375 15 31.225 15 30.3875V13.8875L16.35 14Z" fill="#3C3C3B"/>
<path d="M18.75 38.75C17.225 38.75 16.25 39.4875 16.25 40C16.25 40.5125 17.225 41.25 18.75 41.25C20.275 41.25 21.25 40.5125 21.25 40C21.25 39.4875 20.275 38.75 18.75 38.75ZM14.875 37.6C15.7875 36.775 17.175 36.25 18.75 36.25C21.55 36.25 23.75 37.9 23.75 40C23.75 41.775 22.175 43.225 20 43.6375V42.5H17.5V43.6375C15.325 43.225 13.75 41.775 13.75 40C13.75 39.075 14.175 38.25 14.875 37.6Z" fill="#3C3C3B"/>
<path d="M21.25 70C21.25 69.4875 20.275 68.75 18.75 68.75C17.225 68.75 16.25 69.4875 16.25 70C16.25 70.5125 17.225 71.25 18.75 71.25C20.275 71.25 21.25 70.5125 21.25 70ZM17.5 67.5H20V66.3625C22.175 66.775 23.75 68.225 23.75 70C23.75 72.1 21.55 73.75 18.75 73.75C15.95 73.75 13.75 72.1 13.75 70C13.75 68.225 15.325 66.775 17.5 66.3625V67.5Z" fill="#3C3C3B"/>
<path d="M10 30.3875V7.81245L11.675 8.16245C21.5875 10.575 31.95 8.54995 40.1625 2.58745L43.75 0.0124512L47.325 2.58745C55.55 8.54995 65.9125 10.5875 75.7625 8.17495L77.5 7.82495V30.3875C77.5 38.9 75.4375 47.3875 71.5375 54.9375C65.675 66.25 55.975 75.075 44.2125 79.8125L43.75 80L43.2875 79.8125C39.2 78.1625 35.375 76.0375 31.8875 73.5C31.25 73.0499 30.6125 72.5499 29.9875 72.0499L31.525 70.1125L31.5375 70.1C32.1375 70.575 32.725 71.0375 33.35 71.475C36.55 73.8 40.0375 75.7625 43.75 77.3C54.75 72.75 63.8125 64.4249 69.3125 53.7875C73.0375 46.6 75 38.5 75 30.3875V10.9125C64.875 13 54.3125 10.7375 45.8625 4.61245L43.75 3.08745L41.625 4.61245C33.2 10.725 22.65 12.9875 12.5 10.9125V30.3875C12.5 32.1624 12.5875 33.9124 12.7625 35.5874L10.2875 35.8624C10.1 34.0875 10 32.25 10 30.3875Z" fill="#3C3C3B"/>
<path d="M13.4496 47.9249L11.6746 49.6999L10.8496 48.8749C11.3621 48.2124 11.9621 47.6124 12.6246 47.0999L13.4496 47.9249Z" fill="#3C3C3B"/>
<path d="M11.6746 60.3L13.4496 62.075L12.6246 62.9C11.9621 62.3875 11.3621 61.7875 10.8496 61.125L11.6746 60.3Z" fill="#3C3C3B"/>
<path d="M10.8502 48.8749L9.8252 47.8499C10.1627 47.6124 10.5002 47.3375 10.8002 47.0375C11.1002 46.7375 11.3627 46.4125 11.5877 46.075L12.6252 47.1C11.9627 47.6125 11.3627 48.2124 10.8502 48.8749Z" fill="#3C3C3B"/>
<path d="M11.2502 54.9999C11.2502 59.1374 14.6127 62.5 18.7502 62.5C22.8877 62.5 26.2502 59.1374 26.2502 54.9999C26.2502 50.8624 22.8877 47.4999 18.7502 47.4999C14.6127 47.4999 11.2502 50.8624 11.2502 54.9999ZM10.0002 56.2499V53.7499H8.8252C9.0627 51.9249 9.7752 50.2499 10.8502 48.8749L11.6752 49.6999L13.4502 47.9249L12.6252 47.0999C14.0002 46.0249 15.6752 45.3125 17.5002 45.075V46.2499H20.0002V45.075C21.8252 45.3125 23.5002 46.0249 24.8752 47.0999L24.0502 47.9249L25.8252 49.6999L26.6502 48.8749C27.7252 50.2499 28.4377 51.9249 28.6752 53.7499H27.5002V56.2499H28.6752C28.4377 58.0749 27.7252 59.75 26.6502 61.125L25.8252 60.3L24.0502 62.0749L24.8752 62.8999C23.5002 63.9749 21.8252 64.6874 20.0002 64.9249V63.75H17.5002V64.9249C15.6752 64.6874 14.0002 63.9749 12.6252 62.8999L13.4502 62.0749L11.6752 60.3L10.8502 61.125C9.7752 59.75 9.0627 58.0749 8.8252 56.2499H10.0002Z" fill="#3C3C3B"/>
<path d="M9.02539 47.0499L10.7879 45.2749L11.5879 46.0749C11.3629 46.4124 11.1004 46.7374 10.8004 47.0374C10.5004 47.3374 10.1629 47.6124 9.82539 47.8499L9.02539 47.0499Z" fill="#3C3C3B"/>
<path d="M9.8252 62.15L10.8502 61.125C11.3627 61.7875 11.9627 62.3875 12.6252 62.9L11.6002 63.925C11.3752 63.5875 11.1002 63.25 10.8002 62.95C10.5002 62.65 10.1627 62.375 9.8252 62.15Z" fill="#3C3C3B"/>
<path d="M10.8004 64.7249L9.02539 62.9499L9.82539 62.1499C10.1629 62.3749 10.5004 62.6499 10.8004 62.9499C11.1004 63.2499 11.3754 63.5874 11.6004 63.9249L10.8004 64.7249Z" fill="#3C3C3B"/>
<path d="M10 53.75V56.25H8.825C8.775 55.8375 8.75 55.425 8.75 55C8.75 54.575 8.775 54.1625 8.825 53.75H10Z" fill="#3C3C3B"/>
<path d="M7.5002 55C7.5002 54.5625 7.4627 54.15 7.3877 53.75H8.8252C8.7752 54.1625 8.7502 54.575 8.7502 55C8.7502 55.425 8.7752 55.8375 8.8252 56.25H7.3877C7.4627 55.85 7.5002 55.4375 7.5002 55Z" fill="#3C3C3B"/>
<path d="M7.5 55C7.5 55.4375 7.4625 55.85 7.3875 56.25H6.25V53.75H7.3875C7.4625 54.15 7.5 54.5625 7.5 55Z" fill="#3C3C3B"/>
<path d="M7.27457 46.2875C7.86207 46.175 8.49957 45.8 9.02457 45.275C9.54957 44.75 9.92457 44.1125 10.0371 43.525C10.1246 43.125 10.0746 42.7875 9.91207 42.625C9.79957 42.5125 9.61207 42.45 9.37458 42.45C9.26207 42.45 9.13707 42.4625 9.01207 42.4875C8.42457 42.6125 7.78707 42.975 7.26207 43.5125C6.73707 44.0375 6.36207 44.675 6.24957 45.2625C6.16207 45.6625 6.21207 46 6.37457 46.1625C6.53707 46.3125 6.87457 46.3625 7.27457 46.2875ZM3.78707 44.775C4.01207 43.7 4.61207 42.625 5.48707 41.7375C6.37457 40.8625 7.44957 40.25 8.52458 40.0375C9.76208 39.7875 10.9121 40.0875 11.6746 40.85C12.2621 41.45 12.5746 42.2625 12.5746 43.175C12.5746 43.45 12.5496 43.725 12.4871 44.0125C12.3496 44.725 12.0371 45.425 11.5871 46.075L10.7871 45.275L9.02457 47.05L9.82457 47.85C9.17458 48.2875 8.46207 48.6 7.76207 48.7375C7.47457 48.8 7.19957 48.825 6.92457 48.825C6.01207 48.825 5.19957 48.5125 4.61207 47.925C3.83707 47.1625 3.54957 46.0125 3.78707 44.775Z" fill="#3C3C3B"/>
<path d="M7.27457 63.7126C6.87457 63.6251 6.53707 63.6751 6.37457 63.8376C6.21207 64.0001 6.16207 64.3376 6.24957 64.7376C6.36207 65.3251 6.73707 65.9625 7.26207 66.4875C7.78707 67.0125 8.42457 67.3876 9.01207 67.5001C9.41207 67.5876 9.74957 67.5376 9.91207 67.3751C10.0746 67.2126 10.1246 66.8751 10.0371 66.4751C9.92457 65.8876 9.54957 65.25 9.02457 64.725C8.49957 64.1875 7.86207 63.8251 7.27457 63.7126ZM5.48707 68.2626C4.61207 67.3751 4.01207 66.3001 3.78707 65.2251C3.54957 63.9876 3.83707 62.8376 4.61207 62.0751C5.19957 61.4876 5.99957 61.175 6.91207 61.175C7.18707 61.175 7.47457 61.2 7.76207 61.2625C8.46207 61.4 9.17457 61.7126 9.82457 62.1501L9.02457 62.9501L10.7996 64.725L11.5996 63.925C12.0371 64.575 12.3496 65.2876 12.4871 65.9876C12.7371 67.2251 12.4496 68.3751 11.6746 69.1376C11.0871 69.7251 10.2746 70.0375 9.36207 70.0375C9.08707 70.0375 8.81207 70.0126 8.52457 69.9626C7.44957 69.7376 6.37457 69.1376 5.48707 68.2626Z" fill="#3C3C3B"/>
<path d="M7.3875 56.25C6.975 58.425 5.525 60 3.75 60C1.65 60 0 57.8 0 55C0 52.2 1.65 50 3.75 50C5.525 50 6.975 51.575 7.3875 53.75H6.25V56.25H7.3875ZM5 55C5 53.475 4.2625 52.5 3.75 52.5C3.2375 52.5 2.5 53.475 2.5 55C2.5 56.525 3.2375 57.5 3.75 57.5C4.2625 57.5 5 56.525 5 55Z" fill="#3C3C3B"/>
</g>
</g>
<defs>
<clipPath id="clip0_1491_33436">
<rect width="80" height="80" fill="white"/>
</clipPath>
<clipPath id="clip1_1491_33436">
<rect width="80" height="80" fill="white"/>
</clipPath>
</defs>
</svg>
