<svg width="80" height="80" viewBox="0 0 80 80" fill="none" xmlns="http://www.w3.org/2000/svg">
<g clip-path="url(#clip0_1779_50315)">
<path d="M78.069 38.9737C77.8952 38.7797 73.7369 34.1688 66.9825 29.5034C56.7004 22.4009 46.8962 19.8028 39.4415 20.0082C28.7372 20.18 19.1859 25.242 13.0167 29.5034C6.26255 34.1688 2.10409 38.7797 1.93039 38.9737C1.40732 39.558 1.40732 40.442 1.93039 41.0263C2.10409 41.2203 6.26255 45.8311 13.0167 50.4966C20.9672 55.9883 30.4155 60 39.9998 60C49.5849 60 59.0335 55.9875 66.9827 50.4966C73.7369 45.8312 77.8953 41.2203 78.0692 41.0263C78.5921 40.4422 78.5921 39.5578 78.069 38.9737ZM56.9229 40C56.9229 49.1718 49.5885 56.6625 40.4769 56.916C39.835 56.9257 40.1644 56.9257 39.5236 56.916C30.4115 56.6629 23.0767 49.1722 23.0767 40C23.0767 30.6752 30.6625 23.0769 39.9998 23.0769C49.3233 23.0769 56.9229 30.6614 56.9229 40ZM5.20593 39.9994C10.6613 34.4978 18.0227 29.1806 25.6479 26.0862C18.1113 33.8575 18.1216 46.152 25.6473 53.9132C18.1039 50.8517 10.7558 45.592 5.20593 39.9994ZM54.3519 53.9137C61.8882 46.142 61.8781 33.8478 54.3524 26.0868C61.8945 29.1477 69.2427 34.4071 74.7936 40.0006C69.3379 45.5026 61.977 50.8191 54.3519 53.9137Z" fill="#3C3C3B"/>
<path d="M32.3076 39.9999C32.3076 44.2415 35.7584 47.6922 39.9999 47.6922C44.2415 47.6922 47.6922 44.2415 47.6922 39.9999C47.6922 35.7584 44.2415 32.3076 39.9999 32.3076C35.7584 32.3076 32.3076 35.7584 32.3076 39.9999ZM44.6153 39.9999C44.6153 42.5448 42.5448 44.6153 39.9999 44.6153C37.455 44.6153 35.3845 42.5448 35.3845 39.9999C35.3845 37.455 37.455 35.3845 39.9999 35.3845C42.5448 35.3845 44.6153 37.455 44.6153 39.9999Z" fill="#3C3C3B"/>
<path d="M39.9994 63.0769C39.1499 63.0769 38.4609 63.7658 38.4609 64.6154V69.2308C38.4609 70.0803 39.1497 70.7692 39.9994 70.7692C40.8491 70.7692 41.5379 70.0803 41.5379 69.2308V64.6154C41.5379 63.7658 40.8489 63.0769 39.9994 63.0769Z" fill="#3C3C3B"/>
<path d="M21.9884 60.4506L18.9115 63.5275C18.3107 64.1283 18.3107 65.1024 18.9115 65.7033C19.5124 66.3041 20.4864 66.304 21.0874 65.7033L24.1643 62.6264C24.7651 62.0257 24.7651 61.0515 24.1643 60.4506C23.5635 59.8498 22.5892 59.8498 21.9884 60.4506Z" fill="#3C3C3B"/>
<path d="M31.2753 62.1689C30.4784 61.8739 29.5933 62.2805 29.2984 63.0773L27.7875 67.1579C27.4926 67.9549 27.8993 68.8399 28.6961 69.135C29.4898 69.4287 30.3769 69.0265 30.673 68.2265L32.184 64.1459C32.479 63.349 32.0723 62.4639 31.2753 62.1689Z" fill="#3C3C3B"/>
<path d="M56.4721 60.4506C55.8712 59.85 54.8974 59.85 54.2963 60.4506C53.6955 61.0514 53.6955 62.0255 54.2963 62.6264L57.3732 65.7034C57.9743 66.3041 58.948 66.304 59.5491 65.7034C60.1498 65.1026 60.1498 64.1284 59.5491 63.5275L56.4721 60.4506Z" fill="#3C3C3B"/>
<path d="M48.9203 62.6853C48.4089 62.007 47.4443 61.8718 46.7656 62.3832C46.0872 62.8947 45.9519 63.8593 46.4635 64.5378L49.5404 68.6184C50.0527 69.2979 51.0175 69.4315 51.695 68.9206C52.3735 68.409 52.5087 67.4444 51.9972 66.7659L48.9203 62.6853Z" fill="#3C3C3B"/>
<path d="M39.9994 16.923C40.8489 16.923 41.5379 16.2343 41.5379 15.3846V10.7692C41.5379 9.91948 40.8489 9.23071 39.9994 9.23071C39.1499 9.23071 38.4609 9.91948 38.4609 10.7692V15.3846C38.4609 16.2343 39.1499 16.923 39.9994 16.923Z" fill="#3C3C3B"/>
<path d="M58.0112 19.5493L61.0881 16.4724C61.6889 15.8716 61.6889 14.8975 61.0881 14.2965C60.4872 13.6959 59.5133 13.6959 58.9123 14.2965L55.8353 17.3735C55.2346 17.9742 55.2346 18.9484 55.8353 19.5493C56.4366 20.1502 57.4103 20.1501 58.0112 19.5493Z" fill="#3C3C3B"/>
<path d="M49.2577 17.9272C49.8827 17.9272 50.4707 17.543 50.7006 16.9224L52.2114 12.8418C52.5064 12.045 52.0995 11.1598 51.3027 10.8649C50.5063 10.57 49.6209 10.9767 49.3258 11.7735L47.8151 15.8541C47.4403 16.866 48.1966 17.9272 49.2577 17.9272Z" fill="#3C3C3B"/>
<path d="M23.5275 19.5493C24.1284 20.1501 25.1024 20.1499 25.7033 19.5493C26.3041 18.9485 26.3041 17.9744 25.7033 17.3735L22.6264 14.2965C22.0257 13.6959 21.0515 13.6959 20.4506 14.2965C19.8498 14.8973 19.8498 15.8715 20.4506 16.4724L23.5275 19.5493Z" fill="#3C3C3B"/>
<path d="M31.0795 17.3145C31.5909 17.9928 32.5555 18.1284 33.2341 17.6167C33.9125 17.1051 34.0478 16.1405 33.5362 15.462L30.4593 11.3814C29.9478 10.703 28.9832 10.5676 28.3047 11.0793C27.6262 11.5908 27.491 12.5554 28.0025 13.2339L31.0795 17.3145Z" fill="#3C3C3B"/>
</g>
<defs>
<clipPath id="clip0_1779_50315">
<rect width="80" height="80" fill="white"/>
</clipPath>
</defs>
</svg>
