<svg width="80" height="80" viewBox="0 0 80 80" fill="none" xmlns="http://www.w3.org/2000/svg">
<g clip-path="url(#clip0_1491_33651)">
<path d="M38.8286 11.2063V13.7984C38.8286 14.2306 39.0664 14.6277 39.4475 14.8315C39.8284 15.0356 40.2907 15.0132 40.6504 14.7734L50.1207 8.46118C50.4468 8.24368 50.6426 7.87789 50.6426 7.48602C50.6426 7.0943 50.4468 6.72836 50.1209 6.51102L40.6506 0.196957C40.2907 -0.0428863 39.8284 -0.0653863 39.4476 0.138832C39.0665 0.342739 38.8287 0.739926 38.8287 1.17196V3.80633C26.8423 4.18836 15.9206 10.3934 9.43871 20.5688C9.09105 21.1146 9.25168 21.8391 9.79746 22.1866C10.3431 22.5345 11.0676 22.3737 11.4154 21.8279C17.6754 12.0007 28.3615 6.13274 40.0006 6.13133C40.6478 6.13118 41.1723 5.60664 41.1723 4.95946V3.36164L47.3579 7.48586L41.1723 11.609V10.011C41.1723 9.36368 40.6476 8.83914 40.0004 8.83914C23.2104 8.83914 9.47934 22.1866 8.86121 38.8282H6.15152C6.29543 34.5466 7.22965 30.4016 8.93418 26.4901C9.19277 25.8968 8.92137 25.2062 8.32809 24.9476C7.7348 24.6893 7.04418 24.9607 6.78559 25.5538C4.79668 30.1184 3.78809 34.9787 3.78809 40.0001C3.78809 40.6474 4.31277 41.172 4.95996 41.172H10.0115C10.6587 41.172 11.1834 40.6474 11.1834 40.0001C11.1832 24.5031 23.4803 11.8238 38.8286 11.2063Z" fill="#3C3C3B"/>
<path d="M75.0414 38.8281H69.9898C69.3426 38.8281 68.8179 39.3527 68.8179 40C68.8179 41.8398 68.6442 43.6786 68.3014 45.4652C68.1795 46.1008 68.5959 46.7148 69.2315 46.8367C69.8673 46.9588 70.4812 46.5422 70.6032 45.9067C70.9009 44.3547 71.0807 42.767 71.14 41.1719H73.8496C73.5592 49.7791 70.0698 57.828 63.9498 63.948C57.5531 70.3447 49.0478 73.868 40.0007 73.8686C39.3536 73.8686 38.8289 74.3933 38.8289 75.0405V76.6383L32.6432 72.5141L38.8289 68.3909V69.9889C38.8289 70.6362 39.3536 71.1608 40.0007 71.1608C46.3912 71.1608 52.5329 69.2402 57.762 65.6067C62.8706 62.0569 66.7657 57.1306 69.0262 51.36C69.2623 50.7575 68.9651 50.0775 68.3625 49.8414C67.76 49.6056 67.08 49.9027 66.8439 50.5052C64.7534 55.8416 61.1504 60.398 56.4245 63.6819C51.9104 66.8186 46.6596 68.5745 41.1725 68.7936V66.2014C41.1725 65.7692 40.9346 65.372 40.5536 65.1683C40.1726 64.9642 39.7103 64.9866 39.3506 65.2264L29.8803 71.5386C29.5542 71.7561 29.3584 72.1219 29.3584 72.5137C29.3584 72.9055 29.5542 73.2714 29.8801 73.4888L39.3504 79.8028C39.5465 79.9336 39.7732 79.9997 40.0006 79.9997C40.1901 79.9997 40.3803 79.9537 40.5534 79.8609C40.9345 79.657 41.1723 79.2598 41.1723 78.8278V76.1936C50.4062 75.9016 59.044 72.1675 65.6068 65.6048C72.4462 58.7655 76.2129 49.6719 76.2129 39.9997C76.2132 39.3527 75.6886 38.8281 75.0414 38.8281Z" fill="#3C3C3B"/>
<path d="M40.1594 62.322C44.6549 62.2804 48.8749 60.4984 52.0419 57.304C55.2111 54.1076 56.9565 49.8683 56.9565 45.3672C56.9565 39.187 54.4991 33.7747 53.0338 31.0973C52.6427 30.3845 51.8971 29.9631 51.083 29.9983C50.2716 30.0334 49.564 30.5165 49.2363 31.2592L49.1847 31.3758C48.658 30.5501 48.0936 29.66 47.4821 28.6903C47.1369 28.1429 46.4132 27.9792 45.8657 28.3243C45.3183 28.6697 45.1544 29.3934 45.4997 29.9409C46.5957 31.6783 47.5413 33.1626 48.3905 34.4789C48.6241 34.8409 49.0371 35.0461 49.4671 35.0118C49.8966 34.9781 50.273 34.7114 50.4471 34.3173L51.1947 32.6258C52.5639 35.2198 54.6127 39.9993 54.6127 45.3672C54.6127 49.2459 53.1086 52.8992 50.3775 55.6539C50.34 55.6917 50.3007 55.7267 50.2629 55.764C50.9427 54.2954 51.3019 52.6847 51.3019 51.0204C51.3019 47.4889 50.0989 44.3518 49.0899 42.3422C48.7188 41.6033 47.9718 41.1548 47.1472 41.1775C46.7475 41.1872 46.3725 41.3048 46.0536 41.5089C44.3938 38.8998 42.7329 36.2137 41.8046 34.704C41.416 34.0722 40.7415 33.695 40 33.695C39.2586 33.695 38.5841 34.0722 38.1955 34.704C37.266 36.2156 35.6043 38.9029 33.9465 41.5089C33.6275 41.3048 33.2525 41.1872 32.8527 41.1775C32.0258 41.1608 31.2815 41.6031 30.9105 42.3415C30.0185 44.1178 28.9154 46.9028 28.7263 50.0834C28.6091 52.055 28.9975 54.0084 29.8191 55.7618C29.7511 55.6943 29.6832 55.6267 29.6161 55.5576C26.7768 52.6293 25.2419 48.6036 25.4054 44.5123C25.6058 39.4754 27.5311 35.0418 28.8058 32.6267L29.5532 34.3175C29.7274 34.7117 30.1038 34.9784 30.5335 35.0122C30.9624 35.044 31.3766 34.8409 31.61 34.4787C34.8321 29.48 38.4216 23.6648 40 21.094C40.6307 22.1209 41.5441 23.6037 42.5969 25.2983C42.9385 25.8481 43.6611 26.0167 44.2108 25.6753C44.7605 25.3336 44.9294 24.6111 44.5879 24.0614C43.4254 22.19 42.433 20.5776 41.8055 19.5548C41.4177 18.922 40.7427 18.5442 40.0002 18.5442C39.2577 18.5442 38.5827 18.922 38.195 19.5545C36.9069 21.6543 33.8261 26.6548 30.8155 31.3753L30.7644 31.2597C30.4363 30.5162 29.728 30.0326 28.9161 29.9979C28.1029 29.9667 27.3577 30.3843 26.9675 31.0965C25.6088 33.5779 23.2949 38.6081 23.0635 44.4189C22.8746 49.1481 24.6496 53.8026 27.9335 57.1892C31.1824 60.5417 35.5327 62.3654 40.1594 62.322ZM31.066 50.2226C31.2168 47.6847 32.0458 45.409 32.7922 43.8301L32.9111 44.0993C33.0854 44.4934 33.4618 44.7603 33.8915 44.794C34.3208 44.8251 34.7346 44.6228 34.9682 44.2604C36.8144 41.3951 38.8438 38.1218 40.0002 36.2439C41.155 38.1193 43.1824 41.3897 45.0322 44.2604C45.2658 44.6226 45.6785 44.8261 46.1089 44.794C46.5386 44.7603 46.9152 44.4934 47.0893 44.0993L47.2082 43.8301C48.0514 45.6125 48.9583 48.1883 48.9583 51.0206C48.9583 55.8908 44.9977 59.909 40.1296 59.9778C37.6638 60.0139 35.3482 59.0376 33.6229 57.2326C31.8438 55.3711 30.9118 52.8161 31.066 50.2226Z" fill="#3C3C3B"/>
<path d="M51.8379 21.2842H52.5601V22.0064C52.5601 22.6537 53.0848 23.1783 53.732 23.1783C54.3791 23.1783 54.9038 22.6537 54.9038 22.0064V21.2842H55.626C56.2732 21.2842 56.7979 20.7597 56.7979 20.1123C56.7979 19.465 56.2732 18.9404 55.626 18.9404H54.9038V18.2183C54.9038 17.5709 54.3791 17.0464 53.732 17.0464C53.0848 17.0464 52.5601 17.5709 52.5601 18.2183V18.9404H51.8379C51.1907 18.9404 50.666 19.465 50.666 20.1123C50.666 20.7597 51.1905 21.2842 51.8379 21.2842Z" fill="#3C3C3B"/>
<path d="M61.3086 34.0694H62.0308V34.7915C62.0308 35.4389 62.5555 35.9634 63.2027 35.9634C63.8498 35.9634 64.3745 35.4389 64.3745 34.7915V34.0694H65.0967C65.7439 34.0694 66.2686 33.5448 66.2686 32.8975C66.2686 32.2501 65.7439 31.7256 65.0967 31.7256H64.3745V31.0034C64.3745 30.3561 63.8498 29.8315 63.2027 29.8315C62.5555 29.8315 62.0308 30.3561 62.0308 31.0034V31.7256H61.3086C60.6614 31.7256 60.1367 32.2501 60.1367 32.8975C60.1367 33.5448 60.6614 34.0694 61.3086 34.0694Z" fill="#3C3C3B"/>
<path d="M16.6407 46.0886H15.9185V45.3665C15.9185 44.7191 15.3938 44.1946 14.7466 44.1946C14.0994 44.1946 13.5747 44.7191 13.5747 45.3665V46.0886H12.8525C12.2054 46.0886 11.6807 46.6132 11.6807 47.2605C11.6807 47.9079 12.2054 48.4324 12.8525 48.4324H13.5747V49.1546C13.5747 49.8019 14.0994 50.3265 14.7466 50.3265C15.3938 50.3265 15.9185 49.8019 15.9185 49.1546V48.4324H16.6407C17.2879 48.4324 17.8125 47.9079 17.8125 47.2605C17.8125 46.6132 17.288 46.0886 16.6407 46.0886Z" fill="#3C3C3B"/>
<path d="M24.0586 61.5569H23.3364V60.8347C23.3364 60.1874 22.8118 59.6628 22.1646 59.6628C21.5174 59.6628 20.9927 60.1874 20.9927 60.8347V61.5569H20.2705C19.6233 61.5569 19.0986 62.0814 19.0986 62.7288C19.0986 63.3761 19.6233 63.9007 20.2705 63.9007H20.9927V64.6227C20.9927 65.27 21.5174 65.7946 22.1646 65.7946C22.8118 65.7946 23.3364 65.27 23.3364 64.6227V63.9007H24.0586C24.7058 63.9007 25.2305 63.3761 25.2305 62.7288C25.2305 62.0814 24.7058 61.5569 24.0586 61.5569Z" fill="#3C3C3B"/>
</g>
<defs>
<clipPath id="clip0_1491_33651">
<rect width="80" height="80" fill="white"/>
</clipPath>
</defs>
</svg>
