<svg width="80" height="80" viewBox="0 0 80 80" fill="none" xmlns="http://www.w3.org/2000/svg">
<g clip-path="url(#clip0_1961_102951)">
<path d="M3.47241 14.9688C15.4775 17.7201 27.7536 19.1143 40.0699 19.1251C52.3411 19.1193 64.5722 17.725 76.5299 14.9688C76.69 14.9321 76.8412 14.8641 76.975 14.7689C77.1088 14.6737 77.2225 14.5531 77.3097 14.4139C77.3969 14.2747 77.4558 14.1197 77.483 13.9578C77.5103 13.7959 77.5054 13.6301 77.4687 13.4701C77.4319 13.31 77.364 13.1588 77.2687 13.025C77.1735 12.8912 77.0529 12.7775 76.9137 12.6903C76.7745 12.6031 76.6196 12.5442 76.4576 12.517C76.2957 12.4897 76.13 12.4946 75.9699 12.5313C52.2997 17.9901 27.6976 17.9901 4.02741 12.5313C3.86673 12.4931 3.70008 12.4872 3.53707 12.5137C3.37407 12.5403 3.21795 12.5989 3.07774 12.6862C2.93753 12.7735 2.816 12.8877 2.72018 13.0222C2.62436 13.1567 2.55614 13.3089 2.51948 13.4699C2.48281 13.631 2.47842 13.7977 2.50656 13.9604C2.53469 14.1231 2.5948 14.2787 2.68341 14.4181C2.77202 14.5574 2.88737 14.6779 3.02279 14.7724C3.15822 14.8669 3.31103 14.9337 3.47241 14.9688Z" fill="#3C3C3B"/>
<path d="M3.56289 22.2238C15.6454 24.0616 27.8489 24.9896 40.0704 25.0001C52.248 24.9935 64.4077 24.0658 76.4454 22.2251C76.7681 22.1698 77.0561 21.9901 77.2477 21.7247C77.4393 21.4592 77.5192 21.1292 77.47 20.8055C77.4209 20.4819 77.2468 20.1904 76.9851 19.9937C76.7234 19.7971 76.3949 19.711 76.0704 19.7539C64.1568 21.5757 52.1225 22.4937 40.0704 22.5001C27.9744 22.4896 15.8962 21.5704 3.93789 19.7501C3.77555 19.7255 3.60994 19.7331 3.45053 19.7725C3.29112 19.8118 3.14102 19.8822 3.00882 19.9796C2.74181 20.1763 2.56387 20.471 2.51414 20.7988C2.46442 21.1267 2.54697 21.4609 2.74365 21.7279C2.94033 21.9949 3.23502 22.1741 3.56289 22.2238Z" fill="#3C3C3B"/>
<path d="M7.5 38.75C7.5 39.9861 7.86656 41.1945 8.55331 42.2223C9.24007 43.2501 10.2162 44.0512 11.3582 44.5242C12.5003 44.9973 13.7569 45.1211 14.9693 44.8799C16.1817 44.6388 17.2953 44.0435 18.1694 43.1694C19.0435 42.2953 19.6388 41.1817 19.8799 39.9693C20.1211 38.7569 19.9973 37.5003 19.5242 36.3582C19.0512 35.2162 18.2501 34.2401 17.2223 33.5533C16.1945 32.8666 14.9861 32.5 13.75 32.5C12.093 32.502 10.5044 33.1611 9.33277 34.3328C8.1611 35.5044 7.50198 37.093 7.5 38.75ZM17.5 38.75C17.5 39.4917 17.2801 40.2167 16.868 40.8334C16.456 41.4501 15.8703 41.9307 15.1851 42.2145C14.4998 42.4984 13.7458 42.5726 13.0184 42.4279C12.291 42.2833 11.6228 41.9261 11.0983 41.4016C10.5739 40.8772 10.2167 40.209 10.0721 39.4816C9.92736 38.7542 10.0016 38.0002 10.2855 37.3149C10.5693 36.6297 11.0499 36.044 11.6666 35.632C12.2833 35.2199 13.0083 35 13.75 35C14.7446 35 15.6984 35.3951 16.4017 36.0983C17.1049 36.8016 17.5 37.7554 17.5 38.75Z" fill="#3C3C3B"/>
<path d="M38.75 32.5C37.7611 32.5 36.7944 32.7932 35.9722 33.3427C35.1499 33.8921 34.509 34.673 34.1306 35.5866C33.7522 36.5002 33.6531 37.5055 33.8461 38.4755C34.039 39.4454 34.5152 40.3363 35.2145 41.0355C35.9137 41.7348 36.8046 42.211 37.7746 42.4039C38.7445 42.5969 39.7498 42.4978 40.6634 42.1194C41.5771 41.741 42.3579 41.1001 42.9074 40.2779C43.4568 39.4556 43.75 38.4889 43.75 37.5C43.75 36.1739 43.2232 34.9021 42.2855 33.9645C41.3479 33.0268 40.0761 32.5 38.75 32.5ZM38.75 40C38.2555 40 37.7722 39.8534 37.3611 39.5787C36.95 39.304 36.6295 38.9135 36.4403 38.4567C36.2511 37.9999 36.2016 37.4972 36.298 37.0123C36.3945 36.5273 36.6326 36.0819 36.9822 35.7322C37.3319 35.3826 37.7773 35.1445 38.2623 35.048C38.7472 34.9516 39.2499 35.0011 39.7067 35.1903C40.1635 35.3795 40.554 35.7 40.8287 36.1111C41.1034 36.5222 41.25 37.0055 41.25 37.5C41.25 38.163 40.9866 38.7989 40.5178 39.2678C40.0489 39.7366 39.413 40 38.75 40Z" fill="#3C3C3B"/>
<path d="M73.75 35C73.75 33.7639 73.3834 32.5555 72.6967 31.5277C72.0099 30.4999 71.0338 29.6988 69.8918 29.2258C68.7497 28.7527 67.4931 28.6289 66.2807 28.8701C65.0683 29.1113 63.9547 29.7065 63.0806 30.5806C62.2065 31.4547 61.6113 32.5683 61.3701 33.7807C61.1289 34.9931 61.2527 36.2497 61.7258 37.3918C62.1988 38.5338 62.9999 39.5099 64.0277 40.1967C65.0555 40.8834 66.2639 41.25 67.5 41.25C69.157 41.248 70.7456 40.5889 71.9172 39.4172C73.0889 38.2456 73.748 36.657 73.75 35ZM63.75 35C63.75 34.2583 63.9699 33.5333 64.382 32.9166C64.794 32.2999 65.3797 31.8193 66.0649 31.5355C66.7502 31.2516 67.5042 31.1774 68.2316 31.3221C68.959 31.4668 69.6272 31.8239 70.1517 32.3484C70.6761 32.8728 71.0333 33.541 71.1779 34.2684C71.3226 34.9958 71.2484 35.7498 70.9645 36.4351C70.6807 37.1203 70.2001 37.706 69.5834 38.118C68.9667 38.5301 68.2417 38.75 67.5 38.75C66.5054 38.75 65.5516 38.3549 64.8484 37.6517C64.1451 36.9484 63.75 35.9946 63.75 35Z" fill="#3C3C3B"/>
<path d="M48.75 38.75C48.75 39.4917 48.9699 40.2167 49.382 40.8334C49.794 41.4501 50.3797 41.9307 51.0649 42.2145C51.7502 42.4984 52.5042 42.5726 53.2316 42.4279C53.959 42.2833 54.6272 41.9261 55.1516 41.4016C55.6761 40.8772 56.0333 40.209 56.1779 39.4816C56.3226 38.7542 56.2484 38.0002 55.9645 37.3149C55.6807 36.6297 55.2001 36.044 54.5834 35.632C53.9667 35.2199 53.2417 35 52.5 35C51.5054 35 50.5516 35.3951 49.8484 36.0983C49.1451 36.8016 48.75 37.7554 48.75 38.75ZM53.75 38.75C53.75 38.9972 53.6767 39.2389 53.5393 39.4445C53.402 39.65 53.2068 39.8102 52.9784 39.9048C52.7499 39.9995 52.4986 40.0242 52.2561 39.976C52.0137 39.9278 51.7909 39.8087 51.6161 39.6339C51.4413 39.4591 51.3222 39.2363 51.274 38.9939C51.2258 38.7514 51.2505 38.5001 51.3452 38.2716C51.4398 38.0432 51.6 37.848 51.8055 37.7107C52.0111 37.5733 52.2528 37.5 52.5 37.5C52.8315 37.5 53.1495 37.6317 53.3839 37.8661C53.6183 38.1005 53.75 38.4185 53.75 38.75Z" fill="#3C3C3B"/>
<path d="M21.25 45C21.25 45.7417 21.4699 46.4667 21.882 47.0834C22.294 47.7001 22.8797 48.1807 23.5649 48.4645C24.2502 48.7484 25.0042 48.8226 25.7316 48.6779C26.459 48.5333 27.1272 48.1761 27.6517 47.6516C28.1761 47.1272 28.5333 46.459 28.6779 45.7316C28.8226 45.0042 28.7484 44.2502 28.4645 43.5649C28.1807 42.8797 27.7001 42.294 27.0834 41.882C26.4667 41.4699 25.7417 41.25 25 41.25C24.0054 41.25 23.0516 41.6451 22.3483 42.3484C21.6451 43.0516 21.25 44.0054 21.25 45ZM26.25 45C26.25 45.2472 26.1767 45.4889 26.0393 45.6945C25.902 45.9 25.7068 46.0602 25.4784 46.1548C25.2499 46.2495 24.9986 46.2742 24.7561 46.226C24.5137 46.1778 24.2909 46.0587 24.1161 45.8839C23.9413 45.7091 23.8222 45.4863 23.774 45.2439C23.7258 45.0014 23.7505 44.7501 23.8452 44.5216C23.9398 44.2932 24.1 44.098 24.3055 43.9607C24.5111 43.8233 24.7528 43.75 25 43.75C25.3315 43.75 25.6495 43.8817 25.8839 44.1161C26.1183 44.3505 26.25 44.6685 26.25 45Z" fill="#3C3C3B"/>
<path d="M62.5 47.5C63.1904 47.5 63.75 46.9404 63.75 46.25C63.75 45.5596 63.1904 45 62.5 45C61.8096 45 61.25 45.5596 61.25 46.25C61.25 46.9404 61.8096 47.5 62.5 47.5Z" fill="#3C3C3B"/>
<path d="M43.75 47.5C44.4404 47.5 45 46.9404 45 46.25C45 45.5596 44.4404 45 43.75 45C43.0596 45 42.5 45.5596 42.5 46.25C42.5 46.9404 43.0596 47.5 43.75 47.5Z" fill="#3C3C3B"/>
<path d="M26.25 35C26.9404 35 27.5 34.4404 27.5 33.75C27.5 33.0596 26.9404 32.5 26.25 32.5C25.5596 32.5 25 33.0596 25 33.75C25 34.4404 25.5596 35 26.25 35Z" fill="#3C3C3B"/>
<path d="M20 7.5C20.6904 7.5 21.25 6.94036 21.25 6.25C21.25 5.55964 20.6904 5 20 5C19.3096 5 18.75 5.55964 18.75 6.25C18.75 6.94036 19.3096 7.5 20 7.5Z" fill="#3C3C3B"/>
<path d="M25 7.50005C27.9554 7.43825 30.9019 7.84496 33.73 8.70505C36.775 9.62394 39.945 10.0609 43.125 10.0001C46.305 10.0609 49.475 9.62394 52.52 8.70505C54.3403 8.15504 56.2121 7.79315 58.1063 7.62505L57.8662 7.86505C57.6385 8.1008 57.5126 8.41656 57.5154 8.7443C57.5183 9.07205 57.6497 9.38556 57.8815 9.61732C58.1132 9.84908 58.4268 9.98054 58.7545 9.98339C59.0822 9.98624 59.398 9.86025 59.6338 9.63255L62.1338 7.13255C62.3651 6.89655 62.4946 6.57926 62.4946 6.2488C62.4946 5.91834 62.3651 5.60105 62.1338 5.36505L59.6338 2.86505C59.398 2.63735 59.0822 2.51136 58.7545 2.51421C58.4268 2.51706 58.1132 2.64852 57.8815 2.88028C57.6497 3.11204 57.5183 3.42555 57.5154 3.7533C57.5126 4.08104 57.6385 4.3968 57.8662 4.63255L58.3337 5.10005C56.1368 5.25838 53.9641 5.65872 51.855 6.2938C49.0269 7.15432 46.0804 7.56144 43.125 7.50005C40.1696 7.56185 37.2231 7.15514 34.395 6.29505C31.35 5.37616 28.18 4.93921 25 5.00005C24.6685 5.00005 24.3505 5.13175 24.1161 5.36617C23.8817 5.60059 23.75 5.91853 23.75 6.25005C23.75 6.58157 23.8817 6.89951 24.1161 7.13393C24.3505 7.36835 24.6685 7.50005 25 7.50005Z" fill="#3C3C3B"/>
<path d="M20 75C20.6904 75 21.25 74.4404 21.25 73.75C21.25 73.0596 20.6904 72.5 20 72.5C19.3096 72.5 18.75 73.0596 18.75 73.75C18.75 74.4404 19.3096 75 20 75Z" fill="#3C3C3B"/>
<path d="M57.8662 77.1338C58.1007 77.3682 58.4185 77.4998 58.75 77.4998C59.0815 77.4998 59.3993 77.3682 59.6338 77.1338L62.1338 74.6338C62.3651 74.3978 62.4946 74.0806 62.4946 73.7501C62.4946 73.4196 62.3651 73.1023 62.1338 72.8663L59.6338 70.3663C59.398 70.1386 59.0822 70.0126 58.7545 70.0155C58.4268 70.0183 58.1132 70.1498 57.8815 70.3816C57.6497 70.6133 57.5183 70.9268 57.5154 71.2546C57.5126 71.5823 57.6385 71.8981 57.8662 72.1338L58.1063 72.3738C56.2122 72.2061 54.3403 71.8447 52.52 71.2951C49.475 70.3762 46.305 69.9392 43.125 70.0001C39.945 69.9392 36.775 70.3762 33.73 71.2951C30.9019 72.1552 27.9554 72.5619 25 72.5001C24.6685 72.5001 24.3505 72.6318 24.1161 72.8662C23.8817 73.1006 23.75 73.4186 23.75 73.7501C23.75 74.0816 23.8817 74.3996 24.1161 74.634C24.3505 74.8684 24.6685 75.0001 25 75.0001C28.18 75.0609 31.35 74.624 34.395 73.7051C37.2231 72.845 40.1696 72.4383 43.125 72.5001C46.0804 72.4383 49.0269 72.845 51.855 73.7051C53.9641 74.3402 56.1368 74.7405 58.3337 74.8988L57.8662 75.3663C57.6319 75.6007 57.5003 75.9186 57.5003 76.2501C57.5003 76.5815 57.6319 76.8994 57.8662 77.1338Z" fill="#3C3C3B"/>
<path d="M3.7497 60.2625C3.81243 60.2632 3.87512 60.259 3.9372 60.25C15.8955 58.4297 27.9737 57.5105 40.0697 57.5C52.1189 57.508 64.1503 58.4273 76.0609 60.25C76.3855 60.2929 76.7139 60.2068 76.9756 60.0101C77.2374 59.8135 77.4115 59.522 77.4606 59.1983C77.5097 58.8746 77.4299 58.5446 77.2383 58.2792C77.0467 58.0137 76.7586 57.8341 76.4359 57.7787C64.4012 55.9372 52.2445 55.0083 40.0697 55C27.8482 55.0105 15.6447 55.9385 3.5622 57.7763C3.24997 57.8229 2.96697 57.986 2.77005 58.2328C2.57313 58.4796 2.47687 58.7917 2.50061 59.1065C2.52435 59.4213 2.66633 59.7155 2.89804 59.9299C3.12974 60.1443 3.434 60.2632 3.7497 60.2625Z" fill="#3C3C3B"/>
<path d="M76.2504 67.5C76.5578 67.5003 76.8545 67.3872 77.0838 67.1825C77.3131 66.9778 77.459 66.6957 77.4935 66.3903C77.528 66.0848 77.4487 65.7773 77.2708 65.5266C77.0929 65.2759 76.8288 65.0996 76.5291 65.0313C52.492 59.4888 27.5088 59.4888 3.47162 65.0313C3.1511 65.1075 2.87362 65.3071 2.69953 65.5868C2.52543 65.8665 2.4688 66.2036 2.54194 66.5249C2.61508 66.8461 2.81209 67.1255 3.09011 67.3022C3.36814 67.479 3.7047 67.5388 4.02662 67.4688C27.6968 62.01 52.2989 62.01 75.9691 67.4688C76.0614 67.4895 76.1558 67.5 76.2504 67.5Z" fill="#3C3C3B"/>
</g>
<defs>
<clipPath id="clip0_1961_102951">
<rect width="80" height="80" fill="white"/>
</clipPath>
</defs>
</svg>
