<svg width="80" height="80" viewBox="0 0 80 80" fill="none" xmlns="http://www.w3.org/2000/svg">
<g clip-path="url(#clip0_1779_50043)">
<g clip-path="url(#clip1_1779_50043)">
<path d="M40.0001 0C17.892 0 0 17.8903 0 39.9999C0 62.1078 17.8903 79.9998 40.0001 79.9998C62.1083 79.9998 80 62.1097 80 39.9999C80 17.8918 62.1099 0 40.0001 0ZM40.0001 77.6561C27.3196 77.6561 16.0837 71.3555 9.2567 61.7211H12.1814C18.2773 69.5117 27.3509 74.4144 37.1726 75.1969C37.8213 75.2455 38.3824 74.7667 38.4338 74.1217C38.4852 73.4766 38.0038 72.9119 37.3587 72.8605C28.8121 72.1797 20.8698 68.1569 15.2206 61.7211H64.7792C59.13 68.1569 51.1877 72.1797 42.6412 72.8605C41.996 72.9119 41.5146 73.4766 41.566 74.1217C41.6149 74.7353 42.1279 75.2005 42.733 75.2005C42.7641 75.2005 42.7957 75.1992 42.8274 75.1969C52.649 74.4144 61.7225 69.5117 67.8186 61.7211H70.7431C63.9163 71.3555 52.6804 77.6561 40.0001 77.6561ZM72.2761 59.3774C63.6482 59.3774 9.3017 59.3774 7.72373 59.3774C4.41937 53.894 2.56468 47.6824 2.36375 41.1718H77.6362C77.4445 47.3801 75.7361 53.6361 72.2761 59.3774ZM34.6795 37.4513C35.3774 37.5291 36.069 37.4415 36.7206 37.2032L37.8582 38.828H7.05186C7.40592 28.7545 12.3028 19.8173 19.7503 14.0031C19.4989 14.404 19.3075 14.8498 19.1904 15.3306C16.6265 25.8712 23.9062 36.2562 34.6795 37.4513ZM57.6968 28.4046C58.2697 28.7048 58.9783 28.4838 59.2786 27.9104C61.3003 24.0514 61.8443 19.5839 60.8097 15.3306C60.6927 14.8498 60.501 14.4037 60.2494 14.0028C67.6972 19.817 72.5941 28.7543 72.9481 38.828H42.1418L43.2794 37.2034C43.9266 37.4399 44.618 37.5296 45.3205 37.4513C49.229 37.0179 52.9375 35.2901 55.763 32.5865C56.2307 32.1392 56.2471 31.3973 55.7996 30.9296C55.3519 30.4621 54.6104 30.4457 54.1427 30.8932C51.6868 33.2431 48.4619 34.7448 45.0619 35.122C44.9502 35.1343 44.8396 35.1359 44.7302 35.1313L54.2191 21.5796C54.5904 21.0495 54.4616 20.3189 53.9313 19.9476C53.401 19.5764 52.6705 19.7053 52.2993 20.2354L42.8104 33.787C42.7685 33.6857 42.7321 33.5813 42.7055 33.472C40.4762 24.3043 46.8052 15.2743 56.1757 14.2347C57.2599 14.1151 58.2741 14.8236 58.5322 15.8847C59.4319 19.584 58.9596 23.4687 57.2022 26.8229C56.9022 27.3959 57.1235 28.1043 57.6968 28.4046ZM55.9174 11.9051C47.4897 12.8401 40.8074 19.5479 40.0001 28.0751C39.191 19.5304 32.4935 12.8381 24.0826 11.9051C23.5945 11.8506 23.1137 11.8773 22.6542 11.9745C27.696 8.84233 33.6404 7.03124 40.0001 7.03124C46.3601 7.03124 52.3046 8.84233 57.3468 11.975C56.8869 11.8775 56.4057 11.8506 55.9174 11.9051ZM41.3605 35.8576L39.9999 37.8007L38.6393 35.8576C39.0752 35.3395 39.4026 34.7202 39.5715 34.0257C39.7774 33.1792 39.9188 32.3245 39.9999 31.4682C40.081 32.3243 40.2223 33.1792 40.4282 34.0257C40.5973 34.7201 40.9246 35.3393 41.3605 35.8576ZM23.8242 14.2345C33.2017 15.275 39.5227 24.3112 37.2943 33.4718C37.2677 33.581 37.2313 33.6854 37.1896 33.7868L27.7007 20.2353C27.3295 19.705 26.599 19.5761 26.0687 19.9475C25.5384 20.3187 25.4096 21.0495 25.7809 21.5795L35.2698 35.1309C35.1604 35.1356 35.0499 35.1341 34.9382 35.1218C25.5609 34.0813 19.24 25.0454 21.4681 15.8843C21.7242 14.83 22.7306 14.1143 23.8242 14.2345ZM75.2909 38.828C74.6703 19.8973 59.0791 4.68749 40.0001 4.68749C20.9211 4.68749 5.32968 19.8973 4.70905 38.828H2.36375C2.98531 18.6047 19.6286 2.34375 40.0001 2.34375C60.3714 2.34375 77.0147 18.6047 77.6362 38.828H75.2909Z" fill="#3C3C3B"/>
<path d="M31.7286 45.9124C32.3759 45.9124 32.9004 45.3878 32.9004 44.7405C32.9004 44.0931 32.3759 43.5686 31.7286 43.5686H27.3975C26.7501 43.5686 26.2256 44.0931 26.2256 44.7405V55.8089C26.2256 56.4563 26.7501 56.9808 27.3975 56.9808H31.7286C32.3759 56.9808 32.9004 56.4563 32.9004 55.8089C32.9004 55.1616 32.3759 54.637 31.7286 54.637H28.5693V51.4466H31.4879C32.1353 51.4466 32.6598 50.922 32.6598 50.2747C32.6598 49.6274 32.1353 49.1028 31.4879 49.1028H28.5693V45.9124H31.7286Z" fill="#3C3C3B"/>
<path d="M50.7042 44.3252C50.5317 43.8699 50.0954 43.5686 49.6082 43.5686C49.121 43.5686 48.6849 43.8699 48.5123 44.3252L44.3176 55.3936C44.0882 55.9989 44.3929 56.6753 44.9981 56.9049C45.6054 57.1344 46.2804 56.8281 46.5093 56.2244L47.2601 54.2431H51.9562L52.707 56.2244C52.9367 56.8297 53.6132 57.1335 54.2182 56.9049C54.8234 56.6753 55.1281 55.9989 54.8987 55.3936L50.7042 44.3252ZM48.1484 51.8994L49.6082 48.0474L51.0681 51.8994H48.1484Z" fill="#3C3C3B"/>
<path d="M64.6736 43.5686C64.0262 43.5686 63.5017 44.0931 63.5017 44.7405V51.8855L58.3941 44.0978C58.11 43.6645 57.5752 43.4695 57.0787 43.6177C56.5823 43.766 56.2422 44.2225 56.2422 44.7406V55.8091C56.2422 56.4564 56.7667 56.981 57.4141 56.981C58.0614 56.981 58.5859 56.4564 58.5859 55.8091V48.6641L63.6936 56.4517C63.9142 56.7881 64.2859 56.9811 64.6734 56.9811C64.785 56.9811 64.898 56.965 65.0087 56.932C65.5052 56.7838 65.8453 56.3272 65.8453 55.8091V44.7406C65.8455 44.0933 65.3209 43.5686 64.6736 43.5686Z" fill="#3C3C3B"/>
<path d="M42.2198 49.9959H40.2938C39.6465 49.9959 39.122 50.5205 39.122 51.1678C39.122 51.8152 39.6465 52.3397 40.2938 52.3397H41.0479V52.6588C41.0479 53.7494 40.1604 54.6369 39.0698 54.6369C37.9791 54.6369 37.0918 53.7494 37.0918 52.6588V47.8905C37.0918 46.7999 37.9791 45.9124 39.0698 45.9124C39.9616 45.9124 40.7468 46.5124 40.9795 47.3716C41.1484 47.9963 41.7916 48.3658 42.4168 48.1964C43.0415 48.0274 43.4107 47.3839 43.2416 46.7591C42.7332 44.8806 41.0177 43.5686 39.0698 43.5686C36.6868 43.5686 34.748 45.5074 34.748 47.8905V52.6589C34.748 55.042 36.6868 56.9808 39.0698 56.9808C41.4529 56.9808 43.3916 55.042 43.3916 52.6589V51.168C43.3916 50.5206 42.8671 49.9959 42.2198 49.9959Z" fill="#3C3C3B"/>
<path d="M24.0193 43.6428C23.4133 43.416 22.738 43.7236 22.5112 44.3297L19.4676 52.4644L16.424 44.3297C16.1971 43.7235 15.5216 43.4158 14.9158 43.6428C14.3096 43.8696 14.0021 44.5449 14.229 45.151L18.3702 56.2193C18.5416 56.6772 18.979 56.9805 19.4677 56.9805C19.9566 56.9805 20.3941 56.6772 20.5652 56.2193L24.7063 45.151C24.9329 44.5447 24.6254 43.8696 24.0193 43.6428Z" fill="#3C3C3B"/>
</g>
</g>
<defs>
<clipPath id="clip0_1779_50043">
<rect width="80" height="80" fill="white"/>
</clipPath>
<clipPath id="clip1_1779_50043">
<rect width="80" height="80" fill="white"/>
</clipPath>
</defs>
</svg>
