<svg width="80" height="80" viewBox="0 0 80 80" fill="none" xmlns="http://www.w3.org/2000/svg">
<g clip-path="url(#clip0_1779_50421)">
<g clip-path="url(#clip1_1779_50421)">
<path d="M74.0409 13.1213C71.0931 10.1736 67.3743 8.22326 63.2868 7.48142C59.2951 6.75692 55.2249 7.22419 51.5163 8.83259C50.7245 9.17592 50.361 10.0962 50.7043 10.8881C51.0477 11.6799 51.9683 12.0433 52.7598 11.7001C59.3016 8.86306 66.7877 10.2883 71.8308 15.3316C75.0895 18.5903 76.884 22.9229 76.884 27.5312C76.884 32.1396 75.0894 36.4722 71.8308 39.7309L60.4686 51.0931L36.0692 26.6937L42.4587 20.3042C43.069 19.6939 43.069 18.7044 42.4587 18.094C41.8485 17.4837 40.8589 17.4837 40.2485 18.094L20.2869 38.0559C16.7288 41.614 14.6376 46.3348 14.3531 51.3008C10.5202 49.2705 5.99025 48.7043 1.69281 49.8518C1.15241 49.9961 0.73046 50.4182 0.58606 50.9586C-1.01202 56.9435 0.713269 63.3793 5.08854 67.7547C8.38503 71.0512 12.8509 72.8432 17.4125 72.8432C18.9054 72.8432 20.4088 72.6511 21.8846 72.2571C21.8893 72.2559 21.8935 72.2539 21.8981 72.2526C21.9386 72.2415 21.9784 72.2281 22.0179 72.2137C22.0575 72.2281 22.0973 72.2415 22.1378 72.2526C22.1423 72.2539 22.1467 72.2559 22.1512 72.2571C23.6274 72.6513 25.13 72.8432 26.6234 72.8432C27.931 72.8432 29.2307 72.6952 30.4975 72.4073C31.9079 72.7035 33.3247 72.8504 34.7298 72.8504C40.0711 72.8504 45.2298 70.7521 49.1064 66.8756L74.0409 41.9411C81.9866 33.9954 81.9866 21.067 74.0409 13.1213ZM17.4086 69.7183C13.6665 69.7181 10.0025 68.2482 7.29891 65.5445C3.92772 62.1734 2.47466 57.3101 3.39731 52.6628C8.04481 51.7406 12.9078 53.1933 16.279 56.5645C19.1775 59.463 20.6563 63.4646 20.4281 67.4835L14.6144 61.6697C14.0041 61.0595 13.0146 61.0595 12.4041 61.6697C11.7939 62.28 11.7939 63.2695 12.4041 63.88L18.2175 69.6933C17.9476 69.7083 17.6778 69.7183 17.4086 69.7183ZM25.8183 69.6937L31.6322 63.8798C32.2425 63.2695 32.2425 62.28 31.6322 61.6696C31.022 61.0593 30.0324 61.0593 29.422 61.6696L23.6082 67.4834C23.38 63.4644 24.8589 59.4628 27.7573 56.5644C31.1284 53.1933 35.9912 51.7401 40.639 52.6628C41.5615 57.3099 40.1085 62.1733 36.7374 65.5445C33.8388 68.4432 29.8374 69.9224 25.8183 69.6937ZM46.8963 64.6654C44.1113 67.4504 40.5443 69.1496 36.7642 69.6009C37.5354 69.051 38.2668 68.4354 38.9475 67.7547C43.3229 63.3793 45.0481 56.9433 43.45 50.9586C43.3057 50.4182 42.8836 49.9962 42.3432 49.8518C36.3583 48.2537 29.9226 49.9789 25.5471 54.3543C24.0523 55.8492 22.8673 57.5848 22.0179 59.4605C21.1686 57.5847 19.9837 55.8491 18.4888 54.3543C18.1612 54.0267 17.8208 53.7159 17.4711 53.4184C17.2021 48.5189 19.0243 43.7383 22.4968 40.266L33.859 28.9038L58.2584 53.3032L46.8963 64.6654Z" fill="#3C3C3B"/>
<path d="M46.3255 15.7896C46.7365 15.7896 47.1397 15.6224 47.4303 15.3317C47.7226 15.041 47.8882 14.6378 47.8882 14.2268C47.8882 13.8158 47.7226 13.4126 47.4303 13.122C47.1397 12.8313 46.7365 12.6641 46.3255 12.6641C45.9145 12.6641 45.5113 12.8313 45.2206 13.122C44.9299 13.4126 44.7627 13.8158 44.7627 14.2268C44.7627 14.6378 44.9299 15.041 45.2206 15.3317C45.5113 15.6224 45.9145 15.7896 46.3255 15.7896Z" fill="#3C3C3B"/>
</g>
</g>
<defs>
<clipPath id="clip0_1779_50421">
<rect width="80" height="80" fill="white"/>
</clipPath>
<clipPath id="clip1_1779_50421">
<rect width="80" height="80" fill="white"/>
</clipPath>
</defs>
</svg>
