<svg width="80" height="80" viewBox="0 0 80 80" fill="none" xmlns="http://www.w3.org/2000/svg">
<g clip-path="url(#clip0_1779_50350)">
<path d="M46.25 55V57.5H70C70.3315 57.5 70.6495 57.3683 70.8839 57.1339C71.1183 56.8995 71.25 56.5815 71.25 56.25V45C71.25 44.6685 71.1183 44.3505 70.8839 44.1161C70.6495 43.8817 70.3315 43.75 70 43.75H46.25V46.25H68.75V55H46.25Z" fill="#3C3C3B"/>
<path d="M74.9997 67.5H46.2497V70H74.9997C74.9982 71.3256 74.4709 72.5965 73.5336 73.5339C72.5962 74.4712 71.3253 74.9985 69.9997 75H42.4997C42.1634 75.0001 41.828 74.9666 41.4984 74.9L41.001 77.35C41.4943 77.4499 41.9964 77.5001 42.4997 77.5H69.9997C71.9881 77.4978 73.8945 76.7069 75.3005 75.3008C76.7066 73.8948 77.4974 71.9884 77.4997 70V46.25H74.9997V67.5Z" fill="#3C3C3B"/>
<path d="M71.5625 26.25H71.25V22.5H72.1875C72.9332 22.4992 73.6481 22.2026 74.1753 21.6753C74.7026 21.1481 74.9992 20.4332 75 19.6875V6.875C74.9987 5.71508 74.5373 4.60303 73.7172 3.78284C72.897 2.96265 71.7849 2.5013 70.625 2.5H47.5V5H70.625C71.1221 5.00057 71.5987 5.19829 71.9502 5.5498C72.3017 5.90131 72.4994 6.37789 72.5 6.875V19.6875C72.4999 19.7704 72.467 19.8498 72.4084 19.9084C72.3498 19.967 72.2704 19.9999 72.1875 20H40.3125C40.2296 19.9999 40.1502 19.967 40.0916 19.9084C40.033 19.8498 40.0001 19.7704 40 19.6875V6.875C40.0006 6.37789 40.1983 5.90131 40.5498 5.5498C40.9013 5.19829 41.3779 5.00057 41.875 5H45V2.5H41.875C40.7151 2.5013 39.603 2.96265 38.7828 3.78284C37.9627 4.60303 37.5013 5.71508 37.5 6.875V19.6875C37.5008 20.4332 37.7974 21.1481 38.3247 21.6753C38.8519 22.2026 39.5668 22.4992 40.3125 22.5H41.25V26.25H40.9375C39.3633 26.2518 37.8541 26.8779 36.741 27.991C35.6279 29.1041 35.0018 30.6133 35 32.1875V32.5H37.5V32.1875C37.501 31.2761 37.8635 30.4024 38.508 29.758C39.1524 29.1135 40.0261 28.751 40.9375 28.75H71.5625C72.4739 28.751 73.3476 29.1135 73.992 29.758C74.6365 30.4024 74.999 31.2761 75 32.1875V37.5H43.75V40H75V43.75H77.5V32.1875C77.4982 30.6133 76.8721 29.1041 75.759 27.991C74.6459 26.8779 73.1367 26.2518 71.5625 26.25ZM43.75 26.25V22.5H68.75V26.25H43.75Z" fill="#3C3C3B"/>
<path d="M42.5 7.5H45V17.5H42.5V7.5Z" fill="#3C3C3B"/>
<path d="M47.5 7.5H50V17.5H47.5V7.5Z" fill="#3C3C3B"/>
<path d="M52.5 7.5H55V17.5H52.5V7.5Z" fill="#3C3C3B"/>
<path d="M57.5 7.5H60V17.5H57.5V7.5Z" fill="#3C3C3B"/>
<path d="M62.5 7.5H65V17.5H62.5V7.5Z" fill="#3C3C3B"/>
<path d="M67.5 7.5H70V17.5H67.5V7.5Z" fill="#3C3C3B"/>
<path d="M46.25 61.25H53.75V63.75H46.25V61.25Z" fill="#3C3C3B"/>
<path d="M56.25 61.25H71.25V63.75H56.25V61.25Z" fill="#3C3C3B"/>
<path d="M19.4002 24.8467L23.1194 26.8807L25.1534 30.5998C25.261 30.7966 25.4196 30.9608 25.6126 31.0752C25.8055 31.1897 26.0257 31.25 26.2501 31.25C26.4744 31.25 26.6946 31.1897 26.8876 31.0752C27.0805 30.9608 27.2392 30.7966 27.3468 30.5998L29.3808 26.8807L33.0999 24.8467C33.2967 24.739 33.461 24.5804 33.5754 24.3874C33.6898 24.1945 33.7501 23.9743 33.7501 23.7499C33.7501 23.5256 33.6898 23.3054 33.5754 23.1125C33.461 22.9195 33.2967 22.7609 33.0999 22.6532L29.3808 20.6192L27.3468 16.9001C27.2392 16.7033 27.0805 16.5391 26.8876 16.4247C26.6946 16.3102 26.4744 16.2499 26.2501 16.2499C26.0257 16.2499 25.8055 16.3102 25.6126 16.4247C25.4196 16.5391 25.261 16.7033 25.1534 16.9001L23.1194 20.6192L19.4002 22.6532C19.2034 22.7609 19.0392 22.9195 18.9248 23.1125C18.8104 23.3054 18.75 23.5256 18.75 23.7499C18.75 23.9743 18.8104 24.1945 18.9248 24.3874C19.0392 24.5804 19.2034 24.739 19.4002 24.8467ZM24.6402 22.637C24.8499 22.5222 25.0223 22.3498 25.1371 22.1401L26.2501 20.105L27.363 22.1401C27.4778 22.3498 27.6502 22.5222 27.8599 22.6369L29.895 23.7499L27.8599 24.8629C27.6502 24.9777 27.4778 25.1501 27.3631 25.3598L26.2501 27.3949L25.1371 25.3598C25.0224 25.1501 24.8499 24.9777 24.6402 24.8629L22.6051 23.7499L24.6402 22.637Z" fill="#3C3C3B"/>
<path d="M43.7504 47.1875C43.7467 43.9563 42.4615 40.8585 40.1767 38.5737C37.8919 36.2889 34.7941 35.0037 31.5629 35H30.9379C28.1298 35.0057 25.4093 35.9784 23.234 37.7543C21.0588 39.5303 19.5616 42.0012 18.9941 44.7514L21.4442 45.2486C21.8955 43.0629 23.0858 41.0993 24.8148 39.6881C26.5438 38.2769 28.7061 37.5042 30.9379 37.5H31.5629C34.1313 37.5029 36.5937 38.5245 38.4098 40.3406C40.2259 42.1567 41.2475 44.6191 41.2504 47.1875V53.75H33.7504V56.25H41.2504V58.75H35.0004V61.25H41.2504V65.3125C41.2475 67.8809 40.2259 70.3433 38.4098 72.1594C36.5937 73.9755 34.1313 74.9971 31.5629 75H30.9379C29.9034 75.0012 28.8753 74.8365 27.8929 74.5122L27.1079 76.8856C28.3435 77.2938 29.6366 77.5012 30.9379 77.5H31.5629C34.7941 77.4963 37.8919 76.2111 40.1767 73.9263C42.4615 71.6415 43.7467 68.5437 43.7504 65.3125V47.1875Z" fill="#3C3C3B"/>
<path d="M5.9783 16.3935L8.48531 17.7646L9.85639 20.2716C9.96404 20.4684 10.1227 20.6326 10.3156 20.747C10.5086 20.8614 10.7288 20.9218 10.9531 20.9218C11.1774 20.9218 11.3976 20.8614 11.5906 20.747C11.7836 20.6326 11.9422 20.4684 12.0498 20.2716L13.4209 17.7646L15.928 16.3935C16.1248 16.2858 16.289 16.1272 16.4034 15.9342C16.5178 15.7413 16.5781 15.5211 16.5781 15.2968C16.5781 15.0724 16.5178 14.8522 16.4034 14.6593C16.289 14.4663 16.1248 14.3077 15.928 14.2L13.4209 12.829L12.0499 10.3219C11.9423 10.1251 11.7836 9.96091 11.5907 9.84651C11.3977 9.73212 11.1775 9.67175 10.9532 9.67175C10.7289 9.67175 10.5087 9.73212 10.3157 9.84651C10.1227 9.96091 9.96411 10.1251 9.85645 10.3219L8.48538 12.829L5.9783 14.2C5.78149 14.3076 5.61728 14.4663 5.50288 14.6592C5.38849 14.8522 5.32813 15.0724 5.32812 15.2967C5.32812 15.521 5.38849 15.7412 5.50288 15.9342C5.61728 16.1271 5.78149 16.2858 5.9783 16.3935ZM10.0062 14.8467C10.2159 14.732 10.3883 14.5595 10.503 14.3498L10.953 13.5268L11.403 14.3498C11.5178 14.5595 11.6902 14.732 11.8999 14.8467L12.7229 15.2967L11.8999 15.7467C11.6902 15.8614 11.5178 16.0339 11.403 16.2436L10.953 17.0666L10.503 16.2437C10.3883 16.034 10.2159 15.8616 10.0062 15.7468L9.18317 15.2968L10.0062 14.8467Z" fill="#3C3C3B"/>
<path d="M32.5 62.5C32.5 59.5333 31.6203 56.6332 29.972 54.1665C28.3238 51.6997 25.9811 49.7771 23.2403 48.6418C20.4994 47.5065 17.4834 47.2094 14.5737 47.7882C11.6639 48.367 8.99119 49.7956 6.8934 51.8934C4.79562 53.9912 3.36701 56.6639 2.78823 59.5737C2.20945 62.4834 2.5065 65.4994 3.64181 68.2403C4.77713 70.9811 6.69972 73.3238 9.16645 74.972C11.6332 76.6203 14.5333 77.5 17.5 77.5C21.4769 77.4955 25.2896 75.9137 28.1016 73.1016C30.9137 70.2896 32.4955 66.4769 32.5 62.5ZM30 62.5C30.0025 64.5127 29.5159 66.4959 28.5822 68.2789L11.7212 51.4178C13.6262 50.4237 15.7553 49.9376 17.903 50.0064C20.0507 50.0752 22.1444 50.6967 23.9819 51.8107C25.8193 52.9247 27.3385 54.4937 28.3927 56.3662C29.4469 58.2386 30.0005 60.3512 30 62.5ZM25.4068 72.1747L14.6339 61.4017L12.8661 63.1694L23.2789 73.5822C20.9207 74.8127 18.2314 75.2588 15.6023 74.8555C12.9731 74.4521 10.5412 73.2204 8.66039 71.3396C6.77956 69.4587 5.54789 67.0268 5.14458 64.3977C4.74127 61.7685 5.18734 59.0793 6.41791 56.7211L10.5807 60.8839L12.3484 59.1161L7.82535 54.5931C8.35463 53.9468 8.94682 53.3546 9.59319 52.8253L27.1747 70.4068C26.6454 71.0532 26.0532 71.6454 25.4068 72.1747Z" fill="#3C3C3B"/>
</g>
<defs>
<clipPath id="clip0_1779_50350">
<rect width="80" height="80" fill="white"/>
</clipPath>
</defs>
</svg>
