<svg width="80" height="80" viewBox="0 0 80 80" fill="none" xmlns="http://www.w3.org/2000/svg">
<g clip-path="url(#clip0_1779_49996)">
<g clip-path="url(#clip1_1779_49996)">
<path d="M25.6097 45.3381C25.8828 45.8421 26.4101 46.156 26.9834 46.156H38.4555C39.3183 46.156 40.018 45.4563 40.018 44.5935C40.018 43.7307 39.3183 43.031 38.4555 43.031H29.8664L39.4975 28.2499C39.8106 27.7696 39.8353 27.1565 39.5622 26.6524C39.289 26.1484 38.7617 25.8345 38.1884 25.8345H27.3362C26.4734 25.8345 25.7737 26.5342 25.7737 27.397C25.7737 28.2598 26.4734 28.9595 27.3362 28.9595H35.3055L25.6744 43.7406C25.3612 44.2209 25.3366 44.834 25.6097 45.3381Z" fill="#3C3C3B"/>
<path d="M53.4434 46.0995C54.3062 46.0995 55.0059 45.3999 55.006 44.5371L55.007 37.5743C55.0071 36.0476 54.4127 34.6121 53.3332 33.5324C52.2537 32.4529 50.8184 31.8582 49.2916 31.8582C48.3544 31.8582 47.4701 32.0863 46.6888 32.4879C46.5957 31.7138 45.9377 31.1135 45.1387 31.1135C44.2759 31.1135 43.5762 31.8132 43.5762 32.676V44.5935C43.5762 45.4563 44.2759 46.156 45.1387 46.156C46.0015 46.156 46.7012 45.4563 46.7012 44.5935V37.5735C46.7012 36.1451 47.8634 34.9832 49.2916 34.9832C49.9837 34.9832 50.6341 35.2527 51.1235 35.742C51.6127 36.2313 51.8821 36.882 51.882 37.574L51.881 44.5368C51.8809 45.3996 52.5804 46.0993 53.4434 46.0995Z" fill="#3C3C3B"/>
<path d="M58.6106 54.5635C58.1794 53.8163 57.2241 53.5596 56.4764 53.9911L38.7994 64.1907L28.9678 58.5172V54.1699C28.9678 53.6117 28.67 53.0958 28.1866 52.8168L16.0466 45.8074V24.796L38.7994 11.6575L61.5539 24.796V45.0133C61.5539 45.8761 62.2536 46.5758 63.1164 46.5758C63.9792 46.5758 64.6789 45.8761 64.6789 45.0133V23.8938C64.6789 23.3357 64.3811 22.8197 63.8977 22.5407L39.5806 8.50019C39.0972 8.22097 38.5017 8.22097 38.018 8.50019L13.7027 22.5407C13.2192 22.8199 12.9216 23.3357 12.9216 23.8938V45.8071L0.78125 52.8168C0.297812 53.0958 0 53.6117 0 54.1699V69.0863C0 69.6447 0.297969 70.1607 0.781719 70.4397L13.703 77.8946C14.1811 78.1703 14.7864 78.1703 15.2645 77.8946L28.1856 70.4397C28.6694 70.1607 28.9673 69.6446 28.9673 69.0863V62.1249L38.0184 67.348C38.4967 67.6239 39.102 67.6239 39.5803 67.348L58.0383 56.6977C58.7858 56.2664 59.042 55.311 58.6106 54.5635ZM25.8425 68.1838L14.4839 74.7371L3.125 68.1838V55.0719L14.4837 48.5135L25.8423 55.0719L25.8425 68.1838Z" fill="#3C3C3B"/>
<path d="M79.2189 6.42254L71.7466 2.10785C71.2632 1.82863 70.6677 1.82863 70.1839 2.10785L62.7118 6.42254C62.2283 6.70176 61.9307 7.21754 61.9307 7.77566V16.4016C61.9307 16.96 62.2286 17.476 62.7124 17.755L70.1846 22.0661C70.663 22.3421 71.2677 22.3421 71.7461 22.0661L79.2185 17.755C79.7022 17.476 80.0002 16.96 80.0002 16.4016V7.77566C80.0002 7.21754 79.7024 6.7016 79.2189 6.42254ZM76.8752 15.4993L70.9653 18.9088L65.0557 15.4993V8.67785L70.9653 5.26535L76.8752 8.67785V15.4993Z" fill="#3C3C3B"/>
<path d="M69.1662 62.7031L64.041 59.7438C63.5576 59.4646 62.9621 59.4646 62.4784 59.7438L57.3534 62.7031C56.8701 62.9821 56.5723 63.4981 56.5723 64.0562V69.9724C56.5723 70.5309 56.8702 71.0468 57.354 71.3259L62.479 74.2827C62.9571 74.5585 63.5624 74.5585 64.0405 74.2827L69.1657 71.3259C69.6495 71.0468 69.9474 70.5309 69.9474 69.9724V64.0562C69.9474 63.4981 69.6496 62.9821 69.1662 62.7031ZM66.8224 69.0701L63.2598 71.1254L59.6973 69.0701V64.9584L63.2598 62.9012L66.8224 64.9584V69.0701Z" fill="#3C3C3B"/>
<path d="M33.9883 55.3242H42.7058C43.5686 55.3242 44.2683 54.6245 44.2683 53.7617C44.2683 52.8989 43.5686 52.1992 42.7058 52.1992H33.9883C33.1255 52.1992 32.4258 52.8989 32.4258 53.7617C32.4258 54.6245 33.1255 55.3242 33.9883 55.3242Z" fill="#3C3C3B"/>
<path d="M40.2154 20.5178C41.0782 20.5178 41.7779 19.8181 41.7779 18.9553C41.7779 18.0925 41.0782 17.3928 40.2154 17.3928H36.6572C35.7944 17.3928 35.0947 18.0925 35.0947 18.9553C35.0947 19.8181 35.7944 20.5178 36.6572 20.5178H40.2154Z" fill="#3C3C3B"/>
<path d="M64.4155 51.0963C63.6475 49.9245 61.7747 50.357 61.5711 51.7343C61.3646 53.1314 63.0436 54.0579 64.1205 53.1604C64.7239 52.6576 64.8506 51.7485 64.4155 51.0963Z" fill="#3C3C3B"/>
</g>
</g>
<defs>
<clipPath id="clip0_1779_49996">
<rect width="80" height="80" fill="white"/>
</clipPath>
<clipPath id="clip1_1779_49996">
<rect width="80" height="80" fill="white"/>
</clipPath>
</defs>
</svg>
